<?xml version="1.0" encoding="utf-8"?>
<!-- Generator: Adobe Illustrator 17.1.0, SVG Export Plug-In . SVG Version: 6.00 Build 0)  -->
<!DOCTYPE svg PUBLIC "-//W3C//DTD SVG 1.1//EN" "http://www.w3.org/Graphics/SVG/1.1/DTD/svg11.dtd">
<svg version="1.1" id="Layer_1" xmlns="http://www.w3.org/2000/svg" xmlns:xlink="http://www.w3.org/1999/xlink" x="0px" y="0px"
	 viewBox="0 0 208 120" enable-background="new 0 0 208 120" xml:space="preserve">
<g id="Layer_2" display="none">
	<rect display="inline" fill="#59C8E8" width="300" height="120"/>
</g>
<g id="Layer_1_1_">
	<g>
		<path fill="#FFFFFF" d="M98,86.4L98,86.4L98,86.4z"/>
		<path fill="#FFFFFF" d="M91,67l-1.1-40.5c0-1.2-1-2.2-2.2-2.2s-2.2,1-2.2,2.2l-1,40.5l1,19.5c0,1.2,1,2.2,2.2,2.2s2.2-1,2.2-2.2
			l0,0L91,67z"/>
		<path fill="#FFFFFF" d="M83,67l-1.2-42c0-1.2-0.9-2.1-2.1-2.1c-1.1,0-2.1,0.9-2.1,2.1l-1.1,42l1.1,19.6c0,1.2,0.9,2.1,2.1,2.1
			c1.1,0,2-0.9,2.1-2.1l0,0L83,67z"/>
		<polygon fill="#FFFFFF" points="98,86.3 98,86.3 98,86.3 		"/>
		<polygon fill="#FFFFFF" points="98,86.3 98,86.4 98,86.4 		"/>
		<path fill="#FFFFFF" d="M65.7,86.9L65.7,86.9L65.7,86.9z"/>
		<path fill="#FFFFFF" d="M65.7,25.3c0-1-0.8-1.7-1.8-1.7s-1.7,0.8-1.8,1.7L60.8,67l1.3,19.9c0,1,0.8,1.7,1.8,1.7
			c0.9,0,1.7-0.8,1.8-1.7L67.2,67L65.7,25.3z"/>
		<path fill="#FFFFFF" d="M73.7,86.8L73.7,86.8L73.7,86.8z"/>
		<path fill="#FFFFFF" d="M73.7,23.9c0-1.1-0.9-1.9-1.9-1.9s-1.9,0.8-1.9,1.9L68.7,67l1.2,19.8c0,1.1,0.9,1.9,1.9,1.9
			s1.9-0.8,1.9-1.9L75,67L73.7,23.9z"/>
		<path fill="#FFFFFF" d="M33.4,88.1c0.6,0,1.1-0.5,1.1-1.1l1.9-20l-1.9-20.7c-0.1-0.6-0.5-1.1-1.1-1.1s-1.1,0.5-1.1,1.1L30.6,67
			l1.7,20.1C32.3,87.7,32.8,88.1,33.4,88.1z"/>
		<path fill="#FFFFFF" d="M99,67l-1-48.1c0-0.8-0.4-1.6-1.1-2c-0.4-0.3-0.8-0.4-1.3-0.4s-0.9,0.1-1.3,0.4c-0.7,0.4-1.1,1.2-1.1,2
			v0.5L92.3,67l0.9,19.4v0.1c0,0.5,0.2,1,0.6,1.4c0.4,0.5,1.1,0.9,1.8,0.9s1.2-0.3,1.7-0.7c0.4-0.4,0.7-1,0.7-1.7l0.1-1.9L99,67z"/>
		<path fill="#FFFFFF" d="M42.2,47.7c0-0.7-0.6-1.2-1.3-1.2c-0.7,0-1.2,0.5-1.3,1.3L38.1,67l1.6,20.2c0,0.7,0.6,1.3,1.3,1.3
			c0.7,0,1.2-0.5,1.3-1.3L44,67L42.2,47.7z"/>
		<path fill="#FFFFFF" d="M48.6,34.3c-0.8,0-1.4,0.6-1.4,1.4L45.7,67l1.5,20.2c0,0.8,0.7,1.4,1.4,1.4c0.8,0,1.4-0.6,1.4-1.4l0,0
			L51.7,67L50,35.7C49.9,34.9,49.3,34.3,48.6,34.3z"/>
		<path fill="#FFFFFF" d="M57.7,87.2L57.7,87.2l1.6-20.1l-1.6-38.5c0-0.9-0.7-1.6-1.6-1.6s-1.6,0.7-1.6,1.6l-1.4,38.5l1.4,20.1
			c0,0.9,0.7,1.6,1.6,1.6C57,88.8,57.7,88.1,57.7,87.2z"/>
		<path fill="#FFFFFF" d="M42.2,87.2L42.2,87.2L42.2,87.2z"/>
		<path fill="#FFFFFF" d="M104.9,12.3c-0.4-0.2-0.8-0.4-1.3-0.4c-0.6,0-1.2,0.2-1.6,0.6c-0.6,0.5-0.9,1.2-0.9,2v0.3l-1,52.2l0.5,9.7
			l0.5,9.4c0,1.4,1.2,2.5,2.6,2.5c1.4,0,2.5-1.1,2.6-2.6l0,0l0,0l1.1-19.1l0,0l-1.1-52.5C106.1,13.6,105.6,12.8,104.9,12.3z"/>
		<path fill="#FFFFFF" d="M11.4,78.1c0.4,0,0.7-0.3,0.8-0.7L13.8,67l-1.6-10.5c-0.1-0.4-0.4-0.7-0.8-0.7c-0.4,0-0.7,0.3-0.8,0.7
			L9.3,67l1.4,10.3C10.7,77.8,11,78.1,11.4,78.1z"/>
		<path fill="#FFFFFF" d="M18.4,84.4c0.4,0,0.7-0.3,0.8-0.8L21.3,67l-2.1-17c-0.1-0.5-0.4-0.8-0.8-0.8s-0.7,0.3-0.8,0.8l-1.9,17
			l1.9,16.6C17.7,84.1,18,84.4,18.4,84.4z"/>
		<path fill="#FFFFFF" d="M25.9,87.4c0.5,0,0.9-0.4,0.9-0.9l2-19.5l-2-20.2c-0.1-0.5-0.5-0.9-0.9-0.9c-0.5,0-0.9,0.4-1,0.9L23.1,67
			l1.8,19.5C25,87,25.4,87.4,25.9,87.4z"/>
		<path fill="#FFFFFF" d="M175.4,42.2c-3.2,0-6.2,0.6-9,1.8c-1.9-21-19.5-37.5-41-37.5c-5.3,0-10.4,1-14.9,2.8
			c-1.8,0.7-2.2,1.4-2.2,2.7v74c0,1.4,1.1,2.5,2.5,2.7c0.1,0,64.6,0,64.6,0c12.9,0,23.3-10.3,23.3-23.2S188.3,42.2,175.4,42.2z"/>
		<path fill="#FFFFFF" d="M27.9,102.7c-2.7-0.6-3.5-1-3.5-2.1c0-0.8,0.6-1.6,2.5-1.6c1.6,0,2.8,0.6,3.9,1.8l2.5-2.4
			c-1.6-1.7-3.6-2.7-6.3-2.7c-3.4,0-6.2,1.9-6.2,5c0,3.4,2.2,4.4,5.4,5.1c3.2,0.7,3.8,1.2,3.8,2.3c0,1.3-1,1.9-3,1.9
			c-1.6,0-3.2-0.6-4.4-2l-2.5,2.2c1.3,1.9,3.8,3.1,6.7,3.1c4.7,0,6.8-2.2,6.8-5.5C33.6,104.3,30.6,103.3,27.9,102.7z M43.7,95.7
			c-4.7,0-7.5,3.6-7.5,8.9c0,5.2,2.8,8.9,7.5,8.9s7.5-3.6,7.5-8.9C51.2,99.4,48.4,95.7,43.7,95.7z M43.7,110.1
			c-2.8,0-3.9-2.4-3.9-5.5s1.2-5.5,3.9-5.5c2.8,0,3.9,2.4,3.9,5.5C47.7,107.7,46.5,110.1,43.7,110.1z M65.1,105.7
			c0,2.8-1.4,4.5-3.5,4.5c-2.2,0-3.5-1.7-3.5-4.5V96h-3.4v9.7c0,5,2.8,7.8,7,7.8c4.4,0,7-2.9,7-7.9V96h-3.4v9.7H65.1z M83.4,103.3
			c0,1,0,3.1,0,3.8c-0.2-0.4-0.8-1.3-1.2-1.9l-6.1-9.1h-3.3v17.2h3.4v-7.6c0-1-0.1-3.1-0.1-3.8c0.2,0.4,0.8,1.3,1.2,1.9l6.3,9.4h3.1
			V96h-3.4L83.4,103.3L83.4,103.3z M96.6,96h-5.4v17.2h5.1c4.4,0,8.8-2.6,8.8-8.6C105.2,98.3,101.6,96,96.6,96z M96.4,109.9h-1.7
			V99.3h1.8c3.6,0,5.1,1.7,5.1,5.3C101.7,107.8,100,109.9,96.4,109.9z M115.9,99.2c1.6,0,2.5,0.7,3.2,1.9l3.2-1.5
			c-1.1-2.2-3.1-3.8-6.3-3.8c-4.5,0-7.7,3.6-7.7,8.9c0,5.4,3,8.9,7.5,8.9c3.1,0,5.2-1.5,6.4-3.9l-2.9-1.7c-0.9,1.5-1.8,2.2-3.4,2.2
			c-2.6,0-4.1-2.4-4.1-5.5C111.8,101.4,113.3,99.2,115.9,99.2z M128.7,96h-3.4v17.2h10.4v-3.4h-6.9V96H128.7z M144.6,95.7
			c-4.7,0-7.5,3.6-7.5,8.9c0,5.2,2.8,8.9,7.5,8.9s7.5-3.6,7.5-8.9C152.1,99.4,149.3,95.7,144.6,95.7z M144.6,110.1
			c-2.8,0-3.9-2.4-3.9-5.5s1.2-5.5,3.9-5.5c2.8,0,3.9,2.4,3.9,5.5C148.6,107.7,147.4,110.1,144.6,110.1z M166,105.7
			c0,2.8-1.3,4.5-3.5,4.5s-3.5-1.7-3.5-4.5V96h-3.4v9.7c0,5,2.8,7.8,7,7.8c4.4,0,7-2.9,7-7.9V96H166V105.7z M179.2,96h-5.4v17.2h5.1
			c4.4,0,8.8-2.6,8.8-8.6C187.8,98.3,184.1,96,179.2,96z M178.9,109.9h-1.7V99.3h1.8c3.6,0,5.1,1.7,5.1,5.3
			C184.2,107.8,182.6,109.9,178.9,109.9z"/>
	</g>
</g>
</svg>
