<?xml version="1.0" encoding="utf-8"?>
<!-- Generator: Adobe Illustrator 17.1.0, SVG Export Plug-In . SVG Version: 6.00 Build 0)  -->
<!DOCTYPE svg PUBLIC "-//W3C//DTD SVG 1.1//EN" "http://www.w3.org/Graphics/SVG/1.1/DTD/svg11.dtd">
<svg version="1.1" xmlns="http://www.w3.org/2000/svg" xmlns:xlink="http://www.w3.org/1999/xlink" x="0px" y="0px"
	 viewBox="0 0 300 120" enable-background="new 0 0 300 120" xml:space="preserve">
<g id="Layer_2" display="none">
	<rect display="inline" fill="#59C8E8" width="300" height="120"/>
</g>
<g id="Layer_1">
	<g>
		<path fill-rule="evenodd" clip-rule="evenodd" fill="#FFFFFF" d="M57.3,27h16.5c2.3,0,4.1,1.8,4.1,4.1v8.2c0,2.3-1.8,4.1-4.1,4.1
			H57.3c-2.3,0-4.1-1.8-4.1-4.1v-8.2C53.2,28.9,55.1,27,57.3,27z"/>
		<path fill-rule="evenodd" clip-rule="evenodd" fill="#FFFFFF" d="M36.7,39.4h16.5c2.3,0,4.1,1.8,4.1,4.1v8.2
			c0,2.3-1.8,4.1-4.1,4.1H36.7c-2.3,0-4.1-1.8-4.1-4.1v-8.2C32.6,41.2,34.4,39.4,36.7,39.4z"/>
		<path fill-rule="evenodd" clip-rule="evenodd" fill="#FFFFFF" d="M16.1,51.8h16.5c2.3,0,4.1,1.8,4.1,4.1v8.2
			c0,2.3-1.8,4.1-4.1,4.1H16.1c-2.3,0-4.1-1.8-4.1-4.1v-8.2C12,53.6,13.8,51.8,16.1,51.8z"/>
		<path fill-rule="evenodd" clip-rule="evenodd" fill="#FFFFFF" d="M57.3,51.8h16.5c2.3,0,4.1,1.8,4.1,4.1v8.2
			c0,2.3-1.8,4.1-4.1,4.1H57.3c-2.3,0-4.1-1.8-4.1-4.1v-8.2C53.2,53.6,55.1,51.8,57.3,51.8z"/>
		<path fill-rule="evenodd" clip-rule="evenodd" fill="#FFFFFF" d="M36.7,64.1h16.5c2.3,0,4.1,1.8,4.1,4.1v8.2
			c0,2.3-1.8,4.1-4.1,4.1H36.7c-2.3,0-4.1-1.8-4.1-4.1v-8.2C32.6,66,34.4,64.1,36.7,64.1z"/>
		<path fill-rule="evenodd" clip-rule="evenodd" fill="#FFFFFF" d="M16.1,76.5h16.5c2.3,0,4.1,1.8,4.1,4.1v8.2
			c0,2.3-1.8,4.1-4.1,4.1H16.1c-2.3,0-4.1-1.8-4.1-4.1v-8.2C12,78.3,13.8,76.5,16.1,76.5z"/>
		<path fill="#FFFFFF" d="M92.5,37.6v5.8h9.8v26.9h6.9V43.4h9.8v-5.8H92.5z"/>
		<path fill="#FFFFFF" d="M120.5,80c0.7,0,1.2,0.1,1.5,0.1c0.3,0,0.8,0,1.4,0c2.8,0,4.7-0.5,5.6-1.7c0.9-1.1,2.2-3.9,3.8-8.5
			l8.3-23.7h-6.7l-5,17.8l-5.3-17.8h-7l8.9,25.2c0,0.2-0.1,0.7-0.4,1.5c-0.3,0.8-0.7,1.3-1,1.6c-0.4,0.3-0.9,0.4-1.4,0.5
			c-0.6,0.1-1.2,0.1-1.8,0.1l-0.8,0V80z"/>
		<path fill="#FFFFFF" d="M162,58.2c0,2.3-0.5,4.1-1.4,5.4c-0.9,1.4-2.3,2-4.1,2c-1.2,0-2.3-0.3-3.2-1c-1.5-1.1-2.3-3.1-2.3-5.9
			c0-1.8,0.2-3.2,0.7-4.4c0.9-2.2,2.5-3.3,4.8-3.3c1.9,0,3.3,0.7,4.2,2.1C161.5,54.7,162,56.4,162,58.2L162,58.2z M158.3,45.6
			c-1.9,0-3.6,0.5-5,1.6c-0.8,0.6-1.5,1.4-2.2,2.5v-3.6h-6v33.6h6.2V67.2c0.7,1,1.4,1.8,2,2.3c1.3,1,2.9,1.4,4.8,1.4
			c3,0,5.5-1.1,7.4-3.3c1.9-2.2,2.9-5.5,2.9-9.7c0-4-1-7.1-3-9.2C163.6,46.7,161.2,45.6,158.3,45.6L158.3,45.6z"/>
		<path fill="#FFFFFF" d="M183.4,50.7c1.5,0,2.7,0.4,3.7,1.3c1,0.9,1.6,2.1,1.7,3.8H178c0.2-1.6,0.8-2.8,1.7-3.7
			C180.6,51.2,181.8,50.7,183.4,50.7L183.4,50.7z M183.4,45.5c-3.5,0-6.4,1.1-8.6,3.3c-2.2,2.2-3.3,5.4-3.3,9.6
			c0,4.5,1.2,7.7,3.7,9.7c2.5,2,5.3,3,8.5,3c3.9,0,6.9-1.2,9.1-3.5c1.4-1.5,2.2-2.9,2.3-4.4h-6.4c-0.4,0.7-0.8,1.3-1.3,1.7
			c-0.9,0.7-2.1,1.1-3.5,1.1c-1.4,0-2.5-0.3-3.5-0.9c-1.6-1-2.4-2.7-2.5-5.1h17.6c0-2.1,0-3.7-0.2-4.8c-0.3-1.9-0.9-3.6-1.9-5
			c-1.1-1.6-2.5-2.8-4.2-3.6C187.4,45.9,185.5,45.5,183.4,45.5L183.4,45.5z"/>
		<path fill="#FFFFFF" d="M197.6,62.6c0,2.5,0.9,4.5,2.7,6.1c1.8,1.6,4.6,2.4,8.4,2.4c3.7,0,6.5-0.8,8.3-2.3
			c1.8-1.5,2.7-3.5,2.7-5.9c0-1.8-0.6-3.3-1.9-4.5c-1.3-1.2-3.1-2.1-5.7-2.7c-3.8-0.8-6-1.4-6.6-1.7c-0.6-0.3-0.9-0.8-0.9-1.6
			c0-0.6,0.3-1.1,0.9-1.5c0.6-0.4,1.6-0.6,2.9-0.6c1.7,0,2.9,0.4,3.6,1.3c0.4,0.5,0.6,1.1,0.7,1.9h6.3c-0.3-3-1.4-5-3.3-6.2
			c-1.9-1.2-4.4-1.8-7.4-1.8c-3.2,0-5.6,0.8-7.4,2.4c-1.8,1.6-2.6,3.5-2.6,5.7c0,1.9,0.6,3.3,1.7,4.3c1.1,1,3.1,1.9,5.8,2.5
			c3.8,0.9,6,1.5,6.6,1.9c0.6,0.4,0.9,0.9,0.9,1.6c0,0.7-0.4,1.3-1.1,1.7c-0.7,0.4-1.7,0.6-3,0.6c-2.1,0-3.6-0.4-4.4-1.3
			c-0.4-0.5-0.7-1.3-0.9-2.4H197.6z"/>
		<path fill="#FFFFFF" d="M238.2,60.9c0,2.1-0.6,3.6-1.8,4.4c-1.2,0.8-2.4,1.2-3.8,1.2c-0.9,0-1.6-0.2-2.2-0.7
			c-0.6-0.5-0.9-1.3-0.9-2.3c0-1.2,0.5-2.1,1.5-2.7c0.6-0.3,1.6-0.6,2.9-0.9l1.4-0.3c0.7-0.1,1.3-0.3,1.7-0.4
			c0.4-0.2,0.8-0.4,1.2-0.6V60.9z M232.1,55.9c-2.5,0.3-4.3,0.8-5.6,1.6c-2.3,1.3-3.5,3.5-3.5,6.4c0,2.3,0.7,4.1,2.1,5.3
			c1.4,1.2,3.2,1.9,5.4,1.9c1.7,0,3.3-0.4,4.6-1.2c1.1-0.7,2.2-1.5,3-2.4c0,0.5,0.1,1,0.2,1.5c0.1,0.4,0.2,0.9,0.4,1.4h6.9v-0.9
			c-0.4-0.2-0.7-0.4-0.9-0.7c-0.2-0.3-0.3-0.9-0.4-1.7c0-1.1,0-2,0-2.8V53.1c0-2.9-1-4.9-3.1-5.9c-2.1-1-4.4-1.6-7.1-1.6
			c-4.1,0-7,1.1-8.6,3.2c-1.1,1.4-1.6,3.1-1.8,5.2h6.1c0.1-0.9,0.4-1.7,0.9-2.2c0.6-0.7,1.7-1.1,3.2-1.1c1.3,0,2.4,0.2,3.1,0.6
			c0.7,0.4,1,1.1,1,2c0,0.8-0.5,1.4-1.4,1.8c-0.5,0.2-1.3,0.4-2.5,0.6L232.1,55.9z"/>
		<path fill="#FFFFFF" d="M259.3,37.3c-3.5,0-5.7,0.7-6.6,2.2c-0.9,1-1.3,2.8-1.3,5.3v1.6H248v4.5h3.5v19.5h6.3V50.8h4.1v-4.5h-4.1
			c0-0.9,0-1.6,0-2c0-0.5,0.2-0.9,0.5-1.3c0.3-0.4,0.9-0.6,1.7-0.6c0.8,0,1.4,0.1,1.8,0.1v-5.1c-0.6,0-1-0.1-1.3-0.1
			C260.1,37.3,259.7,37.3,259.3,37.3L259.3,37.3z"/>
		<path fill="#FFFFFF" d="M276,50.7c1.5,0,2.7,0.4,3.7,1.3c1,0.9,1.6,2.1,1.7,3.8h-10.9c0.2-1.6,0.8-2.8,1.7-3.7
			C273.2,51.2,274.4,50.7,276,50.7L276,50.7z M276,45.5c-3.5,0-6.4,1.1-8.6,3.3c-2.2,2.2-3.3,5.4-3.3,9.6c0,4.5,1.2,7.7,3.7,9.7
			c2.5,2,5.3,3,8.5,3c3.9,0,6.9-1.2,9.1-3.5c1.4-1.5,2.2-2.9,2.3-4.4h-6.4c-0.4,0.7-0.8,1.3-1.3,1.7c-0.9,0.7-2.1,1.1-3.5,1.1
			c-1.4,0-2.5-0.3-3.5-0.9c-1.6-1-2.4-2.7-2.5-5.1H288c0-2.1,0-3.7-0.2-4.8c-0.3-1.9-0.9-3.6-1.9-5c-1.1-1.6-2.5-2.8-4.2-3.6
			C280,45.9,278.1,45.5,276,45.5L276,45.5z"/>
	</g>
</g>
</svg>
