<?xml version="1.0" encoding="utf-8"?>
<!-- Generator: Adobe Illustrator 17.1.0, SVG Export Plug-In . SVG Version: 6.00 Build 0)  -->
<!DOCTYPE svg PUBLIC "-//W3C//DTD SVG 1.1//EN" "http://www.w3.org/Graphics/SVG/1.1/DTD/svg11.dtd">
<svg version="1.1" id="Layer_1" xmlns="http://www.w3.org/2000/svg" xmlns:xlink="http://www.w3.org/1999/xlink" x="0px" y="0px"
	 viewBox="0 0 261 120" enable-background="new 0 0 261 120" xml:space="preserve">
<g id="Layer_2" display="none">
	<rect x="1" display="inline" fill="#59C8E8" width="300" height="120"/>
</g>
<g id="Layer_1_1_">
	<g>
		<path fill="#FFFFFF" d="M42,96.8c-0.2,0.7-0.7,1.1-1.7,1.1H35c-0.9,0-1.3-0.2-1.5-1.1l-5-18.6c-0.5-1.9-0.7-4.1-1-6.3
			c-0.2,2.2-0.5,4.4-1,6.3l-5,18.6c-0.1,0.7-0.7,1.1-1.7,1.1h-5.3c-0.9,0-1.3-0.2-1.5-1.1L5.8,70c-0.2-0.9,0.4-1.5,1.2-1.5h3.4
			c0.9,0,1.4,0.3,1.7,1.2l4.6,19.1c0.5,2.2,0.6,4.4,0.9,6.5c0.4-2,0.6-4.4,1.2-6.4l5.1-19.2c0.2-0.8,0.9-1.2,1.7-1.2h4.2
			c0.9,0,1.6,0.4,1.8,1.2l5.2,19.2c0.6,2.1,0.9,4.4,1.2,6.4c0.3-2,0.6-4.4,1-6.4l4.3-19.2c0.1-0.8,0.9-1.2,1.7-1.2h3.2
			c0.8,0,1.4,0.5,1.2,1.4L42,96.8z"/>
		<path fill="#FFFFFF" d="M70.3,98.2c-8.4,0-13.9-5.8-13.9-15.1s5.5-15,13.9-15S84,73.8,84,83.1S78.6,98.2,70.3,98.2z M70.1,72.2
			c-5,0-7.7,3.6-7.7,10.9c0,7.5,2.7,11.1,7.7,11.1s7.7-3.6,7.7-11.1C77.8,75.7,75.1,72.2,70.1,72.2z"/>
		<path fill="#FFFFFF" d="M110.9,72.7c-0.2,0.9-0.9,1.4-2.1,1.1c-1-0.2-2.7-0.7-4-0.7c-2.1,0-4.9,2.4-4.9,7.7v15.9
			c0,0.7-0.7,1.2-1.5,1.2h-2.7c-0.8,0-1.5-0.5-1.5-1.2V69.8c0-0.7,0.7-1.2,1.5-1.2h1.7c0.7,0,1.3,0.3,1.5,0.9l1,3.3
			c2-2.9,4.8-4.7,8.1-4.7c2.3,0,4.1,0.9,3.8,2.1L110.9,72.7z"/>
		<path fill="#FFFFFF" d="M176.9,97.6h-1.5c-1.1,0-1.7-0.4-1.9-1.2l-0.6-2.4c-2.1,3-4.7,4.1-8.4,4.1c-7.4,0-11.3-5.1-11.3-14.9
			c0-6,1-9,3.5-11.8c1.9-2.1,5-3.3,8.1-3.3c3.5,0,6.2,1.5,8.1,4.3V55.9c0-0.7,0.7-1.2,1.5-1.2h2.6c0.8,0,1.5,0.5,1.5,1.2v40.5
			C178.4,97.1,177.7,97.6,176.9,97.6z M165.9,72.1c-2.2,0-3.8,0.8-4.8,2.4s-1.8,4.2-1.8,8.6c0,7.8,2,11,6.6,11
			c4.7,0,7.1-3.5,7.1-10.9C172.9,76,170.3,72.1,165.9,72.1z"/>
		<path fill="#FFFFFF" d="M144.1,97.9h-4.4c-0.7,0-1.3-0.4-1.7-1l-11.1-14.1v13.9c0,0.7-0.7,1.2-1.5,1.2h-2.6
			c-0.8,0-1.5-0.5-1.5-1.2V56c0-0.7,0.7-1.2,1.5-1.2h2.6c0.8,0,1.5,0.5,1.5,1.2v26.2l11.5-12.7c0.4-0.5,0.9-0.9,1.9-0.9h3.9
			c1,0,1.4,0.9,0.8,1.5l-12.2,12.2L145,96.5C145.4,97,145.1,97.9,144.1,97.9z"/>
		<path fill="#FFFFFF" d="M220.9,69.8c-0.3-0.7,0.5-1.2,1.3-1.2h3.4c0.9,0,1.6,0.4,1.9,1.2l6.7,17.7c0.3,0.8,0.6,2.1,0.8,3.1
			c0.2-0.9,0.7-2.6,1.2-4.1l5.4-16.7c0.2-0.8,0.9-1.1,1.8-1.1h3.3c0.8,0,1.5,0.5,1.3,1.2L236.8,102c-1.1,3.3-3.4,5.9-7.2,7.3
			l-1.6,0.6c-0.7,0.2-1.6,0.1-2-0.5l-1.1-1.7c-0.3-0.5,0.1-1.4,0.8-1.7l1.1-0.4c2.9-1,4.9-4.1,5.8-8.1L220.9,69.8z"/>
		<g>
			<g>
				<path fill="#FFFFFF" d="M131.2,16c-0.2,0.1-0.6,0.2-1.1,0.2c-1.1,0-2-0.7-2-2s0.9-2.1,2.1-2.1c0.5,0,0.8,0.1,1,0.2l-0.1,0.4
					c-0.2-0.1-0.5-0.2-0.8-0.2c-0.9,0-1.6,0.6-1.6,1.7c0,1,0.6,1.6,1.5,1.6c0.3,0,0.6-0.1,0.8-0.2L131.2,16z"/>
				<path fill="#FFFFFF" d="M135.2,14.3c0-0.6-0.1-1.2-0.1-1.7l0,0c-0.1,0.5-0.3,1-0.5,1.5l-0.7,1.9h-0.4l-0.6-1.9
					c-0.2-0.6-0.4-1.1-0.5-1.6l0,0c0,0.5,0,1.2-0.1,1.8l-0.1,1.7h-0.5l0.3-4h0.7l0.7,1.9c0.2,0.5,0.3,0.9,0.4,1.4l0,0
					c0.1-0.4,0.2-0.8,0.4-1.4l0.7-1.9h0.7l0.3,4h-0.5L135.2,14.3z"/>
				<path fill="#FFFFFF" d="M137.5,16.1v-1.7l-1.3-2.3h0.6l0.6,1.1c0.2,0.3,0.3,0.5,0.4,0.8l0,0c0.1-0.3,0.3-0.5,0.4-0.8l0.6-1.1
					h0.6l-1.3,2.3v1.7H137.5z"/>
				<path fill="#FFFFFF" d="M139.8,12.1h0.5V14l0,0c0.1-0.2,0.2-0.3,0.3-0.4l1.2-1.5h0.6l-1.5,1.7l1.6,2.3H142l-1.3-2l-0.4,0.4V16
					h-0.5V12.1z"/>
			</g>
			<path fill="#FFFFFF" d="M77.6,55.9c9.6-22.4,31.8-38.2,57.8-38.2c25.9,0,48.2,15.7,57.8,38.2l0,0c0.6,1.5,2,2.6,3.7,2.6
				c2.2,0,4-1.8,4-4c0-0.5-0.1-1-0.3-1.5l0,0c-10.8-25.2-36-43-65.2-43S81,27.7,70.2,53C70,53.5,70,54,70,54.6c0,2.2,1.8,4,4,4
				C75.6,58.5,77,57.5,77.6,55.9z"/>
		</g>
		<path fill="#FFFFFF" d="M201.6,68.1c-8.4,0-13.3,5.7-13.3,15c0,9.4,5,15,12.9,15l0,0c3.4,0,5.5-1.2,7.6-4.2l0.6,2.5
			c0.2,0.9,0.8,1.2,1.9,1.2h1.5c0.8,0,1.5-0.5,1.5-1.2V83l0,0C214.3,73.7,210,68.1,201.6,68.1z M201.4,94c-5,0-7.1-3.5-7.1-11
			c0-7.3,2.2-10.9,7.1-10.9c5,0,7.3,3.6,7.3,10.9C208.8,90.6,206.4,94,201.4,94z"/>
		<g>
			<path fill="#FFFFFF" d="M251.8,90.1c0.5,0.2,0.9,0.5,1.3,0.9s0.6,0.8,0.8,1.3c0.2,0.5,0.3,1,0.3,1.5s-0.1,1-0.3,1.5
				c-0.2,0.5-0.5,0.9-0.9,1.3s-0.8,0.7-1.3,0.9c-0.5,0.2-1,0.3-1.5,0.3s-1-0.1-1.5-0.3c-0.5-0.2-0.9-0.5-1.3-0.9s-0.6-0.8-0.8-1.3
				c-0.2-0.5-0.3-1-0.3-1.5c0-0.4,0.1-0.7,0.1-1.1c0.1-0.3,0.2-0.7,0.4-1c0.4-0.6,0.8-1.1,1.4-1.4s1.2-0.5,1.9-0.5
				S251.4,89.9,251.8,90.1z M249.1,90.7c-0.4,0.2-0.7,0.4-1,0.7c-0.3,0.3-0.6,0.7-0.7,1.1c-0.2,0.4-0.3,0.8-0.3,1.3
				c0,0.4,0.1,0.9,0.2,1.2c0.2,0.4,0.4,0.7,0.7,1c0.3,0.3,0.7,0.6,1.1,0.7c0.4,0.2,0.8,0.3,1.3,0.3c0.4,0,0.8-0.1,1.2-0.2
				c0.4-0.2,0.8-0.4,1.1-0.7c0.3-0.3,0.5-0.6,0.7-1s0.3-0.8,0.3-1.2c0-0.5-0.1-0.9-0.2-1.3c-0.2-0.4-0.4-0.8-0.7-1.1
				c-0.3-0.3-0.7-0.6-1.1-0.7c-0.4-0.2-0.8-0.3-1.3-0.3C249.9,90.5,249.5,90.5,249.1,90.7z M250.4,91.5c0.6,0,1.1,0.1,1.4,0.3
				c0.3,0.2,0.5,0.5,0.5,0.9c0,0.3-0.1,0.5-0.2,0.7c-0.2,0.2-0.4,0.3-0.7,0.4l1,2h-1.2l-0.8-1.8h-0.5v1.8h-1.1v-4.4L250.4,91.5
				L250.4,91.5z M249.7,93.4h0.5c0.3,0,0.5-0.1,0.7-0.2c0.1-0.1,0.2-0.2,0.2-0.5c0-0.2-0.1-0.4-0.2-0.5c-0.2-0.1-0.4-0.2-0.7-0.2
				h-0.5V93.4z"/>
		</g>
	</g>
</g>
</svg>
