<?xml version="1.0" encoding="utf-8"?>
<!-- Generator: Adobe Illustrator 17.1.0, SVG Export Plug-In . SVG Version: 6.00 Build 0)  -->
<!DOCTYPE svg PUBLIC "-//W3C//DTD SVG 1.1//EN" "http://www.w3.org/Graphics/SVG/1.1/DTD/svg11.dtd">
<svg xmlns="http://www.w3.org/2000/svg" viewBox="0 0 321.7 198.5" enable-background="new 0 0 321.7 198.5" class="svg-icon-drink"><g><path fill="#ffffff" d="M178 47.9c-1 13.4-2.5 26.8-8.6 38.8-3.7 7.3-9 16.4-4.5 24.4 2.5 4.5 8.1 7.8 13.1 8.1v-71.3zM303.4 53.5h-22.4v-13h-100v144.1c0 6.2 5.8 10.9 11.9 10.9h77.2c6.2 0 10.9-4.8 10.9-10.9v-22.1h17.4c7.8 0 14.2-6.3 14.2-14.1l5-80.6c0-7.8-6.4-14.3-14.2-14.3zm-102.4 119.6c0 2.2-1.8 4-4 4s-4-1.8-4-4v-69.8c0-2.2 1.8-4 4-4s4 1.8 4 4v69.8zm74-97.6h-88v-29h88v29zm28 65.2v.4c0 4-3.4 7.5-7.5 7.5h-14.5v-85h18.8c4 0 7.3 3.7 7.4 7.7l-4.2 69.4zM186.7 37.5c-.1-1-.2-1.5-.2-2.2 0-7.2 5.9-13.2 13.1-13.2.9 0 1.8 0 2.8.3l4 .9 1.8-3.7c3.6-7.3 11-11.7 19-11.7 4.3 0 8.5 1.3 12 3.7-2.6-1-5.3-1.6-8.2-1.6-8.3 0-15.9 4.7-19.7 12.1l-1.9 3.7-4.1-.9c-1.1-.2-2.1-.1-3-.1-7.1 0-12.9 5.6-13.5 12.6h92.2c-.4-7-4.6-12.5-10.6-15.3.2-.9.2-1.9.2-2.8 0-7.4-6-13.5-13.5-13.5-4.3 0-8.2 2-10.7 5.2-4.9-5.1-11.7-8.4-19.3-8.4-10.3 0-19.3 5.9-23.6 14.5-1.2-.2-2.6-.4-4-.4-10.1 0-18.3 8.4-18.3 18.5 0 .7 0 1.2.1 2.2h5.4zm63.8-23.3c3-3.7 9.4-4.5 12.4-.3l.1.1c-2.2-2.1-6-1.1-9 .9-2.2 1.5-4 3.6-4.3 5.3-2.8-2-.8-4.1.8-6z"/></g><path fill="#ffffff" d="M76 113.9l66.9-66.4h-138.9l66 66.4v75.6h-28v6h61v-6h-27v-75.6zm-43.5-48.4l-12-12h105.9l-12 12h-81.9z"/></svg>
