<?xml version="1.0" encoding="utf-8"?>
<!-- Generator: Adobe Illustrator 17.1.0, SVG Export Plug-In . SVG Version: 6.00 Build 0)  -->
<!DOCTYPE svg PUBLIC "-//W3C//DTD SVG 1.1//EN" "http://www.w3.org/Graphics/SVG/1.1/DTD/svg11.dtd">
<svg version="1.1" id="Layer_1" xmlns="http://www.w3.org/2000/svg" xmlns:xlink="http://www.w3.org/1999/xlink" x="0px" y="0px"
	 viewBox="0 0 214 120" enable-background="new 0 0 214 120" xml:space="preserve">
<g id="Layer_2" display="none">
	<rect display="inline" fill="#59C8E8" width="300" height="120"/>
</g>
<g id="Layer_1_1_">
	<g>
		<g>
			<path fill="#FFFFFF" d="M61.6,76h-0.3c-1.8,0-3.3,1.6-3.3,3.3V91c0,1.8,1.5,3,3.3,3h0.3c1.8,0,3.4-1.2,3.4-3V79.3
				C65,77.6,63.4,76,61.6,76z"/>
			<path fill="#FFFFFF" d="M6,62v46h176.4c13.1,0,23.6-10.5,23.6-23.1V62H6z M24.2,98h-0.3c-4.1,0-7.6-2-7.6-7c0-3,4.4-3,4.4,0
				c0,2,1.3,3,3.2,3h0.3c1.9,0,3.5-0.9,3.5-2.8c0-4.7-10.7-5.1-10.7-12c0-0.5,0-0.3,0-0.8c0-4,3.6-6.4,6.9-6.4h0.3
				c3.9,0,7.3,2.4,7.3,6c0,2.8-4.3,2.7-4.3,0c0-1-1.2-2-3-2h-0.3c-1.7,0-2.9,1.2-2.9,2.6c0,0.5,0,0.1,0,0.6c0,3,10.9,4.1,10.9,11.8
				C31.9,95.3,28.5,98,24.2,98z M42.8,94h0.3c1.6,0,2.9-1,3.2-2.5c0.2-1.3,1.4-1.9,2.3-1.9c1.1,0,2.4,0.8,2.4,2.1c0,0.2,0,0.3,0,0.4
				c-1,3.6-4.1,5.8-7.9,5.8h-0.3c-4.1,0-7.8-2.8-7.8-7V79.3c0-4.2,3.7-7.3,7.8-7.3h0.3c3.8,0,7,2.6,7.4,6.3c0,0.1,0,0.2,0,0.4
				c0,1.4-1.1,2.1-2.2,2.1c-1,0-1.9-0.8-2.1-2c-0.2-1.5-1.5-2.7-3.2-2.7h-0.3C41,76,40,77.6,40,79.3V91C40,92.8,41.1,94,42.8,94z
				 M69,91c0,4.2-3.2,7-7.4,7h-0.3c-4.1,0-7.3-2.8-7.3-7V79.3c0-4.2,3.1-7.3,7.3-7.3h0.3c4.2,0,7.4,3.2,7.4,7.3V91z M89,90.9
				c0,4.1-3.4,7.1-7.6,7.1h-0.3C77,98,74,95,74,90.9V74.2c0-1.5,0.9-2.2,2-2.2s2,0.7,2,2.2v16.7c0,1.7,1.4,3.1,3.1,3.1h0.3
				c1.8,0,3.6-1.4,3.6-3.1V74.2c0-1.5,0.9-2.2,2-2.2s2,0.7,2,2.2V90.9z M104.4,77H101v19.2c0,1.5-0.9,2.2-2,2.2s-2-0.7-2-2.2V77h-3
				c-1.4,0-2.2-1.4-2.2-2.5S92.6,72,94,72h10.4c1.5,0,2.2,1.4,2.2,2.5C106.6,75.6,105.9,77,104.4,77z M124.7,98h-9.8
				c-1.4,0-2.2-1.2-2.2-2.5c0-0.5,0.1-0.9,0.3-1.3l8.5-13.7c0.4-0.8,0.4-1.2,0.4-1.7v-0.3c0-1.1-0.9-2.4-2.2-2.4h-0.1
				c-1.2,0-1.7,1.3-1.7,2.4v0.4c0,1.4-1.4,2.1-2.5,2.1s-2.5-0.7-2.5-2.1v-0.6c0-3.7,3.1-6.3,6.7-6.3h0.1c3.5,0,6.6,2.6,6.6,6.3v0.4
				c0,1.4-0.5,2.7-1.3,4L118.2,94h6.5c1.5,0,2.2,0.9,2.2,2S126.2,98,124.7,98z M141.9,93H141v3.2c0,1.5-0.9,2.2-2,2.2s-2-0.7-2-2.2
				V93h-6.2c-1.5,0-2.4-0.8-2.4-2.3c0-0.4,0.1-0.9,0.2-1.2l7-16.2c0.4-0.9,1.2-1.3,1.9-1.3c1.1,0,2.3,0.9,2.3,2.1
				c0,0.3,0,0.8-0.2,1.1L133.4,89h3.6v-2.5c0-1.4,0.9-2.2,2-2.2s2,0.7,2,2.2V89h0.9c1.5,0,2.2,0.9,2.2,2
				C144.1,92.1,143.4,93,141.9,93z"/>
		</g>
		<g>
			<path fill="#FFFFFF" d="M86,27h-0.3c-1.8,0-3.6,0.9-3.6,2.6v11.7c0,1.8,1.9,2.8,3.6,2.8H86c1.8,0,3-1,3-2.7V29.6
				C89,27.8,87.8,27,86,27z"/>
			<path fill="#FFFFFF" d="M106.5,37H103v7h3.5c1.8,0,3.5-1.3,3.5-3.1v-0.3C110,38.7,108.2,37,106.5,37z"/>
			<path fill="#FFFFFF" d="M6,12v46h200V12H6z M22,46.5c0,1.5-1.4,2.2-2.5,2.2S17,48,17,46.5V24.4c0-1.5,1.4-2.2,2.5-2.2
				s2.5,0.7,2.5,2.2V46.5z M47,46.5c0,1.5-0.9,2.2-2,2.2s-2-0.7-2-2.2V32.7l-3.2,7.4c-0.5,1.2-1.5,1.5-2.2,1.5s-1.7-0.2-2.3-1.5
				L32,32.7v13.8c0,1.5-0.9,2.2-2,2.2s-2-0.7-2-2.2V24.4c0-1.2,0.7-2.4,1.9-2.4h0.6c1.4,0,1.9,1,2.4,2l4.7,10.6L42.2,24
				c0.4-1,1-2,2.4-2h0.6c1.2,0,1.9,1.2,1.9,2.4L47,46.5L47,46.5z M73,46.5c0,1.5-1.4,2.2-2.5,2.2S68,48,68,46.5V32.7l-3,7.4
				c-0.5,1.2-1.4,1.5-2.1,1.5s-1.4-0.2-1.9-1.5l-2.9-7.4v13.8c0,1.5-1.4,2.2-2.5,2.2S53,47.9,53,46.5V24.4c0-1.2,1.2-2.4,2.4-2.4H56
				c1.4,0,1.9,1,2.4,2l4.7,10.6L67.8,24c0.4-1,1-2,2.4-2h0.6c1.2,0,2.5,1.2,2.5,2.4v22.1H73z M94,41.2c0,4.2-3.8,7.8-8,7.8h-0.3
				c-4.1,0-7.6-3.6-7.6-7.7V29.6c0-4.2,3.5-7.6,7.6-7.6H86c4.2,0,8,3.4,8,7.6V41.2z M114,40.9c0,4.2-3.3,7.1-7.5,7.1h-5.4
				c-1.2,0-2.1-0.6-2.1-1.8V24.6c0-1.2,1-2.6,2.1-2.6h5.4c4.2,0,7.3,3.3,7.3,7.4c0,2.6-1.1,4-2.5,5.4c1.5,1.5,2.7,3.3,2.7,5.8V40.9z
				 M123,46.5c0,1.5-0.9,2.2-2,2.2s-2-0.7-2-2.2V24.4c0-1.5,0.9-2.2,2-2.2s2,0.7,2,2.2V46.5z M140.5,48h-9.6c-1.2,0-1.9-0.6-1.9-1.7
				V24.4c0-1.5,0.9-2.2,2-2.2s2,0.7,2,2.2V44h7.5c1.5,0,2.2,0.9,2.2,2S142,48,140.5,48z M149,46.5c0,1.5-0.9,2.2-2,2.2s-2-0.7-2-2.2
				V24.4c0-1.5,0.9-2.2,2-2.2s2,0.7,2,2.2V46.5z M165.2,33c1.5,0,2.2,0.9,2.2,2s-0.7,2-2.2,2H159v7h9.1c1.5,0,2.2,0.9,2.2,2
				s-0.7,2-2.2,2h-11c-1.2,0-2.1-0.6-2.1-1.7V24.6c0-1.2,1-2.6,2.1-2.6h11c1.5,0,2.2,1.4,2.2,2.5s-0.7,2.5-2.2,2.5H159v6H165.2z
				 M190,46.5c0,1.2-1.1,2.5-2.2,2.5h-0.4c-1.4,0-1.9-1.1-2.3-2.1l-6-14.2v13.8c0,1.5-0.9,2.2-2,2.2s-2-0.7-2-2.2V24.4
				c0-1.2,0.6-2.4,1.8-2.4h0.5c1.4,0,2.1,1,2.6,2l6.2,13.6V24.4c0-1.4,0.9-2.1,2-2.1s2,0.7,2,2.1v22.1H190z"/>
			<path fill="#FFFFFF" d="M109.4,29.8c0-1.8-1.2-2.8-2.9-2.8H103v6h3.5C108.2,33,109.4,31.7,109.4,29.8z"/>
		</g>
	</g>
</g>
</svg>
