<?xml version="1.0" encoding="utf-8"?>
<!-- Generator: Adobe Illustrator 17.1.0, SVG Export Plug-In . SVG Version: 6.00 Build 0)  -->
<!DOCTYPE svg PUBLIC "-//W3C//DTD SVG 1.1//EN" "http://www.w3.org/Graphics/SVG/1.1/DTD/svg11.dtd">
<svg version="1.1" xmlns="http://www.w3.org/2000/svg" xmlns:xlink="http://www.w3.org/1999/xlink" x="0px" y="0px"
	 viewBox="0 0 300 120" enable-background="new 0 0 300 120" xml:space="preserve">
<g id="Layer_2" display="none">
	<rect x="1" display="inline" fill="#59C8E8" width="300" height="120"/>
</g>
<g id="Layer_1">
	<g>
		<g>
			<defs>
				<rect id="SVGID_21_" x="33.5" y="39.2" width="50.2" height="39.9"/>
			</defs>
			<clipPath id="SVGID_1_">
				<use xlink:href="#SVGID_21_"  overflow="visible"/>
			</clipPath>
			<path clip-path="url(#SVGID_1_)" fill="#FFFFFF" d="M82.6,41.1c-9.8-1.4-17.8-0.2-24.2,2.5c-6.4,2.7-11.2,6.9-14.9,11.3
				C36.3,63.7,34,73.5,34,74.2c0,5.8,14.1,6.4,15.1,0c1.6-9.6,4.7-17.2,9.7-22.3c5.1-5.2,12.2-8,21.8-8
				C83.4,43.9,83.2,41.1,82.6,41.1"/>
		</g>
		<g>
			<defs>
				<path id="SVGID_23_" d="M33.5,46.9v27.4c0,6.3,15.7,6.3,15.7,0l0-28.4c0-11.7,6.5-20.4,15.7-20.7c7.2-0.2,13,4,13,15.8
					c0,3,5.2,3,5.2,0c0-20-9.8-26.9-22.2-26.9C49.3,14.1,33.5,22.1,33.5,46.9"/>
			</defs>
			<use xlink:href="#SVGID_23_"  overflow="visible" fill="#FFFFFF"/>
			<clipPath id="SVGID_2_">
				<use xlink:href="#SVGID_23_"  overflow="visible"/>
			</clipPath>
			<g clip-path="url(#SVGID_2_)">
				<path fill="#FFFFFF" d="M73.6,14c-13.4,0-26.8,0-40.1,0c0,22.2,0,44.5,0,66.7c4.2,0,8.4,0,12.6,0c0-0.1,0.1-0.2,0.1-0.2
					c1.3-3.1,2.5-6.1,3.8-9.2c1.3-3,2.5-6.1,3.8-9.1c2-4.9,4.1-9.8,6.1-14.7c1.2-3,2.4-5.9,3.7-8.9c1.9-4.7,3.9-9.3,5.8-14
					c0.8-2,1.7-4,2.5-6C72.3,17.1,72.9,15.5,73.6,14z"/>
				<path fill="#FFFFFF" d="M73.6,14c-0.6,1.5-1.2,3.1-1.9,4.6c-0.8,2-1.7,4-2.5,6c-1.9,4.7-3.9,9.3-5.8,14c-1.2,3-2.4,5.9-3.7,8.9
					c-2,4.9-4.1,9.8-6.1,14.7c-1.3,3-2.5,6.1-3.8,9.1c-1.3,3.1-2.5,6.1-3.8,9.2c0,0.1-0.1,0.2-0.1,0.2c12.4,0,24.8,0,37.2,0
					c0-0.1,0-0.3,0-0.4c0-21.9,0-43.9,0-65.8c0-0.1,0-0.3,0-0.4C80,14,76.8,14,73.6,14z"/>
			</g>
		</g>
		<path fill="#FFFFFF" d="M91.5,57.6c0-2.9-2.3-4.1-7-4.1c-1,0-3.3,0.1-4.2,0.2v8.6c0.7,0,3.4,0.1,4.2,0.1c4.8,0,7-1.1,7-4.4V57.6z
			 M98.6,77.7h-5.7c-0.5,0-0.7-0.4-0.9-0.8l-6.7-10.2h-0.7c-1.2,0-3.1-0.1-4.2-0.2v10.4c0,0.4-0.4,0.8-0.9,0.8h-4.7
			c-0.5,0-0.9-0.3-0.9-0.8V50.6c0-0.8,0.6-1,1.5-1.1c2.4-0.3,5.8-0.5,9.2-0.5c7.2,0,13.5,2.1,13.5,8.7v0.3c0,4.1-2.5,6.6-6.3,7.8
			L99,76.9C99.3,77.3,99.1,77.7,98.6,77.7"/>
		<path fill="#FFFFFF" d="M123.6,77.5c-1.5,0.2-3.3,0.5-8.9,0.5c-6.1,0-10.8-1.3-10.8-7.9V56.8c0-6.5,4.7-7.9,10.8-7.9
			c5.6,0,7.4,0.3,8.9,0.5c0.7,0.1,0.9,0.3,0.9,0.8v2.5c0,0.4-0.4,0.8-0.9,0.8h-9.5c-2.7,0-3.7,0.8-3.7,3.3v4.1h12.7
			c0.5,0,0.9,0.3,0.9,0.8v2.8c0,0.4-0.4,0.8-0.9,0.8h-12.7v4.9c0,2.5,1,3.3,3.7,3.3h9.5c0.5,0,0.9,0.3,0.9,0.8v2.5
			C124.6,77.2,124.3,77.4,123.6,77.5"/>
		<path fill="#FFFFFF" d="M150.1,77.4c-0.7,0.2-3.8,0.6-7.4,0.6c-5.6,0-13.2-2.3-13.2-11.7v-5.6c0-9.6,7.6-11.7,13.2-11.7
			c3.6,0,6.7,0.5,7.4,0.6c0.6,0.2,1,0.3,1,0.9V53c0,0.5-0.3,0.8-1,0.8c-1.6-0.1-4.8-0.3-7.3-0.3c-3.9,0-6.8,1.7-6.8,7.2v5.6
			c0,5.3,2.9,7.2,6.8,7.2c2.5,0,5.7-0.2,7.3-0.3c0.7,0,1,0.3,1,0.8v2.6C151.1,77.1,150.7,77.2,150.1,77.4"/>
		<path fill="#FFFFFF" d="M173.9,57.6c0-2.9-2.3-4.1-7-4.1c-1,0-3.3,0.1-4.2,0.2v8.6c0.7,0,3.4,0.1,4.2,0.1c4.8,0,7-1.1,7-4.4V57.6z
			 M181,77.7h-5.7c-0.5,0-0.7-0.4-0.9-0.8l-6.7-10.2h-0.7c-1.2,0-3.1-0.1-4.2-0.2v10.4c0,0.4-0.4,0.8-0.9,0.8h-4.7
			c-0.5,0-0.9-0.3-0.9-0.8V50.6c0-0.8,0.6-1,1.5-1.1c2.4-0.3,5.8-0.5,9.2-0.5c7.2,0,13.5,2.1,13.5,8.7v0.3c0,4.1-2.5,6.6-6.3,7.8
			l7.3,11.2C181.7,77.3,181.5,77.7,181,77.7"/>
		<path fill="#FFFFFF" d="M208.6,77.4c-1.6,0.2-7.5,0.7-10.4,0.7c-7.5,0-12.8-2.6-12.8-10.8V50c0-0.4,0.4-0.7,0.9-0.7h4.6
			c0.5,0,0.9,0.3,0.9,0.7v17.3c0,4.4,1.2,6.4,6.3,6.4c1.9,0,4.7-0.2,6.5-0.3V50c0-0.4,0.4-0.7,0.9-0.7h4.6c0.5,0,0.9,0.3,0.9,0.7V75
			C211.1,76.6,210.3,77.2,208.6,77.4"/>
		<path fill="#FFFFFF" d="M223.2,77.7h-4.6c-0.5,0-0.9-0.3-0.9-0.8V50c0-0.4,0.4-0.7,0.9-0.7h4.6c0.5,0,0.9,0.3,0.9,0.7v27
			C224.2,77.4,223.8,77.7,223.2,77.7"/>
		<path fill="#FFFFFF" d="M252.4,53.7h-8.2v23.3c0,0.4-0.4,0.8-0.9,0.8h-4.6c-0.5,0-0.9-0.3-0.9-0.8V53.7h-8.2
			c-0.5,0-0.9-0.3-0.9-0.7v-3c0-0.4,0.4-0.7,0.9-0.7h22.9c0.5,0,0.9,0.3,0.9,0.7v3C253.3,53.4,252.9,53.7,252.4,53.7"/>
		<g>
			<defs>
				<rect id="SVGID_25_" x="33.5" y="14.1" width="237.1" height="87.7"/>
			</defs>
			<clipPath id="SVGID_3_">
				<use xlink:href="#SVGID_25_"  overflow="visible"/>
			</clipPath>
			<path clip-path="url(#SVGID_3_)" fill="#FFFFFF" d="M38,93.7V81.8c0-0.3-0.3-0.5-0.6-0.5h-2.8c-0.3,0-0.6,0.2-0.6,0.5v11.9
				c0,0.3,0.3,0.5,0.6,0.5h2.8C37.8,94.2,38,94,38,93.7"/>
			<path clip-path="url(#SVGID_3_)" fill="#FFFFFF" d="M49.2,81.3h-2.8c-0.3,0-0.6,0.2-0.6,0.5v8.4c0,6.6-2.9,7.7-7.9,8.6
				c-0.6,0.1-0.8,0.2-0.8,0.7v1.9c0,0.5,0.2,0.7,0.8,0.6c9.2-0.7,11.9-4.1,11.9-11.4v-8.7C49.8,81.5,49.6,81.3,49.2,81.3"/>
		</g>
		<path fill="#FFFFFF" d="M129.1,90.1c-3.1-0.9-7-1.8-10.9-2.6v-6.4c0-0.3-0.3-0.5-0.6-0.5h-3.1c-0.3,0-0.6,0.2-0.6,0.5v20.1
			c0,0.3,0.3,0.5,0.6,0.5h3.1c0.3,0,0.6-0.2,0.6-0.5V90.8c3.8,0.9,7.6,1.9,10.8,2.9c0.6,0.2,0.7,0,0.7-0.6v-1.9
			C129.8,90.6,129.7,90.3,129.1,90.1"/>
		<path fill="#FFFFFF" d="M80,81.3h-2.6c-0.3,0-0.6,0.2-0.6,0.5v6.9c0,5.7-1,7.8-2.5,9.5c-0.5,0.6-0.6,0.7-0.6,1.3v1.6
			c0,0.5,0.3,0.6,0.8,0.4c4.1-1.5,6.1-5.3,6.1-12.7v-7.1C80.5,81.5,80.3,81.3,80,81.3"/>
		<path fill="#FFFFFF" d="M85.9,101.5c5.1,0,7.8-4.8,8.7-11.4c0.1-0.8-0.1-0.9-0.4-0.9h-2c-0.5,0-0.7,0.2-0.8,0.8
			c-0.7,3.7-1.7,6.1-3.6,7.1c-0.5,0.3-0.9,0.1-0.9-0.5V81.8c0-0.3-0.3-0.5-0.6-0.5h-2.6c-0.3,0-0.6,0.2-0.6,0.5v17.4
			C83.2,100.9,83.9,101.5,85.9,101.5"/>
		<g>
			<defs>
				<rect id="SVGID_27_" x="33.5" y="14.1" width="237.1" height="87.7"/>
			</defs>
			<clipPath id="SVGID_4_">
				<use xlink:href="#SVGID_27_"  overflow="visible"/>
			</clipPath>
			<path clip-path="url(#SVGID_4_)" fill="#FFFFFF" d="M110.6,89.4H97.9c-0.4,0-0.6,0.2-0.6,0.5v2.6c0,0.2,0.2,0.5,0.6,0.5h12.6
				c0.4,0,0.6-0.2,0.6-0.5v-2.6C111.2,89.6,111,89.4,110.6,89.4"/>
			<path clip-path="url(#SVGID_4_)" fill="#FFFFFF" d="M69.8,81.4H58.5c-1,0-1.3,0.3-1.5,1.3c-0.7,3.1-2,5.2-3.6,6.3
				c-0.6,0.5-0.8,0.6-0.8,1.1v1.8c0,0.5,0.2,0.6,0.8,0.5c3-0.6,5.4-2.5,7.1-7.2c0.2-0.5,0.4-0.6,1.1-0.6H67c0.3,0,0.8,0.3,0.7,0.8
				c-0.5,9-4,12.1-10.7,13.4c-0.6,0.1-0.8,0.3-0.8,0.7v1.9c0,0.5,0.2,0.6,0.8,0.6c9.4-0.7,14.8-5.2,14.8-18.6
				C71.8,82,71.3,81.4,69.8,81.4"/>
		</g>
		<path fill="#FFFFFF" d="M249.9,89.4h-12.6c-0.4,0-0.6,0.2-0.6,0.5v2.6c0,0.2,0.2,0.5,0.6,0.5h12.6c0.4,0,0.6-0.2,0.6-0.5v-2.6
			C250.4,89.6,250.3,89.4,249.9,89.4"/>
		<g>
			<defs>
				<rect id="SVGID_29_" x="33.5" y="14.1" width="237.1" height="87.7"/>
			</defs>
			<clipPath id="SVGID_5_">
				<use xlink:href="#SVGID_29_"  overflow="visible"/>
			</clipPath>
			<path clip-path="url(#SVGID_5_)" fill="#FFFFFF" d="M193.1,82.2c-1.3,11-7.6,17.1-16.5,19.3c-0.7,0.2-0.8,0.1-0.8-0.4v-2
				c0-0.5,0.1-0.6,0.7-0.9c6.1-2.1,11.3-7.2,12.5-16c0.1-0.5,0.2-0.7,0.8-0.7h2.7C193,81.5,193.1,81.7,193.1,82.2"/>
			<path clip-path="url(#SVGID_5_)" fill="#FFFFFF" d="M174.3,81.4H163c-1,0-1.3,0.3-1.5,1.3c-0.7,3.1-2,5.2-3.6,6.3
				c-0.6,0.5-0.8,0.6-0.8,1.1v1.8c0,0.5,0.2,0.6,0.8,0.5c3-0.6,5.4-2.5,7.1-7.2c0.2-0.5,0.4-0.6,1.1-0.6h5.4c0.3,0,0.8,0.3,0.7,0.8
				c-0.4,8.9-4.1,12.1-10.7,13.4c-0.6,0.1-0.8,0.3-0.8,0.7v1.9c0,0.5,0.2,0.6,0.8,0.6c9.4-0.7,14.7-5.3,14.7-18.6
				C176.3,82,175.8,81.4,174.3,81.4"/>
		</g>
		<path fill="#FFFFFF" d="M154.2,87.9h-18c-0.4,0-0.6,0.2-0.6,0.5v2.2c0,0.2,0.2,0.5,0.6,0.5h7.8v1.1c0,4.5-1.4,5.9-5.5,6.6
			c-0.5,0.1-0.7,0.4-0.7,0.9v1.6c0,0.5,0.1,0.7,0.8,0.7c6.5-0.1,9.4-3.3,9.4-9.7V91h6.2c0.4,0,0.6-0.2,0.6-0.5v-2.2
			C154.8,88.1,154.7,87.9,154.2,87.9"/>
		<path fill="#FFFFFF" d="M138.5,84.9H152c0.4,0,0.6-0.2,0.6-0.5v-2.2c0-0.2-0.2-0.5-0.6-0.5h-13.6c-0.4,0-0.6,0.2-0.6,0.5v2.2
			C137.9,84.7,138,84.9,138.5,84.9"/>
		<g>
			<defs>
				<rect id="SVGID_31_" x="33.5" y="14.1" width="237.1" height="87.7"/>
			</defs>
			<clipPath id="SVGID_6_">
				<use xlink:href="#SVGID_31_"  overflow="visible"/>
			</clipPath>
			<path clip-path="url(#SVGID_6_)" fill="#FFFFFF" d="M209.5,96.8c0,0.6-0.4,1-0.9,1h-8.2c-0.5,0-0.9-0.5-0.9-1V86
				c0-0.6,0.4-1,0.9-1h8.2c0.5,0,0.9,0.5,0.9,1V96.8z M195.4,84.5v13.8c0,1.4,1.4,2.5,2.8,2.6c3.1,0.2,9.6,0.2,12.4,0
				c1.4-0.1,2.8-1.2,2.8-2.6V84.5c0-1.4-1.4-2.5-2.8-2.6c-2.7-0.2-9.3-0.2-12.4,0C196.9,82.1,195.4,83.1,195.4,84.5"/>
			<path clip-path="url(#SVGID_6_)" fill="#FFFFFF" d="M267.4,96.8l-4.8-4.3c1.3-2.2,2.2-4.7,2.7-7.5h-0.7c-0.3,0-0.6-0.3-0.6-0.7
				v-2.6c0,0-0.1,0-0.1,0h-12.4c-0.4,0-0.6,0.2-0.6,0.5v2.2c0,0.2,0.2,0.5,0.6,0.5h9.1c0.3,0,0.6,0.3,0.5,0.8
				c-1.4,6.2-5.1,10.2-10.6,12.7c-0.6,0.3-0.8,0.5-0.8,1v2.1c0,0.5,0.1,0.6,0.8,0.4c4-1.2,7.4-3.3,9.9-6.3l6.7,6.3
				c0.3,0.3,0.7,0.1,0.7-0.3v-3.3C268,97.6,267.9,97.3,267.4,96.8"/>
			<path clip-path="url(#SVGID_6_)" fill="#FFFFFF" d="M265.9,84.5h0.8c0.3,0,0.6-0.2,0.6-0.5v-4.6c0-0.3-0.2-0.5-0.6-0.5h-0.8
				c-0.3,0-0.6,0.2-0.6,0.5v4.6C265.4,84.3,265.6,84.5,265.9,84.5"/>
			<path clip-path="url(#SVGID_6_)" fill="#FFFFFF" d="M270.1,79h-0.8c-0.3,0-0.6,0.2-0.6,0.5v4.6c0,0.3,0.2,0.5,0.6,0.5h0.8
				c0.3,0,0.6-0.2,0.6-0.5v-4.6C270.7,79.2,270.4,79,270.1,79"/>
		</g>
		<path fill="#FFFFFF" d="M217.2,81.6c2.3,0,5.9,0,8,0.2c0.6,0,0.7,0.3,0.7,0.9v1.8c0,0.6-0.2,0.9-0.7,0.8c-2.2-0.3-5.8-0.6-7.8-0.7
			c-0.7,0-0.8-0.2-0.8-0.7v-1.7C216.5,81.8,216.7,81.6,217.2,81.6"/>
		<path fill="#FFFFFF" d="M217.2,88.2c2.3-0.1,6,0,8,0.1c0.6,0,0.7,0.3,0.7,0.9v1.8c0,0.6-0.2,0.9-0.7,0.8c-2.2-0.3-5.8-0.5-7.8-0.6
			c-0.7,0-0.8-0.2-0.8-0.7v-1.6C216.5,88.4,216.7,88.2,217.2,88.2"/>
		<path fill="#FFFFFF" d="M217.2,101.4c11.6,0,16-3.7,17.1-14.2c0.1-0.8,0-1-0.4-1h-2.1c-0.4,0-0.5,0.2-0.6,0.8
			c-1.2,7.8-3.9,10.5-13.9,10.9c-0.6,0-0.7,0.2-0.7,0.7v2C216.5,101.3,216.6,101.4,217.2,101.4"/>
		<path fill="#FFFFFF" d="M231.8,79.2H231c-0.3,0-0.6,0.2-0.6,0.5v4.6c0,0.3,0.2,0.5,0.6,0.5h0.8c0.3,0,0.6-0.2,0.6-0.5v-4.6
			C232.4,79.4,232.1,79.2,231.8,79.2"/>
		<path fill="#FFFFFF" d="M235.2,79.2h-0.8c-0.3,0-0.6,0.2-0.6,0.5v4.6c0,0.3,0.2,0.5,0.6,0.5h0.8c0.3,0,0.6-0.2,0.6-0.5v-4.6
			C235.7,79.4,235.5,79.2,235.2,79.2"/>
	</g>
</g>
</svg>
