<?xml version="1.0" encoding="utf-8"?>
<!-- Generator: Adobe Illustrator 17.1.0, SVG Export Plug-In . SVG Version: 6.00 Build 0)  -->
<!DOCTYPE svg PUBLIC "-//W3C//DTD SVG 1.1//EN" "http://www.w3.org/Graphics/SVG/1.1/DTD/svg11.dtd">
<svg version="1.1" id="Layer_1" xmlns="http://www.w3.org/2000/svg" xmlns:xlink="http://www.w3.org/1999/xlink" x="0px" y="0px"
	 viewBox="0 0 284 120" enable-background="new 0 0 284 120" xml:space="preserve">
<g id="Layer_2" display="none">
	<rect x="1" display="inline" fill="#59C8E8" width="300" height="120"/>
</g>
<g id="Layer_1_1_">
	<g id="trifork_1_">
		<g>
			<g>
				<g>
					<path fill="#FFFFFF" d="M7.3,33.6h33.4v6.7H28.3v20.3h-8.8V40.3H7.3V33.6z"/>
					<path fill="#FFFFFF" d="M44.5,33.6h26.4c6.7,0,8.6,3.2,8.6,8v1.7c0,3.6-0.9,5.7-4.9,6.6V50c2.6,0.4,4.8,1.5,4.8,6v4.6h-8.8
						v-3.2c0-2.8-0.9-3.8-3.6-3.8H53.2v7h-8.8L44.5,33.6L44.5,33.6z M53.2,46.9h14.5c2.4,0,3.2-0.9,3.2-2.8v-0.9
						c0-2.4-1.3-2.8-4-2.8H53.2V46.9z"/>
					<path fill="#FFFFFF" d="M85.9,33.6h8.8v27h-8.8V33.6z"/>
					<path fill="#FFFFFF" d="M101,33.6h29.8v6.5h-21.1v5h20.1v6.3h-20.1v9.2H101V33.6z"/>
					<path fill="#FFFFFF" d="M135.5,43.1c0-7.9,4.7-9.8,12.6-9.8h14c7.9,0,12.6,1.9,12.6,9.8v8.1c0,7.9-4.7,9.8-12.6,9.8h-14
						c-7.9,0-12.6-1.9-12.6-9.8V43.1z M144.5,48.6c0,3.9,0.9,5.4,5,5.4h11.2c4.1,0,5-1.5,5-5.4v-2.9c0-3.4-0.9-5.4-5.5-5.4H150
						c-4.6,0-5.5,2.1-5.5,5.4V48.6z"/>
					<path fill="#FFFFFF" d="M180,33.6h26.4c6.7,0,8.6,3.2,8.6,8v1.7c0,3.6-0.9,5.7-4.9,6.6V50c2.6,0.4,4.8,1.5,4.8,6v4.6h-8.8v-3.2
						c0-2.8-0.9-3.8-3.6-3.8h-13.8v7H180V33.6z M188.7,46.9h14.5c2.4,0,3.2-0.9,3.2-2.8v-0.9c0-2.4-1.3-2.8-4-2.8h-13.7V46.9z"/>
					<path fill="#FFFFFF" d="M220.9,33.6h8.8v9.9h4.1l11-9.9h11.9l-15.5,13.2l17.3,13.8h-12.4l-12.6-10.4h-3.9v10.4h-8.8L220.9,33.6
						L220.9,33.6z"/>
				</g>
				<g>
					<path fill="#FFFFFF" d="M264.5,53h8.3v7.6h-8.3V53z"/>
				</g>
			</g>
		</g>
		<g>
			<path fill="#FFFFFF" d="M53.3,84.7c0,0.3-0.2,0.6-0.6,0.8c-0.4,0.2-0.8,0.3-1.2,0.3c-0.3,0-0.5-0.1-0.8-0.4
				c-0.2-0.3-0.4-0.6-0.4-0.8c0-0.2,0.1-0.4,0.3-0.7c0.1-0.1,0.4-0.5,0.9-1.1c0.4,0.2,0.8,0.4,1.2,0.7C53,83.9,53.3,84.3,53.3,84.7z
				"/>
			<path fill="#FFFFFF" d="M62.7,84.7c0,0.3-0.2,0.6-0.6,0.8c-0.4,0.2-0.8,0.3-1.2,0.3c-0.3,0-0.5-0.1-0.8-0.4
				c-0.2-0.3-0.4-0.6-0.4-0.8c0-0.2,0.1-0.4,0.3-0.7c0.1-0.1,0.4-0.5,0.9-1.1c0.4,0.2,0.8,0.4,1.2,0.7
				C62.5,83.9,62.7,84.3,62.7,84.7z"/>
			<path fill="#FFFFFF" d="M72.2,84.7c0,0.3-0.2,0.6-0.6,0.8c-0.4,0.2-0.8,0.3-1.2,0.3c-0.3,0-0.5-0.1-0.8-0.4
				c-0.2-0.3-0.4-0.6-0.4-0.8c0-0.2,0.1-0.4,0.3-0.7c0.1-0.1,0.4-0.5,0.9-1.1c0.4,0.2,0.8,0.4,1.2,0.7C72,83.9,72.2,84.3,72.2,84.7z
				"/>
			<path fill="#FFFFFF" d="M89.9,76.3c0,0.4-0.1,0.6-0.2,0.7s-0.3,0.2-0.7,0.4c-0.4-0.1-0.8-0.2-1.2-0.3C87.4,77,87,77,86.6,77
				c-0.8,0-1.6,0.3-2.2,0.8s-0.9,1.2-0.9,2c0,0.7,0.1,1.4,0.3,2.3c0.4,2,0.7,3.3,0.7,3.8c-0.3,0-0.6,0-0.7,0c-0.2,0-0.5,0.1-0.9,0.2
				c-0.1-0.6-0.3-2.1-0.5-4.6c-0.1-1-0.2-2-0.4-2.8c-0.8,0.5-1.6,1-2.4,1.4c-1.1,0.6-1.9,0.9-2.5,0.9h-0.2v-0.6
				c0-0.7,0.5-1.3,1.5-1.8c2.4-1.1,3.7-1.9,3.8-2.2c0.1-1.7,0.1-3.1,0.2-4.3c0.1-2.2,0.6-3.3,1.3-3.3c0.3,0,0.5,0.1,0.7,0.2
				s0.3,0.3,0.3,0.6c0,0.5-0.2,1.3-0.5,2.6c-0.4,1.3-0.5,2.2-0.5,2.8c0,0.2,0,0.4,0,0.6s0.1,0.5,0.2,0.8c1.7-0.4,3.4-0.8,5.1-1.2
				C89.6,75.3,89.9,75.6,89.9,76.3z"/>
			<path fill="#FFFFFF" d="M103.8,84.6c-0.3,0.5-0.7,0.8-0.9,1.1c-0.4,0.4-0.9,0.6-1.3,0.6L101,86c-0.5-0.7-0.8-2-1-4.2
				c-0.3-2.5-0.5-4.1-0.6-4.6c-0.6,0.5-1.3,1.5-2,3c-0.6,1.3-1.2,2.5-1.8,3.8c-0.6,1.3-1,1.9-1.4,1.9c-0.2,0-0.4-0.1-0.5-0.3
				c-0.1-0.2-0.1-0.5-0.1-0.7c0-0.3,0-0.6,0.1-1c0.1-0.9,0.2-1.4,0.2-1.6c0-1.2,0-2.9,0.1-5.2c0.1-2.3,0.1-4,0.1-5.2
				c0-0.6,0.1-1.2,0.2-1.7c0.2-0.8,0.6-1.3,1-1.3c0.6,0,0.9,0.3,0.9,0.9c0,0.1-0.3,1.4-0.8,4C95.1,75.1,95,76.2,95,77
				c0,1.1,0.1,2.2,0.3,3.2c0.5-0.2,1.5-1.6,3-4c0.7-1,1.2-1.5,1.8-1.5c0.7,0,1.2,0.8,1.3,2.4c0,1.5,0.1,3.1,0.1,4.7
				c0.1,1.6,0.4,2.5,1,2.5L103.8,84.6z"/>
			<path fill="#FFFFFF" d="M111.9,75.9c0,0.5-0.1,1.1-0.3,1.8c-0.1,0.3-0.4,1.3-1,3.2c-0.1,0.4-0.2,1-0.3,1.9
				c-0.1,0.9-0.1,1.5-0.3,2.1c-0.1,0.5-0.5,1-1,1.3c0-0.1-0.1-0.1-0.3-0.3c-0.2-0.2-0.4-0.4-0.4-0.6c0-0.1,0-0.3,0.1-0.5
				s0.1-0.4,0.1-0.4c0.1-0.4,0.1-0.8,0.2-1.3c0-0.5,0.1-1,0.1-1.4s0.2-1.5,0.6-3.3s0.7-2.8,0.8-3c0.2-0.2,0.3-0.3,0.4-0.4
				s0.2-0.1,0.4-0.1c0.2,0,0.4,0.1,0.6,0.3C111.8,75.4,111.9,75.6,111.9,75.9z M113.3,70.5c0,0.3-0.1,0.5-0.3,0.7
				c-0.2,0.2-0.4,0.3-0.6,0.3c-0.3,0-0.6-0.2-0.9-0.5s-0.4-0.6-0.4-1c0-0.2,0.1-0.4,0.2-0.6c0.2-0.2,0.4-0.3,0.6-0.3
				c0.3,0,0.7,0.1,0.9,0.3C113.2,69.9,113.3,70.2,113.3,70.5z"/>
			<path fill="#FFFFFF" d="M126.3,85.3c0,0.2-0.1,0.5-0.4,0.7c-0.2,0.3-0.5,0.4-0.7,0.4s-0.3-0.1-0.6-0.2c-0.2-0.1-0.4-0.2-0.5-0.3
				c-1-0.6-1.6-1.6-2-3.1c-0.2-1-0.3-2.4-0.3-4.1c0-0.2,0-0.4,0-0.6s0-0.3,0-0.4c-0.6,0.5-1.5,2.4-2.6,5.6c-0.5,1.5-1.1,2.4-1.8,2.9
				c-0.4-0.4-0.6-0.8-0.7-1.4s-0.2-1.2-0.2-1.9c0-0.4,0-1.1,0.1-1.9c0.1-0.9,0.1-1.5,0.1-2c0-0.2,0-0.6-0.1-1.1s-0.1-0.9-0.1-1
				c0-0.3,0.1-0.6,0.2-0.8c0.2-0.2,0.4-0.3,0.8-0.3c0.5,0,0.9,0.8,1,2.3c0.1,0.6,0.1,1.6,0.1,3l0.2-0.2c0.3-1.4,0.7-2.5,1.1-3.4
				c0.7-1.5,1.5-2.3,2.4-2.3c0.5,0,0.8,0.5,1,1.4c0.2,0.7,0.2,1.6,0.2,2.8c0,0.3,0,0.6,0,0.9s0,0.6,0,1c0,0.9,0.1,1.6,0.2,2.1
				c0.1,0.5,0.3,0.8,0.5,0.9c0.5,0.1,0.9,0.2,1.2,0.3C126,84.6,126.3,84.9,126.3,85.3z"/>
			<path fill="#FFFFFF" d="M139.6,84.8c-0.3,0.4-0.6,0.6-0.8,0.7s-0.5,0.2-0.7,0.2c-0.1,0-1-0.3-2.7-0.9c-1-0.4-2.1-0.8-3.1-1.2
				c0,0.1,0,0.3,0,0.5s0,0.5,0,0.9c0,0.3,0,0.5,0,0.5c0,0.3-0.1,0.5-0.4,0.7c-0.1,0.1-0.4,0.2-0.8,0.4c-0.1-0.1-0.2-0.2-0.2-0.3
				c-0.1-0.1-0.1-0.3-0.2-0.5c-0.1-0.4-0.2-0.9-0.3-1.5s-0.1-1.2-0.1-1.8c0-0.2,0-0.4,0-0.5c0-1,0.1-2.6,0.3-4.8
				c0.2-2.1,0.3-3.7,0.3-4.8c0-0.2,0-0.6-0.1-1.2s-0.1-0.9-0.1-1.1c0-0.7,0.3-1.1,1-1.4c0.5,1.2,0.7,2.5,0.7,3.8
				c0,0.6-0.1,1.3-0.2,2.1c-0.3,1.9-0.4,3.1-0.4,3.5l0.1,0.9c1.2-0.3,2.4-1.2,3.5-2.5c0.9-1.1,1.7-2.3,2.3-3.7
				c0.3,0.2,0.5,0.3,0.7,0.6c0.2,0.2,0.3,0.5,0.3,0.8c0,0.8-0.5,1.7-1.5,2.7c-0.1,0.1-1.1,0.9-2.9,2.3c-1,0.8-1.6,1.4-1.6,1.9
				c0,0.8,1.4,1.8,4.3,2.8C138.4,84.4,139.3,84.7,139.6,84.8z"/>
			<path fill="#FFFFFF" d="M164.8,83.1c0,0.7-0.8,1.4-2.3,2c-1.3,0.6-2.4,0.8-3.2,0.8c-1,0-1.9-0.2-2.6-0.6
				c-0.8-0.5-1.3-1.2-1.3-2.2c0-0.5,0.2-0.8,0.5-0.9s0.8-0.2,1.4-0.2c0.3,0,0.5,0.1,0.7,0.2c0.1,0.1,0.3,0.4,0.4,0.7l-1.6,0.4v0.3
				c0,0.4,0.4,0.7,1.1,0.9c0.5,0.1,1.1,0.2,1.6,0.2c0.6,0,1.3-0.2,2.1-0.6c0.9-0.5,1.3-1,1.3-1.5c0-0.8-0.7-1.4-2-1.8
				s-2.6-0.8-3.9-1.1c-1.4-0.6-2.1-1.5-2.1-2.7c0-1.3,0.8-2.4,2.4-3.2c1.4-0.7,2.8-1,4.2-1c0.5,0,1,0.2,1.3,0.6s0.5,0.9,0.5,1.4
				s-0.1,0.9-0.4,1.2c-0.3,0.3-0.7,0.5-1.2,0.5c0-0.4,0-0.7,0-1c0-0.5-0.1-0.9-0.3-1.1s-0.6-0.3-1.1-0.3c-0.8,0-1.7,0.3-2.6,0.8
				c-1,0.6-1.5,1.3-1.5,2s0.7,1.2,2.2,1.8c2.6,0.9,3.9,1.4,4,1.5C164.1,81,164.8,82,164.8,83.1z"/>
			<path fill="#FFFFFF" d="M180.3,79.8c0,1.7-0.8,3.3-2.3,4.6c-1.5,1.2-3.1,1.9-4.9,1.9c-1.3,0-2.4-0.4-3.1-1.2
				c-0.7-0.8-1.1-1.9-1.1-3.2c0-1.8,0.6-3.3,1.8-4.6c1.2-1.2,2.7-1.8,4.6-1.8c1.6,0,2.8,0.3,3.7,1C179.8,77.1,180.3,78.3,180.3,79.8
				z M179,79.5c0-1-0.4-1.8-1.3-2.2c-0.7-0.4-1.5-0.5-2.6-0.5c-1.2,0-2.3,0.5-3.3,1.6s-1.5,2.2-1.5,3.4c0,1,0.3,1.7,0.9,2.3
				c0.6,0.5,1.3,0.8,2.3,0.8c1.4,0,2.7-0.5,3.9-1.6C178.4,82.2,179,80.9,179,79.5z"/>
			<path fill="#FFFFFF" d="M197.4,68.4c0,0.5-0.1,1-0.3,1.4c-0.2,0.5-0.6,0.9-1,1.2c0-0.2-0.1-0.3-0.1-0.5s0-0.4,0-0.5
				c0-0.9-0.1-1.5-0.2-1.8c-0.2-0.5-0.7-0.8-1.4-0.8c-1.5,0-2.7,0.8-3.6,2.4c-0.7,1.3-1.1,2.8-1.1,4.4c0,2.2,0.3,3.5,1,4
				c0.4,0.3,1.8,0.5,3.9,0.5c0.4,0,0.8,0.1,1.1,0.3c0.3,0.2,0.5,0.5,0.5,0.9s-0.2,0.5-0.7,0.5c-0.2,0-0.6-0.1-1.1-0.2
				c-0.5-0.2-0.9-0.2-1.2-0.2s-0.6,0-0.8,0.1s-0.6,0.1-1,0.3c0.3,1,0.6,1.9,0.8,2.7c0.2,0.7,0.3,1.3,0.3,1.7c0,0.4-0.1,0.8-0.2,1
				c-0.2,0.3-0.4,0.5-0.8,0.6c-0.3-1.2-0.5-2.2-0.7-3c-0.2-0.5-0.4-1.5-0.9-3c-0.1,0-1.2,0.3-3.4,0.9c-0.5,0.1-1,0.3-1.5,0.4
				c-0.4,0-0.8-0.1-1.1-0.2c0.2-0.6,1.1-1.2,2.5-1.7c0.2-0.1,1.2-0.4,3-0.9v-0.2c0-0.4-0.2-1.3-0.6-2.8c-0.2-0.8-0.3-1.4-0.3-1.9
				c0-1.8,0.6-3.6,1.8-5.4c1.4-2,2.9-3,4.7-3c0.8,0,1.4,0.3,1.8,0.8C197.2,67,197.4,67.6,197.4,68.4z"/>
			<path fill="#FFFFFF" d="M212.7,76.3c0,0.4-0.1,0.6-0.2,0.7c-0.1,0.1-0.3,0.2-0.7,0.4c-0.4-0.1-0.8-0.2-1.2-0.3
				c-0.4-0.1-0.8-0.2-1.2-0.2c-0.8,0-1.6,0.3-2.2,0.8c-0.6,0.5-0.9,1.2-0.9,2c0,0.7,0.1,1.4,0.3,2.3c0.4,2,0.7,3.3,0.7,3.8
				c-0.3,0-0.6,0-0.7,0c-0.2,0-0.5,0.1-0.9,0.2c-0.1-0.6-0.3-2.1-0.5-4.6c-0.1-1-0.2-2-0.4-2.8c-0.8,0.5-1.6,1-2.4,1.4
				c-1.1,0.6-1.9,0.9-2.5,0.9h-0.2v-0.6c0-0.7,0.5-1.3,1.5-1.8c2.4-1.1,3.7-1.9,3.8-2.2c0.1-1.7,0.1-3.1,0.2-4.3
				c0.1-2.2,0.6-3.3,1.3-3.3c0.3,0,0.5,0.1,0.7,0.2s0.3,0.3,0.3,0.6c0,0.5-0.2,1.3-0.5,2.6c-0.4,1.3-0.5,2.2-0.5,2.8
				c0,0.2,0,0.4,0,0.6s0.1,0.5,0.2,0.8c1.7-0.4,3.4-0.8,5.1-1.2C212.4,75.3,212.7,75.6,212.7,76.3z"/>
			<path fill="#FFFFFF" d="M229.1,77.1c0,1.9-0.2,3.8-0.7,5.4c-0.7,2.5-1.7,3.8-3.1,3.8c-0.6,0-1.1-0.4-1.5-1.3
				c-0.4-1.1-0.7-1.8-0.8-2.1c-0.4,0.2-1.3,0.8-2.6,1.9c-1,0.9-2,1.3-2.9,1.3c-0.7,0-1.1-0.4-1.1-1.1c0-0.6,0.2-1.2,0.5-1.9
				c0.5-0.9,1-1.9,1.4-2.9c0.2-0.9,0.5-1.8,0.8-2.7c0.3-0.9,0.9-1.6,1.8-1.9c0.1,0.4,0.2,0.8,0.2,1.1c0,0.8-0.4,2.1-1.3,3.9
				c-0.8,1.8-1.3,2.8-1.3,3.3v0.4c1.3-0.4,2.4-1.2,3.2-2.6c0.4-0.6,1-1.8,1.6-3.5c0.5-1.2,0.9-1.7,1.2-1.7c0.2,0,0.4,0.1,0.5,0.3
				c0.1,0.2,0.2,0.5,0.2,0.7c0,0.3-0.1,0.8-0.2,1.3c-0.3,1.1-0.4,1.9-0.4,2.2c0,0.7,0.1,1.3,0.2,2c0.1,0.2,0.2,0.6,0.4,1.2
				c1.1-0.4,1.8-1.3,2.3-2.8c0.3-1,0.5-2.3,0.5-3.8c0-0.5-0.2-1-0.5-1.5c-0.7-1.2-1.1-1.8-1.1-2c0-0.3,0.1-0.5,0.2-0.7
				c0.2-0.2,0.4-0.5,0.6-0.7c0.7,0.3,1.2,0.9,1.4,1.7C229,75.4,229.1,76.2,229.1,77.1z"/>
			<path fill="#FFFFFF" d="M244.9,85.3c-0.1,0.3-0.3,0.5-0.5,0.6c-0.3,0.2-0.5,0.3-0.8,0.3c-0.7,0-1.3-0.8-1.8-2.3
				c-0.2-0.6-0.4-1.2-0.5-1.8c-1.4,1.2-2.6,2.2-3.4,2.8c-1.5,1.2-2.8,1.8-3.8,1.8c-0.5,0-0.8-0.2-1-0.5s-0.3-0.7-0.3-1.2
				c0-1.3,0.6-2.9,1.8-4.8c1.1-1.8,2.3-3,3.5-3.9c0.6-0.4,1.4-0.8,2.2-1s1.6-0.3,2.5-0.3c0.5,0,0.9,0.2,1.2,0.7
				c0.2,0.3,0.3,0.8,0.3,1.4c0,0.5-0.1,1.2-0.3,1.9c-0.5,1.7-0.7,2.7-0.7,3.2c0,0.8,0.3,1.4,0.8,1.8
				C244.4,84.5,244.8,84.9,244.9,85.3z M242.4,76.8c-0.1-0.1-0.2-0.2-0.4-0.4c-0.1-0.1-0.3-0.2-0.5-0.2c-1.5,0-3.1,1-4.7,2.9
				c-1.6,1.9-2.4,3.6-2.4,5.2l0.1,0.7c1.3-0.3,2.5-0.9,3.5-1.8c0.9-0.8,1.7-1.8,2.5-3C241.1,79.4,241.7,78.2,242.4,76.8z"/>
			<path fill="#FFFFFF" d="M259.2,76c0,0.2-0.1,0.5-0.3,0.7c-0.2,0.2-0.5,0.3-0.7,0.3s-0.5-0.4-1.1-1.1s-1.1-1.1-1.6-1.1
				c-1.1,0-2.2,0.6-3.3,1.9c-1.1,1.3-1.6,2.5-1.6,3.6c0,0.3,0.1,1,0.2,1.9c0.1,0.6,0.1,0.9,0.1,1.1c0,0.8-0.1,1.4-0.2,1.7
				c-0.2,0.4-0.7,0.7-1.4,0.9c0-0.8,0-2.1-0.1-3.9s-0.1-3-0.1-3.5c0-1.4,0.3-2.7,1-3.9h0.2c0,0,0.3,0.3,0.7,0.7
				c0.2,0.2,0.3,0.3,0.4,0.5l0.5-0.5h0.3l-0.3,0.1c0.8-0.5,1.5-0.8,2.1-1.1c0.9-0.4,1.7-0.6,2.2-0.6c0.7,0,1.4,0.2,2.1,0.7
				C258.8,74.9,259.2,75.4,259.2,76z"/>
			<path fill="#FFFFFF" d="M272.7,82.5l-0.3,0.2c0,1-1.2,1.8-3.6,2.6c-1.9,0.6-3.6,0.9-4.9,0.9c-1.1,0-1.9-0.3-2.4-0.9
				s-0.8-1.5-0.8-2.6c0-1.7,0.8-3.5,2.3-5.4c1.6-2,3.3-2.9,5-2.9c0.3,0,0.6,0.1,0.7,0.3c0.1,0.2,0.2,0.5,0.2,0.9
				c0,1.3-0.6,2.5-1.7,3.6c-0.3,0.3-1.4,1.2-3.2,2.5c-1.2,0.9-1.8,1.6-1.8,2.1c0,0.4,0.2,0.8,0.7,1.1c0.5,0.3,1,0.4,1.5,0.4
				c0.7,0,1.7-0.2,3.3-0.7c1.5-0.5,2.5-0.9,2.8-1.3c0.2-0.3,0.4-0.5,0.5-0.7c0.2-0.3,0.4-0.5,0.6-0.6l1,0.3L272.7,82.5L272.7,82.5z
				 M267.4,76.1l-0.4,0.4c-0.2,0-0.4,0.1-0.6,0.2s-0.4,0.2-0.5,0.3c-0.6,0.2-1.1,0.6-1.5,1.2c-0.2,0.2-0.9,1.1-1.9,2.7h0.4
				c1,0,2.1-0.5,3.1-1.6C266.8,78.2,267.4,77.1,267.4,76.1z"/>
		</g>
	</g>
</g>
</svg>
