<?xml version="1.0" encoding="utf-8"?>
<!-- Generator: Adobe Illustrator 17.1.0, SVG Export Plug-In . SVG Version: 6.00 Build 0)  -->
<!DOCTYPE svg PUBLIC "-//W3C//DTD SVG 1.1//EN" "http://www.w3.org/Graphics/SVG/1.1/DTD/svg11.dtd">
<svg version="1.1" xmlns="http://www.w3.org/2000/svg" xmlns:xlink="http://www.w3.org/1999/xlink" x="0px" y="0px"
	 viewBox="0 0 180 240" enable-background="new 0 0 180 240" xml:space="preserve">
<g id="Layer_2">
	<g id="Layer_3">
	</g>
	<g id="Layer_3_copy">
	</g>
</g>
<g id="Layer_1">
	<g>
		<g>
			<g>
				<path fill="#D64546" d="M20.4,50.2c-1.4,19.6-1.8,40-10.8,57.9c-4.3,8.5-10.5,19-5.3,28.4c5.5,9.8,23,14.7,27.9,1.2L20.4,50.2z"
					/>
				<g>
					<path fill="#D64546" d="M123.4,28.6c0.2-1.1,0.3-2.2,0.3-3.3c0-9-7.3-16.3-16.3-16.3c-5.2,0-9.9,2.5-12.9,6.3
						C88.6,9.1,80.4,5.2,71.2,5.2c-12.5,0-23.3,7.2-28.6,17.6c-1.5-0.3-3.1-0.5-4.8-0.5c-12.2,0-22.1,9.9-22.1,22.1
						c0,12.2,9.9,22.1,22.1,22.1c4.9,0,9.4-1.6,13.1-4.3c5.5,4.5,12.6,7.3,20.3,7.3c8.9,0,16.9-3.6,22.7-9.5
						c4.2,5.7,11.2,9.4,19.2,9.4c12.8,0,23.2-9.6,23.2-21.5C136.3,39.5,131,32.1,123.4,28.6z"/>
					<g>
						<path fill="#FFFFFF" d="M41.2,31.8c1.1,0,2.3,0.1,3.6,0.4l4.9,1.1l2.3-4.5c4.6-9,13.7-14.7,23.8-14.7c3.5,0,6.8,0.7,9.9,1.9
							c-4.2-2.9-9.3-4.5-14.5-4.5c-9.7,0-18.6,5.4-23,14.2L46,30.1L41.2,29c-1.2-0.3-2.3-0.4-3.4-0.4c-8.7,0-15.8,7.1-15.8,15.8
							c0,4.3,1.7,8.2,4.5,11.1c-1.1-2.2-1.7-4.7-1.7-7.3C24.8,39.2,32.2,31.8,41.2,31.8z"/>
						<path fill="#FFFFFF" d="M103.6,19.9c3.6-2.4,8.2-3.6,10.9-1.1c0,0,0,0-0.1-0.1c-3.6-5.1-11.4-4.1-15,0.4
							c-1.9,2.4-4.4,4.9-1,7.2C98.8,24.2,100.9,21.7,103.6,19.9z"/>
					</g>
				</g>
				<g>
					<g>
						<path fill="#0E3A51" d="M161.3,69.8h-46.5c-9.1,0-16.5,7.4-16.5,16.5v93.5c0,9.1,7.4,16.5,16.5,16.5h40.7
							c9.1,0,16.5-7.4,16.5-16.5l5.8-93.5C177.8,77.2,170.4,69.8,161.3,69.8z M160.7,170.8l0,0.2v0.2c0,4.7-3.8,8.5-8.5,8.5h-35
							c-4.7,0-8.5-3.8-8.5-8.5V90.8c0-4.7,3.8-8.5,8.5-8.5h40c4.6,0,8.4,3.7,8.5,8.4L160.7,170.8z"/>
					</g>
				</g>
				<path fill="#0E3A51" d="M20.1,55.1v166.7c0,7.2,5.8,12.9,12.9,12.9h89.7c7.2,0,12.9-5.8,12.9-12.9V55.1H20.1z"/>
				<rect x="26.7" y="61.7" fill="#FFFFFF" width="102.4" height="33.6"/>
				<rect x="26.7" y="95.3" fill="#D64546" width="102.4" height="17.2"/>
				<path fill="#F16665" d="M26.7,112.5v109.3c0,3.5,2.8,6.3,6.3,6.3h89.7c3.5,0,6.3-2.8,6.3-6.3V112.5H26.7z"/>
				<path fill="#FFFFFF" d="M42.2,208.4c0,2.6-2.1,4.7-4.7,4.7l0,0c-2.6,0-4.7-2.1-4.7-4.7v-81.1c0-2.6,2.1-4.7,4.7-4.7l0,0
					c2.6,0,4.7,2.1,4.7,4.7V208.4z"/>
			</g>
		</g>
	</g>
</g>
</svg>
