<?xml version="1.0" encoding="utf-8"?>
<!-- Generator: Adobe Illustrator 17.1.0, SVG Export Plug-In . SVG Version: 6.00 Build 0)  -->
<!DOCTYPE svg PUBLIC "-//W3C//DTD SVG 1.1//EN" "http://www.w3.org/Graphics/SVG/1.1/DTD/svg11.dtd">
<svg version="1.1" id="Layer_1" xmlns="http://www.w3.org/2000/svg" xmlns:xlink="http://www.w3.org/1999/xlink" x="0px" y="0px"
	 viewBox="0 0 240 240" enable-background="new 0 0 240 240" xml:space="preserve">
<g>
	<g>
		<polygon fill="#E25758" points="128.4,198.5 128.6,198.5 128.6,197.7 128.8,197.7 128.8,197.5 128.6,197.5 128.6,197.2 
			128.4,197.2 128.4,197.5 128.1,197.5 128.1,197.7 128.4,197.7 		"/>
		<path fill="#E25758" d="M137.3,225.1l-0.2-10l0.3-0.2v-0.1H137l-0.1-0.5l0.3-0.2V214h-0.3l0,0c0,0,0,0,0-0.1c0,0,0,0,0-0.1
			l0.1-0.1v-0.1h-0.1c0-0.1,0-0.3,0-0.4c0-0.1-0.1-0.4-0.1-0.4c0-0.1,0.1-0.5,0-0.7s0-0.2,0-0.3c0,0,0.1-0.2-0.1-0.3
			c-0.2-0.1-0.2,0.1-0.2,0.2c0,0.1-0.1,0.1-0.1,0s-0.2-0.3-0.1-0.6c0,0-0.2,0-0.3,0.1l0,0c-0.9-3-3.2-5.3-6-5.9c0,0,0,0-0.1,0l0,0
			c0,0,0.1,0,0.1-0.1l-0.1-0.1v-0.3c0,0,0,0,0-0.1s0-0.1-0.1-0.1l0,0v-1.3v-0.1c0-0.1,0-0.1-0.1-0.1h-0.1c0,0,0,0,0-0.1
			c0,0,0-0.1-0.1-0.1c-0.5-0.4-0.8-1-0.8-1.6c0-0.2,0-0.4,0.1-0.6c-0.1,0-0.2,0-0.3-0.1v-0.3c0.1,0,0.2-0.1,0.2-0.2
			s-0.1-0.2-0.2-0.2v-1.5h-0.1v1.5c-0.1,0-0.2,0.1-0.2,0.2s0.1,0.2,0.2,0.2v0.3c-0.1,0-0.2,0-0.3,0c0.1,0.2,0.1,0.4,0.1,0.6
			c0,0.6-0.3,1.2-0.8,1.6c0,0-0.1,0-0.1,0.1c0,0,0,0,0,0.1h-0.1l-0.1,0.1v0.1v1.3l0,0c-0.1,0-0.1,0.1-0.1,0.1v0.1v0.3
			c0,0-0.1,0-0.1,0.1c0,0,0,0.1,0.1,0.1s0,0,0,0s0,0-0.1,0c-3.4,0.6-6.2,3.6-6.6,7.3l-0.1-0.1c-0.1-0.1-0.2-0.2-0.2-0.3
			s0.2,0,0.2-0.1s-0.3-0.2-0.2-0.4s0.1-0.2,0.2-0.3s0.6-0.3,0.4-0.8c0-0.1-0.3-0.1-0.3-0.1c0.1,0.3-0.1,0.5-0.1,0.6s-0.1,0.1-0.1,0
			s0-0.3-0.2-0.2s-0.1,0.2-0.1,0.3c0,0,0.1,0.1,0,0.3s-0.1,0.6,0,0.7s-0.1,0.3-0.1,0.4c0,0.1,0,0.4,0,0.5l0,0h-0.1v0.1l0.1,0.1v0.1
			h-0.3v0.1l0.3,0.2l-0.1,0.5h-0.4v0.1l0.3,0.2l-0.3,3.4v1.1V240h21.2v-15.2L137.3,225.1L137.3,225.1z M127.8,205
			c0,0.1-0.1,0.1-0.1,0.1c-0.1,0-0.1,0-0.1-0.1v-1.3c0-0.1,0.1-0.1,0.1-0.1c0.1,0,0.1,0,0.1,0.1V205L127.8,205z M129.5,205
			c0,0.1-0.1,0.1-0.1,0.1s-0.1,0-0.1-0.1v-1.3c0-0.1,0.1-0.1,0.1-0.1s0.1,0,0.1,0.1V205L129.5,205z M136.5,213.1
			c0,0.1-0.1,0.2-0.2,0.3l0,0c0-0.5-0.1-0.9-0.2-1.4c0.1,0.1,0.2,0.1,0.3,0.2c0.1,0.1,0.1,0.1,0.2,0.3c0,0.2-0.2,0.3-0.2,0.4
			C136.3,213,136.4,213,136.5,213.1L136.5,213.1z"/>
	</g>
	<g>
		<path fill="#E25758" d="M116.9,158.7h13.2c0.1-0.2,0.3-0.5,0.4-0.7h-13.9C116.6,158.2,116.7,158.5,116.9,158.7z"/>
		<path fill="#E25758" d="M116.2,157.1c0,0.2,0.1,0.4,0.2,0.6h14.2c0.1-0.2,0.1-0.4,0.2-0.6H116.2z"/>
		<path fill="#E25758" d="M117.2,159.2h12.5c0-0.1,0.1-0.1,0.1-0.2H117C117.1,159.1,117.1,159.1,117.2,159.2z"/>
		<path fill="#E25758" d="M121.6,162.4v1l0,0h-0.4c-0.5,0-0.9,0.4-1,0.9h1.4h3.9h1.4c0-0.5-0.4-0.9-1-0.9h-0.4l0,0v-1
			c1.7-0.5,3.2-1.5,4.2-2.9h-12.1C118.4,160.9,119.9,161.9,121.6,162.4z"/>
		<path fill="#E25758" d="M125.8,167.1c0.5,0,0.9-0.4,1-0.9h-1.3h-4h-1.3c0,0.5,0.4,0.9,1,0.9h0.3l-2.1,72.6c0,0,2,0,4.1,0l0,0
			c2.1,0,4.1,0,4.1,0l-2.1-72.6H125.8L125.8,167.1z"/>
		<polygon fill="#E25758" points="125.4,165.7 125.7,165.7 125.7,164.8 125.4,164.8 121.5,164.8 121.2,164.8 121.2,165.7 
			121.5,165.7 		"/>
		<path fill="#E25758" d="M123.5,91.3L123.5,91.3L123.5,91.3L123.5,91.3L123.5,91.3c-0.1,0-0.2,0-0.3,0.1v8.2l-0.1,0.4l-0.1,15.8
			l-0.2,1.8v13.6l-0.1,1.4l-0.4,5c-1.2,0-1.3,0-1.3,0l0,0c0,0,0,0-0.6,0c-1.4,0,0,1.3,0,1.3l0.8,0.9v7.9H120l-0.2,0.7
			c-2.4,1.3-4,3.8-4,6.7c0,0.5,0.1,1,0.1,1.4h14.8c0.1-0.5,0.1-0.9,0.1-1.4c0-2.9-1.6-5.4-4-6.7l-0.1-0.7h-1.2v-7.9l0.8-0.9
			c0,0,1.3-1.3,0-1.3s0.4,0-1.9,0l-0.4-5l-0.1-1.4v-13.6l-0.2-1.8l-0.1-15.8l-0.1-0.4v-8.1C123.7,91.3,123.6,91.3,123.5,91.3
			L123.5,91.3L123.5,91.3z"/>
	</g>
	<g>
		<polygon fill="#E25758" points="81.7,240 115,240 115,196.4 81.7,196.4 		"/>
		<path fill="#E25758" d="M119.1,186.3h-0.4v4.5H78v49.1h0.8v-48.3h39.3v48.3h1.2l0,0l1.4-47.3l-1.6-1.8L119.1,186.3L119.1,186.3z"
			/>
		<path fill="#E25758" d="M119.3,240L119.3,240L119.3,240L119.3,240z M120.7,192.7l-1.4,47.3h2.1v-46.5L120.7,192.7L120.7,192.7z"/>
	</g>
	<path fill="#E25758" d="M207.7,195v-0.2c0,0,0.5-0.1,0.5-0.6c0-0.4-0.4-0.6-0.6-0.6c-0.1,0-0.1,0-0.1,0l-0.1-0.2v-0.5H207l-0.4-1.4
		l-0.3-1.8h0.2v-0.2l-0.2-0.1l0,0c0-0.3,0-0.5,0-0.5l0,0c0-0.1,0-0.1,0-0.1H206v0.1h-0.7l-0.1-1.3l-0.4-0.2l-0.1-1.4l-0.6-1.6
		l-2.7-0.4l-0.4-1.3h-1.1l-0.4,0.4h-0.8l-0.4-0.1v0.9l0.4,0.4l-0.1,2.5l1.3,0.2l-0.1,1.7l0.8,0.7l0.4,1.8v0.1l-0.1-0.1l-0.3-0.8
		l-0.4-0.8l-0.5-0.1v-0.3l-0.4-0.1l0.1-1.7l-1-0.1v-0.6l-0.3-0.2l0.2-2.2l-0.3-0.1v-1.3l-0.2-0.1l-1.2,9l-0.4,1.3h-0.3v0.5l-0.1,0.2
		c0,0,0,0-0.1,0c-0.2,0-0.6,0.2-0.6,0.6c0,0.6,0.5,0.6,0.5,0.6v0.2h-0.7v0.2l0.9,0.5v1.2c0,0-0.3,0.1-0.3,0.4c0,0.2,0.3,0.3,0.3,0.3
		v6.3H195v0.1l0.4,0.3v1.8h-0.3v0.1l0.3,0.1v3.2l-0.5,0.3v0.1l0.3,0.1v2.3l-0.3,0.5l-0.1,1.2h-0.7v0.1l0.3,0.3v1.2h-0.2l-0.8,5.2
		h-0.5v-2.9l0.3-0.2v-0.1h-0.4V215l0,0l0.2-0.3l0.1-0.7h0.4l-0.1-0.3H193l-0.4-1.5l-0.1-0.1l-0.1-1.5c0,0-0.2-0.3,0-0.3
		c0.1,0,0.1-0.7,0-0.7s-0.2,0-0.2,0l-1.5-7.5c0.2,0,0.3-0.2,0.3-0.4s-0.1-0.3-0.3-0.4v-0.7h0.2v0.2h0.1v-0.5h-0.1v0.1h-0.2v-0.3h0.1
		v-0.2h-0.1v-0.1h-0.2v0.1h-0.1v0.2h0.1v0.3h-0.3v-0.1H190v0.5h0.1v-0.2h0.3v0.6c-0.2,0-0.3,0.2-0.3,0.4s0.1,0.4,0.4,0.4l-1.3,7.4
		h-0.4c0,0,0,0.6,0,0.8c0.3,0.1,0.1,0.4,0.1,0.4l-0.1,1.5l-0.1,0.1l-0.4,1.5h-0.4l-0.1,0.3h0.4l0.1,0.7l0.2,0.3v2.7h-0.4v0.1
		l0.3,0.2v5.8h-0.8v0.3h0.2l0.3,0.2v0.2V240h19.7v-44.2l0.6-0.5v-0.2L207.7,195L207.7,195z M189.6,216.5v-1.1h0.1c0,0,0,0,0,0.1
		c0,0.2,0.1,0.4,0.2,0.4v0.7L189.6,216.5L189.6,216.5z M190.3,216.5H190v-0.6c0.1,0,0.2-0.2,0.2-0.4v-0.1h0.1V216.5L190.3,216.5z
		 M191,216.5v-1.1h0.1v0.1c0,0.2,0.1,0.3,0.2,0.4v0.6H191L191,216.5z M191.6,216.5h-0.3v-0.6c0.1,0,0.2-0.2,0.2-0.4c0,0,0,0,0-0.1
		h0.1V216.5L191.6,216.5z M199,202.9h-0.4v-3.7c0,0,0,0,0.1,0c0.2,0,0.3,0.3,0.3,0.7l0,0L199,202.9L199,202.9z M200,202.9h-0.6v-3
		l0,0c0-0.4,0.1-0.7,0.3-0.7s0.3,0.3,0.3,0.7l0,0V202.9L200,202.9z M200,198.3C200,198.3,200,198.2,200,198.3c-0.1,0-0.1,0-0.2,0
		c-0.1,0-0.1,0.1-0.1,0.1v0.1c0,0,0,0,0,0.1s-0.1,0.2-0.2,0.2c-0.1,0-0.2-0.1-0.2-0.2v-0.1c0,0,0,0,0-0.1s-0.1-0.1-0.1-0.1h-0.1
		c0,0,0,0-0.1,0s-0.2-0.1-0.2-0.2c0-0.1,0.1-0.2,0.2-0.2c0,0,0,0,0.1,0c0,0,0,0,0.1,0s0.1-0.1,0.1-0.1v-0.1c0,0,0,0,0-0.1
		s0.1-0.2,0.2-0.2c0.1,0,0.2,0.1,0.2,0.2v0.1l0,0v0.1c0,0.1,0.1,0.1,0.1,0.1h0.1c0,0,0,0,0.1,0s0.2,0.1,0.2,0.2
		C200.2,198.2,200.1,198.3,200,198.3L200,198.3z M200.7,202.9h-0.4v-3l0,0c0-0.4,0.1-0.7,0.3-0.7h0.1L200.7,202.9L200.7,202.9z"/>
	<g>
		<path fill="#E25758" d="M149.8,225.9l-0.4-0.2v-0.4l0.4-0.2l0.4,0.2v0.4L149.8,225.9L149.8,225.9z M150.8,225.9l-0.4-0.2v-0.4
			l0.4-0.2l0.4,0.2v0.4L150.8,225.9L150.8,225.9z M151.8,225.9l-0.4-0.2v-0.4l0.4-0.2l0.4,0.2v0.4L151.8,225.9L151.8,225.9z
			 M156.9,225.9l-0.4-0.2v-0.4l0.2-0.1l0,0l0.2-0.1l0.4,0.2v0.4L156.9,225.9L156.9,225.9z M157.9,225.9l-0.4-0.2v-0.4l0.4-0.2
			l0.4,0.2v0.4L157.9,225.9L157.9,225.9z M158.9,225.9l-0.4-0.2v-0.4l0.4-0.2l0.4,0.2v0.4L158.9,225.9L158.9,225.9z M162.9,225.9
			l-0.4-0.2v-0.4l0.4-0.2l0.4,0.2v0.4L162.9,225.9L162.9,225.9z M163.9,225.9l-0.4-0.2v-0.4l0.4-0.2l0.4,0.2v0.4L163.9,225.9
			L163.9,225.9z M177.4,225.9l-0.4-0.2v-0.4l0.4-0.2l0.4,0.2v0.4L177.4,225.9L177.4,225.9z M178.5,225.9l-0.4-0.2v-0.4l0.4-0.2
			l0.4,0.2v0.4L178.5,225.9L178.5,225.9z M179.5,225.9l-0.4-0.2v-0.4l0.4-0.2l0.4,0.2v0.4L179.5,225.9L179.5,225.9z M180.5,225.9
			l-0.4-0.2v-0.4l0.4-0.2l0.4,0.2v0.4L180.5,225.9L180.5,225.9z M181.5,225.9l-0.4-0.2v-0.4l0.2-0.1l0,0l0.2-0.1l0.4,0.2v0.4
			L181.5,225.9L181.5,225.9z M182.5,225.9l-0.4-0.2v-0.4l0.4-0.2l0.4,0.2v0.4L182.5,225.9L182.5,225.9z M183.5,225.9l-0.4-0.2v-0.4
			l0.4-0.2l0.4,0.2v0.4L183.5,225.9L183.5,225.9z M184.5,225.9l-0.4-0.2v-0.4l0.4-0.2l0.4,0.2v0.4L184.5,225.9L184.5,225.9z
			 M185.6,225.9l-0.4-0.2v-0.4l0.4-0.2l0.4,0.2v0.4L185.6,225.9L185.6,225.9z M186.6,225.9l-0.4-0.2v-0.4l0.4-0.2l0.4,0.2v0.4
			L186.6,225.9L186.6,225.9z M187.6,225.9l-0.4-0.2v-0.4l0.4-0.2l0.4,0.2v0.4L187.6,225.9L187.6,225.9z M166.1,233.2
			c-0.1,0-0.1,0-0.1-0.1v-8.2l0.1-0.1c0,0,0.1,0,0.1,0.1v8.2C166.2,233.1,166.1,233.2,166.1,233.2L166.1,233.2z M175.8,233.2
			c-0.1,0-0.1,0-0.1-0.1v-8.2l0.1-0.1c0,0,0.1,0,0.1,0.1v8.2C176,233.1,175.9,233.2,175.8,233.2L175.8,233.2z M166.9,218.4
			c-0.1,0-0.1,0-0.1-0.1v-3.4l0.1-0.1c0,0,0.1,0,0.1,0.1v3.4C167.1,218.4,167,218.4,166.9,218.4L166.9,218.4z M174.4,218.4
			c-0.1,0-0.1,0-0.1-0.1v-3.4l0.1-0.1c0,0,0.1,0,0.1,0.1v3.4C174.5,218.4,174.4,218.4,174.4,218.4L174.4,218.4z M170.9,203.1
			c-0.6,0-1.1-0.5-1.1-1.1s0.5-1.1,1.1-1.1s1.1,0.5,1.1,1.1S171.5,203.1,170.9,203.1L170.9,203.1z M170.8,187.6h-0.2v4h-0.4v0.7h0.4
			l-0.6,3c-0.4,0.2-0.8,0.4-0.8,0.4l-0.1,0.9l-0.1,0.1h-0.9l-0.6-0.5l-1.7,0.1l-0.3,0.7v0.9l0.2,0.1v0.8l0.4,0.8l-0.3,0.4v0.6
			l0.3,0.7v2.9l-0.4,0.7v0.6l0.2,0.3v5.9l-0.4,0.7v0.1h0.3l-0.3,0.7v0.2h0.3v1.7l-0.4,0.2v0.3l0.2,0.1v3.9H165l-0.6,0.3v2.2l0.3,0.2
			v2l0,0h-0.1h-0.1H162v0.5l0.3,0.2v0.4l-0.3,0.2l0.2,12.8h0.2v0.2l0,0c0.1,0,0.2,0.1,0.2,0.2h0.1v0.6h-3.1v-0.6h0.1
			c0-0.1,0.1-0.2,0.2-0.2l0,0v-0.2h0.2v-12.8l-0.3-0.1v-0.3l0.3-0.1v-0.5h-4.3v0.7l0.3-0.2l0.4,0.2v0.4l-0.4,0.2l-0.3-0.2v13v0.2
			l0,0c0.1,0,0.2,0.1,0.2,0.2h0.1v0.6h-3v-0.6h0.1c0-0.1,0.1-0.2,0.2-0.2l0,0v-0.2v-12.9l-0.2,0.1l-0.4-0.2v-0.4l0.4-0.2l0.2,0.1
			v-0.6h-4.2v0.5l0,0l0.4,0.2v0.4l-0.4,0.2l0,0v12.8v0.2l0,0c0.1,0,0.2,0.1,0.2,0.2h0.1v0.6h-3v-0.6h0.1c0-0.1,0.1-0.2,0.2-0.2l0,0
			v-0.2l0.1-14.2h-2.4l-0.2,0.2v0.7l0.2,0.2v0.8l0.2,0.2v9.3H144v0.7l0.2,0.3v3.1h44.6v-15.1h-11.2h-0.1h-0.1l0,0v-2l0.3-0.2v-2.2
			l-0.6-0.3h-0.5v-3.9l0.2-0.1v-0.3l-0.4-0.2V214h0.3v-0.2l-0.3-0.7h0.3V213l-0.4-0.7v-5.9l0.2-0.3v-0.6l-0.4-0.7v-2.9l0.3-0.7v-1
			l-0.3-0.4l0.4-0.8v-0.8l0.2-0.1v-0.9l-0.3-0.7l-1.7-0.1l-0.6,0.5h-0.9l-0.1-0.1l-0.1-0.9c0,0-0.6-0.3-0.6-0.4l-0.7-3h0.4v-0.7
			h-0.4L170.8,187.6L170.8,187.6z"/>
		<path fill="#E25758" d="M188.6,225.9l-0.4-0.2v-0.4l0.4-0.2l0.4,0.2v0.4L188.6,225.9L188.6,225.9z M189.6,225.9l-0.4-0.2v-0.4
			l0.4-0.2l0.4,0.2v0.4L189.6,225.9L189.6,225.9z M190.6,225.9l-0.4-0.2v-0.4l0.4-0.2l0.4,0.2v0.4L190.6,225.9L190.6,225.9z
			 M191.6,225.9l-0.4-0.2v-0.4l0.4-0.2l0.4,0.2v0.4L191.6,225.9L191.6,225.9z M192.6,225.9l-0.4-0.2v-0.4l0.2-0.1l0,0l0.2-0.1
			l0.4,0.2v0.4L192.6,225.9L192.6,225.9z M197.7,224.4h-3.6l-0.8,0.2h-5.1v15.1h9.8v-3.1l0.2-0.3v-0.7h-0.7v-9.3l0.2-0.2v-0.8
			l0.2-0.2v-0.7H197.7L197.7,224.4z"/>
		<path fill="#E25758" d="M170.6,202.5c-0.1-0.1-0.2-0.3-0.2-0.4c0-0.3,0.2-0.5,0.5-0.5s0.5,0.2,0.5,0.5s-0.2,0.5-0.5,0.5
			c0,0,0,0-0.1,0c0-0.1,0.1-0.3,0.1-0.3c0.3-0.1,0.3-0.3,0.1-0.3h-0.1C170.7,202,170.7,202.3,170.6,202.5L170.6,202.5z M170.9,201.1
			c-0.5,0-0.9,0.4-0.9,0.9s0.4,0.9,0.9,0.9s0.9-0.4,0.9-0.9C171.8,201.5,171.4,201.1,170.9,201.1L170.9,201.1z"/>
		<path fill="#E25758" d="M171.5,187.6c-0.1,0-0.3,0-0.4,0c0,0,0,1.1,0,1.3l0,0c0.1-0.1,0.3-0.1,0.4-0.1c0.3,0,0.6,0.1,0.8,0.1
			s0.4,0,0.6,0c0.3,0,0.4,0,0.4,0c0.2-0.3,0-0.5,0-0.8c0-0.1,0-0.1,0.1-0.2c-0.1,0-0.2,0-0.3,0c-0.3,0-0.5-0.1-0.8-0.2
			C172.1,187.7,171.8,187.6,171.5,187.6L171.5,187.6z"/>
	</g>
	<g>
		<g>
			<rect x="78.9" y="216.8" fill="#E25758" width="2.8" height="23.2"/>
			<path fill="#E25758" d="M74.1,216.6c0-0.1-0.1-0.2-0.2-0.2s-0.2,0.1-0.2,0.2v0.2h-4v-0.2c0-0.1-0.1-0.2-0.2-0.2s-0.2,0.1-0.2,0.2
				v0.2h-4.1v-1h0.1v-0.3h-0.6V215h-0.3v-0.1l0.1-0.1h0.1v-0.4h-0.3l-0.2-0.1v-0.4l-0.1-0.1v-0.3h-0.1v-0.7H64
				c0.1,0,0.1-0.1,0.1-0.1c0-0.1,0-0.1-0.1-0.1v-0.1c0.1,0,0.1-0.1,0.1-0.2c0-0.1-0.1-0.2-0.2-0.2H64v-0.3c0,0,0,0,0-0.1
				s0-0.1-0.1-0.1l0,0v-0.1v-0.1c0-0.1-0.1-0.2-0.3-0.3v-0.2h0.1v-0.1h-0.1v-0.1h-0.1v0.1h-0.1v0.1h0.1v0.2c-0.1,0-0.3,0.1-0.3,0.3
				v0.1v0.1h-0.1c-0.1,0-0.1,0-0.1,0.1c0,0,0,0,0,0.1v0.3h0c-0.1,0-0.2,0.1-0.2,0.2c0,0.1,0.1,0.2,0.2,0.2v0.1l-0.1,0.1
				c0,0.1,0.1,0.1,0.1,0.1l0,0v0.7h-0.1v0.3v0.1v0.4l-0.2,0.1h-0.2v0.4h0.1l0.1,0.1v0.1h-0.3v0.5h-0.1c-1-4.7-5.9-9.2-11.3-9.2
				c-5.5,0-10.3,4.4-11.1,9.2h-0.3V215h-0.3v-0.1l0.1-0.1h0.1v-0.4h-0.2l-0.2-0.1v-0.4v-0.1v-0.3H39v-0.7l0,0c0.1,0,0.1-0.1,0.1-0.1
				c0-0.1,0-0.1-0.1-0.1v-0.1c0.1,0,0.1-0.1,0.1-0.2c0-0.1-0.1-0.2-0.2-0.2h-0.2v-0.3c0,0,0,0,0-0.1s0-0.1-0.1-0.1h-0.1v-0.1v-0.1
				c0-0.1-0.1-0.2-0.3-0.3v-0.2h0.1v-0.1h-0.1v-0.1h-0.1v0.1H38v0.1h0.1v0.2c-0.1,0-0.3,0.1-0.3,0.3v0.1v0.1h-0.1
				c-0.1,0-0.1,0-0.1,0.1c0,0,0,0,0,0.1v0.3h-0.2c-0.1,0-0.2,0.1-0.2,0.2c0,0.1,0.1,0.2,0.2,0.2v0.1l-0.1,0.1c0,0.1,0.1,0.1,0.1,0.1
				h0.1v0.7h-0.1v0.3v0.1v0.4l-0.2,0.1H37v0.4h0.1l0.1,0.1v0.1h-0.3v0.5h-0.7v0.3h0.1v1h-4.1v-0.2c0-0.1-0.1-0.2-0.2-0.2h-0.1v0.3
				h-3.3H28v-0.2c0-0.1-0.1-0.2-0.2-0.2s-0.2,0.1-0.2,0.2v0.2h-4v-0.2c0-0.1-0.1-0.2-0.2-0.2s-0.2,0.1-0.2,0.2v0.2h-4v-0.2
				c0-0.1-0.1-0.2-0.2-0.2s-0.2,0.1-0.2,0.2v0.2H14v-0.2l0,0v-0.6l0,0v-5.2l0,0l0.2-0.3H14v-0.1h0.3l0.4-0.3H14v-0.9h-0.4V209
				c0.1,0,0.1-0.1,0.1-0.2c0-0.1-0.1-0.3-0.2-0.3c-0.1,0-0.2,0.1-0.2,0.3c0,0.1,0,0.2,0.1,0.2v0.1h-2.8V209c0.1,0,0.1-0.1,0.1-0.2
				c0-0.1-0.1-0.3-0.2-0.3c-0.1,0-0.2,0.1-0.2,0.3c0,0.1,0,0.2,0.1,0.2v0.1H8.9v-9.6H8.6v9.5H7.5v-0.1c0.1,0,0.1-0.1,0.1-0.2
				c0-0.1-0.1-0.3-0.2-0.3s-0.2,0.1-0.2,0.3c0,0.1,0,0.2,0.1,0.2v0.1h-3v-0.1c0.1,0,0.1-0.1,0.1-0.2c0-0.1-0.1-0.3-0.2-0.3
				S4,208.5,4,208.7c0,0.1,0,0.2,0.1,0.2v0.1H3.6v0.9H2.9l0.4,0.3h0.3v0.1H3.3l0.2,0.3h0.1v6.2H2.7v2.7H2v-0.4H1.9V219
				c0-0.1-0.1-0.2-0.1-0.3s0-0.3,0-0.4v-0.7l-0.1-0.2v-0.3c0,0,0-0.3-0.1-0.3l0,0c-0.3-0.5-0.3-0.5-0.4-0.5l0,0c0,0-0.1-0.1-0.1-0.2
				L1,216l0,0H0.9c0,0-0.1,0-0.2,0.1c0,0.1,0,0.2,0,0.3l0.1,0.1v0.1l-0.1,0.1l0,0v-0.2v-0.2H0.5v0.3v0.2c0,0,0.3,0.2,0.4,0.2
				l0.1,0.1l0,0H0.7v0.2l0.1,0.2v0.6c0,0,0,0.2,0,0.3l0,0l0.1,0.1c0,0,0,0.1,0,0.2v0.2L0.8,219l-0.4,0.1v1.6H0v0.4l0.2,0.2h0.1l0,0
				l0.1,0.2h0.1v0.9H0.4v0.4l0,0l0,0l0,0l0,0l0,0c0,0.3,0.1,0.5,0.2,0.6v10.1c-0.1,0-0.2,0.1-0.2,0.3H0.3v5.9h13.4h6.8h20h2.9H78
				v-23.3h-3.9C74.1,216.8,74.1,216.6,74.1,216.6z M2.7,234H2.5v1.3H2.1V234H2c0-0.1-0.1-0.3-0.2-0.3v-10.1c0.1-0.1,0.2-0.3,0.2-0.6
				h0.7C2.7,223,2.7,234,2.7,234z M8.3,212.7c0-0.3,0.3-0.5,0.6-0.5s0.6,0.2,0.6,0.5v1.7H8.4L8.3,212.7L8.3,212.7z M5.9,212.7
				c0-0.3,0.3-0.5,0.6-0.5c0.3,0,0.6,0.2,0.6,0.5v1.7H5.9V212.7L5.9,212.7z M7.4,235.1H6.7v-5.8h0.8L7.4,235.1L7.4,235.1z
				 M9.7,235.1H7.9v-5.8h1.8V235.1z M11,235.1h-0.8v-5.8H11V235.1z M11,227.3H6.7v-2.8c0.1-0.1,0.3-0.3,0.5-0.4l0.5-0.3
				c0.2-0.1,0.4-0.1,0.6-0.2l0.3,0.4h0.6l0.3-0.4c0.2,0,0.5,0.1,0.7,0.2l0.5,0.3c0.2,0.1,0.3,0.3,0.5,0.5
				C11,224.7,11,227.3,11,227.3z M11.9,214.4h-1.2v-1.7c0-0.3,0.3-0.5,0.6-0.5s0.6,0.2,0.6,0.5L11.9,214.4L11.9,214.4z M48.1,234
				c-0.1,0-0.2,0.2-0.2,0.3h-0.1v0.8h-2.4v-0.8h-0.1c0-0.1-0.1-0.3-0.2-0.3v-10.8h3V234L48.1,234z M52.5,234c-0.1,0-0.2,0.2-0.2,0.3
				h-0.1v0.8h-2.4v-0.8h-0.1c0-0.1-0.1-0.3-0.2-0.3v-10.8h3V234L52.5,234z M56.8,234c-0.1,0-0.2,0.2-0.2,0.3h-0.1v0.8h-2.4v-0.8H54
				c0-0.1-0.1-0.3-0.2-0.3v-10.8h3V234L56.8,234z"/>
		</g>
		<path fill="#E25758" d="M90.9,235.1v-5.8h0.8v5.8H90.9L90.9,235.1z M92.2,235.1v-5.8H94v5.8H92.2L92.2,235.1z M94.4,235.1v-5.8
			h0.8v5.8H94.4L94.4,235.1z M90.9,227.3v-2.8c0.1-0.1,0.3-0.3,0.5-0.4l0.5-0.3c0.2-0.1,0.4-0.1,0.6-0.2l0.3,0.4h0.6l0.3-0.4
			c0.2,0,0.5,0.1,0.7,0.2l0.5,0.3c0.2,0.1,0.3,0.3,0.5,0.5v2.6L90.9,227.3L90.9,227.3z M89.9,214.4v-1.7c0-0.3,0.3-0.5,0.6-0.5
			s0.6,0.2,0.6,0.5v1.7H89.9L89.9,214.4z M92.3,214.4v-1.7c0-0.3,0.3-0.5,0.6-0.5s0.6,0.2,0.6,0.5v1.7H92.3L92.3,214.4z M94.7,214.4
			v-1.7c0-0.3,0.3-0.5,0.6-0.5s0.6,0.2,0.6,0.5v1.7H94.7L94.7,214.4z M93.2,199.5h-0.3v9.5h-1.4v-0.1c0.1,0,0.1-0.1,0.1-0.2
			c0-0.1-0.1-0.3-0.2-0.3s-0.4,0.1-0.4,0.2s0,0.2,0.1,0.2v0.1h-2.8v-0.1c0.1,0,0.1-0.1,0.1-0.2c0-0.1-0.1-0.3-0.2-0.3
			s-0.2,0.1-0.2,0.3c0,0.1,0,0.2,0.1,0.2v0.1h-0.4v0.9H87l0.4,0.3h0.2v0.1h-0.2l0.2,0.3l0,0v5.2l0,0v0.6l0,0v0.3h-4.8v-0.2
			c0-0.1-0.1-0.2-0.2-0.2s-0.2,0.1-0.2,0.2v0.2h-0.8v23.2h19.9v-5.9h-0.1c0-0.1-0.1-0.2-0.2-0.3v-10.1c0.1-0.1,0.2-0.3,0.2-0.6l0,0
			l0,0l0,0l0,0l0,0v-0.4h-0.1v-0.9h0.1l0.1-0.2l0,0h0.1l0.2-0.2v-0.4h-0.5v-1.6h-0.1v-0.1l-0.1-0.1l0.2-0.6l0.1-0.2l-0.2-0.1V218
			h0.1l0.1-0.2l-0.2-0.3l-0.1-0.4H101v-0.5l0.1-0.2v-0.2l-0.2-0.1h-0.3l-0.1,0.2v0.3l-0.2,0.1l-0.3,0.4l-0.1,0.7l0.1,0.7h-0.1
			l0.1,0.9h-0.1v0.3H99V217h-0.9v-6.2h0.1l0.2-0.3h-0.3v-0.1h0.3l0.4-0.3h-0.7v-0.9h-0.4v-0.1c0.1,0,0.1-0.1,0.1-0.2
			c0-0.1-0.1-0.3-0.2-0.3s-0.2,0.1-0.2,0.3c0,0.1,0,0.2,0.1,0.2v0.1h-2.9v-0.1c0.1,0,0.1-0.1,0.1-0.2c0-0.1-0.1-0.3-0.2-0.3
			s-0.2,0.1-0.2,0.3c0,0.1,0,0.2,0.1,0.2v0.1h-1.1L93.2,199.5L93.2,199.5z"/>
		<path fill="#E25758" d="M78.4,216.4c-0.1,0-0.2,0.1-0.2,0.2v0.2H78V240h0.8v-23.2h-0.3v-0.2C78.5,216.5,78.4,216.4,78.4,216.4
			L78.4,216.4z"/>
		<path fill="#E25758" d="M9.6,199.5c-0.2,0-0.3,0-0.5,0.1l0,0c0,0.3,0,0.5,0,0.8s0,0.6,0,0.9l0,0c0,0.3,0,0.5,0,0.8l0.1-0.1
			c0.1-0.1,0.3-0.2,0.5-0.2c0.3,0,0.7,0.2,1,0.3c0.2,0,0.4,0.1,0.6,0.1c0.3,0,0.6-0.1,0.9-0.2l0,0c0-0.1,0-0.2,0-0.3s0-0.2,0-0.3
			l0,0c0,0,0,0,0-0.1l0,0c0-0.3-0.1-0.5-0.1-0.8c0-0.2,0.1-0.4,0.1-0.6c-0.2,0.1-0.4,0.1-0.6,0.1c-0.3,0-0.5-0.1-0.8-0.2
			C10.4,199.6,10,199.5,9.6,199.5L9.6,199.5z"/>
		<path fill="#E25758" d="M94.1,199.7c-0.2,0-0.5,0-0.7,0.1l0,0c0,0.5,0,1,0,1.5c0,0.2,0,0.4,0,0.7l0,0c0.1-0.1,0.2-0.1,0.3-0.1
			c0.3,0,0.6,0.2,0.8,0.3s0.5,0.1,0.8,0.1s0.6,0,0.9-0.1l0,0l0,0c0-0.2,0-0.4,0-0.6l0,0c0-0.4,0-0.9,0-1.4l0,0c-0.1,0-0.3,0-0.4,0
			c-0.4,0-0.7-0.2-1.1-0.3C94.6,199.7,94.4,199.7,94.1,199.7L94.1,199.7z"/>
	</g>
	<path fill="#E25758" d="M214.6,235.3h-0.2v4.7h0.1L214.6,235.3L214.6,235.3z M235.4,238.8c-0.4,0-0.8-0.4-0.8-0.8
		c0-0.5,0.3-0.8,0.8-0.8s0.8,0.4,0.8,0.8C236.2,238.4,235.8,238.8,235.4,238.8L235.4,238.8z M238.2,234.5h-21.8v0.8h-1.2v4.7h1.3
		v-0.4h1.7v-3.5h0.2v3.9h0.4v-0.4h0.6v-3.5h0.2v3.9h0.5v-0.4h9.3v-3.5h0.2v3.9h0.6v-0.4h2.4l0.2,0.3v-3.8h0.2v3.9h0.8h6.1v-4.6h-3.5
		l0,0l1.1-0.6h0.6L238.2,234.5L238.2,234.5z M214.6,229.2c-0.1,0-0.1,0.1-0.2,0.1v5.7h0.2V229.2L214.6,229.2z M222.9,223.8
		c-1.5,3.2-4.9,3.8-6.3,3.8c-0.2,0-0.3,0-0.4,0c-0.3,0.4-0.6,0.8-0.9,1.1v6.4h1v-0.8h23v-0.8h-23v-0.2h19.6v-3.1v-0.4h-4.1
		C227.5,229.2,223.7,225.8,222.9,223.8L222.9,223.8z"/>
	<g>
		<polygon fill="#E25758" points="209,196.1 207.9,196.3 207.9,215.4 209.1,215.3 		"/>
		<polygon fill="#E25758" points="207.9,196.3 204.6,196.6 204.8,215.6 207.9,215.4 		"/>
		<polygon fill="#E25758" points="214.4,196.6 214.6,215.5 215.1,215.8 215,197.3 		"/>
		<polygon fill="#E25758" points="209.2,216.6 207.9,216.7 207.9,239.7 209.5,239.7 		"/>
		<polygon fill="#E25758" points="207.9,216.7 204.8,216.8 204.8,239.7 207.9,239.7 		"/>
		<path fill="#E25758" d="M214.5,234.8H212v0.2h2.5V234.8L214.5,234.8z M209.6,216.6l0.1,23.1h4.9h-2.9v-0.3v-1.5v-7.7
			c0,0,1.4-0.1,2.8-1.1l-0.1-12.4L209.6,216.6L209.6,216.6z"/>
		<path fill="#E25758" d="M215.3,234.8h-0.6v0.2h0.6V234.8L215.3,234.8z M214.6,216.7v12.2c0.2-0.1,0.4-0.3,0.6-0.5l-0.1-11.4
			L214.6,216.7L214.6,216.7z"/>
		<polygon fill="#E25758" points="209.3,215.5 207.9,215.6 207.9,216.4 209.3,216.4 214.5,216.4 215.1,216.7 215.1,216 214.5,215.7 
					"/>
		<polygon fill="#E25758" points="207.9,215.6 204.8,215.8 204.8,216.5 207.9,216.4 		"/>
		<path fill="#E25758" d="M214.2,196.4l-4.3-0.3v-2c0.3,0,0.4-0.3,0.4-0.5s-0.2-0.5-0.4-0.5v-1.3h-0.3v1.3c-0.2,0.1-0.4,0.3-0.4,0.5
			s0.1,0.4,0.4,0.5v2h-0.3l0.1,19.2l4.9,0.1L214.2,196.4z"/>
		<polygon fill="#E25758" points="210,190.2 209.5,190.2 209.5,190.6 209.2,190.6 209.2,191 209.5,191 209.5,191.8 210,191.8 
			210,191 210.4,191 210.4,190.6 210,190.6 		"/>
		<path fill="#E25758" d="M214.4,229.1c-1.4,1-2.8,1.1-2.8,1.1v7.6v1.5v0.3h2.9v-4.7H212v-0.2h2.5L214.4,229.1L214.4,229.1z"/>
		<path fill="#E25758" d="M215.3,235h-0.6v4.7h0.7L215.3,235L215.3,235z M215.2,228.4c-0.2,0.2-0.4,0.4-0.6,0.5v5.9h0.6V228.4
			L215.2,228.4z"/>
	</g>
	<g>
		<path fill="#E25758" d="M126.9,214h-3.2l-1.1,0.5v0.4h0.1v0.1h0.1l-0.1,0.1c0,0.1,0,0.1,0.1,0.1h0.3v0.3h0.1v2.4v0.7
			c-0.4,0.1-1.5,0.4-1.5,0.4v0.1h0.1l0.1,0.2l0.1,0.6h1.1v1.4l-0.1,0.1v0.4h0.1v0.7H123v0.1l0.1,0.2v0.1l0.1,0.1l-0.2,15.6l0,0v0.2
			l0,0c-0.1,0-0.2,0.1-0.2,0.2h-0.1v0.6h3.1V239h-0.1c0-0.1-0.1-0.2-0.2-0.2l0,0v-0.2h-0.2V223l0.1-0.1l0.1-0.3v-0.1h1.3L126.9,214
			L126.9,214z"/>
		<path fill="#E25758" d="M153.8,226l-0.4-0.2v-0.4l0.4-0.2l0.4,0.2v0.4L153.8,226L153.8,226z M154.8,226l-0.4-0.2v-0.4l0.4-0.2
			l0.4,0.2v0.4L154.8,226L154.8,226z M155.5,224.7H153v0.6l0.2,0.1v0.4l-0.2,0.1v12.9v0.2l0,0c-0.1,0-0.2,0.1-0.2,0.2h-0.1v0.6h3
			v-0.6h-0.1c0-0.1-0.1-0.2-0.2-0.2l0,0v-0.2v-13l0,0v-0.5l0,0L155.5,224.7L155.5,224.7z M160.9,226l-0.4-0.2v-0.4l0.4-0.2l0.4,0.2
			v0.4L160.9,226L160.9,226z M161.9,224.7h-2.1v0.5h0.1l0.4,0.2v0.4l-0.4,0.2h-0.1v12.8h-0.2v0.2l0,0c-0.1,0-0.2,0.1-0.2,0.2h-0.1
			v0.6h3.1v-0.6h-0.1c0-0.1-0.1-0.2-0.2-0.2l0,0v-0.2h-0.2l-0.2-12.8l0,0l-0.4-0.2v-0.4l0.4-0.2l0,0L161.9,224.7L161.9,224.7z
			 M147.4,224.5h-1.1l-0.1,14.2v0.2l0,0c-0.1,0-0.2,0.1-0.2,0.2h0v0.6h3v-0.6l0,0c0-0.1-0.1-0.2-0.2-0.2l0,0v-0.2v-12.8l-0.3-0.2
			v-0.4l0.3-0.2v-0.5h-0.5L147.4,224.5L147.4,224.5z"/>
		<g>
			<polygon fill="#E25758" points="148.4,225.8 148.7,226 148.7,225.2 148.4,225.4 			"/>
			<polygon fill="#E25758" points="154.5,225.4 154.5,225.8 154.8,226 155.2,225.8 155.2,225.4 154.8,225.2 			"/>
			<polygon fill="#E25758" points="153.5,225.4 153.5,225.8 153.8,226 154.2,225.8 154.2,225.4 153.8,225.2 			"/>
			<polygon fill="#E25758" points="155.5,225.8 155.5,225.8 155.5,225.4 155.5,225.4 			"/>
			<polygon fill="#E25758" points="153,225.9 153.2,225.8 153.2,225.4 153,225.3 			"/>
			<path fill="#E25758" d="M162.1,218.7v-3.2h0.1v-0.2h0.3c0.1,0,0.1-0.1,0.1-0.1s0-0.1-0.1-0.1h0.1V215h0.1v-0.4l-1.1-0.5h-13.5
				l0.4-0.3v-0.5H148v-0.4h-1.7l0,0l0,0c0-0.1,0-0.1,0-0.2v-0.1c0-0.1,0-0.2,0-0.3c0-0.2,0.1-0.3,0.2-0.3c0,0,0-0.1,0.1-0.2
				c0,0,0.1-0.1,0.1-0.2l0,0l0.2-0.1l0,0c0,0,0,0.1,0.1,0.1l0.2,0.1c0,0.1,0,0.3,0,0.4c0,0,0,0.1-0.1,0.1v0.1l0,0l0,0l0,0
				c-0.1,0-0.1,0.2,0,0.2c0,0,0,0.1,0.1,0.1l0,0c0.1,0,0.1-0.1,0.1-0.1l0,0v-0.1l0,0l0,0v-0.1c0,0,0,0,0-0.1s0-0.3,0-0.3v-0.1
				c0-0.1,0-0.2,0-0.2s-0.1-0.2-0.1-0.3v-0.1v-0.1c0,0,0,0,0-0.1v-0.2l0,0v-0.1l0,0v-0.1c-0.1-0.1-0.1-0.3-0.1-0.3v-0.1
				c0,0,0.1-0.1,0.1-0.2c0,0,0.1,0,0.1-0.1l0,0v-0.1l0,0c0-0.1,0-0.3,0-0.3s0,0,0-0.1c0,0,0,0,0-0.1c0,0,0,0,0-0.1c0,0,0,0,0-0.1
				V209l0,0v-0.1c0,0,0,0,0.1-0.1v-0.1l0,0l-0.1,0.1l-0.1-0.1v-0.1l-0.1,0.1c0,0-0.1,0-0.2,0l0,0l0,0l0,0l0,0l0,0l0,0l0,0l0,0l0,0
				l0,0l0,0c0,0,0,0.1-0.1,0.1l0,0l-0.1,0.1v0.1c0,0,0,0.1-0.1,0.1v0.1c0,0.1,0,0.2,0,0.2s0,0.1,0,0.2l0,0l0,0l0,0v0.1
				c-0.1,0-0.4,0-0.8,0c-0.1,0-0.2,0-0.3,0s-0.6-0.3-0.8-0.3l0,0v-0.1l0,0l0,0c0-0.1,0-0.1,0-0.2c0-0.1,0-0.1,0-0.2v-0.1v-0.1
				c0-0.1-0.1-0.1-0.1-0.2c0,0,0,0,0-0.1c0,0,0,0,0-0.1l0,0l0,0c0,0,0,0-0.1,0s0,0,0,0h-0.1l0,0h-0.1c0,0,0,0-0.1,0
				c0-0.2,0-0.4,0-0.6c0-0.3-0.1-0.7-0.2-0.8c-0.1-0.1-0.1-0.1-0.2-0.1l0,0l-0.1,0.1v0.1c0,0.1,0,0.3-0.2,0.3l0,0l0,0
				c0,0,0-0.1-0.1-0.1l0,0l-0.1-0.2v-0.1v-0.1l0,0l0,0l0,0l0,0l0,0l0,0v-0.1l0,0l0,0l-0.1-0.1l0,0l0,0l0,0l0,0l0,0l0,0l0,0l0,0
				c0,0,0,0-0.1,0l0,0l0,0l0,0H143l0,0v0.1l0,0v-0.4v-0.1l0,0V206l0,0c0,0-0.1,0-0.1-0.1l0,0l0,0c0,0,0,0,0.1,0s0,0,0.1,0s0,0,0.1,0
				c0,0,0,0,0.1,0l0,0h0.1v-0.1l0,0c0,0,0,0,0-0.1c0,0,0,0,0-0.1s0,0,0-0.1s0,0,0-0.1c0,0,0,0,0-0.1s0,0,0-0.1s0,0,0-0.1
				c0,0,0,0,0-0.1l0,0v-0.1h-0.1l0,0c0,0,0,0-0.1,0s0,0-0.1,0v-0.1h0.1l0,0l0,0l0,0l0,0l0,0h-0.1v-0.1l0,0c0,0,0,0,0-0.1l0,0l0,0
				l0,0l0,0l0,0l0,0l0,0l0,0l0,0l0,0l0,0l0,0l0,0l0,0l0,0l0,0l0,0l0,0l0,0l0,0l0,0l0,0l0,0l0,0l0,0l0,0l0,0l0,0l0,0l0,0l0,0l0,0l0,0
				l0,0l0,0c0,0,0,0,0-0.1l0,0c0,0,0,0,0-0.1c0,0,0,0,0-0.1c0,0,0,0,0-0.1l0,0l0,0v-0.1l0,0l0,0c0,0.1-0.2,0.2-0.2,0.2v-0.1l0,0
				c-0.1,0.1-0.3,0.2-0.4,0.3c-0.1,0-0.1,0.1,0,0.1h0.1c0,0,0,0.1-0.1,0.1h-0.1l0,0l0,0v-0.2c0,0,0,0,0-0.1l0,0l0,0l0,0l0,0l0,0v0.1
				c0,0,0,0,0-0.1s0-0.1,0-0.1v0.1v0.1v-0.1l0,0c0,0,0,0,0,0.1l0,0c0,0,0,0-0.1,0.1v0.1l0,0h0.1v0.2l0,0l0,0l0,0c0,0-0.1,0-0.1-0.1
				l0,0c0.1-0.1,0-0.2-0.2-0.3s-0.5-0.3-0.6-0.3l0,0l0,0l0.1,0.1l0,0l0,0l0.1,0.1c0,0,0,0,0,0.1c0,0,0,0,0,0.1s0,0,0,0s0,0,0,0.1
				l0,0l0,0l0,0h0.1l0,0l0,0l0,0l0,0l0,0l0,0h0.1l0,0h0.1l0,0l0,0l0,0l0,0l0,0l0,0l0,0l0,0h0.1l0,0l0,0l0,0h0.1l0,0l0,0v0.1l0,0
				c0,0-0.1,0-0.1,0.1v0.1l0,0l0,0l0,0H142v0.1l0,0c0,0,0,0,0,0.1c0,0,0,0,0,0.1s0,0,0,0.1c0,0,0,0,0,0.1s0,0,0,0.1c0,0,0,0,0,0.1
				s0,0,0,0.1s0,0,0,0.1l0,0v0.1h0.1l0,0c0,0,0,0,0.1,0c0,0,0,0,0.1,0c0,0,0,0,0.1,0s0,0,0.1,0l0,0l0,0c0,0,0,0.1-0.1,0.1
				c0,0,0,0,0,0.1s0,0.2,0,0.2l0,0v0.1v0.5l-0.1,0.1l-0.1,0.1l-0.1,0.1c0,0,0,0,0-0.1H142c-0.1,0-0.2,0.1-0.3,0.2
				c-0.1,0.3,0.1,1.1,0.1,2.1c0,0-0.5,0.3-0.6,0.3v-0.1v-0.1v-0.1v-0.1c0,0,0,0,0-0.1s0-0.1,0-0.1c0-0.1-0.1,0-0.1-0.1l0,0l0,0
				c-0.1,0-0.1,0.1-0.1,0.1h-0.1l0,0h-0.1l-0.1-0.1l0,0c0,0,0,0,0,0.1v0.1c0,0-0.1,0.1-0.1,0.2v0.1c0,0.1,0,0.2,0,0.3s0,0.4,0,0.4
				c-0.2,0.1-0.4,0.2-0.5,0.2l0,0c-0.6,0-1.1-0.1-1.1-0.1s-0.3-0.7-0.3-0.8c-0.1-0.1-0.3-0.4-0.5-0.4c0,0,0,0-0.1,0
				s-0.1,0.1-0.2,0.1c0,0,0,0-0.1,0h-0.1c0,0.1,0.1,0.1,0.1,0.2c0,0.1-0.1,0.1,0,0.2l0.1,0.3c0,0.1,0,0.1,0,0.2c0,0.1,0,0.1,0,0.2
				c0,0.1,0,0.1,0.1,0.1l0,0h0.1l0.1,0.1l0,0v0.1v0.1l-0.1,0.1c-0.1,0.2-0.1,0.3-0.1,0.4v0.1c0,0.1,0,0.1,0,0.2v0.1
				c0.1,0.2-0.2,0.2-0.2,0.3s0,0.2,0,0.3s0,0.2,0,0.2c0,0.1,0,0.2,0,0.3s0,0.1,0,0.2c0,0,0,0,0.1,0s0.1,0,0.1-0.1s0-0.1,0-0.2
				l-0.1-0.1v-0.1c0-0.1-0.1-0.2,0-0.3c0-0.1,0.1-0.1,0.1-0.2v-0.1c0,0,0,0,0.1,0c0,0,0-0.1,0.1-0.1c0,0,0.1-0.1,0.2-0.1l0,0h0.1
				h0.1l0,0l0,0v0.1l0.1,0.1c0,0.1,0,0.3,0,0.4c0,0.1-0.1,0.1,0,0.3c0,0.1,0,0.2,0,0.3s0,0.1,0,0.2v0.1l0,0h-1.8v0.4h-0.6v0.4
				l0.4,0.3h-10.2l0.3,8.6h2.6l-0.2,16.1v0.2l0,0c-0.1,0-0.2,0.1-0.2,0.2h-0.1v0.6h3.2v-0.6H132c0-0.1-0.1-0.2-0.2-0.2l0,0V239
				v-16.1h4.2l-0.1,16.1v0.2l0,0c-0.1,0-0.2,0.1-0.2,0.2h0.3v0.6h3v-0.6l0,0c0-0.1-0.1-0.2-0.2-0.2l0,0V239v-16.1h7.4v1.9h1.1
				l0.8,0.2h0.5v-2h4.2v2h2.5v-2h4v0.1l0.1,0.3l0.1,0.1v1.5h2.1v-1.5l0.1-0.1v-0.1l0.1-0.2V223h0.2v-0.7h0.1v-1l-0.1-0.1v-1.1h1.1
				l0.1-0.6l0.1-0.2h0.1v-0.1C163.6,219.2,162.5,218.9,162.1,218.7z M147,209.9L147,209.9L147,209.9c0.1,0,0,0.1,0,0.1V209.9
				L147,209.9z M142.3,204.6L142.3,204.6L142.3,204.6L142.3,204.6L142.3,204.6v0.1C142.2,204.7,142.2,204.6,142.3,204.6
				C142.2,204.6,142.3,204.6,142.3,204.6z M142.1,204.7L142.1,204.7C142.2,204.6,142.2,204.6,142.1,204.7
				C142.2,204.6,142.2,204.6,142.1,204.7h0.1H142.1C142.2,204.7,142.1,204.7,142.1,204.7L142.1,204.7L142.1,204.7z M142,205.1
				L142,205.1L142,205.1l0.1-0.1l0,0l0,0l0,0l0,0c0,0.1,0.1,0.1,0.1,0.3C142.2,205.2,142.1,205.2,142,205.1L142,205.1z M142.2,205.6
				L142.2,205.6L142.2,205.6l-0.1-0.1l0,0l0,0l0,0l0,0c0.1,0,0.2-0.1,0.3-0.1C142.3,205.5,142.3,205.6,142.2,205.6z M138.3,209.8
				v-0.1C138.4,209.7,138.4,209.8,138.3,209.8C138.3,209.9,138.3,209.8,138.3,209.8L138.3,209.8z M138.4,210
				C138.4,210,138.3,210,138.4,210c-0.1,0-0.1,0-0.1,0c0.1,0,0.1-0.1,0-0.1h0.1C138.4,209.9,138.4,210,138.4,210z M145.5,210.1
				c0.4,0,0.6,0,0.7,0c0,0.1,0,0.1-0.1,0.1l0,0H146l0,0h-0.1l0,0c0,0-0.1,0-0.2,0h-0.1c0,0,0,0-0.1,0s-0.3-0.1-0.5-0.2
				C145.3,210.1,145.4,210.1,145.5,210.1z M145.5,212.9h-0.7v-1v-0.1l0.1-0.1h0.1v-0.1h-0.1v-0.1l-0.1-0.1c0,0,0,0,0-0.1h0.1
				l0.5-0.3c0,0.1,0,0.3,0,0.3c0,0.1,0.1,0.3,0.1,0.3v0.1c0,0,0,0.1,0,0.2c0,0.1,0,0.1,0,0.2c0,0.1,0,0.1,0,0.2v0.1v0.1
				c0,0.1-0.1,0.1,0,0.2c0,0,0,0,0,0.1h0.1C145.5,212.7,145.6,212.8,145.5,212.9C145.6,212.9,145.5,212.9,145.5,212.9L145.5,212.9z
				 M145.6,210.3c-0.1,0.1-0.1,0.1-0.1,0.2c0,0.1-0.1,0.3-0.1,0.4l-0.6,0.4h-0.1c0-0.3,0-1,0-1h-0.1h-0.1l0,0h-0.1
				c0-0.1-0.2-0.3-0.2-0.3l0,0c0.3,0.1,0.5,0.2,0.8,0.2C145.2,210.2,145.3,210.2,145.6,210.3z M144.3,209.8L144.3,209.8l0.7,0.3
				c-0.1,0-0.4-0.1-0.7-0.2V209.8z M143.7,212.7c0-0.1,0-0.2,0.1-0.3c0-0.1,0-0.2,0-0.3V212c0,0,0.1,0,0.2,0v0.1c0,0.1,0,0.2,0,0.2
				c0,0.1,0,0.1,0,0.2c0,0,0,0.1,0.1,0.2c0-0.2,0.1-0.3,0.1-0.5c0,0,0,0.1,0,0.2c0,0.1,0,0.1,0,0.3v0.1v0.1h-0.6L143.7,212.7
				C143.7,212.7,143.7,212.7,143.7,212.7z M143.3,208.9c0.1,0,0-0.1,0-0.1l0,0V208.9C143.4,208.9,143.4,208.9,143.3,208.9
				c0.1,0.1,0.1,0.1,0.1,0.1c0,0.1,0.1,0.3,0.1,0.3s-0.1,0-0.2-0.1C143.4,209.2,143.3,208.9,143.3,208.9z M142.9,212L142.9,212
				l0.5-0.1l0,0c0,0-0.1,0-0.1,0.1c-0.1,0.1,0,0.2,0.1,0.2l0,0l0,0l0,0c0,0.1,0,0.3,0,0.4c0,0,0,0.1,0,0.2H143L142.9,212z
				 M142.6,207.2v0.1h-0.1l0,0V207C142.5,207,142.5,207.1,142.6,207.2z M142.7,205.4L142.7,205.4L142.7,205.4l-0.1,0.1l0,0l0,0l0,0
				c0-0.1-0.1-0.2-0.1-0.3C142.6,205.3,142.7,205.4,142.7,205.4L142.7,205.4z M142.6,204.9L142.6,204.9L142.6,204.9l0.1,0.1l0,0l0,0
				l0,0c-0.1,0-0.1,0.1-0.3,0.1C142.5,205.1,142.5,205,142.6,204.9L142.6,204.9L142.6,204.9z M142.5,204.6
				C142.5,204.6,142.5,204.7,142.5,204.6C142.5,204.7,142.5,204.7,142.5,204.6L142.5,204.6C142.5,204.7,142.5,204.6,142.5,204.6
				L142.5,204.6z M142.4,204.7v-0.1l0,0h0.1l0,0L142.4,204.7z M142.2,207.3c0-0.1,0.1-0.2,0.1-0.2s0,0,0.1,0s0,0,0,0v0.3l0,0l0,0
				l0,0l0,0l0,0C142.3,207.4,142.3,207.3,142.2,207.3C142.3,207.3,142.3,207.3,142.2,207.3L142.2,207.3L142.2,207.3z M142.2,209.1
				C142.2,209,142.3,209,142.2,209.1L142.2,209.1L142.2,209.1v0.1C142.2,209.2,142.2,209.1,142.2,209.1z M142.7,212L142.7,212
				L142.7,212v0.9l0,0h-0.9l0,0c0,0,0,0,0-0.1v-0.1c0-0.2,0-0.3,0-0.5c0-0.1,0-0.1,0-0.2L142.7,212z M141.3,209.6l0.6-0.3l0,0
				c-0.3,0.2-0.5,0.5-0.6,0.6l0,0C141.2,209.8,141.3,209.7,141.3,209.6z M139.1,210L139.1,210c0,0,0.6,0.1,1,0.1c0,0,0,0,0.1,0
				c0.3,0,0.5-0.1,0.5-0.2l0,0v0.1l0,0l0,0v0.1c0,0.1-0.1,0.2-0.2,0.3c-0.1,0.1-0.1,0.3-0.1,0.3c0,0.1,0,0.3,0.1,0.5
				c-0.2-0.1-0.4-0.2-0.4-0.2c0-0.1,0-0.1,0-0.2c0-0.2-0.1-0.4-0.3-0.5c-0.3-0.1-0.4,0-0.6-0.2C139.1,210.1,139.1,210.1,139.1,210z
				 M139.3,212.9h-0.1c0,0,0,0,0-0.1s0-0.1,0-0.2c0-0.1,0-0.3,0-0.4v-0.1c0,0.1,0,0.2,0,0.2c0,0.1,0,0.1,0,0.3
				C139.3,212.7,139.4,212.7,139.3,212.9C139.4,212.8,139.4,212.9,139.3,212.9L139.3,212.9z M139.5,212.1c0-0.1,0-0.2,0-0.3
				c0,0,0-0.1,0-0.2c0,0.2,0,0.5,0.1,0.6c0,0,0,0-0.1,0C139.5,212.2,139.5,212.1,139.5,212.1z M139.6,212.9L139.6,212.9
				c0.1,0,0.1-0.1,0.1-0.2c0-0.1-0.1-0.1-0.1-0.2c0,0,0,0,0-0.1c0,0,0,0.1,0.1,0.1l0.1,0.1c-0.1-0.1,0-0.2,0-0.3v-0.1l0,0
				c0,0,0.1,0,0.1-0.1s0-0.2,0-0.3s0-0.2,0-0.3c0.1-0.2,0.1-0.3,0.2-0.5c0.1,0,0.2,0.1,0.4,0.2v0.1c0,0.1,0.1,0.2,0.1,0.3
				s0,0.2,0,0.3s0,0.1,0,0.2c0,0.1,0,0.1,0,0.2c0,0.1,0,0.3,0,0.4v0.1L139.6,212.9L139.6,212.9z M141,212.9
				C141,212.9,141,212.8,141,212.9c0-0.1,0-0.2,0-0.2v-0.1v-0.1c0-0.1,0-0.1,0-0.2c0,0,0-0.1,0.1-0.1v-0.1c0,0,0-0.1,0-0.3h0.1
				c0,0,0,0,0,0.1s0,0.2,0,0.3v0.1c0,0,0,0.1,0,0.2l0,0c0,0,0,0,0,0.1c0,0,0,0.1,0.1,0.1c0,0,0,0,0.1,0c0,0,0.1,0,0.1-0.1v-0.1
				c-0.1,0-0.1-0.1,0-0.1v-0.1c0,0,0,0,0-0.1s0-0.1-0.1-0.2c0-0.1,0-0.1,0-0.2l0,0h0.2c0,0.1,0,0.2,0,0.3s0.1,0.2,0.1,0.3
				s0,0.2,0,0.3v0.1c0,0,0,0,0,0.1H141L141,212.9z M144.4,212.9L144.4,212.9c0-0.1,0-0.1,0-0.1c0-0.1,0-0.1,0-0.2c0-0.1,0-0.1,0-0.2
				v-0.1c0-0.1,0-0.1,0-0.2c0-0.1,0-0.1,0-0.2l0,0c0.1,0,0.1,0,0.1,0l0,0l0,0v0.9L144.4,212.9L144.4,212.9z M145.9,212.9
				C145.9,212.9,145.8,212.8,145.9,212.9c0-0.1-0.1-0.2,0-0.3l0.1-0.1v-0.1c0-0.1-0.1-0.2-0.1-0.3c0-0.3,0.1-0.5,0.1-0.6l0,0l0,0
				c0,0,0.1,0,0.1,0.1v0.1c0,0,0.1,0.1,0,0.2L146,212c0,0-0.1,0.1,0,0.1c0,0.1,0,0.1,0,0.1v0.2C146,212.7,146,212.8,145.9,212.9
				L145.9,212.9L145.9,212.9L145.9,212.9z"/>
			<polygon fill="#E25758" points="161.9,225.2 161.6,225.4 161.6,225.8 161.9,226 161.9,226 			"/>
			<polygon fill="#E25758" points="160.5,225.4 160.5,225.8 160.9,226 161.2,225.8 161.2,225.4 160.9,225.2 			"/>
			<polygon fill="#E25758" points="159.8,225.2 159.8,225.9 159.9,226 160.2,225.8 160.2,225.4 159.9,225.2 			"/>
		</g>
	</g>
	<g>
		<path fill="#E25758" d="M73,179.6L73,179.6L73,179.6L73,179.6L73,179.6l-0.1-0.1c0.1,0,0.2,0,0.2-0.1l0,0
			C73.1,179.5,73.1,179.5,73,179.6L73,179.6L73,179.6L73,179.6z M73,179.4C72.9,179.4,72.9,179.4,73,179.4
			C72.9,179.4,72.9,179.4,73,179.4L73,179.4L73,179.4L73,179.4L73,179.4L73,179.4z M73,179.3L73,179.3l-0.1-0.1
			C73,179.2,73.1,179.2,73,179.3L73,179.3C73.2,179.3,73.1,179.3,73,179.3L73,179.3z M73.3,179.6c0-0.1,0.1-0.1,0.1-0.1
			c0-0.1,0.1-0.1,0.1-0.2l0,0C73.5,179.4,73.5,179.5,73.3,179.6C73.4,179.5,73.3,179.6,73.3,179.6L73.3,179.6z M73.6,178.8
			L73.6,178.8c0-0.1-0.1-0.1-0.1-0.2l0,0l0,0l0,0C73.5,178.6,73.5,178.6,73.6,178.8C73.5,178.8,73.6,178.8,73.6,178.8L73.6,178.8z
			 M73.3,179.5v-0.9l0.2,0.3C73.5,179,73.4,179.3,73.3,179.5L73.3,179.5L73.3,179.5z M71.4,177.8L71.4,177.8L71.4,177.8
			c-0.1,0-0.2,0-0.2-0.1c0,0,0-0.1,0-0.2c0,0,0-0.1,0.1-0.1h0.1c0,0,0,0,0.1,0s0.2,0.2,0.1,0.3C71.6,177.8,71.5,177.8,71.4,177.8
			L71.4,177.8z M71.3,177.2c0,0,0,0-0.1,0.1L71.3,177.2l-0.1,0.1l0,0L71.3,177.2c-0.1,0-0.1,0-0.1,0.1l0,0v0.1l0,0v0.1
			c0,0,0,0,0,0.1l0,0l0,0l0,0h-0.1c0,0,0,0.1,0.1,0.1c0,0,0,0,0.1,0.1l0,0l0,0v0.1v0.1v0.1c0,0,0,0,0,0.1s0,0.2,0,0.3s0,0.3,0,0.4
			h-0.2c-0.1,0-0.2,0-0.3,0.1h-0.1c-0.1,0-0.2,0-0.3,0c-0.1,0-0.3,0-0.4,0s-0.1,0-0.2,0h-0.1h-0.1l0,0c-0.1,0.1,0,0.1,0.1,0.2
			c-0.1,0-0.2-0.1-0.3-0.1l0,0c0,0,0,0-0.1,0v0.1c0.1,0.1,0.2,0.1,0.3,0.1c0,0,0.1,0,0.1,0.1l0,0h-0.1h-0.1c0,0,0,0-0.1,0
			c0,0.1,0,0.1,0.1,0.1h0.1h0.1l0,0c-0.1,0-0.1,0.1,0,0.1s0.1,0.1,0.2,0.1H70h0.1l0,0c0,0-0.1,0-0.1,0.1c0,0,0,0.1,0.1,0.1h0.1
			c0,0,0,0,0.1,0c0,0,0,0,0.1,0l0,0c0,0,0,0,0.1,0l-0.1,0.1v0.1c0,0,0,0,0.1,0h0.1h0.2l0,0c0,0-0.1,0.1,0,0.1l0,0
			c0.1,0,0.2-0.1,0.2-0.1l-0.1,0.1c0,0,0,0,0.1,0h0.1l-0.1,0.1l0,0c0,0,0,0,0.1,0c0,0-0.1,0.1,0,0.1l0,0h0.1v0.1l0,0h0.1v0.1l0,0
			c0,0,0.1,0,0.1-0.1c0,0-0.1,0.2,0,0.2l0,0l0,0l0,0l0,0v0.1l0,0l0,0l0,0l0,0v0.1c0,0,0,0,0.1,0v0.1l0,0l0,0l0,0l0,0v0.1l0,0
			c0,0,0,0,0.1,0c0,0.1,0,0.1-0.1,0.2c0,0-0.2,0.3-0.2,0.4v0.2c0,0,0,0.1,0.1,0.1v0.1c0,0,0.1,0,0.1,0.1c0,0-0.5,0.7-0.6,0.9
			s-0.3,0.4-0.4,0.6c0,0.1-0.1,0.1,0,0.2v0.1c0,0,0,0,0.1,0l0,0l0,0l0,0h0.1l0,0l0,0l0,0v0.1l0.1,0.1c0.1,0,0.1,0,0.2,0h0.1h0.1h0.1
			c0.1,0,0.1,0.1,0.2,0.1l0,0c0,0,0,0,0.1,0c0,0,0,0,0.1,0s0,0,0,0c0,0.1-0.2,0.1-0.2,0.1c-0.3,0.1-0.4,0.3-0.4,0.5
			c0,0.1,0,0.1,0.1,0.2l0,0v0.3c-0.1,0-0.2,0-0.3,0.1c0,0,0,0,0-0.1l0,0v0.1c0,0,0,0-0.1,0.1c-0.2,0.3-0.4,0.5-0.5,0.7
			c0,0,0,0,0,0.1c0,0.2,0,0.6,0,0.6v0.1c0,0.1-0.1,0.1-0.1,0.1c0,0.1,0.1,0.1,0.1,0.1c0,0.1,0,0.1,0,0.2s0,0.1,0,0.1
			c0,0.3,0.1,0.5,0.2,0.8l0,0c0.2,0.5,0.5,0.7,0.6,0.8l-0.4,27.2h3.2v-0.2c0-0.1,0-0.1,0.1-0.1l-0.7-26.6c0.5-0.4,0.8-1,0.8-1.6
			v-0.2c0-0.1,0.1-0.1,0.1-0.1c0-0.1-0.1-0.1-0.1-0.1v-0.1c0,0,0-0.4,0-0.6c0-0.1,0-0.1,0-0.1c-0.2-0.2-0.3-0.5-0.5-0.7l0,0v-0.1
			h-0.1v0.1l-0.3-0.1v-0.3c0-0.1,0.1-0.1,0.1-0.2c0-0.2-0.1-0.4-0.4-0.5c-0.1-0.1-0.1-0.1,0-0.1l0,0H73c0,0,0,0,0.1,0h0.1l0,0l0,0
			l0,0c0,0,0,0,0.1,0c0,0,0.1,0,0.1-0.1c0.1,0,0.2,0,0.3-0.1c0.1-0.2-0.2-0.4-0.3-0.5c-0.2-0.3-0.3-0.6-0.3-1c0-0.1-0.1-0.3,0-0.5
			c0,0,0.1-0.1,0.1-0.2c0,0,0.1,0,0.1-0.1l-0.1-0.3c0,0,0-0.2,0-0.3c0.1-0.1,0.1-0.2,0.1-0.3s-0.1-0.3-0.1-0.4l0,0l0,0l0,0l0,0v-0.1
			c0,0,0,0,0.1,0s0.1,0,0.1-0.1c0,0,0,0,0-0.1h0.1c0,0,0-0.1-0.1-0.2c0,0,0.1-0.1,0-0.1c0-0.1-0.3-0.1-0.3-0.2c0-0.1,0-0.2,0-0.3
			c0.1-0.1,0.1-0.1,0.2-0.1c0.1-0.1,0.1-0.3,0.1-0.4v-0.1c0-0.1,0-0.1,0-0.2c0-0.1,0-0.2-0.1-0.2c0-0.1-0.1-0.1-0.1-0.2l-0.1-0.1
			c0,0,0,0,0-0.1v-0.1c0.1,0,0.1-0.1,0.1-0.2c0,0,0-0.1,0-0.2v-0.1l0,0c0,0,0,0,0-0.1l0,0l0,0c0,0,0,0,0-0.1v-0.1l0,0l0,0
			c0,0,0,0,0,0.1v0.1l0,0l0,0l0,0l0,0l0,0v0.1l0,0c0,0,0,0,0,0.1l0,0c0,0,0,0,0,0.1s0,0.2,0.1,0.2v0.1v0.1v0.1v0.1v0.1
			c0,0,0,0,0,0.1c0,0.2,0,0.5,0,0.7v0.1c-0.1,0-0.1,0-0.2,0l-0.1-0.1c0-0.1-0.1-0.1-0.1-0.1s0.1,0,0.1-0.1l0,0l0,0l0,0l0,0l0,0l0,0
			l0,0l0,0l0,0l0,0h0.1l0,0l-0.1-0.1c-0.1,0-0.1,0-0.2,0.1c0,0,0,0,0-0.1c0,0,0,0-0.1,0l0,0c0,0,0,0,0,0.1c0,0,0,0-0.1,0
			c0-0.1,0-0.1-0.1-0.2l-0.1,0.1h-0.1c-0.1,0-0.1,0-0.1,0s0,0-0.1,0l0,0l0,0l0,0l0,0l0,0l0,0l0,0l0,0l0,0c0,0.1,0.1,0.1,0.1,0.2
			c-0.1,0-0.2,0.1-0.2,0.3v0.1c-0.1,0-0.1,0.1-0.1,0.3c0,0-0.1,0-0.1-0.1c-0.1,0-0.1-0.1-0.2-0.2c0,0,0,0-0.1-0.1c0,0,0-0.1-0.1-0.1
			c0,0-0.1,0-0.1-0.1c0,0,0,0,0-0.1s0-0.1,0-0.2c0-0.1,0-0.3,0-0.4c0-0.1,0-0.1,0-0.2v-0.1l0,0v-0.1l0,0h0.1l0,0l0,0
			c0,0,0.1,0,0.1-0.1v-0.1l0,0v-0.1l0,0l0,0v-0.1l0,0c0,0,0,0,0-0.1s0-0.1,0-0.1s0,0,0,0.1l0,0v-0.1v-0.1l0,0l0,0
			C71.5,177.2,71.5,177.2,71.3,177.2L71.3,177.2C71.4,177.2,71.4,177.2,71.3,177.2L71.3,177.2C71.4,177.2,71.3,177.2,71.3,177.2
			L71.3,177.2z"/>
		<path fill="#E25758" d="M68.7,231.8c-0.1,0-0.1-0.1-0.1-0.1v-3.4c0-0.1,0.1-0.1,0.1-0.1l0.1,0.1v3.4
			C68.8,231.8,68.8,231.8,68.7,231.8L68.7,231.8z M75.9,231.9c-0.2,0-0.3-0.1-0.3-0.1v-3.7c0-0.1,0.1-0.1,0.3-0.1
			c0.2,0,0.3,0.1,0.3,0.1v3.7C76.2,231.8,76.1,231.9,75.9,231.9L75.9,231.9z M76.9,231.6c-0.1,0-0.1-0.1-0.1-0.1v-3.4
			c0-0.1,0.1-0.1,0.1-0.1l0.1,0.1v3.4C77.1,231.5,77,231.6,76.9,231.6L76.9,231.6z M73.9,216.5l-0.1,0.1v0.2h-3.2v3.4
			c0,0.2,0,0.3,0.1,0.3c0.1,0.5-0.1,1-0.4,1.4c0,0,0,0.2,0.1,0.5c-0.3,0.3-0.5,0.9-0.5,2.3l0,0c-1.4,0.1-2.5,0.3-2.9,0.6
			c-1.2,0.7-0.1,1.5-0.1,1.5s0,4.1,0,4.9c0,0.4-0.1,0.7-0.2,1l0,0c0,0-0.4,0.1-0.4,0.5c0,0.1,0,0.1,0,0.2c-0.2,0.3-1.5,0.4-2,0.5
			c-0.6,0.1-0.7,0.4-0.7,0.4s-0.4,0.1-0.6,0.2c-0.8,0.4-0.1,1-0.1,1l-0.1,2.3l-0.3,0.6l-0.1,1.5h20l-0.1-1.5l-0.3-0.6l-0.1-2.3
			c0,0,0.7-0.6-0.1-0.9c-0.3-0.1-0.6-0.2-0.6-0.2s-0.1-0.3-0.7-0.4c-0.6-0.1-2-0.4-2-0.5c0,0,0-0.1,0-0.2c0-0.4-0.4-0.5-0.4-0.5
			l-0.1-0.1c-0.2-0.6-0.2-1.3-0.2-1.3s0-3.5,0-4s0.1-0.6,0.1-0.6s1.5-0.9-0.1-1.4c-0.8-0.3-1.9-0.5-3.1-0.6c0-1.4-0.2-2.1-0.5-2.3
			c0.2-0.3,0.2-0.5,0.2-0.5c-0.4-0.1-0.6-0.7-0.4-1.3c0.1,0,0.1-0.1,0.1-0.3L73.9,216.5L73.9,216.5z"/>
		<g>
			<path fill="#E25758" d="M78.4,233.5c0,0,0-0.1,0-0.2c0-0.3-0.2-0.4-0.4-0.5v7.2h0.8v-6.3C78.6,233.6,78.4,233.5,78.4,233.5z"/>
			<path fill="#E25758" d="M78,225.4v1.1C78.3,226.3,78.7,225.8,78,225.4z"/>
		</g>
	</g>
</g>
</svg>
