<?xml version="1.0" encoding="utf-8"?>
<!-- Generator: Adobe Illustrator 17.1.0, SVG Export Plug-In . SVG Version: 6.00 Build 0)  -->
<!DOCTYPE svg PUBLIC "-//W3C//DTD SVG 1.1//EN" "http://www.w3.org/Graphics/SVG/1.1/DTD/svg11.dtd">
<svg version="1.1" id="Isolation_Mode" xmlns="http://www.w3.org/2000/svg" xmlns:xlink="http://www.w3.org/1999/xlink" x="0px"
	 y="0px" viewBox="434 -525 132 1137" enable-background="new 434 -525 132 1137" xml:space="preserve">
<g>
	<circle fill="#53CDEC" cx="501.564" cy="257.126" r="45.847"/>
	<path fill="#53CDEC" d="M520.359,257.338c0,8.612-6.976,15.6-15.596,15.6h-6.399c-8.612,0-15.591-6.984-15.591-15.6v-70.592
		c0-8.612,6.98-15.596,15.591-15.596h6.399c8.616,0,15.596,6.98,15.596,15.596V257.338z"/>
	<path fill="#53CDEC" d="M513.201,283.339c0-15.481-2.996-28.03-10.099-28.03h-5.263c-7.099,0-10.099,12.549-10.099,28.03
		L471.864,612h59.404L513.201,283.339z"/>
	<polygon fill="#53CDEC" points="502.589,-47.96 500.538,-47.96 497.784,193.734 505.344,193.734 	"/>
	<circle fill="#53CDEC" cx="501.568" cy="50.455" r="8.599"/>
	<circle fill="#53CDEC" cx="501.568" cy="132.648" r="11.006"/>
	<circle fill="#53CDEC" cx="501.564" cy="-48.23" r="4.818"/>
	<path fill="#53CDEC" d="M536.875,314.899c0,6.077-4.933,11.006-11.01,11.006h-48.602c-6.073,0-11.002-4.929-11.002-11.006l0,0
		c0-6.081,4.929-11.006,11.002-11.006h48.606C531.942,303.893,536.875,308.813,536.875,314.899L536.875,314.899z"/>
</g>
</svg>
