<?xml version="1.0" encoding="utf-8"?>
<!-- Generator: Adobe Illustrator 17.1.0, SVG Export Plug-In . SVG Version: 6.00 Build 0)  -->
<!DOCTYPE svg PUBLIC "-//W3C//DTD SVG 1.1//EN" "http://www.w3.org/Graphics/SVG/1.1/DTD/svg11.dtd">
<svg version="1.1" id="europe" xmlns="http://www.w3.org/2000/svg" xmlns:xlink="http://www.w3.org/1999/xlink" x="0px" y="0px"
	 viewBox="0 0 1012.129 601.514" enable-background="new 0 0 1012.129 601.514" xml:space="preserve">
<rect y="0" fill="#53CDEC" width="1012.129" height="601.514"/>
<g>
	<path fill="#F16665" d="M984.231,472.221C984.304,472.254,984.241,472.249,984.231,472.221
		C984.231,472.221,984.234,472.23,984.231,472.221z M580.214,107.533c0.11-1.231-0.206-2.327-0.95-3.289
		c-0.08,0.12-1.819,5.455-1.9,5.367C577.464,108.219,578.414,107.527,580.214,107.533
		C581.057,106.491,577.153,108.206,580.214,107.533z M657.022,210.199C656.818,212.721,660.589,210.045,657.022,210.199
		C656.845,212.399,657.253,210.189,657.022,210.199z M452.883,285.327c8.216,6.283-2.126,13.126-4.117,14.412
		c-0.458,0.297-1.058,3.245-1.78,3.344c-0.943,0.129-3.864-2.445-4.371-0.539c-0.159,0.594,2.303,0.608,2.109,0.898
		c-3.475,5.217-0.087-1.484-0.441,1.759c-0.182,1.681-5.244-0.686-6.029,0.874c1.266-0.245,2.421,0.02,3.464,0.794
		c-0.663,0.152-1.334,0.204-2.014,0.155c0.131-0.171,3.951-0.176,3.678,1.282c-0.473,0.296-0.971,0.341-1.494,0.136
		c0.49,0.132,6.473,0.579,6.32,1.301c-0.604,2.862-5.536,6.271-7.986,6.177c-2.058-0.078-17.052-0.589-17.401-2.789
		c1.014-0.244,1.035-0.608,0.062-1.094c-0.535,2.042-1.004-1.609-2.233,0.176c-1.008-0.824-1.818-1.81-2.432-2.959
		c2.833,3.267-6.389,3.333-6.805,1.583c0.685,0.437,1.145,1.04,1.381,1.81c-1.368,1.809-3.534-2.188-4.651-1.771
		c-0.24,0.775-0.562,1.516-0.964,2.222c1.96-1.356-4.616-5.216-5.943-5.213c-5.957,0.014-2.334,4.049-7.563,5.153
		c-1.06,0.224-5.759-3.555-7.439-4.167c-3.829-1.396-7.646,3.785-8.583,3.455c-0.286-0.104-2.779-5.869-4.422-3.707
		c1.74-2.289,8.403-0.227,9.05-4.079c0.256-1.499,8.938-5.213,9.622-5.162c2.31,0.174,0.153-3.709,4.264-2.402
		c2.427,0.771,6.225,4.158,8.901,3.124c1.251-0.491,6.159-7.866,8.575-6.583c0.222,0.118-7.206,1.458-7.482,1.553
		c-5.769,1.978-4.611-0.083-7.119-3.888c0.718,1.09-6.06-0.026-4.512-0.841c1.026-0.465,2.001-0.42,2.924,0.135
		c0.211-0.821-2.343-1.501-2.281-3.313c-1.792,2.051-5.891-1.06-7.589-0.729c0.832,0.522,1.652,0.546,2.46,0.073
		c-1.123-0.251-2.2-0.635-3.231-1.15c1.095,0.02,1.694-0.528,1.797-1.643c-0.571-0.329-1.154-0.633-1.75-0.913
		c-0.259-1.319,9.368-1.607,10.378-1.949c3.517-1.19,6.196-7.142,6.558-7.075c-2.642-0.489,0.307-1.835-0.937-2.994
		c-1.72-1.603-5.105,2.683-5.883-0.058c-0.47-0.996,8.319-4.803,9.546-4.655c4.188,0.508-2.601-2.068,3.671-0.2
		c1.189,0.354,3.602,3.051,4.153,3.109c0.045,0.005-0.86-4.496,1.309-2.957c0.39,0.276,2.36,2.522,2.291,2.462
		c-5.098-4.425,1.549-4.593,1.154-6.419c-0.416-0.6-0.953-0.745-1.609-0.434c0.127,0.043,3.715-6.436,4.101-6.655
		c-0.849-1.411-1.187,1.873-1.909-0.621c-0.525,0.577-1.045,1.159-1.56,1.746c-0.181-0.162-2.563-6.757-2.062-8.327
		c0.624-1.956,6.262-7.297,8.172-4.679c-0.409-5.372-10.559,2.24-10.11-1.371c-1.497,1.127-1.272-0.778-2.563-2.312
		c4.59,5.468-6.134-1.271-4.196-0.889c-1.242-0.245-0.732,3.59-1.364,3.762c-0.565,0.156-1.901-10.577,0.326-4.449
		c0.024-4.276,7.02-5.106,6.272-8.835c-0.288-1.437,0.277-9.829,1.522-9.766c-0.911-0.049-1.219,3.599-2.276,4.031
		c-0.36-0.569-0.497-1.19-0.413-1.863c-0.023,2.878-0.888-0.275-0.832-0.303c-0.261,0.761-0.648,1.451-1.159,2.07
		c-2.462-1.028,3.683-6.292,5.055-5.799c-5.359-1.942-9.11,15.113-12.783,12.055c-1.214-1.011,6.033-7.112,6.05-7.079
		c-0.171-0.33-2.347,1.433-2.101-0.043c0.528-0.644,1.095-1.252,1.701-1.823c-0.392,0.213-0.811,0.344-1.255,0.394
		c-1.1-1.799,3.899-2.988,3.099-4.008c-3.375,3.287,4.414-5.067,3.62-2.961c0.655-1.736-1.859-0.457-1.82-0.878
		c0.957-2.071,2.568-2.936,4.831-2.596c-1.8-2.573,0.969-0.487,0.251-1.909c1.779,3.509-11.724,2.377-8.377,0.037
		c1.366-0.092,2.684,0.116,3.954,0.623c-0.53-0.687-5.928-1.074-5.314-2.454c0.605-1.363,3.657,1.065,4.13,0.291
		c0.939-1.538-1.3-4.218,3.412-2.454c-0.529-0.197-2.978-1.879-1.4-2.521c0.913,0.45,1.769,0.992,2.566,1.625
		c-0.646,0.191-2.853-4.687,0.748-2.639c-0.669-0.462-1.34-0.92-2.014-1.375c0.985-0.46,1.999-0.847,3.039-1.161
		c-1.109,0.088-2.215,0.058-3.317-0.092c0.166-1.175,0.544-2.276,1.135-3.304c1.561,0.031,0.502,1.596,2.323,1.444
		c-2.982,0.242-0.296-6.075,0.085-6.002c0.321,0.698,0.48,1.431,0.478,2.199c-0.199-0.073,1.326-2.497,1.389-2.136
		c-0.296,0.984,2.208,2.935,3.31,2.443c0.408-0.177-1.758-3.789-1.773-4.375c0.629-0.039,1.228,0.087,1.795,0.379
		c0.005-0.965-0.022-1.928-0.08-2.891c-0.302,0.185,2.207,0.516,2.415,0.617c-0.284-0.901-0.159-1.734,0.374-2.501
		c0.543,2.874,1.123-1.903,1.488-2.362c1.974-2.48,2.467,3.806,1.681,3c0.788-0.455,1.57-0.918,2.347-1.391
		c0.675,0.765,0.63,1.493-0.136,2.183c0.553-2.958,12.205,1.581,12.468,1.184c-2.979,4.486-7.571,7.288-13.576,8.668
		c0.038-0.009,3.247,1,3.451,1.201c0.323,0.318-6.308,2.412-6.88,2.426c0.43-0.009,4.077-0.693,3.85-0.345
		c-0.976,0.537-1.893,1.16-2.749,1.871c0.491-2.789,13.687,1.146,16.054,2.176c6.537,2.843,3.668,4.175,0.438,8.219
		c-4.891,6.125-7.098,6.851-13.899,9.51c1.365,0.006,5.533,0.884,4.594,3.213c-0.988,2.449-9.378,0.159-10.564,0.98
		c2.242-1.565,11.333,4.812,12.374,6.727c3.718,6.839-1.01,13.658,1.979,19.831c1.423,2.299,4.345,4.321,5.671,7.681
		c0.808,2.048,2.953,11.585,1.903,13.055c0.68-2.224-7.486-3.448-7.471-3.385c0.206,0.825,6.312,3.414,7.206,6.782
		c0.705,2.647-3.878,8.439-4.389,7.392c0.93,1.019,1.943,1.948,3.039,2.787C442.208,284.062,450.915,283.823,452.883,285.327
		C456.404,288.02,451.831,284.523,452.883,285.327z M400.259,239.343c0.413,0.774-0.147,5.96-1.543,5.448
		c-0.758-0.279,1.78-3.631,0.023-4.003c0.447,0.093-1.638,3.166-1.658,3.111c1.221-0.563,1.644-0.248,1.268,0.947
		c-0.824,1.766-6.051,1.857-7.405,1.347c-1.155-2.102-0.978,10.361-2.35,11.47c-0.375-0.675-0.897-0.775-1.566-0.302
		c-1.045,1.557-1.758,7.687-3.23,10.329c0.09-0.162-5.1,6.994-4.756,6.775c-1.064,0.673-5.722-2.206-5.146-3.701
		c-0.15,0.82-0.439,1.589-0.869,2.308c1.617-1.634-11.763,0.94-12.115,0.901c-2.133-0.23-5.771,2.015-7.099,1.181
		c-0.173-0.108-8.153-2.48-6.32-2.671c-0.631,0.061-3.522,1.323-4.039,0.312c-0.453-0.883,3.134-1.062,3.453-1.445
		c-1.046,0.069-2.085,0.011-3.117-0.174c0.587-0.421,5.468,0.035,4.464-1.493c-0.407-0.62-6.437,1.487-6.729-0.678
		c-0.197-1.447,6.153-0.309,6.663-1.506c-0.105,0.244-5.708,0.073-6.099-0.354c0.212-0.587,0.375-1.187,0.492-1.799
		c-0.545,0.133-1.085,0.287-1.618,0.462c0.288-0.575,0.307-1.157,0.056-1.746c0.148-0.105,6.719-1.783,6.619-1.844
		c0.163,0.098-7.065-0.497-5.383-2.909c1.283-1.829,5.821,1.895,7.035,1.911c-3.015-0.04,2.583-4.429,2.605-4.446
		c0.275-0.207,7.023,2.028,7.604,2.09c0.287,0.03-0.023-2.227-0.184-2.439c-0.479-0.622-3.34,2.425-4.212,1.38
		c0.071-0.379,0.316-0.551,0.735-0.514c0.164-0.402-6.078-1.872-6.28-1.545c1.08-1.748,13.106-6.175,13.157-5.784
		c-1.169-0.225-1.161-0.513,0.024-0.867c0.023-0.632-6.547-0.713-6.215-2.327c0.659-0.363,0.971-0.929,0.935-1.697
		c-0.962,0.275-1.884,0.166-2.766-0.325c0.374-0.537,0.895-0.786,1.561-0.749c-1.28-0.23-2.431-0.751-3.454-1.562
		c0.376-0.605,0.866-0.683,1.471-0.233c0.153-0.801-0.058-1.484-0.632-2.05c0.647-0.069,7.373-2.122,7.18-1.264
		c0.054-0.544,0.206-1.059,0.455-1.546c0.265,0.584-4.427-2.616-3.558-2.302c2.18,0.773,1.994,1.368,2.747-1.898
		c-0.477,0.305-0.962,0.338-1.457,0.097c3.06-7.803,6.891,1.49,7.708,1.732c1.413,0.472,3.33-1.255,6.295,0.902
		c-0.519-0.574-0.911-1.224-1.177-1.952c0.386-0.923,5.367-1.123,6.459-1.984c0.106-0.083-3.634-0.504-3.372-0.229
		c-4.375-4.618,1.55-2.059,2.893-3.757c-0.618-0.742-0.468-0.97,0.452-0.687c-0.328-0.339-0.712-0.596-1.152-0.772
		c-0.587-0.693,3.751-2.233,3.722-2.245c3.753-0.259,1.04-1.413,3.903,0.788c2.397,1.842-0.729,2.983-0.503,3.218
		c0.065,0.067,2.541-4.196,5.036-3.201c-0.323-0.387-0.466-0.83-0.43-1.331c1.477,0.481,2.484,1.459,3.021,2.934
		c-0.134-0.267-3.74,0.928-3.759,1.698c0.034-1.387,8.056,0.294,9.448,1.077c1.915,1.075,3.11,11.512-0.626,10.109
		C398.054,239.961,399.366,237.68,400.259,239.343C400.673,240.118,399.389,237.721,400.259,239.343z M359.961,230.856
		c1.151-0.375,0.961-0.707-0.572-0.994c-0.376,0.88-0.851,1.703-1.427,2.468C358.693,231.927,359.36,231.435,359.961,230.856
		C361.42,231.504,359.81,230.789,359.961,230.856z M485.224,292.124c1.235,0.725,2.089-2.146,2.07-2.841
		C486.993,289.542,484.143,291.489,485.224,292.124z M507.628,458.06c-2.768-1.211-0.747,3.667-1.581,4.49
		c-1.466,1.447-6.974,0.125-8.845,2.674c-0.508,0.691-1.014,8.896-1.662,8.446c0.799,0.208,1.587,0.453,2.363,0.735
		c-0.464,0.942-1.162,1.645-2.095,2.109c0.951,0.604,1.952,1.11,3.004,1.516c-0.613,0.522-1.263,0.994-1.95,1.416
		c-0.149,0.247,4.929,3.57,4.231,3.807C504.495,482.098,511.216,461.306,507.628,458.06
		C507.258,457.898,509.105,459.396,507.628,458.06z M501.855,485.444c-5.668,0.684-7.807,8.953-13.126,2.632
		c0.649,0.753-0.864,6.739,0.07,8.913c1.642,3.82,0.26,7.373,0.783,11.366c-0.887-0.887-3.646,9.324-2.847,11.651
		c0.539-0.457,1.017-0.972,1.436-1.545c0.966-0.65,0.954,3.292,1.431,3.582c4.387,2.674,5.411-5.703,5.347-5.662
		c1.783-1.144,4.917,5.921,6.78,2.556c1.913-3.455,1.5-7.667,2.625-11.341c1.137-3.725,1.041-5.172,2.428-8.786
		c0.962-2.509-2.595-7.897-2.621-7.684c0.647-0.497,1.368-0.846,2.161-1.047c-0.616-0.072-1.203-0.239-1.761-0.501
		c0.286-0.491,0.552-0.992,0.798-1.503C504.559,486.672,502.116,490.1,501.855,485.444
		C499.848,485.686,501.962,487.351,501.855,485.444z M671.904,528.833c-0.623,0.243-6.287,2.963-5.695,3.672
		c2.56,0,10.818,0.733,9.819,5.423c0.85,2.535,5.891-1.239,6.699,2.144c0.334,1.397,1.67,4.668,3.523,5.023
		c5.877,1.127-3.659-6.099-2.612-8.076C684.386,535.599,673.42,529.941,671.904,528.833
		C671.319,529.061,673.5,529.999,671.904,528.833z M573.689,540.6c-2.54,1.381-12.59,2.541-16.514,2.757
		c-5.201,0.286-7.528-1.737-11.74-2.361c-2.838-3.352-4.397,1.866-6.04,0.913c-0.72-0.872-1.254-1.845-1.602-2.92
		c-1.012-1.53-4.426,5.361-4.486,5.424c-3.11,3.279,8.659,6.233,9.279,6.657c1.912,1.309,23.05,15.728,23.617,14.266
		C568.653,559.042,564.069,544.112,573.689,540.6C574.673,540.065,573.582,540.638,573.689,540.6z M618.119,191.541
		c0.167,0.137,0.309,0.241,0.34,0.273C618.556,191.916,618.248,191.544,618.119,191.541z M738.967,418.717
		c-0.035,0.068-0.196,0.306-0.371,0.589C738.967,419.171,739.113,418.446,738.967,418.717z M810.389,464.391
		c-0.179,0.036-0.33,0.086-0.46,0.142C810.353,464.432,810.663,464.339,810.389,464.391z M737.588,559.24
		c-0.232-0.01-0.616,0.329-0.616,0.329S737.694,559.447,737.588,559.24z M390.642,357.984c-0.119-0.006-0.218,0.015-0.263,0.096
		C390.47,358.054,390.553,358.015,390.642,357.984z M390.954,358.08C391.011,358.057,390.964,358.065,390.954,358.08
		C390.964,358.076,390.958,358.074,390.954,358.08z M731.524,106.783c0.044,0.036,0.064,0.063,0.105,0.098
		C731.666,106.9,731.657,106.886,731.524,106.783z M620.99,145.79c0-0.09-0.032-0.116-0.08-0.107
		C620.938,145.718,620.962,145.756,620.99,145.79z M387.703,356.63c0.008-0.08-0.008-0.147,0.018-0.234
		C387.693,356.489,387.691,356.565,387.703,356.63z M522.017,179.187h0.002C522.033,179.173,522.03,179.174,522.017,179.187z
		 M621.671,198.872C621.671,198.832,621.671,198.832,621.671,198.872C621.671,198.867,621.671,198.859,621.671,198.872z
		 M390.972,358.065C391.366,358.181,391.226,357.731,390.972,358.065C390.975,358.066,391.022,358,390.972,358.065z
		 M555.938,203.942c-0.059,0.076-0.141,0.129-0.192,0.213C555.86,204.134,555.914,204.052,555.938,203.942z M621.655,198.84
		C621.672,198.911,621.686,198.846,621.655,198.84C621.66,198.86,621.66,198.841,621.655,198.84z M747.365,562.194
		c-0.121,0.066-0.252,0.15-0.399,0.266C747.163,562.46,747.29,562.356,747.365,562.194z M390.642,357.984
		c-0.119-0.006-0.218,0.015-0.263,0.096C390.47,358.054,390.553,358.015,390.642,357.984z M555.938,203.942
		c-0.059,0.076-0.141,0.129-0.192,0.213C555.86,204.134,555.914,204.052,555.938,203.942z M1012.129,328.077
		c-2.239-2.747-4.923-5.378-8.047-7.097c-6.939-3.82-8.246,1.862-13.111,4.575c-3.712,2.07-12.81,0.621-17.521,1.715
		c-2.239,0.52-4.553,4.829-3.515,4.676c-3.741,0.554-2.814-0.765-5.142,0.505c-0.974-0.29-1.502-0.984-1.583-2.084
		c-1.511,1.929-2.773-0.212-5.146,1.156c-2.676,1.539-1.624,3.973-2.893,5.129c-1.753-2.788-2.682,4.86-3.639,2.481
		c-1.307,0.569-4.22,8.935-5.675,8.586c-1.854-0.502-0.952-1.357-0.835,0.352c-0.826-0.177-1.659-0.315-2.499-0.412
		c-0.014,1.141,0.538,1.87,1.656,2.189c-0.862-1.208-2.55,2.791-0.759,4.585c-0.677-0.678-1.397,1.824-1.488,2.204
		c-0.342-0.259-0.696-0.499-1.062-0.723c0.879,1.946-0.555-1.169,0.146,1.391c-0.356-0.287-1.856-0.154-2.248,0.069
		c-0.953,0.544,2.738,3.608,2.825,3.47c-0.171,0.273-6.247-0.809-4.847,3.28c-0.164-0.48-4.818,4.645-3.64,4.454
		c-0.72,0-3.232-0.917-3.671-1.452c1.075,0.712,1.761,1.695,2.058,2.948c0.047-0.637-3.561-2.37-3.681-2.031
		c-0.416,1.022,6.127,2.567,1.827,5.053c0.741,0.283,1.054,10.294,0.308,10.8c-0.764-0.345-1.295-0.91-1.594-1.694
		c1.019,5.913-4.108,7.099,3.123,8.287c2.676,0.443,5.976,4.497,7.382,6.666c0.503-0.92,1.257-1.563,2.264-1.928
		c-0.811,0.201-0.003,11.997,1.767,8.713c-4.854,1.796,19.478,18.837,20.787,19.281c3.967,1.346,11.838,7.699,14.699,10.744
		c3.141,3.367,3.773-0.276,7.98,1.326c0,0,5.465,2.634,4.764,2.933c0.469-0.211-5.288,0.699-5.117,0.703
		c-2.03-0.061-6.742,6.472-4.185,7.219c-0.272-0.079,3.228,10.838,3.333,11.084c-0.5,0.708-2.095-1.728-1.854,0.638
		c0.052,0.501,2.194,5.381-0.241,5.689c0.457-0.058,0.504-2.51-1.039-2.731c-2.414-0.346-1.26,5.822-0.633,7.156
		c2.468,5.251,1.518,7.08-3.016,3.616c-0.455-0.348-9.35-0.18-5.955-3.498c2.586-2.528-0.659-8.678-3.762-10.086
		c-6.409-2.909-7.601,10.127-10.861,11.965c-3.611,2.03-1.706,5.422-5.896,6.262c-4.02,1.267-5.718,3.232-10.62,2.599
		c-3.285-0.422-7.664-4.998-10.412-6.901c-0.983-0.68-4.967-3.378-4.489-0.051c0.493,3.437-3.708,6.55-3.73,6.44
		c0.206,1.028,3.72,6.151,4.489,6.889c0.738,0.707,5.767,8.148,5.768,8.202c0.084,3.931-3.633,5.973,1.28,7.504
		c4.069,1.239,0.839,3.683,4.854,5.207c4.819,1.83,0.858,6.377-2.368,7.808c-2.109,0.936-2.112-8.148-5.712-2.819
		c-2.885,4.275-8.391-0.844-11.577,2.613c-0.943,0.546-1.923,0.64-2.939,0.281c-0.715,0.146-3.283,4.999-4.212,5.752
		c0.305-5.638-4.178-0.482-5.197,0.419c-3.904,3.448-9.49,2.961-14.072,4.801c-7.634,3.076-16.033,18.166-26.417,12.073
		c-6.995-4.104-10.899,7.711-18.037,6.687c-1.653-0.237-2.673-3.202-5.152-1.61c-4.06,2.607,2.255,7.97,1.663,9.091
		c-1.283,0.498-2.601,0.871-3.955,1.12c0.11-0.125-1.096,5.093-1.208,5.363c-1.944,4.695-3.827-2.359-4.86-3.357
		c-4.364-4.215,3.989-5.557,2.216-10.047c-1.969-4.987-6.639,1.305-7.286,3.313c0.373-0.346,0.746-0.692,1.12-1.037
		c-4.134,7.712-10.455-2.572-14.746,1.204c-1.848,1.626-3.985,10.243-5.927,10.583c-0.53-0.366-0.935-0.839-1.216-1.419
		c0.457,0.137-4.011,4.057-5.028,4.099c-4.495,0.183-9.788,4.805-14.072,1.572c-6.962-5.268-10.623-7.663-20.319-8.045
		c-5.768-0.227-4.105,11.429-4.975,11.2c-1.611-0.42-9.966,0.917-9.754,2.075c-0.138-0.754-4.888-1.273-6.074-1.945
		c-2.33-1.32-0.872-4.895-3.101-6.4c-1.686-1.138-1.114,2.616-1.841,2.697c-1.78,0.203-2.76-3.09-3.219-3.39
		c0.366,0.239-3.458-0.351-2.827-0.866c-0.106,0.591-0.044,1.161,0.186,1.71c-0.899,0.79-3.099,1.457-5.333,3.666
		c0.639-0.059,1.141-0.349,1.504-0.872c-0.482-0.317-1.005-0.529-1.569-0.638c0.672-0.345,3.224-4.006,4.169-6.02
		c-1.054,2.18-11.493,1.269-13.122,2.692c0.371-0.325-2.431-4.373,1.533-2.852c0.82,0.319,1.912-0.939,2.622-1.642
		c2.065-2.047-3.295,0.1-1.698-0.043c-0.068,0.007-0.8-1.146-1.598-1.173c-0.288-0.628-0.27-1.25,0.055-1.866
		c-0.513,0.765-1.234,1.236-2.162,1.411c1.251,0.273-3.303-4.514-3.426-4.621c2.294,2.013,4.749-5.82,2.219-5.542
		c-3.474,0.381-4.084-1.243-5.88-3.169c0.746,0.807-6.432,1.135-6.757-0.236c0.314-0.428,0.491-0.915,0.529-1.46
		c0.761,1.125,3.101,0.353,2.848-1.205c-0.249-1.539-2.968,0.434-1.81-2.616c1.254-3.304,3.67,4.165,4.042,4.286
		c-0.65-0.729-0.636-1.439,0.044-2.13c-0.091,0.715,6.816,1.266,5.817-0.785c-0.411-0.836-6.763,0.097-5.745-3.548
		c0.342-1.225,3.54-1.499,3.946-2.939c0.541-1.804-3.256-0.24-3.419-1.025c-0.071-0.34-1.997-6.479-2.358-5.533
		c0.44,0.424,3.508-3.314,3.439-4.142c-0.083-1.031-7.15,1.573-7.873,1.855c-5.089,1.978-1.885-8.094-1.198-8.102
		c1.823-0.025,2.592-6.84,5.969-7.13c2.967-0.266,10.853,1.599,12.938-0.161c1.029-0.869-2.039-1.813-2.32-2.104
		c-0.12-0.124,3.59-1.29,4.391-0.44c-0.283,0.703-0.779,1.199-1.489,1.487c0.003,0.943,14.654-1.958,14.6-2.03
		c-0.265-0.359-4.741-0.616-3.944-1.526c1.496-1.71,13.221-3.907,13.366-4.304c-1.143,3.147-16.303-6.024-17.095-2.224
		c-3.492,1.585-10.79-1.78-13.331,3.5c-0.374,0.776-13.72,14.148-14.035,14.041c-3.377-1.14,6.928-9.956,6.966-9.773
		c-0.187-0.964-7.821,2.082-9.012-0.21c-1.788-3.442-5.792-2.702-10.177-3.39c-3.095-0.485-1.055-1.775-4.074,0.838
		c-3.004,2.6-2.973-1.583-5.237-0.562c-0.203,0.091-10.023,5.689-9.429,3.901c-0.414,1.247,2.242,2.588,2.863,3.322
		c0.008,0.01-2.223,1.034-0.509,2.151c-0.3-0.197,6.395,3.872,6.481,3.896c-1.999-0.56-5.712-5.055-8.072-3.024
		c-0.572,0.493,4.788,6.586,2.968,6.339c-2.963-0.417-3.336-6.073-7.263-5.04c-3.104,0.817,4.864,5.397,4.794,5.315
		c-2.135-2.535-4.094,0.009-5.784-4.301c-0.165-0.42-6.959-3.615-5.606-4.407c0.647-0.001,1.257-0.152,1.827-0.453
		c-0.347-0.478-0.632-0.991-0.854-1.538c-3.022-2.218-4.633,8.036-4.068,9.246c0.778,1.665,10.388,13.199,9.703,13.865
		c-1.836,1.786-2.324-3.707-4.723-2.979c-3.775,1.132,1.002,4.507,1.484,5.274c1.04,1.653-7.026,3.056-6.387,3.31
		c1.778,0.705,14.032,4.493,13.707,5.289c-1.958,0.408,5.569,3.419,5.997,3.84c0.233,0.23-1.019,8.504-0.292,8.735
		c-1.716-0.545-5.485-3.367-5.555-5.351c0,0.483-7.812,1.657-7.665,2.317c0.058,0.236,2.872,1.721,2.607,1.855
		c-3.275,0,4.247,5.276,4.38,5.127c-0.136,0.154-5.686,1.728-5.042,2.882c-2.028-3.637-0.612-2.658-4.568-5.004
		c0.177,0.104,4.894,13.611,4.798,13.677c-2.387-1.363,0.978,4.599,1.281,4.719c-4.585-1.824-8.869-10.857-9.25,0.49
		c-1.303-1.875-1.487-7.386-3.836-7.819c0.231,0.169,0.28,0.359,0.148,0.57c-1.979-1.027-3.708-4.646-3.457,1.275
		c0.136,3.25-4.44-3.454-4.66-4.342c-0.809-3.264,3.22-4.712-0.597-7.486c0.82,0.596-4.937-4.319-4.302-4.094
		c-1.755-0.615,0.727-5.701,1.88-6.447c2.292,2.238,5.321-2.784,8.223-1.555c1.466,0.621,12.402,5.129,12.286,4.691
		c-0.578-0.228-1.149-0.472-1.714-0.73c0.471-0.966,5.755-0.224,4.745-1.818c-0.61-0.963-1.412-1.611-2.017-0.496
		c0.019,1.002-6.622-2.335-5.427-3.153c-0.265,0.646-0.667,1.189-1.208,1.629c-0.754,0.024-0.455-3.408-1.964-2.59
		c-0.053,0.62-0.105,1.24-0.158,1.86c-1.639,0.884-13.586-1.177-13.033-1.542c-0.793,0.52-1.956,3.585-3.33,1.905
		c-1.785-2.163-0.14-5.577-3.894-6.562c-2.969-2.912,4.145-3.504,5.016-1.967c0.053-1.173-0.369-2.126-1.266-2.858
		c-0.975,0.228-1.041,0.494-0.199,0.798c-1.471,0.646-2.358-1.578-3.136-1.818c-0.328-0.104-1.743,1.846,0.234,2.648
		c-3.729-1.548-7.357-7.454-8.744-9.217c-1.821-2.34-4.486-12.564-10.362-14.392c0.665,0.702,1.466,1.162,2.402,1.379
		c0.062-1.157-0.337-2.132-1.199-2.923c-1.543-1.196,2.299-12.972,0.923-16.709c0.759,2.056,2.117-1.815,1.832-2.792
		c-0.266-0.913-6.308-5.561-7.419-6.394c-0.397-0.298-5.343-5.216-5.534-4.816c0.225,0.258,0.285,0.54,0.18,0.847
		c-0.804-0.015-9.992-7.958-8.888-6.325c-1.309,0.489-7.991-5.275-8.682-4.16c1.573-2.539,6.792,3.884,8.508,3.357
		c-1.002,0.306-3.189-4.748-3.807-3.312c-0.574-1.527-5.764-6.29-7.304-6.514c-0.041-0.006-9.781-2.789-9.259-1.647
		c1.577-3.568-11.244-10.15-8.888-13.034c2.429,0.54-1.295-12.272-3.282-14.638c-6.344-7.554-10.56,12.946-13.301-2.619
		c-0.104-0.593,3.432-10.166,0.292-6.984c-2.193,2.223-3.858-3.648-4.808,0.592c-0.374,1.669-7.282,1.07-8.171,2.468
		c0.787-0.322,1.537-0.717,2.25-1.184c0.843-0.969-7.468,2.77-4.232,5.089c-0.728,0.414,5.051,4.557-0.127,6.161
		c-8.675,2.688,9.991,19.145,11.817,20.665c6.142,5.113,4.361,16.076,10.582,22.461c3.884,3.972,7.028,6.064,12.829,5.843
		c7.931-0.302,6.006,0.562,3.532,5.172c-1.373,2.558,22.744,16.468,25.859,19.135c5.138,4.399,3.42,14.769-1.474,8.41
		c-1.475-1.917-0.175-5.676-3.67-5.724c-1.793-0.029-9.03-0.758-4.934-3.353c-0.389,0.939-5.376,0.94-6.778,3.749
		c-0.942,1.887-4.542,6.579-3.192,8.823c2.629,4.372,10.053,4.731,7.281,10.094c-1.142,4.191-8.513,1.135-7.771,6.784
		c0.449,3.434-4.33,6.888-6.087,9.854c-2.379,3.99-8.622-1.492-5.793-4.242c3.515-3.406,2.115-6.253,6.294-7.84
		c1.507-0.572-1.719-20.689-5.632-21.54c-2.783-0.606-5.477,1.003-7.218-3.399c-1.138-2.876-0.942-10.173-7.114-5.281
		c-0.627-0.369,3.616-2.378,0.233-3.835c-3.001-1.29-3.274,1.721-4.467-2.503c-0.916-3.24-5.706-7.562-9.16-5.617
		c-1.316,0.741-7.833-5.941-9.147-7.414c-5.026-5.638-6.865-9.826-13.664-13.401c1.607,0.849-0.993-5.139-1.926-5.868
		c-1.929-1.497-1.693-1.944-4.115-3.428c1.182,0.709-1.213-11.208-1.215-11.237c-0.23-2.698-4.807-10.248-4.309-7.182
		c1.658-4.348-14.535-10.843-18.619-2.877c-2.919,5.693-16.026,3.643-20.209,8.949c0.696-0.205,1.162,0.051,1.397,0.767
		c0.044,1.978-5.411,0.821-6.109,0.617c-0.585,0.336-0.83,0.843-0.737,1.523c-0.216,0.361-1.416-2.844-2.965-1.922
		c0.146-0.085,0.954,1.509,0.209,1.096c-1.488-0.826-9.027-7.709-9.468-6.991c0.941-0.252,1.873-0.535,2.795-0.851
		c-0.07,0.133-1.437-2.828-2.076-2.082c-1.595,1.86,1.708,1.466-1.47,2.493c-3.111,1.005-0.65-2.605-2.254-2.929
		c0.62,0.125-0.392,3.455,0.534,3.372c-2.854,0.254-5.812-5.263-8.047-5.617c-2.775-0.428-10.701,6.522-11.997,5.147
		c-1.441,2.305-0.251,2.126-1.939,3.101c-3.588,2.072,5.509,14.85-4.162,17.995c-6.758,2.207-11.797,4.367-18.734,4.815
		c-2.189,0.139-10.769,0.129-10.719,3.625c0.692,0.363,1.319,0.818,1.881,1.366c-1.402-2.052-14.587,10.819-16.075,12.375
		c-2.935,3.071-4.295,6.398-3.465,10.682c0.186,0.965,5.133,5.404,4.146,6.181c-3.621,2.849-9.357,3.098-12.849,6.104
		c-1.209,1.04-3.673,8.992-2.628,8.197c-2.942,2.241-6.781-2.269-9.616-0.384c-4.063,2.702-6.631,5.325-10.267,8.631
		c-0.432,0.393-6.48-1.808-8.349-1.415c-3.188,0.67-9.093-3.373-12.076-4.381c-6.402-2.163-16.955-2.103-21.888,2.076
		c-4.79,4.058-11.279-3.643-10.476-9.204c0.304,0.771,0.815,1.045,1.532,0.823c-1.441-0.631-4.903-11.789-5.235-14.111
		c-1.176,1.888-26.039-5.806-25.892-6.359c0.479-1.793,4.76-8.298,6.441-9.478c-2.545,0.449,1.569-6.643,1.754-6.953
		c3.47-5.825-2.356-3.301-3.602-5.6c-2.426-4.773-0.3-8.151,2.503-12.047c3.239-4.497,9.398-9.858,13.522-16.676
		c1.725-2.852,5.406-7.046,5.278-10.635c-0.033-0.917,0.348-14.491,3.447-12.147c-0.607,0.182-1.186,0.43-1.736,0.745
		c0.059-0.312,2.517-6.405,2.21-6.068c0.314-0.148,0.498-0.067,0.552,0.244c0.391-0.465,0.246-6.127,3.125-5.682
		c-0.874,0.807-1.295,0.638-1.261-0.506c-0.076,0.081-2.65,2.102-2.819,1.463c0.155-1.859,1.093-3.169,2.814-3.931
		c-1.505-0.123-3.372-2.183-3.305-2.923c0.51-5.747,18.06-5.641,21.98-6.56c-0.406,0.703,4.707,6.965,5.174,7.142
		c2.938,1.099,16.799,0.977,18.167,5.461c-1.401,1.866,16.589,7.956,16.621,7.884c0.759,0.466,2.922-1.101,4.085-0.569
		c-0.902-0.412,2.536,6.231,4.252,4.922c3.273-2.51,4.249,0.474,7.287,2.536c7.177,5.199,13.077-3.014,14.809-8.79
		c1.73-5.768,3.712-12.277,6.077-17.823c3.756-8.807,5.322,7.803,5.552,7.867c1.051,0.297-2.295-16.592-3.509-15.963
		c0.901,0.496,1.654,1.16,2.258,1.99c0.776-2.83,0.607-7.097,1.038-10.057c-0.656-0.352-1.044-0.076-1.163,0.829
		c-0.531-2.615-5.508-7.23-6.789-10.532c-0.577-1.55-0.073-2.552,1.514-3.008c2.567-1.897-1.438-1.827-1.485-3.014
		c-0.111-3.743,5.85-0.826,5.535,0.277c0.551-1.895-7.25-2.974-7.856-3.803c0.265,0.412,0.608,0.519,1.027,0.321
		c0.114-1.575-1.975,0.421-0.812-1.658c0.621-0.033,1.242-0.026,1.862,0.02c-0.081-0.269-1.938-1.915-0.292-1.632
		c-1.311-0.362-1.633-0.629-0.966-0.799c-0.735-0.04-3.716,0.564-3.513-1.355c0.792,0.429,1.536,0.32,2.232-0.326
		c-0.375,0.401-1.973-1.237-2.498-1.406c0.248,0.463,0.287,0.945,0.116,1.444c-0.365-0.913-0.591-0.986-0.68-0.219
		c-0.03-0.395,0.007-0.784,0.11-1.166c-1.122,0.368-1.77,1.125-1.945,2.271c-0.041-1.603,0.408-3.055,1.349-4.354
		c0.099-0.317-3.601-1.764-2.525-0.253c-2.044,1.07-5.096-5.162-6.764-5.628c0.364,0.123-2.781,3.167-2.932,0.986
		c-0.247-3.336-0.984-2.566-2.499-4.827c0.163,0.244,5.059,0.325,5.093-0.238c-0.257-1.801-1.117-2.19-2.581-1.166
		c0.053-0.799,0.226-1.574,0.519-2.325c0.382-0.877,2.255,2.772,3.814,1.532c0.012-0.009-2.359-0.362-0.581-1.045
		c-0.65-0.049-1.287-0.172-1.91-0.367c0.546-0.571,1.212-0.911,1.999-1.018c-0.04-0.447-5.013,1.102-5.253-0.874
		c-0.486-3.999,6.449-1.78,6.521-2.836c-0.864,1.926,2.07-0.038,3.379,0.181c0.093,0.576,0.042,1.143-0.154,1.701
		c-0.214-1.163,3.511,0.002,4.423,0.151c-1.414-0.231,4.802-3.975,3.72-0.555c0.414-0.566,0.943-0.702,1.586-0.406
		c-0.123,0.656-0.421,1.218-0.893,1.686c0.45-0.214,0.888-0.45,1.314-0.707c0.056,4.763,3.514,7.798,7.834,5.641
		c2.572-1.285,5.75,4.142,7.976,2.32c-0.067,0.057-0.988-18.692-0.798-18.707c-0.433,0.031,6.795,2.775,6.558,2.531
		c-0.213-0.216-0.658,5.612-0.483,5.998c0.843,1.846,12.919,3.211,15.908,2.586c-6.617-0.318,1.161-5.511,4.109-5.653
		c3.261-0.153,8.596-3.218,11.225-2.56c-1.114-0.278,0.722-5.583,0.762-5.825c0.946-5.747,2.915-6.615,8.526-5.999
		c5.193,0.573,18.361-6.231,20.836,0.754c-0.764-2.141-8.391-4.403-7.847-5.845c1.615-4.289,6.836,4.258,7.577,3.588
		c0.688-0.621-1.957-3.043-1.934-3.148c0.768-0.435,1.487-0.34,2.157,0.284c-0.368,0.079-4.359-2-4.725-2.213
		c1.239,0.724,6.807-5.294,7.866-6.262c3.045-2.781,3.802-6.042,5.254-9.646c1.634-4.055,1.865-0.411,4.808-1.69
		c0.162,3.52,0.567,0.614,1.527,2.547c-0.48-0.966-4.186,6.013-4.411,6.19c-0.633,5.25,7.5,1.483,8.696-0.12
		c-0.586,0.783-0.376-7.476-0.095-6.812c-0.598-1.967-2.43-0.259-2.99-1.573c-1.89-4.433,6.143-5.162,7.975-5.031
		c2.125,0.152,6.638-1.247,7.088,1.901c0.176,1.218,2.474,2.085,3.127,1.843c-1.96,0.726-1.738-6.183,2.603-6.107
		c3.447,0.06,8.135,4.488,7.641,5.579c-0.189-1.164-0.093-2.301,0.287-3.412c1.064,0.431,1.843,1.162,2.337,2.193
		c2.832-3.375,0.117-7.7,7.523-4.448c-3.006-1.629-3.844-3.81-3.482-5.183c0.544-0.806,1.128-1.581,1.751-2.325
		c-0.009-0.024-4.43,0.567-3.327-0.783c-0.337,0.043,4.057-1.637,4.156-1.987c0.494-1.763-2.444-7.165-1.661-10.61
		c1.503-6.612-4.229-5.229-2.537-12.527c1.205,2.771,3.685-1.182,1.148-2.778c-1.522-0.957-1.757-4.755,1.506-3.789
		c0.105,0.018-2.154-2.106-0.404-1.145c-0.702-0.984-1.104-0.96-1.206,0.073c-1.479-1.268,1.883-3.68,1.864-4.822
		c0.079,6.579,6.049-0.604,7.063-1.121c1.77-0.902-0.149,4.446-0.179,4.359c0.427,1.25,1.642-1.386,2.281-0.731
		c0.253-0.971-0.121-1.298-1.123-0.98c-2.379-1.661,5.964-6.664,9.358-4.116c-2.112-3.136-6.588-1.436-9.584-1.347
		c-5.163,0.154-5.25,6.18-5.381,6.216c-0.938,0.257-1.863-4.356-1.54-5.029c2.446-5.105,6.719-1.742,10.262-3.067
		c2.122-0.793,8.228-10.17,11.77-8.003c0.613,0.378-4.985,14.008-5.068,15.869c-0.623,0.138,0.738,3.007,0.756,3.035
		c-0.865-1.369,9.014,7.855,1.621,6.737c-0.159-0.482-0.345-0.953-0.557-1.414c-0.473,0.513-0.907,1.058-1.303,1.632
		c0.975-0.233-1.119-1.485-1.148-1.194c0.445-0.614,0.986-1.126,1.625-1.535c0.249-0.457-5.175,6.47-3.842,6.654
		c-0.817-0.597-1.735-0.799-2.754-0.605c1.267,0.203,1.625,0.919,1.074,2.147c0.071,1.569-3.77-0.539-4.257-0.218
		c0.854,0.525,1.681,1.09,2.48,1.695c-0.933,0.937-2.066,1.404-3.397,1.4c2.999-2.623-1.485,8.94-1.707,7.288
		c0.12,0.931,4.251,0.443,2.671,2.803c0.371-0.554-2.037-0.204-2.663,0.545c4.043-3.219,5.594,7.523,2.551,6.229
		c1.08-0.153,2.126-0.032,3.138,0.363c-0.337,0.746-0.6,1.517-0.788,2.314c-1.24-1.893,9.414,0.594,9.207,0.104
		c1.181,2.77-4.995,4.443-4.014,5.675c-0.274-0.344,6.104,2.341,6.018,2.341c-1.667,0.062,8.577-7.281,6.579-2.478
		c2.884-6.892,4.577-2.761,7.949-4.272c-0.406,0.257-0.749,0.58-1.031,0.968c0.68-0.331,1.318-0.731,1.913-1.2
		c-1.401,0.382,6.812,8.318,6.346,6.463c1.359,5.404,4.5,3.333,7.375,8.095c1.163-0.547-0.644-4.212-1.215-4.98
		c-0.031-0.043-1.641,4.209-2.132,0.417c0.215,1.664,27.858-11.747,30.206-12.414c3.534-1.004,8.951,3.635,11.37,5.78
		c7.229,6.414,10.756-4.43,13.068-7.956c1.73-2.637,7.782,0.65,10.204,0.149c2.62-0.542,0.095-10.679-0.152-12.678
		c-0.371-2.998-1.239-5.741-1.429-8.785c-0.199-2.969-0.091-5.928,0.324-8.874c1.058-1.298,2.11-2.602,3.156-3.91
		c0.472-2.314,4.546-15.445,9.936-11.454c3.236,2.593,5.361,14.36,11.756,11.122c5.656-2.863,2.229-21.892,3.257-22.1
		c-0.879,0.178-6.481,4.978-6.151-0.513c0.149-2.478-4.034-4.333-1.702-8.238c-2.396,0.883-0.379-2.068-0.486-2.36
		c-1.055-2.863,2.696-1.581,4.534-2.608c-0.065-0.667-0.268-1.291-0.609-1.872c0.628-0.162,1.167,0,1.617,0.486
		c-1.692-2.872,4.205-0.631,4.609-1.921c-0.247-0.582-0.324-1.184-0.233-1.808c0.701-0.641,8.207,3.093,7.618-1.811
		c0.425,0.866,5.044,0.571,8.619,1.763c4.127,1.376,15.355-2.747,10.194-5.952c3.589,2.229,0.569,1.529,2.89-1.385
		c0.954,0.319,1.922,0.589,2.904,0.81c0.814-1.085,1.499-2.247,2.054-3.487c2.541-1.659,6.54,2.49,8.716,0.59
		c2.183-1.906-17.603-5.897-15.516-9.038c0.746,0.516,1.478,1.052,2.194,1.608c-0.017-0.003-1.164-2.82-1.263-2.797
		c1.944,0.635,0.552-1.658,0.549-1.66c-0.237-0.087-5.564,5.668-6.341,4.201c-0.56,2.044-5.173,0.749-4.686-0.576
		c-2.084,5.573-6.025,0.309-5.116,0.225c-1.34,0.123,0.212,3.507-1.479,3.86c-0.274-0.413-0.534-0.834-0.781-1.263
		c-0.068,0.385,0.018,0.725,0.261,1.021c-1.127-0.11-2.104-0.552-2.931-1.326c0.829,0.842,1.442,1.817,1.838,2.926
		c-2.159,1.543-1.506-6.705-1.49,1.037c-0.436-0.962-1.155-1.614-2.158-1.955c-1.188-0.198-3.207,4.987-5.204,3.046
		c0.177,0.679-0.044,1.142-0.665,1.389c-0.531-4.157-3.467,2.545-3.211,2.321c1.637-1.411-4.717-0.825-3.34-1.077
		c-0.062,0.011,1.417,0.468,1.041,0.685c-0.202,0.119-10.492,3.86-10.253,3.953c0.832,0.322,2.985-3.641,2.907-3.841
		c-0.535-1.38-3.285,1.515-1.791-1.247c0.041,0.136,0.021-3.85,0.094-3.719c0.37,0.665-3.565,2.701-4.268,2.553
		c-1.03-0.217,3.208-0.407-0.689-0.77c0.454-0.812,0.908-1.624,1.363-2.436c0.387,0.705-7.15-1.263-6.766-1.119
		c0.009-0.726,0.121-1.436,0.337-2.13c-0.815,0.566-1.454,1.288-1.918,2.165c-0.163,0.069-2.509-5.716-2.449-5.967
		c0.382,0.009,0.76-0.025,1.135-0.101c-1.389-1.967,0.325-7.322-0.338-9.795c0.222,0.815,2.402-1.035,1.195-3.467
		c-1.831-3.605-0.725-7.474-2.108-10.281c-0.513,0.542-0.685,0.28-0.514-0.784c-0.915,2.767-1.559-4.423-1.748-3.255
		c0.415-2.601,4.834-7.352,4.594-6.592c-0.72-0.933-1.188-1.981-1.405-3.141c-0.35,1.11,2.93-1.077,1.873-0.963
		c1.23-0.134,0.865,2.52,1.543,2.202c1.509-0.67,3.403-3.788,2.126-6.111c2.952,2.134-0.144-1.736,1.795-2.807
		c-2.19,1.21,5.787-1.998,2.385-1.877c0.366,0.465,7.114-6.128,7.032-8.164c-0.226-5.66,4.658-9.669,8.684-8.741
		c-0.738-0.17-0.724-7.266-0.591-9.224c0.018-0.26-8.017-7.993-4.821-7.993c0.1-0.007-8.838,4.136-8.188,2.848
		c-0.389-0.398-0.665-0.864-0.828-1.399c-1.557-0.448-0.049,2.499-1.435,2.56c-0.115,0.005-3.106-2.845-3.112-3.04
		c2.46,4.628-1.957,0.837-1.733,0.589c-0.855,0.948-0.401,3.485,0.229,3.157c-1.663-0.652-0.084,0.947,0.188,2.103
		c-0.236-0.946-4.675-1.814-4.306-2.774c-0.665,1.721,3.277,1.436,2.964,2.555c-0.685,0.67-1.46,0.781-2.325,0.331
		c1.04,0.251,1.392,0.857,1.057,1.818c-0.563-0.849-3.732,0.843-3.712,0.878c0.587,0.449,1.201,0.856,1.843,1.223
		c0.719,1.92-2.607-1.182-2.694-1.203c4.457-1.226-1.71,8.395-1.765,8.474c0.242-0.349,1.891,1.995,1.988,2.342
		c-0.458,0.021-0.917,0.029-1.376,0.024c0.171-0.204,3.181,3.123,3.419,3.631c-0.501-1.058-5.535,9.14-5.81,9.674
		c0.353-0.686-8.808,5.856-7.258,6.442c-0.814-0.472-1.47-1.106-1.968-1.9c0.194,0.801,0.311,1.614,0.351,2.438
		c-0.101,1.26-0.968-1.32-0.807-1.263c-0.699-0.247-1.987,4.205-2.383,4.767c-0.661-0.672-1.46-1.037-2.397-1.094
		c0.594,0.293,0.995,0.75,1.203,1.371c-1.878,1.785,0.314-2.168-1.454-0.847c0.871,3.174-0.866-0.245-0.982,0.775
		c1.402,2.071-2.493,2.582-2.49,2.589c0.903,0.038,1.775,0.221,2.616,0.549c-2.044,0-4.446-0.082-6.422-0.621
		c4.521,4.692-0.782,8.297-0.397,8.947c-0.46,0.897-1.878-2.153-2.414-1.601c-1.374,1.408,1.758,5.472,1.708,5.501
		c-3.281,1.923,0.464,6.092-1.263,8.747c-0.4,0.611-1.567-2.753-2.609-1.421c-0.955,1.206-0.316,1.597,0.141,2.654
		c-2.681-0.189,0.58,4.231,0.94,3.352c-0.535,0.398-1.114,0.507-1.739,0.326c0.076,1.383,1.592,4.211,0.841,5.48
		c-0.415-0.199-0.707-0.517-0.875-0.953c1.719,0.348,0.556,4.752,0.261,5.293c0.099-0.183,3.724,2.082,4.181,3.361
		c0.645-0.749,1.422-1.312,2.332-1.689c-2.065-0.087,3.839,6.647,4.445,6.073c-0.953,0.024-1.695-0.345-2.227-1.108
		c-0.219,0.277,3.937,4.849,3.753,4.846c-0.135-0.576-0.178-1.158-0.132-1.747c0.201,0.197,2.505,4.929,2.789,4.409
		c-0.942,0.266-1.532-0.147-1.769-1.238c0.448,1.343-1.113,0.045-1.493,2.279c0.105-0.304,3.404-0.1,2.818,0.573
		c-1.67,1.924-7.035,2.409-6.33,5.456c-0.074,0.753-1.376-1.38-1.557-1.171c-0.906,1.052-0.985,0.595,0.042,1.929
		c-2.867,2.867-2.566-5.908-3.208-5.929c-0.033,0.494-0.055,0.989-0.066,1.485c-0.011,0.033-1.008-3.115-0.82-3.105
		c-3.485-0.132,2.718,5.659,0.753,5.595c-0.91-0.027-2.288-4.145-2.423-0.612c-0.116-0.883-0.172-1.769-0.167-2.66
		c-0.452,0.927-0.58,1.895-0.383,2.905c-0.858-0.615-1.596-1.352-2.214-2.209c-0.116,1.097-1.533,0.834-2.762,1.208
		c-0.589-0.449-1.058-1.002-1.407-1.658c1.88,0.623-4.876,3.07-4.425,1.632c0.074-0.257,6.596,2.194,6.816,2.194
		c-0.234-0.636-0.666-1.098-1.295-1.384c0.159-0.33,4.692,1.686,4.942,2.063c-0.465,0.416-0.759,0.935-0.882,1.559
		c1.469,0.54,1.892,0.202,1.271-1.015c-0.786,1.02,9.471,1.33,8.158,3.543c-1.319,1.059-1.752,1.009-1.299-0.15
		c-1.254,0.314-1.898,3.933-2.725,3.91c-0.032-0.698-0.337-1.238-0.914-1.62c-0.015,0.442-0.029,0.884-0.042,1.326
		c-1.148-0.789,1.287-4.472-0.811-4.538c-0.693-0.023-0.79,6.624-5.484,6.438c2.898,0.12-6.579,3.523-7.156,1.524
		c0.513,1.801,5.28-1.068,6.136,2.683c0.299,1.378-4.359,0.205-4.334,0.067c-0.065,0.325,5.648,4.371,2.664,5.707
		c-0.437-0.429-0.838-0.891-1.201-1.385c0.813,1.737-0.21,4.39,0.824,5.283c-3.651-3.16,0.557,0.426-2.201-0.79
		c0.498,1.033,1.072,2.021,1.722,2.966c-0.663-1.003-1.422-1.926-2.28-2.767c-0.215,0.078,2.481,2.924,2.396,3.304
		c-0.302,1.321-2.553,8.379-2.745,11.838c-0.074,3.69-2.435,5.235-3.844,9.245c-3.224,9.173-8.696-1.983-12.717,2.56
		c0.237,0.736,0.438,1.481,0.604,2.236c-2.42,1.657-4.498-2.419-4.627,4.156c-0.125,6.357-2.103,3.663-6.811,5.246
		c-7.652,2.618-6.526-16.705-8.641-15.79c1.498-0.7,1.524,2.38,3.125,1.385c1.233-0.765-1.747-2.357-1.459-3.087
		c0.86-2.181,5.661-0.219,1.503-4.105c-1.388-1.298-4.447-6.598-4.227-8.481c-0.077,0.055-2.099-8.665-1.739-9.822
		c0.155-0.506,1.358-6.666,1.599-8.646c0.025-0.219-3.541,0.943-3.394,1.214c0.283-1.072,0.864-1.945,1.744-2.619
		c-0.323-0.314-0.613-0.655-0.87-1.024c0.971,1.171-1.675,2.938-1.645,3.017c-0.059,0.128,0.984-2.408,0.61-2.605
		c-0.456,0.769-1.124,1.224-2.005,1.365c-0.067-0.07,0.807-13.61,1.367-13.752c-0.64,0.145-0.969,0.55-0.988,1.216
		c-0.28,0.282-0.071-2.025-1.322-0.434c-0.141,0.831-2.823-12.42-1.052-12.189c0.745,0.098-4.174,13.297-4.326,13.092
		c0.021-0.454-0.006-0.904-0.083-1.352c-0.016,0.818-0.376,1.395-1.08,1.73c-0.151,0.77-5.47-0.512-4.606-2.532
		c0.532,0.701,0.922,1.474,1.168,2.317c-0.505,0.361-4.396,0.884-4.079,1.817c0.509,0.05,1.019,0.091,1.529,0.121
		c0.432,0.558-13.123,8.606-13.683,9.409c0.767-0.386,0.856-0.868,0.269-1.444c-0.799-0.132-5.928,4.594-8.317,2.202
		c0.599-0.377,0.863-0.915,0.79-1.615c-0.619,0.25-1.238,0.498-1.858,0.745c-1.137-0.956-0.98-1.466,0.469-1.53
		c-0.704-0.178-1.208-0.592-1.514-1.241c-0.493-0.443-0.565,2.478-0.935,2.374c-4.328-1.224,2.407-2.267-0.643-3.667
		c-1.181-0.543-2.214-0.929-3.599-2.972c-0.482-0.711-6.54-11.206-1.76-8.869c-0.598-0.589-0.692-1.242-0.28-1.958
		c0.921,0.76,1.184,1.718,0.789,2.875c1.589-1.011,2.733-0.427,3.938,1.32c-0.733-1.175-1.222-2.443-1.468-3.806
		c-0.331,1.207-0.641,1.208-0.929,0.003c0.924-1.421,2.971-3.061,4.883-3.581c-1.109-0.38-2.867-4.345-3.544-4.222
		c0.389-0.071-1.797,2.671-1.638,1.845c0.596,0.229,1.073,0.106,1.431-0.37c0.879,1.84-2.828,2.825-3.273,1.969
		c0.093-0.662,0.116-1.326,0.069-1.993c-0.202,0.52-0.432,1.027-0.69,1.521c-1.178,0.2,0.016-7.792,1.288-4.628
		c0.149-0.748,0.476-1.406,0.981-1.972c-0.263-0.054,1.483,2.473,1.789,2.535c0.974-0.639,0.979-1.091,0.015-1.355
		c0.57-0.261,1.107-0.58,1.611-0.958c-0.615-0.549-1.184-1.141-1.709-1.776c3.853-2.517,3.44-4.238,6.389-7.142
		c-0.382,0.382-5.622,4.702-5.629,4.654c-0.092-0.657,1.996-1.859,1.457-2.766c-0.693-0.018-1.355,0.119-1.985,0.412
		c0.557-0.456,1.067-0.959,1.531-1.51c-0.834,0.257-3.528,2.335-3.89,0.687c0.285-0.238,0.61-0.33,0.975-0.277
		c-1.48-0.112-0.161-2.989-0.003-4.691c0.133-1.429,2.422,2.007,2.868,1.884c1.014-0.283,2.551-5.048,1.583-5.245
		c-1.062-0.224-3.267,3.534-4.815,2.144c0.505,0.453-0.733-3.929-0.736-4.114c1.078,0.981,2.097,2.019,3.059,3.115
		c-0.352-0.476-0.273-0.467,0.237,0.025c-0.003-0.907-0.378-1.619-1.125-2.137c0.727-0.738,1.604-1.099,2.632-1.084
		c0.715,1.135-7.856-3.108-3.18-3.662c0.589-0.067,5.171-0.254,4.903-0.255c-0.422-0.002,9.779,3.071,9.862,3.318
		c-0.198,0.676-0.596,1.191-1.195,1.544c0.508,1.944,1.788-2.839,1.533-2.42c1.223,0.071,2.317,0.493,3.284,1.265
		c-0.875-1.846,2.49-1.308,2.433-2.403c0.013,0.263-19.465-0.688-20.255-2.823c0.478,0.092,0.958,0.103,1.44,0.032
		c-0.775-0.32-1.406-0.817-1.895-1.49c0.806-0.733,1.768-1.102,2.885-1.108c-0.964,0.052-1.798-0.226-2.5-0.834
		c-0.236-1.801,4.699,0.001,5.412-0.411c-1.248-0.347-2.335-0.953-3.261-1.817c0.749,0.186,1.459,0.092,2.128-0.283
		c-0.298,0.751-5.023-3.062-2.73-3.212c0.326,0.339,0.671,0.657,1.035,0.954c-0.41-0.087,2.525-0.555-0.257-1.142
		c1.156-0.784,2.42-1.302,3.792-1.556c-1.906,0.379-2.811-0.162-2.717-1.623c0.701,0.277,1.415,0.23,2.141-0.142
		c-0.68-0.248-2.651-4.237-0.88-3.52c0.606,0.243,1.764,3.764,1.434,3.829c2.585-0.514-1.11-1.659,0.273-2.929
		c0.802-0.737,2.243,1.87,2.096,2.059c-0.93-3.141,2.014-1.249,1.408-0.32c-0.551,0.306,8.117-5.288,8.058-3.01
		c0.062-2.405-3.254-2.172-4.411-3.396c1.028,1.088,4.004-1.375,4.399,0.896c-0.029-0.166,1.553-2.736,2.109-1.132
		c-0.526,0.605-0.38,1.131,0,1.888c0.236-0.487,0.419-0.992,0.551-1.518c0.639-0.436,1.818,2.425,3.493,1.937
		c-2.539-0.329-2.097-3.149-0.294-3.715c1.023-0.221-6.584,0.623-4.416-0.651c0.695-0.253,1.409-0.376,2.144-0.368
		c-1.08-0.29-1.774-0.958-2.082-2.003c2.124-2.075,13.057,2.484,11.737,6.137c0.45-1.25-5.656-6.673-3.91-7.179
		c0.776,0.015,1.423,0.311,1.942,0.888c-0.525-2.265,0.09-1.158,1-0.642c-1.18-2.787,2.244,0.212,2.313,0.11
		c-0.094-1.047,1.563-2.566,2.417-1.226c0.065,0.1-4.485-1.563-2.84-2.11c2.921-0.973,0.718,0.511,1.612-1.775
		c-0.31,0.794,3.065-0.118,2.533-0.202c0.834,0.87,0.845,1.765,0.031,2.686c-0.104,1.378,2.143-4.282,1.822-3.943
		c-0.926,0.996,4.244-0.243,3.15-0.524c2.617,0.672,0.467,4.209,0.415,5.005c-0.087-0.087,5.662-1.096,7.555-0.791
		c-0.036-0.968,0.217-1.849,0.76-2.643c-0.618,0.177-1.231,0.372-1.838,0.584c-0.785-0.983,6.16-2.639,6.27-3.382
		c-0.207-1.188-1.061-1.506-2.562-0.954c-1.233-0.796,3.593-1.519,4.022-1.519c-2.479,0.919-0.108-3.769-4.909-0.164
		c-2.945,2.212-4.729,0.548-6.942-0.573c-1.484-0.732,5.931-6.398,5.827-5.995c-0.22-0.517-0.5-0.999-0.839-1.446
		c0.771,0.946,1.05,0.894,0.839-0.155c0.341,0.631,0.813,1.138,1.415,1.52c0.174-0.907-0.221-1.404-1.186-1.49
		c0.098,0.117,1.717-0.536,2.251-0.24c0.102-0.609,0.188-1.22,0.258-1.833c0.6,0.234,2.42,2.778,1.993,3.433
		c1.354-1.832,2.777-1.134,3.533-2.026c-1.13-0.203-1.928-0.855-2.396-1.958c-0.149-1.97,2.516-0.717,3.202-1.872
		c0.501-0.847-3.258,0.69-0.24-0.826c-0.8,0.446-1.101,0.345-0.902-0.302c-0.896,0.741-1.884,1.308-2.964,1.7
		c-0.312-0.472,3.656-1.056,0.178-1.311c1.12-0.158,2.195-0.472,3.225-0.94c-1.032,0.282-2.084,0.421-3.154,0.417
		c0.544,0.273,9.849-4.187,3.327-0.244c1.151-0.391,1.343-0.391,0.575,0c1.249-0.19,2.478-0.463,3.688-0.819
		c-0.535-1.056,2.511-4.54,4.719-5.081c-0.801,0.441-1.486,1.018-2.056,1.731c0.964-2.695-2.694-0.415-2.732-0.824
		c-0.059-0.657,3.248-2.482,3.96-3.032c-1.242,1.01-1.288-2.19-1.086-2.237c-0.357,0.439-0.795,0.765-1.315,0.979
		c-0.834-1.329-0.316-4.271,1.84-2.376c-1.508-7.027,3.111-2.117,3.898-2.398c0.081-0.03-2.151-2.915-1.164-3.597
		c-0.813,0.71-1.422,0.658-1.827-0.153c0.551-1.998,8.245,0.363,10.016-3.032c-0.253,0.491-6.704,1.512-7.323,1.451
		c0.815-0.859,1.79-1.471,2.924-1.837c-2.162-1.533-0.757,1.352-2.908-0.282c1.417,1.071,0.529-4.176,0.029-3.176
		c0.611-1.356,1.886,1.976,2.555,1.307c-0.258,0.256-0.933-2.103-0.966-2.282c-0.777-4.203,4.352,0.549,5.316-2.62
		c-1.17-0.457-2.048-1.24-2.634-2.349c0.321,1.119,1.804-1.278,2.004-1.445c0.582,0.395,0.789,0.955,0.62,1.678
		c0.292-0.703,0.638-1.378,1.038-2.026c1.19,3.46,1.698-4.038,5.856-2.186c-1.101-0.494-0.134,1.91-0.17,2.101
		c0.471-5.552,2.652,1.103,3.223,0.482c-0.314-5.129-0.427,0.103,1.571-1.485c-0.763,0.613-3.419-2.353-3.463-2.599
		c-0.151-0.864-4.552,3.475-2.84,0.323c-0.806,0.116-1.589,0.319-2.349,0.608c0.414-4.687,7.315-4.398,8.587-0.445
		c-0.832-2.629-0.838-2.709,1.606-4.005c-1.377,0.73-3.941,1.3-3.785-1.138c0.179-2.808,2.343,0.107,3.674-1.14
		c0.31-0.29-2.643-2.23-2.924-2.508c1.503,1.492-4.116,3.361-4.113,2.873c0.488-0.921,1.251-1.276,2.289-1.067
		c-0.246-0.257-0.341-0.556-0.285-0.896c-0.664,0.451-1.232,0.322-1.703-0.389c0.733-0.201,1.463-0.412,2.19-0.632
		c-1.211,0.636-1.724,0.502-1.536-0.403c1.117-0.156,8.24-1.466,7.481-1.857c-0.753-0.381-3.678-2.936-2.251-2.504
		c0.08,0.7,0.45,1.161,1.111,1.385c0.329-0.848,0.621-1.709,0.874-2.583c-0.932,0.59,0.974,7.656,2.893,7.264
		c-0.856-0.933-1.436-2.016-1.739-3.251c0.348,0.661,0.822,1.213,1.422,1.655c0.213-1.007,0.16-1.998-0.16-2.973
		c0.615,0.244,1.254,0.387,1.917,0.428c0.521-0.611-3.456-2.775-3.399-3.936c0.037-0.75,3.878,2.32,3.954,2.908
		c-0.094-0.688-3.289-3.473-3.199-3.579c2.066-2.428,3.335,0.392,3.546,0.702c1.49,2.151,1.299-6.804,2.834,2.266
		c-0.029-0.365-0.588-3.204-0.598-3.203c0.757,0.072,1.478,0.268,2.164,0.587c-0.511-0.228-0.894-0.593-1.147-1.094
		c1.028,0.008,2.013,0.217,2.956,0.627c0.165-4.184-4.094-0.504-4.967-0.598c0.2-0.334,0.394-0.67,0.584-1.009
		c-0.028,0.145-4.214,0.989-4.047,0.077c1.057-5.762,6.307-1.238,7.492-2.704c-0.832-0.599-1.691-1.156-2.578-1.67
		c-0.589-1.171,2.938-0.018,3.148,0.071c-0.613-0.397-1.188-0.841-1.727-1.332c0.592-0.614,1.315-0.852,2.169-0.715
		c-4.996,2.476,7.234-11.131,5.08-5.649c0.361-0.931,3.436-0.845,0.761-1.377c7.309,0,0.649,0.143,2.012,1.42
		c2.047,1.838,2.96-1.42,4.938-1.42c-0.25,0.453-0.397,0.936-0.442,1.449c1.852,0,1.622-5.244,3.018-5.256
		c0.768,0.424,1.467,0.942,2.096,1.554c0.023,0.088-3.548-8.277,0.273-6.821c0.148,0.724,0.367,1.426,0.657,2.107
		c0.522,0.694,2.485-3.74,1.813-3.646c0.069-0.01,4.202,3.974,4.216,4.28c0.015,0.438-1.085-5.801-0.072-4.72
		c-0.577,0.191-1.161,0.207-1.751,0.049c0.764-0.171,1.303-0.623,1.617-1.354c0.532,1.375-6.047,0.333-5.049-1.189
		c2.142-3.268,2.523,0.736,3.743,0.701c0.494-0.589,0.588-1.246,0.283-1.971c-0.442,1.376,2.09-0.232,2.077-0.235
		c-0.077,0.448-0.109,0.899-0.095,1.354c0.888-0.527,1.861-0.705,2.919-0.535c2.184,0.435,0.616,4.244,2.021,4.735
		c0.962,0.006,1.647-0.417,2.055-1.269c-0.782-0.24-1.435-0.672-1.96-1.294c0.133-1.105,2.171-1.024,0.259-2.111
		c0.502-0.159,1.014-0.272,1.537-0.337c-0.438-0.014-0.869-0.081-1.292-0.199c-0.019-0.344,5.286-6.464,5.519-3.453
		c0.884-2.883-1.613-0.86,2.099-3.108c0.317-0.192-5.033-2.663-2.516-3.541c0.312,0.689,0.83,1.131,1.554,1.326
		c1.207-1.02-0.726-1.881-0.761-2.71c-0.075-1.758,3.814,1.754,4.044,2.475c0.119-0.973,0.241-1.945,0.366-2.917
		c0.714,0.418,0.989,1.078,0.824,1.979c0.702-0.478,1.474-0.698,2.318-0.66c-1.141-0.939-4.659,10.659-3.388,12.794
		c-0.46-0.773,6.42-14.835,7.303-14.467c1.726,0.728-0.648,5.586-1.324,5.126c0.575-0.01,1.132-0.112,1.671-0.308
		c0.357,0.251-0.712,4.894-0.124,4.638c1.899-0.817,0.076-2.116,2.769-2.116c-0.446-0.496-0.732-1.076-0.858-1.737
		c0.474-0.547,0.987-0.607,1.538-0.178c-0.738,1.407,1.176-6.553,1.539-3.594c-0.945-0.73-1.921-1.416-2.928-2.059
		c2.815-1.935,1.763-1.262,5.328-2.701c0.234,0.578,0.346,1.181,0.336,1.807c0.551-0.265,1.132-0.425,1.744-0.479
		c0.471,0.137-2.764,5.809-2.864,5.94c0.711-1.132,1.523-1.45,2.438-0.954c-0.187,0.544-3.063,3.59-2.484,3.966
		c0.59,0.383,1.837-2.056,3.588-0.87c-2.202-7.872,5.558-6.596,4.058-3.65c0.524-0.637,1.136-1.169,1.837-1.597
		c0.669,0.584,0.78,1.275,0.333,2.074c0.616,0.53,1.196-3.137,2.671-1.546c-0.718-0.774,1.029,2.118,0.832,1.301
		c-0.359,0.716-0.923,1.153-1.692,1.311c0.481,0.895,7.638-0.97,6.399,3.004c-1.178,3.758-13.143,4.069-13.074,3.723
		c-0.687,3.462,8.39,0.512,5.593,3.329c2.852-1.941,0.459,3.67,0.476,4.087c0.56-1.24,1.511-1.993,2.852-2.261
		c-0.025,0.499-0.169,0.963-0.433,1.39c0.335-1.112,0.797-1.179,1.388-0.203c-0.296-1.099-0.5-2.216-0.61-3.35
		c0.534-0.673,2.388,3.157,1.951,3.416c0.517-0.723,0.524-1.437,0.023-2.142c0.375-0.965,5.445-0.611,5.022,2.146
		c0.556-1.126,1.413-1.625,2.573-1.498c-0.395-0.645-0.714-1.326-0.956-2.044c-0.117-1.05,2.234,0.003,2.302,0.208
		c-2.302-2.47-1.985-2.964,0.951-1.481c1.64,1.072,3.245,0.201,4.645,1.141c4.844,3.249-7.75,2.082-5.397,0.84
		c-3.117,1.6,2.966,3.64,2.906,3.49c-0.64,0.305-1.158,0.754-1.555,1.349c0.965-0.786,2.03-1.383,3.195-1.792
		c0.097,0.477,0.166,0.957,0.207,1.442c0.197-0.789,0.699-1.152,1.504-1.088c-0.476,0.898-0.79,1.85-0.94,2.856
		c-0.909-1.195,2.626-2.899,3.491-2.582c0.483,1.015,0.136,1.899-1.043,2.654c0.046-0.054,2.597-1.335,0.486,0.443
		c0.479-0.151,0.946-0.12,1.4,0.093c-1.167-3.114,12.239-2.803,14.475-2.044c1.838,0.624,19.12,8.997,18.985,9.213
		c-0.524-0.344-0.966-0.771-1.326-1.282c2.741-0.755,6.114,5.764,8.751,3.295c2.359-2.204,1.748-0.341,3.647,1.127
		c2.949,2.28,6.212,4.705,9.917,9.239c4.704,5.756-5.49,18.908-10.146,21.265c-8.484,4.295-21.661-1.742-29.347-0.474
		c-2.175,0.359-0.168-2.018-0.111-1.971c-1.829-1.47-14.141,1.128-11.088-4.804c-0.546,1.065-5.811-0.293-6.929-0.098
		c0.704-0.123,4.53,1.565,4.831,2.364c-0.283,0.323-0.644,0.477-1.083,0.464c1.552,0.343,7.823,3.867,4.79,4.686
		c1.333-0.514,2.577-0.367,3.73,0.441c-0.204-0.3-4.211,0.06-3.612,0.958c0.606,0.918,4.1-0.684,5.211,0.344
		c-0.75-0.691-1.513,2.294-0.136,1.375c-0.854,0.029-1.694,0.148-2.521,0.357c1.804-2.91,12.084,6.051,13.065,7.733
		c-0.578-0.286-1.166-0.549-1.765-0.788c2.596,1.666-1.054,7.297-1.363,6.862c2.219,3.111,6.293,5.278,5.176,8.933
		c0.537-0.386,1.131-0.512,1.78-0.38c-4.471,4.152,6.152,7.246,5.065,4.86c-0.014,0.049,8.562,5.115,10.114,5.432
		c9.265,1.892,8.757-9.645,4.458-9.761c-0.446,0.634-0.915,1.251-1.408,1.85c-3.107,0.98-4.028-2.155-6.228-3.407
		c-0.485-0.276-3.618-3.067-3.301-3.939c-0.408,1.118,3.437-5.321,2.297-4.536c0.782-0.539,10.98,2.343,11.106,2.516
		c-0.104,0.571,0.009,1.091,0.34,1.561c-1.475,0.42-3.441,0.536-1.721,2.654c-1.833-1.826,4.232-3.509,5.173-3.251
		c4.06,1.114,5.274,1.664,6.436-0.506c0.147-0.279,4.067,1.19,4.809,0.903c2.914-1.127-6.931-9.342-7.168-9.554
		c-5.176-4.638,0.532-12.135,4.492-15.747c5.323-4.855,0.47-8.467,8.818-8.336c0.304,0.005,6.295-0.088,4.811,2.213
		c-2.492,3.862,0.747,1.593,1.236,2.996c-0.631-0.397-1.292-0.734-1.984-1.012c-1.316-2.832,6.149-2.483,6.149,1.492
		c0.133-0.824-4.658-13.624-3.441-13.25c-1.605-0.494-0.774-2.948-1.816-4.305c-1.342-1.748-4.515-0.339-5.279-1.599
		c-1.97-3.246-1.545-8.428-2.126-12.02c-1.023-6.328-5.797-4.657-8.637-8.643c2.698,3.787,12.106-4.709,15.725-2.546
		c1.333,0.795,7.959,5.809,8.091,7.802c-0.017-0.263-11.832,7.054-6.908,10.428c1.277,0.875,13.293,7.405,12.794,4.339
		c-0.362,0.61-0.566,1.268-0.611,1.974c-0.82-0.82,7.164-5.665,5.49-8.768c-0.802-1.488-2.945-7.06-2.642-8.831
		c0.16-0.931,1.195,1.156,1.248,1.133c1.454-0.481,1.613-2.947,4.777-3.113c-1.005-1.009-1.947-2.074-2.826-3.194
		c3.317,1.228,3.075-5.458,4.948-5.597c-0.014,0.519-0.112,1.021-0.294,1.507c3.436-0.929,8.072-20.119,9.386-23.548
		c1.967-5.132,5.511-6.541,10.811-6.541c12.694,0,25.389,0,38.083,0c43.172,0,86.344,0,129.516,0c2.998,0,19.984-1.867,19.984,1.513
		c0,9.012,0,18.023,0,27.035c0,39.503,0,79.006,0,118.509C1012.129,207.74,1012.129,267.908,1012.129,328.077z M538.501,143.728
		c-0.034,0.013-0.069,0.022-0.104,0.035C538.432,143.75,538.467,143.741,538.501,143.728z M555.938,203.942
		c-0.059,0.076-0.141,0.129-0.192,0.213C555.86,204.134,555.914,204.052,555.938,203.942z M688.021,184.65
		c-0.072-0.026-0.151-0.043-0.226-0.075C687.869,184.607,687.948,184.624,688.021,184.65z M390.642,357.984
		c-0.119-0.006-0.218,0.015-0.263,0.096C390.47,358.054,390.553,358.015,390.642,357.984z M601.693,467.198
		c-0.084-0.036-0.143-0.048-0.158-0.031C601.55,467.15,601.609,467.162,601.693,467.198z M602.112,467.167
		c0.013-0.017,0.072-0.005,0.157,0.031C602.184,467.162,602.125,467.15,602.112,467.167z M771.814,199.555
		c3.151-0.767,11.315,7.898,11.833,7.764c0.383-0.099,1.526-1.269,2.92-1.67c1.071-0.311-1.325-2.051-1.399-2.317
		c0.931,0.531,1.821,1.123,2.671,1.777c-2.622,0.69,1.513-4.741,1.141-4.182c0.095-0.279-12.575-9.837-13.592-8.854
		c0.181-0.173,5.175-3.6,4.974-3.491c-0.051,0.033-3.16,2.033-2.954,1.046c0.274,0.515,0.584,1.007,0.929,1.476
		c-0.027,0.07-3.007,0.146-1.454-1.34c-0.433,0.414-3.216,2.808-3.751,1.224c0.215,0.737,3.937,4.253,0.355,5.134
		c5.214-1.296,4.327,0.68,6.653,4.102c-0.094,0.26-4.457-1.526-4.373-0.821c1.084,0.308,1.403,0.699,0.958,1.171
		C775.702,199.866,772.422,196.523,771.814,199.555C775.266,198.715,772.58,195.733,771.814,199.555z M734.164,147.633
		c0.443-0.47,7.161,5.88,6.41,7.831c-0.922,0.094-1.719-0.257-2.389-1.053c2.726,1.886,8.281,4.527,10.394,6.649
		c0.544,0.547,3.313,6.713,1.335,5.23c-5.511-4.146-5.212,1.079-4.803,1.077c0.254-0.443,0.282-0.902,0.087-1.377
		c1.174-0.809,8.014,3.005,8.479,2.232c0.563-0.926,1.095-6.274,2.729-6.535c-1.534,1.052-10.108-18.147-12.104-20.532
		c0.093,0.347,0.135,0.7,0.125,1.06c-0.327,0.066-7.469-3.499-7.298-3.32c-1.619,2.171,3.192,5.152,4.422,6.125
		c-0.786-0.849-1.358-1.825-1.716-2.928c0.353,2.061,2.812,0.471,3.214,0.157c0.856-0.674,2.779,4.484,2.833,4.684
		c1.182,4.414-2.751,0.462-3.792,0.961c0.587-0.277,2.402,2.441,1.755,3.156c-0.183,0.202-5.263-6.539-6.598-6.99
		c0.016,0.005,2.451,8.054,3.601,7.9c-4.317,0.58-3.755-5.845-7.139-6.978C732.914,144.718,733.88,147.344,734.164,147.633
		C734.354,147.432,734.114,147.582,734.164,147.633z M719.067,186.991c0.306,0.893,0.358,1.805,0.157,2.734
		c4.74,2.693,2.708-4.781,4.418-5.89c2.796-1.813,7.565,1.654,7.229-2.571c-0.559-1.039-0.924-2.141-1.093-3.305
		c0.867,0.061,1.357,0.503,1.47,1.327c6.154-5.266-14.516-16.123-15.623-15.951c-0.844-0.474-1.586-1.074-2.228-1.801
		c1.229,0.416-4.349,3.819-4.599,4.172c0.795-1.128-0.209,5.545-0.638,4.645c-0.477-0.409-1.018-0.698-1.622-0.868
		c-1.072,0.724,1.936,1.492,1.498,2.228c-0.51-0.025-0.932-0.234-1.264-0.627C708.586,173.275,720.28,182.976,719.067,186.991z
		 M886.414,447.612c-1.331-5.613-6.662-10.149-10.893-11.873c-2.219-0.904-11.037-2.853-11.915-3.917
		c-2.763-3.346-10.892-5.994-14.881-8.422c-0.518-0.318-18.919-6.773-18.131-7.955c0.262,0.481,0.504,0.973,0.725,1.475
		c-0.69,0.779-13.909-4.113-14.91-4.768c-1.778-1.155,3.305-2.591,3.628-3.009c0.797-1.02-2.775-0.107-2.538-0.03
		c0.098,0.032,0.41-2.419,0.267-2.189c-0.196,0.308,9.681,0.51,9.555,0.463c1.972,0.739-2.472-5.803-2.346-5.09
		c0.786-1.373,1.307-1.518,1.563-0.434c0.82-1.094,0.563-6.939,1.208-7.083c0.997-0.223,2.823,2.244,1.847,3.046
		c1.442-1.177-0.681-3.76,0.312-5.074c0.562-0.743,4.378,1.552,4.404-0.353c0.051-3.689-12.154-1.978-11.194-6.942
		c0.573,0.687,9.303-3.165,9.064-2.044c0.468-2.166-2.689,0.073-2.638-1.197c0.142-3.479,8.644-4.782,9.235-8.24
		c-0.192,1.185-6.085-3.697-5.032-0.361c0.857,2.717-8.961,2.009-7.987,5.224c-2.708-4.255-16.994,12.243-18.384,11.252
		c-3.155-2.254-6.553,4.61-10.923,3.952c-0.563-0.084-2.541,8.463-1.024,10.69c1.354,1.987,5.173,7.973,8.35,7.407
		c1.401-0.25,2.109-3.527,3.151-3.383c1.024,0.138,1.881,3.28,2.922,0.266c0.616-1.782,5.618-2.172,6.014-0.303
		c0.309,1.444-2.266,5.768-3.934,6.095c-1.057,0.207-10.086,0.525-8.987,2.328c0.288-0.13,0.582-0.163,0.882-0.097
		c-1.866,4.235-6.357,2.867-8.999,6.295c-2.368,3.072-8.795,11.728-12.753,4.67c0.73-0.274,1.445-0.583,2.146-0.927
		c2.815-10.143-13.948-8.068-14.097-9.823c-0.377-4.421,13.333-9.822,12.676-11.324c-0.614-0.249-1.16-0.15-1.636,0.299
		c-0.576-0.58,0.273-2.902-0.754-3.442c-0.339,0.745-0.821,1.383-1.446,1.917c-2.029,0.259-1.762-1.716-2.747-2.189
		c1.254,0.604-7.032,3.048-7.148,3.1c-1.027,0.462-7.369-1.218-9.015-1.625c2.572,0.655,2.156-3.359,2.3-3.53
		c1.196-1.413,3.564-0.308,5.319-2.494c-4.233,1.148-6.976,0.538-6.611-4.19c-0.017,0.235-0.692,4.697-0.678,4.676
		c0.062-0.096-4.056,0.649-4.039,0.674c1.203,1.845-1.252-3.99-1.152-2.535c0.15,2.14-5.974,6.284-6.385,5.974
		c1.407,1.07-4.553,11.997-5.554,11.556c-0.154-0.422-0.273-0.853-0.354-1.294c0.012,0.579-0.104,1.13-0.349,1.654
		c-0.391-0.185-0.602-0.501-0.634-0.945c-1.185-0.443,0.617,1.763-1.018,1.166c0.051,0.451,0.168,0.884,0.352,1.298
		c-0.254-0.626-0.693-0.822-1.318-0.59c-1.039,1.02,1.97,2.114-0.691,2.461c-0.129-1.188-0.629-2.198-1.5-3.029
		c-0.938,0.099,1.115,8.379,1.793,5.409c2.88,1.546-1.602,3.659-0.804,5.136c0.232,0.423,1.785,2.099,0.698,4.828
		c-0.129,0.292-6.758,3.405-6.616,3.476c-1.293-0.2,0.92-2.467,1.475-2.053c-1.159-0.86-1.307-3.741-2.833-2.993
		c0.622-0.303-0.495,6.639-1.028,5.861c0.428,0.615,1.215-3.104,2.132,0c-0.549-1.853-3.533,5.679-3.052,7.122
		c1.016,3.043,0.513,6.565,0.444,9.719c-0.093,4.514-1.57,2.203-4.51,3.791c-2.118,1.143-3.429,17.914-6.615,16.174
		c0.692-2.341,5.48,4.563,6.414,5.516c3.367,3.437,1.044,7.566,8.248,9.77c4.609,1.41,9.395,1.623,14.174,2.007
		c3.367,0.271,3.799-1.065,6.595-1.876c2.62-0.75,4.984,1.831,7.796,1.159c4.255-1.016,6.849-5.06,10.017-7.992
		c5.724-5.296,12.078-11.024,20.382-11.678c6.679-0.527,9.614-1.263,14.598-4.52c2.059-1.331,3.466,5.396,6.963,5.769
		c3.88,0.413,4.632-3.556,7.396-0.489c5.04,5.593,4.006,3.083,9.286,1.586c0.265-0.075,6.043,2.014,6.715,2.172
		c2.624,0.61,6.259,1.081,8.928,0.974c4.691-0.184,9.849-5.602,13.84-5.135c0.361,0.042,8.582-0.517,8.712-0.673
		c1.638-1.932,6.489-1.723,8.516-5.31c2.51-4.448,6.698-4.504,8.104-10.212c-0.086,0.346-0.171,0.691-0.256,1.037
		C886.111,451.579,886.498,449.643,886.414,447.612C885.948,445.647,886.9,449.637,886.414,447.612z M691.635,183.846
		c0.005-0.018,0.014-0.036,0.018-0.052C691.627,183.788,691.611,183.802,691.635,183.846z M567.333,130.314
		c-0.007-0.003-0.005-0.008-0.014-0.012C567.232,130.307,567.226,130.317,567.333,130.314z M597.869,202.631
		c-0.009-0.056-0.037-0.107-0.016-0.174C597.832,202.529,597.843,202.584,597.869,202.631z M708.223,170.346
		c-0.018,0.012-0.044,0.003-0.062,0.005C708.17,170.371,708.187,170.375,708.223,170.346z M719.225,189.725
		c-0.035-0.02-0.088-0.03-0.11-0.054C719.157,189.715,719.19,189.726,719.225,189.725z M713.398,161.535
		C714.635,161.954,713.703,161.488,713.398,161.535L713.398,161.535z M773.205,191.128c-0.024-0.045-0.057-0.084-0.075-0.139
		C773.143,191.033,773.169,191.079,773.205,191.128z M773.205,191.128c0.074,0.121,0.164,0.215,0.271,0.272
		C773.366,191.303,773.27,191.212,773.205,191.128z"/>
</g>
<path fill="#F6ACAC" d="M508.317,291.69l1.455,0.377c0.031,0.216,0.045,0.432,0.045,0.646c-0.037,2.993-2.742,5.874-3.298,8.334
	c-0.133,0.714-0.684,1.173-1.234,1.14c-0.906-0.042-1.874-0.76-2.19-0.772c0.056,0.137,0.272,0.531,0.302,0.959
	c0.039,0.307-0.282,0.708-0.661,0.752c-0.039,0.006-0.073,0.008-0.108,0.008c-0.222-0.017-0.4-0.087-0.535-0.149
	c0.028,0.035,0.067,0.077,0.119,0.124c0.175,0.162,0.449,0.351,0.765,0.542c0.631,0.384,1.412,0.777,1.975,1.163
	c0.326,0.25,0.652,0.438,0.746,0.884c0.015,0.044,0.023,0.09,0.023,0.138c-0.031,1.458-1.221,2.403-2.331,3.135
	c-1.078,0.674-2.229,1.306-2.356,1.546c0.011,0.013,0.028,0.029,0.053,0.049c0.077,0.061,0.22,0.137,0.382,0.221
	c0.287,0.168,0.816,0.371,0.856,1.027c0,0.112-0.021,0.214-0.056,0.326c-0.266,0.597-0.818,0.717-1.332,0.896
	c-0.517,0.151-1.061,0.241-1.25,0.287c-0.685,0.166-1.182,0.245-1.602,0.245c-1.142-0.032-1.438-0.542-2.439-1.052
	c-0.104,0.07-0.216,0.094-0.303,0.146c-0.21,0.079-0.457,0.135-0.718,0.185c-0.504,0.096-1.038,0.151-1.354,0.158
	c-0.012,0.045-0.021,0.11-0.021,0.204c-0.014,0.771,0.733,2.326,0.922,2.846c0.278,0.841,0.631,1.9,0.636,2.96
	c0.004,0.841-0.25,1.72-0.991,2.369c-0.352,0.236-1.316,1.05-1.286,1.275c0.025,0.01,0.054,0.021,0.085,0.031
	c0.131,0.048,0.289,0.1,0.438,0.177c0.077,0.073,0.276,0.054,0.347,0.486c-0.002,0.124-0.04,0.189-0.048,0.208l-0.043,0.074
	c-0.283,0.332-0.839,0.623-1.558,1.006c-0.47,0.229-0.931,0.447-1.347,0.576c0.338,0.321,0.812,0.732,1.081,1.131
	c0.239,0.415,0.366,0.741,0.37,1.074c0,0.583-0.457,0.874-0.717,1.025c-0.293,0.177-0.501,0.308-0.607,0.542
	c-0.056,0.131-0.068,0.217-0.068,0.262c-0.002,0.094,0.035,0.142,0.295,0.331c0.227,0.166,0.638,0.407,0.76,0.947
	c0.174,0.735,0.272,0.721,0.366,0.78c0.112,0.057,0.606,0.181,0.895,0.735c0.081,0.16,0.129,0.326,0.129,0.495
	c-0.075,0.785-0.754,0.924-0.806,1.067l-0.007-0.006c0.002,0.008,0.007,0.03,0.043,0.089c0.05,0.081,0.153,0.203,0.324,0.361
	c0.569,0.527,0.958,1.093,0.964,1.751c-0.004,0.66-0.411,1.233-1.082,1.74c-1.581,1.178-2.557,2.665-2.547,3.957
	c0.006,1.083,0.626,2.152,2.405,3.066c0.615,0.297,1.005,0.772,1,1.321c-0.048,0.937-0.844,1.595-1.527,2.306
	c-0.714,0.673-1.317,1.403-1.269,1.68c0,0.133,0.064,0.343,0.772,0.636c1.003,0.433,1.317,1.543,1.637,2.603
	c0.274,0.995,0.53,2.03,0.885,2.534c0.093-0.033,0.26-0.104,0.409-0.197c0.253-0.139,0.403-0.272,0.658-0.357
	c0.204-0.058,0.386-0.089,0.565-0.091c0.326-0.011,0.665,0.149,0.818,0.411c0.158,0.253,0.175,0.505,0.177,0.733
	c-0.002,0.308-0.048,0.606-0.054,0.801c0.054,0.003,0.117,0.005,0.186,0.005c0.862,0,2.528-0.232,2.85-0.254
	c0.11-0.01,0.214-0.014,0.314-0.014c0.949-0.081,1.452,0.612,1.494,1.075c0.128,0.466,0.125,0.731,0.696,1.063
	c1.562,0.85,4.09,1.749,5.818,2.173c0.28,0.031,0.608,0.361,0.58,0.684c-0.094,0.829-0.912,1.447-1.734,2.221
	c-0.831,0.719-1.687,1.35-1.87,1.479c-1.849,1.299-2.027,2.333-2.59,4.597c-0.58,2.033-2.875,3.315-2.79,4.803
	c0,0.093,0.006,0.186,0.025,0.286c0.04,0.254,0.059,0.497,0.059,0.729c-0.006,1.443-0.715,2.428-1.296,3.65
	c-0.308,0.627-0.613,1.309-0.608,1.888c0,0.036,0,0.058,0.002,0.088c0.01,0.227,0.048,0.359,0.073,0.407l0.002,0.018
	c0-0.002,0.006,0.002,0.042,0.002c0.096,0.008,0.313-0.062,0.607-0.068c0.193-0.005,0.472,0.06,0.663,0.269
	c0.085,0.088,0.129,0.21,0.119,0.333c-0.01,0.124-0.075,0.236-0.172,0.309c-0.051,0.039-0.102,0.076-0.154,0.114
	c0.236,0.061,0.591,0.09,0.993,0.09c1.442,0.002,3.444-0.352,4.339-0.357c0.126,0.004,0.239,0,0.37,0.04
	c1.028,0.336,1.766,1.353,2.281,1.279c0.096-0.002,0.197-0.022,0.325-0.094c0.034-0.193,0.061-0.386,0.081-0.575
	c0.001-0.009,0.002-0.017,0.003-0.025c-0.152-0.005-0.304-0.022-0.471-0.089c-0.206-0.062-0.446-0.349-0.426-0.63
	c0-0.074,0.011-0.135,0.021-0.181c0.345-1.185,1.797-1.718,2.604-1.911c0.102-0.021,0.208-0.03,0.316-0.03
	c0.65,0.012,1.527,0.312,1.593,1.232c0,0.071-0.007,0.143-0.021,0.214c0.03-0.018,0.064-0.034,0.1-0.046
	c0.072-0.022,0.133-0.024,0.169-0.024h0.001c0.289-0.007,0.525,0.212,0.603,0.376c0.093,0.172,0.129,0.336,0.164,0.494
	c0.049,0.279,0.101,0.576,0.138,0.661c0.294,0.165,0.618,0.22,0.996,0.22c0.55,0.004,1.19-0.133,1.867-0.136
	c0.374,0,0.767,0.044,1.153,0.202c1.524,0.652,2.176,2.11,3.268,2.619h0.001c0.009,0,0.033,0.002,0.062,0.002
	c0.383,0.021,1.547-0.382,1.848-0.573c0.011-0.017,0.022-0.034,0.036-0.05c0.133-0.16,0.363-0.203,0.546-0.098
	c0.044,0.036,0.079,0.068,0.107,0.1l0.007-0.006c0.294,0.322,0.361,0.683,0.375,0.906c0.087-0.011,0.202-0.029,0.342-0.057
	c0.065-0.013,0.133-0.023,0.216-0.023c0.297-0.024,0.613,0.225,0.682,0.444c0.087,0.212,0.095,0.387,0.116,0.536
	c0.06,0.341,0.058,0.35,0.16,0.376c0.455,0.075,0.893,0.357,0.893,0.825c-0.064,0.557-0.357,0.822-0.311,0.926
	c0,0.007-0.002,0.007,0.004,0.023c0.006,0.045,0.017,0.041,0.017,0.041l0.011-0.004c0.135,0.02,0.432-0.171,0.857-0.204
	c0.135-0.01,0.376,0.067,0.493,0.252c0.08,0.116,0.135,0.27,0.133,0.417c-0.031,0.462-0.312,0.648-0.495,0.835
	c-0.122,0.104-0.236,0.209-0.306,0.282c0.01,0.001,0.022,0.002,0.036,0.003c0.343,0.033,1.247-0.571,1.525-0.8
	c0.405-0.278,1.053-0.802,1.115-1.074c-0.006-0.002,0.004-0.021,0.002-0.093c0.004-0.357-0.139-1.149-0.143-1.708
	c0.033-0.243-0.064-0.496,0.316-0.789c0.158-0.085,0.201-0.062,0.268-0.073c0.548,0.02,2.96,0.578,4.356,1.155
	c0.451,0.237,0.812,0.289,1.012,0.827c0.032,0.158-0.026,0.317-0.142,0.417c0.073,0.053,0.146,0.104,0.22,0.154
	c0.119,0.078,0.189,0.211,0.191,0.355c0.002,0.269,0.012,0.537,0.032,0.804c0.077,0.011,0.183,0.017,0.3,0.017
	c0.476,0,1.07-0.093,1.296-0.109c0.835-0.053,1.674-0.119,2.478-0.258c0.05,0,0.055-0.01,0.056-0.011c-0.004-0.006,0,0,0.011-0.041
	c0.039-0.094-0.002-0.383,0.272-0.694c0.193-0.199,0.472-0.272,0.769-0.27c0.083,0,0.189,0.004,0.293,0.019
	c0.058,0.008,0.116,0.008,0.177,0.008c0.457,0.003,0.756-0.216,1.223-0.542c0.453-0.319,1.065-0.704,1.976-0.699
	c0.245,0,0.511,0.026,0.793,0.087c0.897,0.179,1.861,0.483,2.698,0.481c0.193,0,0.381-0.016,0.56-0.05
	c-0.038-0.231-0.201-0.696-0.211-1.144c0-0.212,0.046-0.477,0.247-0.691c0.204-0.214,0.497-0.295,0.802-0.293
	c0.072,0,0.156,0.004,0.249,0.017c0.212,0.031,0.37,0.212,0.37,0.428c0,0.035,0,0.038,0,0.038c0,0.151-0.009,0.304-0.026,0.454
	h0.024c0.237,0.003,0.58-0.062,0.931-0.065c0.227,0.002,0.487,0.024,0.732,0.191c0.708,0.343,0.84,0.998,0.898,1.093
	c0.013,0.003,0.037,0.006,0.072,0.006c0.123,0.002,0.378-0.039,0.769-0.149c0.447-0.129,0.802-0.193,1.113-0.195
	c0.499-0.022,0.954,0.249,1.109,0.625c0.162,0.355,0.166,0.705,0.206,1.039c0.098,0.689,0.148,1.207,1.063,1.605
	c0.085,0.035,0.154,0.046,0.218,0.046c0.168,0.002,0.34-0.1,0.509-0.357c0.162-0.253,0.27-0.636,0.268-1.014
	c-0.013-0.66-0.272-1.215-0.914-1.41c-0.472-0.118-0.868-0.474-0.858-0.929c0.075-0.841,0.843-1.305,1.188-1.628
	c0.146-0.127,0.167-0.198,0.175-0.333c0.052-0.515-1-1.641-1.448-2.142c-0.549-0.675-0.829-1.267-0.833-1.844
	c0.127-1.735,2.158-2.09,3.699-2.637c1.09-0.349,2.399-0.583,3.178-1.154c0.353-0.135,0.546-1.917,0.897-2.929
	c0.133-0.33,0.362-0.723,0.86-0.779c0.064-0.006,0.135-0.011,0.214-0.011c1.404,0.031,2.378,1.089,2.517,0.973v-0.002
	c0.017-0.013,0.071-0.073,0.131-0.204c0.122-0.26,0.262-0.776,0.393-1.593c0.017-0.098,0.025-0.233,0.025-0.393
	c0.002-0.698-0.185-1.843-0.565-2.754c-0.384-0.94-0.933-1.527-1.473-1.502h-0.034c-0.012,0.079-0.026,0.184-0.072,0.315
	c-0.022,0.105-0.197,0.378-0.507,0.376c-0.407-0.048-0.494-0.234-0.743-0.488c-0.418-0.486-0.407-1.014-0.445-1.296
	c-0.064-0.299-0.023-0.345-0.409-0.565c-2.538-1.348-2.208-3.882-4.285-4.767c-2.864-1.375-3.153-4.25-4.377-6.514
	c-0.143-0.272-0.224-0.538-0.224-0.8c0.07-1.054,1.03-1.315,1.443-1.743c0.163-0.145,0.258-0.259,0.304-0.324
	c-0.032-0.026-0.077-0.06-0.131-0.1c-0.179-0.135-0.482-0.343-0.629-0.745c-0.054-0.146-0.023-0.312,0.079-0.428
	c0.049-0.058,0.098-0.116,0.146-0.176c-0.023-0.017-0.049-0.035-0.075-0.053c-0.183-0.127-0.435-0.281-0.7-0.455
	c-0.53-0.352-1.132-0.756-1.456-1.36c-0.195-0.404-1.011-3.416-1.114-3.727c-0.027-0.053-0.054-0.144,0.007-0.339
	c0.066-0.16,0.247-0.247,0.332-0.249c0.003,0,0.007-0.001,0.01-0.001c0.046-0.007,0.099-0.014,0.16-0.014
	c0.818,0.041,1.234,0.721,1.575,1.309c0.181,0.331,0.339,0.684,0.461,0.962c0.141-0.402,0.252-0.976,0.596-1.5
	c0.825-1.08,2.472-1.653,3.529-2.011c0.256-0.083,0.484-0.124,0.702-0.127c0.82,0.031,1.101,0.521,1.647,0.759
	c0.15,0.075,0.257,0.104,0.312,0.112c0.016-0.048,0.039-0.138,0.054-0.248c0.069-0.292,0.029-0.78,0.532-1.158
	c0.37-0.221,0.712-0.295,0.989-0.293c0.266,0.004,0.447,0.046,0.557,0.043c0.15-0.012,0.276,0.005,0.75-0.544
	c0.455-0.542,0.802-0.824,1.259-0.839c0.704,0.098,0.816,0.455,1.003,0.393c0.025,0,0.062-0.002,0.103-0.008l-0.003-0.003
	c0.017-0.013,0.05-0.054,0.087-0.118c0.075-0.129,0.16-0.343,0.251-0.571c0.185-0.418,0.411-1.097,1.196-1.143
	c0.025,0.002,0.094-0.002,0.137,0.011c0.588,0.076,0.989,0.114,1.265,0.114c0.644-0.013,0.611-0.127,1.506-0.759
	c1.479-1.014,3.346-0.542,4.518-1.06c0.322-0.127,0.518-0.25,0.611-0.321c-0.003-0.003-0.007-0.006-0.011-0.01
	c-0.094-0.076-0.26-0.176-0.438-0.278c-0.328-0.24-0.837-0.334-0.937-1.023c0-0.112,0.029-0.228,0.081-0.313
	c0.255-0.391,0.542-0.401,0.885-0.501c0.345-0.073,0.748-0.108,1.144-0.108c0.667,0.057,1.265-0.043,1.691,0.576
	c0.073,0.157,0.094,0.315,0.094,0.456c-0.009,0.36-0.118,0.676-0.144,0.848c0.065-0.019,0.143-0.033,0.24-0.035
	c0.201-0.021,0.507,0.151,0.598,0.372c0.112,0.212,0.17,0.417,0.17,0.612c0.001,0.182-0.052,0.332-0.11,0.443
	c0.076,0.035,0.173,0.077,0.292,0.124c0.286,0.115,0.475,0.168,0.54,0.175c0.004-0.006,0.011-0.014,0.019-0.025
	c0.062-0.089,0.168-0.317,0.324-0.642c0.781-1.587,2.198-4.042,2.179-5.667v-0.111c-0.05-1.168-0.332-2.289-1.132-3.024
	c-0.436-0.479-1.639-0.82-1.716-2.034c0-0.253,0.068-0.517,0.204-0.778c0.102-0.206,0.135-0.374,0.135-0.53
	c0.079-0.741-1.072-1.433-1.169-2.702c0-0.251,0.067-0.517,0.206-0.762c0.525-0.858,1.9-2.014,1.832-2.663
	c0-0.09-0.019-0.169-0.061-0.252c-0.243-0.463-0.313-0.887-0.311-1.25c0.002-0.368,0.054-0.665,0.052-0.953
	c0-0.181-0.017-0.364-0.073-0.573c-0.154-0.873-1.5-1.388-1.595-2.805c0-0.372,0.125-0.768,0.382-1.178
	c0.376-0.612,0.509-1.08,0.507-1.441c0.122-1.379-2.349-2.166-3.926-4.018c-0.266-0.33-0.401-0.708-0.399-1.078
	c0.027-0.991,0.779-1.73,1.479-2.441c0.719-0.689,1.448-1.377,1.581-1.792c0.351-0.96,0.484-1.874,0.484-2.79
	c0.004-1.911-0.601-3.834-1.026-6.009l0.628-0.123c0.146-0.202,0.259-0.412,0.351-0.644c-2.227-1.836-4.334-1.57-5.381-5.735
	c0.448,1.783-7.113-5.472-6.462-6.381c-0.562,0.431-1.159,0.808-1.797,1.118c0.281-0.388,0.625-0.711,1.031-0.968
	c-3.372,1.511-5.065-2.62-7.949,4.272c1.863-4.479-6.917,1.603-6.757,2.393c-0.991-0.441-6.086-2.566-5.84-2.257
	c-0.982-1.232,5.195-2.905,4.014-5.675c0.177,0.417-7.514-1.322-9.041-0.681c0.17-0.592,0.368-1.174,0.622-1.737
	c-0.709-0.276-1.435-0.41-2.177-0.418c1.617-1.213,0.033-8.814-3.411-6.245l-0.064,0.432v0.169
	c-1.615-0.028-2.815-1.279-3.879-1.766c-0.763-0.379-1.703-0.365-2.71-0.546c0.621,2.632,1.698,5.234,1.383,6.357
	c-0.098,0.351-4.493,2.031-4.156,1.987c-1.103,1.35,3.318,0.758,3.327,0.783c-0.624,0.745-1.208,1.52-1.751,2.325
	c-0.361,1.372,0.477,3.554,3.482,5.183c-7.406-3.252-4.691,1.073-7.523,4.448c-0.495-1.031-1.274-1.762-2.337-2.193
	c-0.317,0.926-0.424,1.871-0.345,2.834c-0.646-1.59-4.582-4.948-7.582-5.001c-3.562-0.062-4.343,4.561-3.427,5.825
	C508.305,291.685,508.311,291.686,508.317,291.69z"/>
<g>
	<path id="Oval-1" fill="#FFFFFF" stroke="#19AACF" stroke-width="5" d="M564.632,312.895c0,0,33.398-35.767,33.398-54.182
		c0-18.415-14.953-33.343-33.398-33.343c-18.445,0-33.397,14.928-33.397,33.343C531.235,277.128,564.632,312.895,564.632,312.895z"
		/>
	<circle id="Oval-2" fill="#EE6768" cx="564.249" cy="257.617" r="17.658"/>
</g>
</svg>
