<svg xmlns="http://www.w3.org/2000/svg" viewBox="0 0 170 240" enable-background="new 0 0 170 240"><g fill="#D64546"><path d="M154 88.3h-6.9c-2.5 0-4.6 2.1-4.6 4.6v31.7c0 15.4-12.1 41.4-57.5 41.4s-57.5-26-57.5-41.4v-31.7c0-2.5-2.1-4.6-4.6-4.6h-6.9c-2.5 0-4.6 2.1-4.6 4.6v31.7c0 25.7 18.9 53.3 62.1 57v30.4h-29.9c-2.5 0-4.6 2.1-4.6 4.6v13.8c0 2.5 2.1 4.6 4.6 4.6h82.8c2.5 0 4.6-2.1 4.6-4.6v-13.8c0-2.5-2.1-4.6-4.6-4.6h-29.9v-30.4c43.2-3.8 62.1-31.3 62.1-57v-31.7c0-2.5-2.1-4.6-4.6-4.6zM85 143c27 0 34.5-11.1 34.5-18.4v-36.3h-69v36.3c0 7.3 7.5 18.4 34.5 18.4zM119.5 23.4c0-7.3-7.5-18.4-34.5-18.4s-34.5 11.1-34.5 18.4v48.8h69v-48.8z"/></g></svg>