<?xml version="1.0" encoding="utf-8"?>
<!-- Generator: Adobe Illustrator 17.1.0, SVG Export Plug-In . SVG Version: 6.00 Build 0)  -->
<!DOCTYPE svg PUBLIC "-//W3C//DTD SVG 1.1//EN" "http://www.w3.org/Graphics/SVG/1.1/DTD/svg11.dtd">
<svg version="1.1" xmlns="http://www.w3.org/2000/svg" xmlns:xlink="http://www.w3.org/1999/xlink" x="0px" y="0px"
	 viewBox="0 0 300 120" enable-background="new 0 0 300 120" xml:space="preserve">
<g id="Layer_2" display="none">
	<rect display="inline" fill="#59C8E8" width="300" height="120"/>
</g>
<g id="Layer_1">
	<path fill="#FFFFFF" d="M265.9,62h2.1v-7h-5.3c-1.2-3-5.7-17.6,6.2-40.3l-42.4,8.8c-0.2-0.1-0.4-0.1-0.4-0.2v0
		c-5-2.2-9.1-2.4-9.1-2.4c-7.5,0.5-11.9,5.1-14.9,8.5l4.6-16.1l-41.5,26.2l0-0.1l0,0c1.7-10.4,3.4-22.2,3.4-22.2
		c-25.4,16.4-53.2-4.8-53.2-4.8c1.7,3,3,9.4,3.9,15.4h3.2l-2.8,2.6c0.3,2.8,0.6,5.7,0.9,8.4c-0.1-0.2-0.3-0.4-0.4-0.6
		c-1-2-2.1-3.8-3.2-5.4l-11,9.1l6.2,13.8h-15l-4.3-9.7L89,56H76.2l10.4-28h12.9l-3.6,9.7l11.4-9.7h5.7c-1.1-1-1.9-1.8-1.9-1.8
		C102.1,17,85,19.8,75,22.2c0,0,0,0,0,0c0,0,0,0-0.1,0.1c-0.2-3.5-0.3-5.7-0.3-5.7C43.3,28.1,25.4,14,25.4,14
		c7.1,12.4,6.6,36,6.4,41H31v7h0l-7.7,38.9c40.9-13.5,59.8,4.6,59.8,4.6l-0.8-7.2c5.1,3.9,18.7,11.9,31.8-0.9l-1.5,7.5
		c0,0,26.9-11.9,40.9-0.8l3.1-19.9l17.2,23l12.5-31.7l-0.9,3.5l-3.6,12.7c0,0,15.3,19.9,42.1,9.8c0,0,1.7-6.6,3.9-15.6h-2.1l9.1-24
		h27.7c0.7,0,1.3,0,1.9,0.3c0.7,0.4,1.1,0.7,1.1,1.4c0,0.2-1.2,3.5-3.6,10.1c-0.3,0.7-0.9,1.2-2,1.7c-1,0.4-1.9,0.6-2.7,0.6h-2.2
		l3.4,10h-10.1l-4.7-14h7.5l1.8-5H244l-7.2,19H229v15h37.6c0,0,0.8-15.5,10.1-31.4C276.8,69.6,269,66,265.9,62z M202,29.5
		C202,29.5,202,29.5,202,29.5C202,29.5,202,29.5,202,29.5L202,29.5z M186,28h12.9l-8.2,22h18.6l2,6h-35.8L186,28z M159.1,28l-8.2,22
		h18.6l2,6h-35.8l10.4-28H159.1z M127.8,28h12.9l-10.4,28h-12.9L127.8,28z M43.6,45c-0.8,0-1.5-0.3-2.1-0.6c-0.8-0.4-1.2-1-1.2-1.7
		c0-0.2,1.4-4.1,4.1-11.5c0.3-0.8,1-1.7,2.2-2.3c1.1-0.5,2.1-0.9,3.1-0.9h31.5l-2.2,6H56l-2.1,6h18.6c0.8,0,1.5,0.2,2.1,0.5
		c0.8,0.4,1.2,1,1.2,1.7c0,0.2-1.4,4-4.1,11.5c-0.3,0.8-1,1.3-2.2,1.8C68.4,56,67.4,56,66.4,56H39.2l-2.1-6h22.9l2.1-5H43.6z
		 M66.3,86l7.2-19h-8.8l-7.2,19H46.2l7.2-19h-8.8l-7.2,19H26.1l9.1-24H83c0.7,0,1.3,0,1.9,0.3c0.7,0.4,1.1,0.7,1.1,1.4
		c0,0.2,0,0.1-0.1,0.3L77.6,86H66.3z M97.5,86l2-5h9.2l-2.5-9.7L91.3,86H78.7l24.8-24h12.6l6.6,24H97.5z M156.6,67h-10.1l-7.2,19
		H128l7.2-19h-10.1l2-5h31.4L156.6,67z M182.8,67l-7.2,19h-11.3l7.2-19h-10.1l2-5h31.4l-2,5H182.8z M225.3,67h-16.3l-1.8,5h16.3
		l-1.5,4h-16.3l-1.8,5h20.1l-5.7,5h-27.7l9.1-24H231L225.3,67z M255,34h-22.9l-2.1,6h18.6c0.8,0,1.5,0.2,2.1,0.5
		c0.8,0.4,1.2,1,1.2,1.7c0,0.2-1.4,4-4.1,11.4c-0.3,0.8-1,1.3-2.2,1.8c-1.1,0.5-2.1,0.5-3.1,0.5h-27.2l-2-6h22.9l2.1-5h-18.6
		c-0.8,0-1.5-0.3-2.1-0.6c-0.8-0.4-1.2-1-1.2-1.7c0-0.2,1.4-4.1,4.1-11.5c0.3-0.8,1-1.7,2.2-2.3c1.1-0.5,2.1-0.9,3.1-0.9h31.5
		L255,34z"/>
</g>
</svg>
