<?xml version="1.0" encoding="utf-8"?>
<!-- Generator: Adobe Illustrator 17.1.0, SVG Export Plug-In . SVG Version: 6.00 Build 0)  -->
<!DOCTYPE svg PUBLIC "-//W3C//DTD SVG 1.1//EN" "http://www.w3.org/Graphics/SVG/1.1/DTD/svg11.dtd">
<svg version="1.1" xmlns="http://www.w3.org/2000/svg" xmlns:xlink="http://www.w3.org/1999/xlink" x="0px" y="0px"
	 viewBox="0 0 180 240" enable-background="new 0 0 180 240" xml:space="preserve">
<g id="Layer_2">
	<g id="Layer_3">
	</g>
	<g id="Layer_3_copy">
	</g>
</g>
<g id="Layer_1">
	<g>
		<g>
			<g>
				<path fill="#D64546" d="M159.6,50.2c1.4,19.6,1.8,40,10.8,57.9c4.3,8.5,10.5,19,5.3,28.4c-5.5,9.8-23,14.7-27.9,1.2L159.6,50.2z
					"/>
				<g>
					<path fill="#D64546" d="M56.6,28.6c-0.2-1.1-0.3-2.2-0.3-3.3c0-9,7.3-16.3,16.3-16.3c5.2,0,9.9,2.5,12.9,6.3
						c5.9-6.2,14.1-10.1,23.3-10.1c12.5,0,23.3,7.2,28.6,17.6c1.5-0.3,3.1-0.5,4.8-0.5c12.2,0,22.1,9.9,22.1,22.1
						c0,12.2-9.9,22.1-22.1,22.1c-4.9,0-9.4-1.6-13.1-4.3c-5.5,4.5-12.6,7.3-20.3,7.3c-8.9,0-16.9-3.6-22.7-9.5
						c-4.2,5.7-11.2,9.4-19.2,9.4c-12.8,0-23.2-9.6-23.2-21.5C43.7,39.5,49,32.1,56.6,28.6z"/>
					<g>
						<path fill="#FFFFFF" d="M138.8,31.8c-1.1,0-2.3,0.1-3.5,0.4l-5,1.1l-2.3-4.5c-4.6-9-13.7-14.7-23.8-14.7
							c-3.5,0-6.8,0.7-9.9,1.9c4.2-2.9,9.3-4.5,14.5-4.5c9.7,0,18.5,5.4,23,14.2l2.2,4.4l4.8-1.1c1.2-0.3,2.3-0.4,3.4-0.4
							c8.7,0,15.8,7.1,15.8,15.8c0,4.3-1.7,8.2-4.5,11.1c1.1-2.2,1.7-4.7,1.7-7.3C155.2,39.2,147.8,31.8,138.8,31.8z"/>
						<path fill="#FFFFFF" d="M76.4,19.9c-3.6-2.4-8.2-3.6-10.9-1.1c0,0,0,0,0.1-0.1c3.6-5.1,11.4-4.1,15,0.4c1.9,2.4,4.4,4.9,1,7.2
							C81.2,24.2,79.1,21.7,76.4,19.9z"/>
					</g>
				</g>
				<g>
					<g>
						<path fill="#0E3A51" d="M2.2,86.4l5.8,93.5c0,9.1,7.4,16.5,16.5,16.5h40.7c9.1,0,16.5-7.4,16.5-16.5V86.4
							c0-9.1-7.4-16.5-16.5-16.5H18.7C9.6,69.8,2.2,77.2,2.2,86.4z M14.3,90.6c0.1-4.6,3.9-8.4,8.5-8.4h40c4.7,0,8.5,3.8,8.5,8.5
							v80.3c0,4.7-3.8,8.5-8.5,8.5h-35c-4.7,0-8.5-3.8-8.5-8.5V171l0-0.2L14.3,90.6z"/>
					</g>
				</g>
				<path fill="#0E3A51" d="M159.9,55.1v166.7c0,7.2-5.8,12.9-13,12.9H57.2c-7.2,0-13-5.8-13-12.9V55.1H159.9z"/>
				<rect x="50.9" y="61.7" fill="#FFFFFF" width="102.4" height="33.6"/>
				<rect x="50.9" y="95.3" fill="#D64546" width="102.4" height="17.2"/>
				<path fill="#F16665" d="M153.3,112.5v109.3c0,3.5-2.8,6.3-6.3,6.3H57.2c-3.5,0-6.3-2.8-6.3-6.3V112.5H153.3z"/>
				<path fill="#FFFFFF" d="M137.8,208.4c0,2.6,2.1,4.7,4.7,4.7l0,0c2.6,0,4.7-2.1,4.7-4.7v-81.1c0-2.6-2.1-4.7-4.7-4.7l0,0
					c-2.6,0-4.7,2.1-4.7,4.7V208.4z"/>
			</g>
		</g>
	</g>
</g>
</svg>
