<svg xmlns="http://www.w3.org/2000/svg" viewBox="0 0 240 165" enable-background="new 0 0 240 165"><path fill="#ffffff" d="M34.2 61.8c0 4.3-3.9 8.8-8.9 8.8v72.1c0 10.2-14 10.2-14 0v-72.1c-4.9 0-9.2-3.8-9.2-9.5v-39.6c0-3.4 5-3.6 5 .1v29.3h9-.4v-29.5c0-3.3 4.7-3.4 4.7.1v29.4h8.9v-29.5c0-3.3 4.9-3.4 4.9.1v40.3zM237.9 30.7v111.9c0 10-14 9.9-14 0v-44.3h-.1c0-4.1-3.3-7.4-7.4-7.4v-60.2c.1-15.7 21.5-15.7 21.5 0z"/><g fill="#ffffff"><path d="M122.7 19.5c-34.6 0-62.8 28.2-62.8 62.8 0 34.6 28.2 62.8 62.8 62.8s62.8-28.2 62.8-62.8c0-34.6-28.2-62.8-62.8-62.8zM122.7 2c-44.4 0-80.3 35.9-80.3 80.3s35.9 80.3 80.3 80.3 80.3-36 80.3-80.3-36-80.3-80.3-80.3zm0 148.4c-37.5 0-68.1-30.5-68.1-68.1 0-37.5 30.5-68.1 68.1-68.1s68.1 30.5 68.1 68.1c-.1 37.5-30.6 68.1-68.1 68.1z"/></g></svg>