<?xml version="1.0" encoding="utf-8"?>
<!-- Generator: Adobe Illustrator 17.1.0, SVG Export Plug-In . SVG Version: 6.00 Build 0)  -->
<!DOCTYPE svg PUBLIC "-//W3C//DTD SVG 1.1//EN" "http://www.w3.org/Graphics/SVG/1.1/DTD/svg11.dtd">
<svg xmlns="http://www.w3.org/2000/svg" viewBox="0 0 300 240" enable-background="new 0 0 300 240" class="svg-icon-registration"><g fill="#ffffff"><path d="M138.4 64.1l-24.1 9.3c-.3 2.7-.5 5.4-.7 7.7-.6 7.6-1 14.9-7.3 16.9-1.7 0-4.5 1-7.8-.5-7.2-2.9-14.9-5.9-22.6-9.1l-21.3 8.3c-5.1 2-7.7 7.8-5.7 12.9l47 121c2 5.1 7.8 7.7 12.9 5.7l83.8-32.5c5.1-2 7.7-7.8 5.7-12.9l-47-121c-2-5.2-7.8-7.8-12.9-5.8zm35.8 92.2l-83.8 32.5-7.2-18.6 83.8-32.5 7.2 18.6zm-9.1-23.3l-83.8 32.5-14.5-37.2 83.8-32.5 14.5 37.2zM104.4 93c-1.2.5-2.6.4-4-.3-19.7-7.8-42.3-16.9-60.7-26.2-22.2-11.2-33.7-20.1-36.2-27.9-.9-3-.5-5.9 1.2-8.5 5-7.5 14-13.8 26.8-18.7 31.1-12.1 80.8-13.1 90.9 2.3 9 13.6.5 28.3-7 41.3l-1.5 2.7c-4.1 7.1-4.7 16.2-5.2 22.9-.6 6.7-.9 11.1-4.3 12.4zm-71-76.6c-11.6 4.5-20 10.3-24.3 16.7-.8 1.2-1 2.4-.5 3.9 4.9 15.6 67 40.2 93.7 50.7.5-1.4.7-4.8.9-7.5.5-7.2 1.2-17 5.9-25.2.5-.9 1-1.8 1.6-2.7 7.4-12.8 14.4-24.9 7.2-35.7-8-12-53.8-12.1-84.5-.2z"/></g></svg>
