<svg xmlns="http://www.w3.org/2000/svg" viewBox="0 0 400 400"><title>lightbend-square-lockup</title><path d="M50,322.3a2.45,2.45,0,1,1,4.89,0V359H70.5a2.27,2.27,0,0,1,2.23,2.29,2.22,2.22,0,0,1-2.23,2.23H52.42A2.47,2.47,0,0,1,50,361Z" fill="#fff"/><path d="M81.93,321.43a2.83,2.83,0,0,1,5.64,0v.81a2.83,2.83,0,0,1-5.64,0Zm.43,12.14a2.41,2.41,0,0,1,2.35-2.42,2.38,2.38,0,0,1,2.42,2.42v27.82a2.33,2.33,0,0,1-2.35,2.42,2.38,2.38,0,0,1-2.42-2.42Z" fill="#fff"/><path d="M100,369.75a2.21,2.21,0,0,1-1.24-2,2.27,2.27,0,0,1,2.17-2.11A1.92,1.92,0,0,1,102,366a20.23,20.23,0,0,0,11.34,3.47c7.06,0,11.65-3.9,11.65-11.4v-3.78C122.2,358,118.3,361,112.41,361a14.81,14.81,0,0,1-15.05-15v-.12a15.16,15.16,0,0,1,27.57-8.67v-3.66a2.37,2.37,0,0,1,2.35-2.42,2.42,2.42,0,0,1,2.42,2.42v24.35c0,5-1.49,8.74-4.09,11.34-2.85,2.85-7.12,4.27-12.2,4.27A25.09,25.09,0,0,1,100,369.75ZM125.11,346v-.12c0-6.57-5.7-10.84-11.77-10.84s-11.09,4.21-11.09,10.78v.12a10.84,10.84,0,0,0,11.09,10.9C119.41,356.8,125.11,352.4,125.11,346Z" fill="#fff"/><path d="M140.66,320.37a2.39,2.39,0,1,1,4.77,0V337a12.13,12.13,0,0,1,11-6.26c7.74,0,12.27,5.2,12.27,12.82v17.78a2.39,2.39,0,1,1-4.77,0v-16.6c0-5.95-3.22-9.66-8.86-9.66s-9.6,4-9.6,10v16.23a2.33,2.33,0,0,1-2.35,2.42,2.38,2.38,0,0,1-2.42-2.42Z" fill="#fff"/><path d="M179.94,355V335.68h-2.6a2.17,2.17,0,0,1-2.11-2.11,2.13,2.13,0,0,1,2.11-2.11h2.6v-7.56a2.37,2.37,0,0,1,2.35-2.42,2.46,2.46,0,0,1,2.42,2.42v7.56H193a2.18,2.18,0,0,1,2.17,2.11,2.14,2.14,0,0,1-2.17,2.11h-8.3v18.71c0,3.9,2.17,5.33,5.39,5.33a13.5,13.5,0,0,0,2.91-.43,2.06,2.06,0,0,1,2,2,2,2,0,0,1-1.36,1.86,12,12,0,0,1-4.71.87C183.84,364.05,179.94,361.51,179.94,355Z" fill="#fff"/><path d="M205.4,320.37a2.39,2.39,0,1,1,4.77,0v17.53c2.6-3.84,6.38-7.12,12.27-7.12,7.68,0,15.3,6.07,15.3,16.6v.12c0,10.47-7.56,16.66-15.3,16.66-5.95,0-9.79-3.22-12.27-6.81v4a2.37,2.37,0,0,1-2.35,2.42,2.42,2.42,0,0,1-2.42-2.42Zm27.44,27.2v-.12c0-7.56-5.2-12.39-11.27-12.39s-11.59,5-11.59,12.33v.12c0,7.43,5.64,12.39,11.59,12.39C227.77,359.9,232.85,355.32,232.85,347.57Z" fill="#fff"/><path d="M259.92,364.24c-8.8,0-16-6.75-16-16.66v-.12c0-9.23,6.5-16.66,15.36-16.66,9.48,0,14.87,7.74,14.87,16.23a2.22,2.22,0,0,1-2.23,2.23H248.77c.68,6.94,5.58,10.84,11.28,10.84a13.09,13.09,0,0,0,9.23-3.72,2.06,2.06,0,0,1,3.47,1.49,2.06,2.06,0,0,1-.74,1.55A16.28,16.28,0,0,1,259.92,364.24Zm9.48-18.52c-.5-5.82-3.84-10.9-10.22-10.9-5.58,0-9.79,4.65-10.41,10.9Z" fill="#fff"/><path d="M282.1,333.57a2.41,2.41,0,0,1,2.35-2.42,2.38,2.38,0,0,1,2.42,2.42V337a12.13,12.13,0,0,1,11-6.26c7.74,0,12.27,5.2,12.27,12.82v17.78a2.39,2.39,0,1,1-4.77,0v-16.6c0-5.95-3.22-9.66-8.86-9.66s-9.6,4-9.6,10v16.23a2.33,2.33,0,0,1-2.35,2.42,2.38,2.38,0,0,1-2.42-2.42Z" fill="#fff"/><path d="M350,361.39a2.39,2.39,0,1,1-4.77,0v-4.34c-2.6,3.84-6.38,7.12-12.27,7.12-7.68,0-15.3-6.07-15.3-16.6v-.12c0-10.47,7.62-16.66,15.3-16.66,5.95,0,9.79,3.22,12.27,6.81V320.37a2.33,2.33,0,0,1,2.35-2.42,2.38,2.38,0,0,1,2.42,2.42Zm-27.44-14v.12c0,7.56,5.27,12.39,11.28,12.39s11.58-5,11.58-12.39v-.12c0-7.37-5.64-12.33-11.58-12.33C327.64,335.06,322.56,339.64,322.56,347.39Z" fill="#fff"/><path d="M50,228.47v56a10,10,0,0,0,10,10H340a10,10,0,0,0,10-10v-56a557.85,557.85,0,0,1-150,20A557.85,557.85,0,0,1,50,228.47Z" fill="#ff931e"/><path d="M340,34.47H60a10,10,0,0,0-10,10v165a539.94,539.94,0,0,0,150,21,539.94,539.94,0,0,0,150-21v-165A10,10,0,0,0,340,34.47Z" fill="#ff931e"/><path d="M200,230.47a539.94,539.94,0,0,1-150-21v19a557.85,557.85,0,0,0,150,20,557.85,557.85,0,0,0,150-20v-19A539.94,539.94,0,0,1,200,230.47Z" fill="#fff"/></svg>