<?xml version="1.0" encoding="utf-8"?>
<!-- Generator: Adobe Illustrator 17.1.0, SVG Export Plug-In . SVG Version: 6.00 Build 0)  -->
<!DOCTYPE svg PUBLIC "-//W3C//DTD SVG 1.1//EN" "http://www.w3.org/Graphics/SVG/1.1/DTD/svg11.dtd">
<svg version="1.1" id="Layer_1" xmlns="http://www.w3.org/2000/svg" xmlns:xlink="http://www.w3.org/1999/xlink" x="0px" y="0px"
	 viewBox="0 0 450 150" enable-background="new 0 0 450 150" xml:space="preserve">
<g>
	<g>
		<path fill="#139AD6" d="M335.4,47.6h-22.5c-1.5,0-2.8,1.1-3.1,2.6l-9.1,57.6c-0.2,1.1,0.7,2.2,1.9,2.2h11.5c1.1,0,2-0.8,2.2-1.8
			l2.6-16.3c0.2-1.5,1.5-2.6,3.1-2.6h7.1c14.8,0,23.4-7.2,25.6-21.4c1-6.2,0-11.1-2.9-14.5C348.6,49.6,342.9,47.6,335.4,47.6z
			 M338,68.6c-1.2,8.1-7.4,8.1-13.4,8.1h-3.4l2.4-15.1c0.1-0.9,0.9-1.6,1.9-1.6h1.6c4.1,0,7.9,0,9.9,2.3
			C338.1,63.8,338.5,65.8,338,68.6z"/>
		<path fill="#263B80" d="M175.1,47.6h-22.5c-1.5,0-2.8,1.1-3.1,2.6l-9.1,57.6c-0.2,1.1,0.7,2.2,1.9,2.2H153c1.5,0,2.8-1.1,3.1-2.6
			l2.5-15.6c0.2-1.5,1.5-2.6,3.1-2.6h7.1c14.8,0,23.4-7.2,25.6-21.4c1-6.2,0-11.1-2.9-14.5C188.3,49.6,182.6,47.6,175.1,47.6z
			 M177.7,68.6c-1.2,8.1-7.4,8.1-13.4,8.1h-3.4l2.4-15.1c0.1-0.9,0.9-1.6,1.9-1.6h1.6c4.1,0,7.9,0,9.9,2.3
			C177.8,63.8,178.1,65.8,177.7,68.6z"/>
		<path fill="#263B80" d="M242.3,68.4h-10.8c-0.9,0-1.7,0.7-1.9,1.6l-0.5,3l-0.8-1.1c-2.3-3.4-7.5-4.5-12.7-4.5
			c-11.9,0-22.1,9-24,21.7c-1,6.3,0.4,12.3,4,16.5c3.3,3.9,8,5.5,13.6,5.5c9.6,0,14.9-6.2,14.9-6.2l-0.5,3c-0.2,1.1,0.7,2.2,1.9,2.2
			h9.7c1.5,0,2.8-1.1,3.1-2.6l5.8-36.8C244.3,69.4,243.4,68.4,242.3,68.4z M227.3,89.3c-1,6.2-5.9,10.3-12.1,10.3
			c-3.1,0-5.6-1-7.2-2.9c-1.6-1.9-2.2-4.6-1.7-7.6c1-6.1,5.9-10.4,12.1-10.4c3.1,0,5.5,1,7.2,2.9C227.1,83.7,227.8,86.4,227.3,89.3z
			"/>
		<path fill="#139AD6" d="M402.6,68.4h-10.8c-0.9,0-1.7,0.7-1.9,1.6l-0.5,3l-0.8-1.1c-2.3-3.4-7.5-4.5-12.7-4.5
			c-11.9,0-22.1,9-24,21.7c-1,6.3,0.4,12.3,4,16.5c3.3,3.9,8,5.5,13.6,5.5c9.6,0,14.9-6.2,14.9-6.2l-0.5,3c-0.2,1.1,0.7,2.2,1.9,2.2
			h9.7c1.5,0,2.8-1.1,3.1-2.6l5.8-36.8C404.6,69.4,403.8,68.4,402.6,68.4z M387.6,89.3c-1,6.2-5.9,10.3-12.1,10.3
			c-3.1,0-5.6-1-7.2-2.9c-1.6-1.9-2.2-4.6-1.7-7.6c1-6.1,5.9-10.4,12.1-10.4c3.1,0,5.5,1,7.2,2.9C387.4,83.7,388.1,86.4,387.6,89.3z
			"/>
		<path fill="#263B80" d="M299.6,68.4h-10.8c-1,0-2,0.5-2.6,1.4l-14.9,22L265,70.6c-0.4-1.3-1.6-2.2-3-2.2h-10.6
			c-1.3,0-2.2,1.3-1.8,2.5l11.9,35l-11.2,15.8c-0.9,1.2,0,3,1.5,3h10.8c1,0,2-0.5,2.6-1.3l36-51.9C302,70.1,301.1,68.4,299.6,68.4z"
			/>
		<path fill="#139AD6" d="M415.3,49.2l-9.2,58.7c-0.2,1.1,0.7,2.2,1.9,2.2h9.3c1.5,0,2.8-1.1,3.1-2.6l9.1-57.6
			c0.2-1.1-0.7-2.2-1.9-2.2h-10.4C416.2,47.6,415.4,48.3,415.3,49.2z"/>
	</g>
	<g>
		<path fill="#263B80" d="M63.2,120.5l3-19.2l0.2-1.1c0.1-0.9,0.6-1.8,1.3-2.4c0.7-0.6,1.6-0.9,2.6-0.9h2.4c4,0,7.7-0.4,10.9-1.3
			c3.5-0.9,6.5-2.3,9.2-4.2c2.8-2,5.1-4.5,6.9-7.6c1.9-3.2,3.3-7.1,4.2-11.5c0.8-3.9,0.9-7.4,0.4-10.4c-0.5-3.2-1.7-5.9-3.6-8
			c-1.1-1.3-2.6-2.4-4.4-3.4l0,0l0-0.1c0.6-3.9,0.6-7.2-0.1-10c-0.7-2.8-2-5.3-4.1-7.7c-4.3-4.9-12.2-7.5-23.5-7.5H37.8
			c-1,0-2,0.4-2.8,1c-0.8,0.7-1.3,1.6-1.5,2.6l-12.8,81.4c-0.1,0.7,0.1,1.5,0.6,2.1c0.5,0.6,1.2,0.9,2,0.9h19.1l0,0.1l-1.3,8.3
			c-0.1,0.6,0.1,1.3,0.5,1.8c0.4,0.5,1,0.8,1.7,0.8h16c0.9,0,1.8-0.3,2.5-0.9c0.7-0.6,1.1-1.4,1.3-2.3L63.2,120.5z"/>
		<g>
			<path fill="#263B80" d="M52.2,50.7c0.2-1.3,1-2.3,2.1-2.9c0.5-0.2,1.1-0.4,1.7-0.4h24.2c2.9,0,5.5,0.2,8,0.6
				c0.7,0.1,1.4,0.2,2,0.4c0.7,0.1,1.3,0.3,1.9,0.5c0.3,0.1,0.6,0.2,0.9,0.3c1.2,0.4,2.3,0.9,3.3,1.4c1.2-7.7,0-13-4.2-17.7
				c-4.6-5.2-12.9-7.5-23.5-7.5H37.8c-2.2,0-4,1.6-4.4,3.7l-12.8,81.4c-0.3,1.6,1,3.1,2.6,3.1h19l4.8-30.3L52.2,50.7z"/>
			<path fill="#139AD6" d="M96.3,50.6L96.3,50.6L96.3,50.6c-0.1,0.6-0.2,1.2-0.3,1.8c-4.1,20.9-18,28.1-35.7,28.1h-9
				c-2.2,0-4,1.6-4.3,3.7v0v0l-4.6,29.4l-1.3,8.3c-0.2,1.4,0.9,2.7,2.3,2.7h16c1.9,0,3.5-1.4,3.8-3.3l0.2-0.8l3-19.2l0.2-1.1
				c0.3-1.9,1.9-3.3,3.8-3.3h2.4c15.5,0,27.7-6.3,31.3-24.6c1.5-7.6,0.7-14-3.2-18.5C99.5,52.6,98.1,51.5,96.3,50.6z"/>
			<path fill="#232C65" d="M92.1,48.9c-0.6-0.2-1.3-0.3-1.9-0.5c-0.7-0.1-1.3-0.3-2-0.4c-2.4-0.4-5.1-0.6-8-0.6H56
				c-0.6,0-1.2,0.1-1.7,0.4c-1.1,0.5-1.9,1.6-2.1,2.9l-5.1,32.6l-0.1,1c0.3-2.1,2.2-3.7,4.3-3.7h9c17.8,0,31.7-7.2,35.7-28.1
				c0.1-0.6,0.2-1.2,0.3-1.8c-1-0.5-2.1-1-3.3-1.4C92.7,49.1,92.4,49,92.1,48.9z"/>
		</g>
	</g>
</g>
</svg>
