<?xml version="1.0" encoding="utf-8"?>
<!-- Generator: Adobe Illustrator 18.1.1, SVG Export Plug-In . SVG Version: 6.00 Build 0)  -->
<!DOCTYPE svg PUBLIC "-//W3C//DTD SVG 1.1//EN" "http://www.w3.org/Graphics/SVG/1.1/DTD/svg11.dtd">
<svg version="1.1" id="Layer_1" xmlns="http://www.w3.org/2000/svg" xmlns:xlink="http://www.w3.org/1999/xlink" x="0px" y="0px"
	 viewBox="0 0 1920 450" enable-background="new 0 0 1920 450" xml:space="preserve">
<g>
	<g opacity="0.25">
		<path d="M82.6,286c5.2,9.6,11.3,17.5,20.1,23.6s18.3,9.6,29.7,12.2c11.3,2.6,23.6,3.5,36.7,3.5c7.9,0,15.7-0.9,24.4-2.6
			c8.7-2.6,17.5-5.2,24.4-10.5c7.9-4.4,14-10.5,19.2-17.5c5.2-7,7.9-15.7,7.9-26.2c0-7.9-1.7-14.8-5.2-20.1
			c-3.5-6.1-8.7-10.5-14-14.8c-6.1-3.5-12.2-7-19.2-9.6c-7-2.6-14-4.4-20.1-6.1l-62.8-15.7c-8.7-2.6-16.6-5.2-23.6-7.9
			c-7.9-2.6-14.8-7.9-20.1-13.1c-6.1-5.2-10.5-11.3-14-19.2c-3.5-7.9-5.2-17.5-5.2-27.9c0-7,0.9-14.8,3.5-24.4
			c2.6-8.7,7.9-18.3,14.8-26.2c7-8.7,17.5-14.8,29.7-20.9c13.1-6.1,28.8-8.7,48.9-8.7c14,0,27.1,1.7,40.1,6.1
			c13.1,3.5,23.6,8.7,33.2,16.6c9.6,7.9,17.5,16.6,22.7,27.9c6.1,11.3,8.7,23.6,8.7,38.4h-27.1c0-11.3-2.6-20.1-7-28.8
			c-4.4-7.9-10.5-14.8-17.5-20.1c-7-5.2-14.8-9.6-24.4-12.2c-8.7-2.6-18.3-4.4-28.8-4.4c-8.7,0-18.3,0.9-27.1,2.6
			c-8.7,1.7-16.6,5.2-22.7,9.6c-6.1,4.4-11.3,10.5-15.7,17.5c-3.5,7-6.1,15.7-6.1,26.2c0,6.1,0.9,12.2,3.5,17.5
			c2.6,5.2,5.2,8.7,9.6,12.2c3.5,3.5,8.7,6.1,14,8.7c5.2,2.6,10.5,3.5,16.6,5.2l68.9,17.5c10.5,2.6,20.1,6.1,28.8,9.6
			c8.7,3.5,16.6,8.7,23.6,14c7,6.1,12.2,12.2,15.7,20.9c3.5,8.7,6.1,18.3,6.1,29.7c0,2.6,0,7.9-0.9,13.1s-2.6,11.3-5.2,17.5
			c-2.6,6.1-6.1,12.2-10.5,18.3c-4.4,6.1-11.3,11.3-19.2,16.6c-7.9,5.2-18.3,8.7-29.7,11.3c-11.3,2.6-26.2,4.4-42.8,4.4
			s-32.3-1.7-46.3-6.1c-14-3.5-26.2-9.6-36.7-17.5c-10.5-7.9-17.5-18.3-22.7-30.5s-7.9-27.1-7-44.5h27.1
			C75.6,264.2,78.2,276.4,82.6,286z"/>
		<g enable-background="new    ">
			<path d="M417.7,166.5c-8.7-8.7-22.7-13.1-39.3-13.1c-11.3,0-22.7,2.6-31.4,7.9c-8.7,5.2-16.6,11.3-22.7,20.1
				c-6.1,8.7-10.5,17.5-14,27.9c-2.6,10.5-4.4,20.9-4.4,31.4c0,11.3,1.7,21.8,4.4,31.4c2.6,10.5,7.9,20.1,14,27.9
				c6.1,7.9,13.1,14.8,22.7,20.1c8.7,5.2,19.2,7.9,31.4,7.9c7.9,0,14.8-1.7,21.8-4.4c7-2.6,13.1-7,18.3-12.2
				c5.2-5.2,9.6-11.3,13.1-18.3c3.5-7,6.1-14.8,6.1-23.6h25.3c-3.5,25.3-12.2,44.5-27.1,58.5c-14.8,14-34,20.9-57.6,20.9
				c-15.7,0-29.7-2.6-41.9-8.7s-22.7-13.1-30.5-22.7c-8.7-9.6-14-20.9-18.3-34c-4.4-13.1-6.1-27.1-6.1-41.9
				c0-14.8,2.6-28.8,6.1-41.9c4.4-13.1,10.5-24.4,18.3-34c8.7-9.6,18.3-17.5,30.5-23.6s26.2-8.7,41.9-8.7c21.8,0,40.1,6.1,55.9,17.5
				c15.7,11.3,24.4,28.8,27.1,52.4H436C433.4,187.4,427.3,175.2,417.7,166.5z M504.1,170c4.4-8.7,9.6-15.7,17.5-21.8
				c7-6.1,15.7-9.6,26.2-12.2c9.6-2.6,20.1-3.5,32.3-3.5c8.7,0,18.3,0.9,27.1,2.6c8.7,1.7,17.5,5.2,24.4,9.6
				c7,5.2,13.1,11.3,17.5,20.1c4.4,8.7,7,20.1,7,34v109.1c0,10.5,5.2,14.8,14.8,14.8c2.6,0,6.1,0,7.9-1.7v20.9
				c-2.6,0-6.1,0.9-7.9,0.9c-2.6,0-5.2,0-8.7,0c-6.1,0-11.3-0.9-14.8-2.6s-7-4.4-8.7-7c-2.6-2.6-3.5-7-4.4-11.3
				c-0.9-4.4-0.9-8.7-0.9-14h-0.9c-4.4,6.1-8.7,12.2-14,17.5c-4.4,5.2-9.6,9.6-15.7,13.1c-6.1,3.5-12.2,6.1-19.2,7.9
				s-15.7,2.6-26.2,2.6c-9.6,0-18.3-0.9-27.1-3.5c-8.7-2.6-15.7-6.1-21.8-10.5c-6.1-5.2-11.3-11.3-14.8-18.3
				c-3.5-7.9-5.2-16.6-5.2-27.1c0-14,2.6-25.3,9.6-34c6.1-7.9,14.8-14,25.3-18.3c10.5-4.4,22.7-7,34.9-8.7
				c13.1-1.7,26.2-3.5,40.1-5.2c5.2,0,9.6-0.9,14-1.7c3.5-0.9,7-2.6,9.6-4.4c2.6-1.7,4.4-4.4,6.1-7.9c1.7-3.5,2.6-7.9,2.6-14
				c0-8.7-1.7-15.7-4.4-20.9c-2.6-5.2-6.1-9.6-11.3-13.1c-5.2-2.6-10.5-5.2-17.5-6.1c-6.1-0.9-13.1-1.7-20.9-1.7
				c-15.7,0-28.8,3.5-39.3,11.3s-15.7,20.1-15.7,36.7h-25.3C497.1,189.2,499.7,178.7,504.1,170z M628.9,231.1
				c-1.7,2.6-4.4,5.2-8.7,6.1c-4.4,0.9-8.7,2.6-11.3,2.6c-10.5,1.7-21.8,3.5-32.3,5.2c-11.3,1.7-21.8,3.5-30.5,6.1
				s-17.5,7-22.7,12.2c-6.1,5.2-8.7,13.1-8.7,22.7c0,6.1,0.9,12.2,3.5,17.5c2.6,5.2,6.1,8.7,10.5,13.1c4.4,3.5,8.7,6.1,14.8,7.9
				c6.1,1.7,11.3,2.6,17.5,2.6c9.6,0,18.3-1.7,27.1-4.4c8.7-2.6,16.6-7,22.7-13.1c6.1-6.1,11.3-12.2,15.7-20.1
				c3.5-7.9,6.1-17.5,6.1-27.1v-32.3L628.9,231.1L628.9,231.1z"/>
		</g>
		<path d="M714.4,60v283.6h-25.3V60H714.4z M751.9,170c4.4-8.7,9.6-15.7,17.5-21.8c7-6.1,15.7-9.6,26.2-12.2
			c9.6-2.6,20.1-3.5,32.3-3.5c8.7,0,18.3,0.9,27.1,2.6c8.7,1.7,17.5,5.2,24.4,9.6c7,4.4,13.1,11.3,17.5,20.1c4.4,8.7,7,20.1,7,34
			v109.1c0,10.5,5.2,14.8,14.8,14.8c2.6,0,6.1,0,7.9-1.7v20.9c-2.6,0-6.1,0.9-7.9,0.9c-2.6,0-5.2,0-8.7,0c-6.1,0-11.3-0.9-14.8-2.6
			s-7-4.4-8.7-7c-2.6-2.6-3.5-7-4.4-11.3c-0.9-4.4-0.9-8.7-0.9-14h-1.7c-4.4,6.1-8.7,12.2-14,17.5c-5.2,5.2-9.6,9.6-15.7,13.1
			s-12.2,6.1-19.2,7.9s-15.7,2.6-26.2,2.6c-9.6,0-18.3-0.9-27.1-3.5c-8.7-2.6-15.7-6.1-21.8-10.5c-6.1-5.2-11.3-11.3-14.8-18.3
			c-3.5-7.9-5.2-16.6-5.2-27.1c0-14,2.6-25.3,9.6-34c6.1-7.9,14.8-14,25.3-18.3c10.5-4.4,22.7-7,34.9-8.7
			c13.1-1.7,26.2-3.5,40.1-5.2c5.2,0,9.6-0.9,14-1.7c3.5-0.9,7-2.6,9.6-4.4c2.6-1.7,4.4-4.4,6.1-7.9c1.7-3.5,2.6-7.9,2.6-14
			c0-8.7-1.7-15.7-4.4-20.9c-2.6-5.2-6.1-9.6-11.3-13.1c-5.2-3.5-10.5-5.2-17.5-6.1c-6.1-0.9-13.1-1.7-20.9-1.7
			c-15.7,0-28.8,3.5-39.3,11.3s-15.7,20.1-15.7,36.7h-25.3C745,189.2,747.6,178.7,751.9,170z M876.7,231.1c-1.7,2.6-4.4,5.2-8.7,6.1
			c-4.4,1.7-8.7,2.6-11.3,2.6c-10.5,1.7-21.8,3.5-32.3,5.2c-11.3,1.7-21.8,3.5-30.5,6.1s-17.5,7-22.7,12.2
			c-6.1,5.2-8.7,13.1-8.7,22.7c0,6.1,0.9,12.2,3.5,17.5c2.6,5.2,6.1,8.7,10.5,13.1c4.4,3.5,8.7,6.1,14.8,7.9
			c6.1,1.7,11.3,2.6,17.5,2.6c9.6,0,18.3-1.7,27.1-4.4c8.7-2.6,16.6-7,22.7-13.1c6.1-6.1,11.3-12.2,15.7-20.1
			c3.5-7.9,6.1-17.5,6.1-27.1v-32.3L876.7,231.1L876.7,231.1z M1122.8,60c18.3,0,34.9,2.6,51.5,8.7c15.7,6.1,29.7,14,41,26.2
			c11.3,11.3,20.1,26.2,27.1,43.6c6.1,17.5,9.6,37.5,9.6,61.1c0,20.1-2.6,40.1-7.9,57.6c-5.2,17.5-13.1,32.3-23.6,45.4
			s-24.4,22.7-40.1,29.7c-15.7,7-34.9,11.3-56.7,11.3h-122.2V60C1000.7,60,1122.8,60,1122.8,60z M1118.5,291.3
			c8.7,0,17.5-1.7,26.2-4.4c8.7-2.6,15.7-7.9,22.7-14c6.1-7,11.3-15.7,15.7-26.2c3.5-11.3,6.1-24.4,6.1-40.1c0-14-1.7-27.1-4.4-38.4
			c-2.6-11.3-7-20.9-14-29.7c-6.1-8.7-14.8-14-25.3-19.2c-10.5-4.4-23.6-6.1-38.4-6.1h-44.5v178
			C1063.5,291.3,1118.5,291.3,1118.5,291.3z"/>
		<g enable-background="new    ">
			<path d="M1280.8,168.2c6.1-8.7,13.1-15.7,22.7-20.9c9.6-5.2,19.2-8.7,30.5-11.3c11.3-2.6,22.7-3.5,34-3.5
				c10.5,0,20.9,0.9,31.4,2.6c10.5,1.7,20.1,4.4,28.8,8.7s15.7,10.5,21.8,17.5c6.1,7.9,8.7,17.5,8.7,29.7v106.5
				c0,8.7,0,18.3,1.7,26.2c0.9,8.7,2.6,14.8,6.1,19.2h-57.6c-0.9-2.6-1.7-6.1-2.6-9.6c-0.9-3.5-0.9-7-1.7-10.5
				c-8.7,8.7-20.1,15.7-31.4,19.2c-12.2,3.5-24.4,6.1-37.5,6.1c-9.6,0-19.2-0.9-27.1-3.5c-8.7-2.6-15.7-6.1-22.7-11.3
				c-6.1-5.2-11.3-11.3-14.8-19.2c-3.5-7.9-5.2-16.6-5.2-27.1c0-11.3,1.7-20.9,6.1-28.8s9.6-14,15.7-18.3c6.1-4.4,14-7.9,22.7-10.5
				c8.7-2.6,16.6-4.4,25.3-5.2c8.7-0.9,16.6-2.6,25.3-2.6c8.7-0.9,15.7-1.7,21.8-3.5c6.1-1.7,11.3-3.5,14.8-7
				c3.5-2.6,5.2-7.9,5.2-13.1c0-6.1-0.9-11.3-2.6-14c-1.7-3.5-4.4-6.1-7.9-8.7c-3.5-1.7-7-3.5-11.3-3.5c-4.4-0.9-8.7-0.9-14-0.9
				c-11.3,0-20.1,2.6-26.2,7c-6.1,5.2-10.5,13.1-11.3,23.6H1273C1271.2,188.3,1274.7,176.9,1280.8,168.2z M1391.6,247.6
				c-3.5,0.9-7.9,2.6-11.3,2.6c-4.4,0.9-8.7,1.7-13.1,1.7s-8.7,0.9-14,1.7c-4.4,0.9-8.7,1.7-12.2,2.6c-4.4,1.7-7.9,2.6-10.5,5.2
				c-2.6,2.6-6.1,5.2-7,8.7c-1.7,3.5-2.6,7.9-2.6,13.1s0.9,8.7,2.6,13.1c1.7,3.5,4.4,6.1,7.9,7.9c2.6,1.7,7,3.5,11.3,4.4
				s8.7,0.9,13.1,0.9c11.3,0,20.1-1.7,26.2-6.1c6.1-3.5,10.5-7.9,14-13.1c2.6-5.2,4.4-10.5,5.2-15.7c0.9-5.2,0.9-9.6,0.9-13.1v-20.9
				C1398.6,245,1395.1,246.8,1391.6,247.6z M1576.7,403.9c-11.3,7-26.2,10.5-45.4,10.5c-6.1,0-11.3,0-17.5-0.9
				c-6.1,0-11.3-0.9-17.5-1.7v-46.3c5.2,0,10.5,0.9,16.6,1.7c6.1,0,11.3,0.9,16.6,0c7.9-0.9,13.1-3.5,16.6-8.7
				c3.5-5.2,5.2-10.5,5.2-16.6c0-4.4-0.9-8.7-2.6-13.1l-71.6-192h59.3l46.3,140.5h0.9l44.5-140.5h58.5l-85.5,230.4
				C1595.9,385.5,1587.1,397.7,1576.7,403.9z"/>
		</g>
		<path d="M1738.1,292.1c2.6,4.4,6.1,7.9,9.6,10.5c3.5,2.6,8.7,5.2,14,6.1c5.2,1.7,10.5,1.7,15.7,1.7c3.5,0,7.9,0,12.2-1.7
			c4.4-0.9,8.7-2.6,11.3-4.4c3.5-1.7,6.1-4.4,8.7-7.9c2.6-3.5,3.5-7.9,3.5-12.2c0-8.7-6.1-14.8-17.5-19.2
			c-11.3-4.4-27.1-8.7-47.1-13.1c-8.7-1.7-16.6-4.4-23.6-6.1c-7.9-2.6-14.8-6.1-20.9-9.6c-6.1-4.4-11.3-8.7-14.8-15.7
			c-3.5-6.1-6.1-14-6.1-22.7c0-13.1,2.6-24.4,7.9-32.3c5.2-8.7,12.2-14.8,20.1-20.1c8.7-5.2,18.3-8.7,28.8-10.5
			c10.5-1.7,21.8-2.6,32.3-2.6c11.3,0,21.8,0.9,32.3,2.6c10.5,2.6,20.1,6.1,27.9,10.5c8.7,5.2,14.8,11.3,20.1,20.1
			c5.2,8.7,8.7,19.2,9.6,31.4h-53.2c-0.9-11.3-5.2-18.3-12.2-21.8c-7.9-3.5-16.6-6.1-26.2-6.1c-2.6,0-6.1,0-10.5,0.9
			c-3.5,0-7,0.9-10.5,2.6c-2.6,0.9-6.1,3.5-7.9,6.1c-2.6,2.6-2.6,6.1-2.6,10.5c0,5.2,1.7,8.7,6.1,12.2c3.5,2.6,8.7,6.1,14,7.9
			c6.1,1.7,13.1,3.5,20.1,5.2c7.9,1.7,15.7,3.5,23.6,5.2c8.7,1.7,16.6,4.4,23.6,7c7.9,2.6,14.8,6.1,20.9,10.5s11.3,9.6,14.8,16.6
			c3.5,7,6.1,14,6.1,23.6c0,14-2.6,24.4-7.9,34c-5.2,8.7-12.2,16.6-20.9,21.8c-8.7,6.1-18.3,9.6-29.7,11.3
			c-11.3,2.6-22.7,3.5-34,3.5s-23.6-0.9-34.9-3.5c-11.3-2.6-21.8-6.1-30.5-11.3c-8.7-6.1-16.6-13.1-21.8-21.8
			c-6.1-8.7-8.7-20.1-9.6-34h53.2C1734.6,282.5,1735.5,287.8,1738.1,292.1z"/>
	</g>
	<path fill="#FFFFFF" d="M82.6,282.5c5.2,9.6,11.3,17.5,20.1,23.6s18.3,9.6,29.7,12.2c11.3,2.6,23.6,3.5,36.7,3.5
		c7.9,0,15.7-0.9,24.4-2.6c8.7-2.6,17.5-5.2,24.4-10.5c7.9-4.4,14-10.5,19.2-17.5c5.2-7,7.9-15.7,7.9-26.2c0-7.9-1.7-14.8-5.2-20.1
		c-3.5-5.2-8.7-10.5-14-14.8c-6.1-3.5-12.2-7-19.2-9.6c-7-2.6-14-4.4-20.1-6.1l-62.8-15.7c-8.7-2.6-16.6-5.2-23.6-7.9
		c-7.9-2.6-14.8-7.9-20.1-13.1c-6.1-5.2-10.5-11.3-14-19.2c-3.5-7.9-5.2-17.5-5.2-27.9c0-7,0.9-14.8,3.5-24.4
		c2.6-8.7,7.9-18.3,14.8-26.2c7-8.7,17.5-14.8,29.7-20.9c13.1-6.1,28.8-8.7,48.9-8.7c14,0,27.1,1.7,40.1,6.1
		c13.1,3.5,23.6,8.7,33.2,16.6c9.6,7.9,17.5,16.6,22.7,27.9c6.1,11.3,8.7,23.6,8.7,38.4h-27.1c0-11.3-2.6-20.1-7-28.8
		c-4.4-7.9-10.5-14.8-17.5-20.1c-7-5.2-14.8-9.6-24.4-12.2c-8.7-2.6-18.3-4.4-28.8-4.4c-8.7,0-18.3,0.9-27.1,2.6
		c-8.7,1.7-16.6,5.2-22.7,9.6c-6.1,4.4-11.3,10.5-15.7,17.5c-3.5,7-6.1,15.7-6.1,26.2c0,6.1,0.9,12.2,3.5,17.5
		c2.6,5.2,5.2,8.7,9.6,12.2c3.5,3.5,8.7,6.1,14,8.7c5.2,2.6,10.5,3.5,16.6,5.2l68.9,17.5c10.5,2.6,20.1,6.1,28.8,9.6
		c8.7,3.5,16.6,8.7,23.6,14c7,6.1,12.2,12.2,15.7,20.9c3.5,8.7,6.1,18.3,6.1,29.7c0,2.6,0,7.9-0.9,13.1c-0.9,5.2-2.6,11.3-5.2,17.5
		c-2.6,6.1-6.1,12.2-10.5,18.3c-4.4,6.1-11.3,11.3-19.2,16.6c-7.9,5.2-18.3,8.7-29.7,11.3c-11.3,2.6-26.2,4.4-42.8,4.4
		s-32.3-1.7-46.3-6.1c-14-3.5-26.2-9.6-36.7-17.5S64.2,304.4,59,292.1s-7.9-27.1-7-44.5h27.1C75.6,260.7,78.2,272.1,82.6,282.5z"/>
	<g enable-background="new    ">
		<path fill="#FFFFFF" d="M417.7,163c-8.7-8.7-22.7-13.1-39.3-13.1c-11.3,0-22.7,2.6-31.4,7.9c-8.7,5.2-16.6,11.3-22.7,20.1
			c-6.1,8.7-10.5,17.5-14,27.9c-2.6,10.5-4.4,20.9-4.4,31.4c0,11.3,1.7,21.8,4.4,31.4c2.6,10.5,7.9,20.1,14,27.9
			c6.1,7.9,13.1,14.8,22.7,20.1c9.6,5.2,19.2,7.9,31.4,7.9c7.9,0,14.8-1.7,21.8-4.4c7-2.6,13.1-7,18.3-12.2
			c5.2-5.2,9.6-11.3,13.1-18.3c3.5-7,6.1-14.8,6.1-23.6h25.3c-3.5,25.3-12.2,44.5-27.1,58.5c-14.8,14-34,20.9-57.6,20.9
			c-15.7,0-29.7-2.6-41.9-8.7S313.8,323.6,306,314c-8.7-9.6-14-20.9-18.3-34c-4.4-13.1-6.1-27.1-6.1-41.9c0-14.8,2.6-28.8,6.1-41.9
			c4.4-13.1,10.5-24.4,18.3-34c8.7-9.6,18.3-17.5,30.5-23.6s26.2-8.7,41.9-8.7c21.8,0,40.1,6.1,55.9,17.5
			c15.7,11.3,24.4,28.8,27.1,52.4H436C433.4,183.1,427.3,171.7,417.7,163z M504.1,165.6c4.4-8.7,9.6-15.7,17.5-21.8
			c7-6.1,15.7-9.6,26.2-12.2c9.6-2.6,20.1-3.5,32.3-3.5c8.7,0,18.3,0.9,27.1,2.6c8.7,1.7,17.5,5.2,24.4,9.6
			c7,5.2,13.1,11.3,17.5,20.1c4.4,8.7,7,20.1,7,34v109.1c0,10.5,5.2,14.8,14.8,14.8c2.6,0,6.1,0,7.9-1.7v20.9
			c-2.6,0-6.1,0.9-7.9,0.9c-2.6,0-5.2,0-8.7,0c-6.1,0-11.3-0.9-14.8-2.6c-3.5-1.7-7-4.4-8.7-7c-2.6-2.6-3.5-7-4.4-11.3
			s-0.9-8.7-0.9-14h-0.9c-4.4,6.1-8.7,12.2-14,17.5c-4.4,5.2-9.6,9.6-15.7,13.1c-6.1,3.5-12.2,6.1-19.2,7.9
			c-7,1.7-15.7,2.6-26.2,2.6c-9.6,0-18.3-0.9-27.1-3.5c-8.7-2.6-15.7-6.1-21.8-10.5c-6.1-5.2-11.3-11.3-14.8-18.3
			c-3.5-7.9-5.2-16.6-5.2-27.1c0-14,2.6-25.3,9.6-34c6.1-7.9,14.8-14,25.3-18.3c10.5-4.4,22.7-7,34.9-8.7
			c13.1-1.7,26.2-3.5,40.1-5.2c5.2,0,9.6-0.9,14-1.7c3.5-0.9,7-2.6,9.6-4.4c2.6-1.7,4.4-4.4,6.1-7.9c1.7-3.5,2.6-7.9,2.6-14
			c0-8.7-1.7-15.7-4.4-20.9c-2.6-5.2-6.1-9.6-11.3-13.1c-5.2-2.6-10.5-5.2-17.5-6.1c-6.1-0.9-13.1-1.7-20.9-1.7
			c-15.7,0-28.8,3.5-39.3,11.3s-15.7,20.1-15.7,36.7h-25.3C497.1,184.8,499.7,174.3,504.1,165.6z M628.9,227.6
			c-1.7,2.6-4.4,5.2-8.7,6.1c-4.4,0.9-8.7,2.6-11.3,2.6c-10.5,1.7-21.8,3.5-32.3,5.2c-11.3,1.7-21.8,3.5-30.5,6.1
			c-8.7,2.6-17.5,7-22.7,12.2c-6.1,5.2-8.7,13.1-8.7,22.7c0,6.1,0.9,12.2,3.5,17.5c2.6,5.2,6.1,8.7,10.5,13.1
			c4.4,3.5,8.7,6.1,14.8,7.9c6.1,1.7,11.3,2.6,17.5,2.6c9.6,0,18.3-1.7,27.1-4.4c8.7-2.6,16.6-7,22.7-13.1
			c6.1-6.1,11.3-12.2,15.7-20.1s6.1-17.5,6.1-27.1v-32.3L628.9,227.6L628.9,227.6z"/>
	</g>
	<path fill="#FFFFFF" d="M714.4,55.6v283.6h-25.3V55.6H714.4z M751.9,165.6c4.4-8.7,9.6-15.7,17.5-21.8c7-6.1,15.7-9.6,26.2-12.2
		c9.6-2.6,20.1-3.5,32.3-3.5c8.7,0,18.3,0.9,27.1,2.6c8.7,1.7,17.5,5.2,24.4,9.6c7,5.2,13.1,11.3,17.5,20.1c4.4,8.7,7,20.1,7,34
		v109.1c0,10.5,5.2,14.8,14.8,14.8c2.6,0,6.1,0,7.9-1.7v20.9c-2.6,0-6.1,0.9-7.9,0.9c-2.6,0-5.2,0-8.7,0c-6.1,0-11.3-0.9-14.8-2.6
		c-3.5-1.7-7-4.4-8.7-7c-1.7-2.6-4.4-5.2-5.2-10.5c-0.9-4.4-0.9-8.7-0.9-14h-0.9c-4.4,6.1-8.7,12.2-14,17.5
		c-5.2,5.2-9.6,9.6-15.7,13.1c-6.1,3.5-12.2,6.1-19.2,7.9c-7,1.7-15.7,2.6-26.2,2.6c-9.6,0-18.3-0.9-27.1-3.5
		c-8.7-2.6-15.7-6.1-21.8-10.5c-6.1-5.2-11.3-11.3-14.8-18.3c-3.5-7.9-5.2-16.6-5.2-27.1c0-14,2.6-25.3,9.6-34
		c6.1-7.9,14.8-14,25.3-18.3c10.5-4.4,22.7-7,34.9-8.7c13.1-1.7,26.2-3.5,40.1-5.2c5.2,0,9.6-0.9,14-1.7c3.5-0.9,7-2.6,9.6-4.4
		c2.6-1.7,4.4-4.4,6.1-7.9c1.7-3.5,2.6-7.9,2.6-14c0-8.7-1.7-15.7-4.4-20.9c-2.6-5.2-6.1-9.6-11.3-13.1c-5.2-2.6-10.5-5.2-17.5-6.1
		c-6.1-0.9-13.1-1.7-20.9-1.7c-15.7,0-28.8,3.5-39.3,11.3s-15.7,20.1-15.7,36.7h-25.3C745,184.8,747.6,174.3,751.9,165.6z
		 M876.7,227.6c-1.7,2.6-4.4,5.2-8.7,6.1c-4.4,1.7-8.7,2.6-11.3,2.6c-10.5,1.7-21.8,3.5-32.3,5.2c-12.2,1.7-22.7,3.5-31.4,6.1
		c-8.7,2.6-17.5,7-22.7,12.2c-6.1,5.2-8.7,13.1-8.7,22.7c0,6.1,0.9,12.2,3.5,17.5c2.6,5.2,6.1,8.7,10.5,13.1
		c4.4,3.5,8.7,6.1,14.8,7.9c6.1,1.7,11.3,2.6,17.5,2.6c9.6,0,18.3-1.7,27.1-4.4c8.7-2.6,16.6-7,22.7-13.1
		c6.1-6.1,11.3-12.2,15.7-20.1c4.4-7.9,6.1-17.5,6.1-27.1v-32.3L876.7,227.6L876.7,227.6z"/>
	<path fill="#E25758" d="M1122.8,55.6c18.3,0,34.9,2.6,51.5,8.7c15.7,6.1,29.7,14,41,26.2c11.3,11.3,20.1,26.2,27.1,43.6
		c6.1,17.5,9.6,37.5,9.6,61.1c0,20.1-2.6,40.1-7.9,57.6c-5.2,17.5-13.1,32.3-23.6,45.4s-24.4,22.7-40.1,29.7
		c-15.7,7-34.9,11.3-56.7,11.3h-122.2V55.6C1000.7,55.6,1122.8,55.6,1122.8,55.6z M1118.5,286.9c8.7,0,17.5-1.7,26.2-4.4
		c8.7-2.6,15.7-7.9,22.7-14c6.1-7,11.3-15.7,15.7-26.2c3.5-11.3,6.1-24.4,6.1-40.1c0-14-1.7-27.1-4.4-38.4c-2.6-11.3-7-20.9-14-29.7
		c-6.1-8.7-14.8-14-25.3-19.2c-10.5-5.2-22.7-7-38.4-7h-44.5v178.9C1063.5,286.9,1118.5,286.9,1118.5,286.9z"/>
	<g enable-background="new    ">
		<path fill="#E25758" d="M1280.8,163.9c6.1-8.7,13.1-15.7,22.7-20.9c8.7-5.2,19.2-8.7,30.5-11.3s22.7-3.5,34-3.5
			c10.5,0,20.9,0.9,31.4,2.6c10.5,1.7,20.1,4.4,28.8,8.7s15.7,10.5,21.8,17.5c6.1,7.9,8.7,17.5,8.7,29.7V293c0,8.7,0,18.3,1.7,26.2
			c0.9,8.7,2.6,14.8,6.1,19.2h-57.6c-0.9-2.6-1.7-6.1-2.6-9.6c-0.9-3.5-0.9-7-1.7-10.5c-8.7,8.7-20.1,15.7-31.4,19.2
			c-12.2,3.5-24.4,6.1-37.5,6.1c-9.6,0-19.2-0.9-27.1-3.5c-8.7-2.6-15.7-6.1-22.7-11.3c-6.1-5.2-11.3-11.3-14.8-19.2
			c-3.5-7.9-5.2-16.6-5.2-27.1c0-11.3,1.7-20.9,6.1-28.8c4.4-7.9,9.6-14,15.7-18.3c6.1-4.4,14-7.9,22.7-10.5
			c8.7-2.6,16.6-4.4,25.3-5.2c8.7-0.9,16.6-2.6,25.3-2.6c8.7-0.9,15.7-1.7,21.8-3.5c6.1-1.7,11.3-3.5,14.8-7
			c3.5-2.6,5.2-7.9,5.2-13.1c0-6.1-0.9-11.3-2.6-14c-1.7-3.5-4.4-6.1-7.9-8.7c-3.5-1.7-7-3.5-11.3-3.5c-4.4-0.9-8.7-0.9-14-0.9
			c-11.3,0-20.1,2.6-26.2,7c-6.1,5.2-10.5,13.1-11.3,23.6H1273C1271.2,183.9,1274.7,172.6,1280.8,163.9z M1391.6,243.3
			c-3.5,0.9-7.9,2.6-11.3,2.6c-4.4,0.9-8.7,1.7-13.1,1.7s-8.7,0.9-14,1.7c-4.4,0.9-8.7,1.7-12.2,2.6c-4.4,1.7-7.9,2.6-10.5,5.2
			c-2.6,2.6-6.1,5.2-7,8.7c-1.7,3.5-2.6,7.9-2.6,13.1s0.9,8.7,2.6,13.1c1.7,3.5,4.4,6.1,7.9,7.9c2.6,1.7,7,3.5,11.3,4.4
			s8.7,0.9,13.1,0.9c11.3,0,20.1-1.7,26.2-6.1c6.1-3.5,10.5-7.9,14-13.1c2.6-5.2,4.4-10.5,5.2-15.7c0.9-5.2,0.9-9.6,0.9-13.1v-20.9
			C1398.6,240.7,1395.1,242.4,1391.6,243.3z M1576.7,400.4c-11.3,7-26.2,10.5-45.4,10.5c-6.1,0-11.3,0-17.5-0.9
			c-6.1,0-11.3-0.9-17.5-1.7V362c5.2,0,10.5,0.9,16.6,1.7c6.1,0,11.3,0.9,16.6,0c7.9-0.9,13.1-3.5,16.6-8.7
			c3.5-5.2,5.2-10.5,5.2-16.6c0-4.4-0.9-8.7-2.6-13.1l-71.6-192h59.3l46.3,140.5h0.9l45.4-139.6h58.5L1602,364.6
			C1595.9,381.2,1587.1,393.4,1576.7,400.4z"/>
	</g>
	<path fill="#E25758" d="M1738.1,287.8c2.6,4.4,6.1,7.9,9.6,10.5c3.5,2.6,8.7,5.2,14,6.1c5.2,1.7,10.5,1.7,15.7,1.7
		c3.5,0,7.9,0,12.2-1.7c4.4-0.9,8.7-2.6,11.3-4.4c3.5-1.7,6.1-4.4,8.7-7.9c2.6-3.5,3.5-7.9,3.5-12.2c0-8.7-6.1-14.8-17.5-19.2
		c-11.3-4.4-27.1-8.7-47.1-13.1c-8.7-1.7-16.6-4.4-23.6-6.1c-7.9-2.6-14.8-6.1-20.9-9.6c-6.1-3.5-11.3-8.7-14.8-15.7
		c-3.5-6.1-6.1-14-6.1-22.7c0-13.1,2.6-24.4,7.9-32.3c5.2-8.7,12.2-14.8,20.1-20.1c8.7-5.2,18.3-8.7,28.8-10.5
		c10.5-1.7,21.8-2.6,32.3-2.6c11.3,0,21.8,0.9,32.3,2.6c10.5,2.6,20.1,6.1,27.9,10.5c8.7,5.2,14.8,11.3,20.1,20.1
		c5.2,8.7,8.7,19.2,9.6,31.4h-53.2c-0.9-11.3-5.2-18.3-12.2-21.8c-7.9-3.5-16.6-6.1-26.2-6.1c-2.6,0-6.1,0-10.5,0.9
		c-3.5,0-7,0.9-10.5,2.6c-2.6,0.9-6.1,3.5-7.9,6.1c-2.6,2.6-2.6,6.1-2.6,10.5c0,5.2,1.7,8.7,6.1,12.2c3.5,2.6,8.7,6.1,14,7.9
		c6.1,1.7,13.1,3.5,20.1,5.2c7.9,1.7,15.7,3.5,23.6,5.2c8.7,1.7,16.6,4.4,23.6,7c7.9,2.6,14.8,6.1,20.9,10.5
		c6.1,4.4,11.3,9.6,14.8,16.6c3.5,6.1,6.1,14,6.1,23.6c0,14-2.6,24.4-7.9,34c-5.2,8.7-12.2,16.6-20.9,21.8
		c-8.7,6.1-18.3,9.6-29.7,11.3c-11.3,2.6-22.7,3.5-34,3.5s-23.6-0.9-34.9-3.5c-11.3-2.6-21.8-6.1-30.5-11.3
		c-8.7-6.1-16.6-13.1-21.8-21.8c-6.1-8.7-8.7-20.1-9.6-34h53.2C1734.6,278.2,1735.5,283.4,1738.1,287.8z"/>
</g>
</svg>
