<svg xmlns="http://www.w3.org/2000/svg" viewBox="0 0 595.3 205.5" enable-background="new 0 0 595.3 205.5"><g><g opacity=".25"><path d="M66.4 75.7c1.3 2.6 3 4.6 5.2 6.2 2.2 1.5 4.8 2.6 7.8 3.3 3 .7 6.2 1 9.6 1 2 0 4.1-.3 6.4-.8 2.3-.6 4.5-1.4 6.4-2.7 2-1.2 3.6-2.8 5-4.7 1.3-1.9 2-4.2 2-7 0-2.1-.5-3.9-1.4-5.4-.9-1.5-2.2-2.8-3.7-3.9-1.5-1-3.2-1.9-5-2.6-1.8-.7-3.6-1.2-5.3-1.6l-16.7-4.1c-2.2-.6-4.3-1.3-6.3-2.1-2.1-.8-3.9-2-5.4-3.4-1.5-1.4-2.8-3.1-3.7-5.1-.9-2-1.4-4.5-1.4-7.4 0-1.8.3-3.9 1-6.4.7-2.4 2-4.8 3.9-6.9 1.9-2.2 4.6-4 7.9-5.5 3.4-1.5 7.7-2.3 12.9-2.3 3.7 0 7.2.5 10.6 1.5 3.4 1 6.3 2.4 8.8 4.4s4.5 4.4 6 7.3c1.5 2.9 2.3 6.3 2.3 10.1h-7.1c-.1-2.9-.8-5.4-1.9-7.5-1.2-2.1-2.7-3.9-4.5-5.3-1.9-1.4-4-2.5-6.4-3.2-2.4-.7-4.9-1.1-7.6-1.1-2.4 0-4.8.3-7.1.8s-4.3 1.4-6 2.5c-1.7 1.2-3.1 2.7-4.1 4.6-1 1.9-1.6 4.2-1.6 7 0 1.7.3 3.3.9 4.6.6 1.3 1.4 2.4 2.5 3.3 1 .9 2.3 1.6 3.6 2.2 1.4.6 2.8 1 4.3 1.4l18.2 4.5c2.7.7 5.2 1.6 7.5 2.6s4.4 2.3 6.2 3.8c1.8 1.5 3.2 3.3 4.2 5.5s1.5 4.8 1.5 7.9c0 .8-.1 2-.3 3.4-.2 1.4-.6 2.9-1.3 4.5-.7 1.6-1.6 3.2-2.8 4.8-1.2 1.6-2.9 3.1-5 4.3-2.1 1.3-4.8 2.3-7.9 3.1-3.1.8-6.9 1.2-11.3 1.2s-8.5-.5-12.3-1.5c-3.8-1-7-2.6-9.6-4.7-2.7-2.1-4.7-4.8-6.1-8.1-1.4-3.3-2-7.2-1.8-11.8h7.1c-.1 3.5.5 6.7 1.8 9.3z" enable-background="new"/><g enable-background="new"><path d="M154.9 44.1c-2.4-2.3-5.9-3.5-10.3-3.5-3.1 0-5.9.7-8.3 2-2.4 1.3-4.3 3.1-5.9 5.2-1.6 2.2-2.8 4.6-3.6 7.4-.8 2.8-1.2 5.6-1.2 8.4 0 2.9.4 5.7 1.2 8.4.8 2.8 2 5.2 3.6 7.4s3.5 3.9 5.9 5.2c2.4 1.3 5.1 2 8.3 2 2 0 3.9-.4 5.8-1.2 1.8-.8 3.4-1.8 4.8-3.2 1.4-1.4 2.5-3 3.5-4.9.9-1.9 1.5-3.9 1.7-6.2h6.6c-.9 6.6-3.3 11.7-7.2 15.4-3.9 3.7-8.9 5.5-15.1 5.5-4.1 0-7.8-.8-11-2.3-3.2-1.5-5.9-3.5-8-6.1-2.2-2.6-3.8-5.6-4.9-9.1-1.1-3.5-1.7-7.1-1.7-11.1 0-3.9.6-7.6 1.7-11.1s2.8-6.5 4.9-9.1c2.2-2.6 4.8-4.6 8-6.2 3.2-1.5 6.8-2.3 11-2.3 5.8 0 10.7 1.5 14.7 4.6 4 3.1 6.4 7.7 7.2 13.9h-6.6c-1-3.7-2.7-6.8-5.1-9.1zM177.5 45c1.1-2.3 2.6-4.2 4.6-5.7 1.9-1.5 4.2-2.5 6.8-3.2 2.6-.7 5.4-1 8.6-1 2.4 0 4.8.2 7.1.7 2.4.5 4.5 1.3 6.4 2.6 1.9 1.3 3.4 3 4.6 5.3 1.2 2.3 1.8 5.2 1.8 8.9v28.7c0 2.7 1.3 4 3.9 4 .8 0 1.5-.1 2.1-.4v5.6c-.8.1-1.5.2-2 .3-.6.1-1.3.1-2.3.1-1.7 0-3-.2-4-.7-1-.5-1.8-1.1-2.4-1.9-.6-.8-.9-1.8-1.1-3-.2-1.2-.3-2.4-.3-3.8h-.2c-1.2 1.7-2.4 3.3-3.6 4.7-1.2 1.4-2.6 2.5-4.1 3.4-1.5.9-3.2 1.6-5.1 2.1-1.9.5-4.2.7-6.9.7-2.5 0-4.9-.3-7.1-.9-2.2-.6-4.1-1.5-5.8-2.8-1.6-1.3-2.9-2.9-3.9-4.9-.9-2-1.4-4.3-1.4-7.1 0-3.8.8-6.7 2.5-8.9 1.7-2.1 3.9-3.8 6.7-4.9 2.8-1.1 5.9-1.9 9.3-2.4 3.5-.5 7-.9 10.5-1.3 1.4-.1 2.6-.3 3.7-.5 1-.2 1.9-.6 2.6-1.1.7-.5 1.2-1.2 1.6-2.1.4-.9.6-2.1.6-3.6 0-2.2-.4-4.1-1.1-5.5-.7-1.4-1.7-2.6-3-3.4-1.3-.8-2.8-1.4-4.5-1.7-1.7-.3-3.5-.5-5.5-.5-4.2 0-7.6 1-10.3 3-2.7 2-4.1 5.2-4.2 9.6h-6.6c.3-3.4.9-6.1 2-8.4zm33 16.1c-.4.8-1.2 1.3-2.4 1.7-1.2.4-2.2.6-3.1.7-2.8.5-5.7.9-8.6 1.3-3 .4-5.7 1-8.1 1.7-2.4.8-4.5 1.9-6 3.3-1.6 1.4-2.4 3.5-2.4 6.1 0 1.7.3 3.2 1 4.5.7 1.3 1.6 2.4 2.7 3.4 1.1.9 2.4 1.7 3.9 2.1 1.5.5 3 .7 4.5.7 2.5 0 4.9-.4 7.2-1.2 2.3-.8 4.3-1.9 6-3.4 1.7-1.5 3.1-3.2 4.1-5.3 1-2.1 1.5-4.5 1.5-7.1v-8.6h-.3z"/></g><path d="M233.1 15.9v74.8h-6.6v-74.8h6.6zM243 45c1.1-2.3 2.6-4.2 4.6-5.7 1.9-1.5 4.2-2.5 6.8-3.2 2.6-.7 5.4-1 8.6-1 2.4 0 4.8.2 7.1.7 2.4.5 4.5 1.3 6.4 2.6 1.9 1.3 3.4 3 4.6 5.3 1.2 2.3 1.8 5.2 1.8 8.9v28.7c0 2.7 1.3 4 3.9 4 .8 0 1.5-.1 2.1-.4v5.6c-.8.1-1.5.2-2 .3-.6.1-1.3.1-2.3.1-1.7 0-3-.2-4-.7-1-.5-1.8-1.1-2.4-1.9-.6-.8-.9-1.8-1.1-3-.2-1.2-.3-2.4-.3-3.8h-.2c-1.2 1.7-2.4 3.3-3.6 4.7-1.2 1.4-2.6 2.5-4.1 3.4-1.5.9-3.2 1.6-5.1 2.1-1.9.5-4.2.7-6.9.7-2.5 0-4.9-.3-7.1-.9-2.2-.6-4.1-1.5-5.8-2.8-1.6-1.3-2.9-2.9-3.9-4.9-.9-2-1.4-4.3-1.4-7.1 0-3.8.8-6.7 2.5-8.9 1.7-2.1 3.9-3.8 6.7-4.9 2.8-1.1 5.9-1.9 9.3-2.4 3.5-.5 7-.9 10.5-1.3 1.4-.1 2.6-.3 3.7-.5 1-.2 1.9-.6 2.6-1.1.7-.5 1.2-1.2 1.6-2.1.4-.9.6-2.1.6-3.6 0-2.2-.4-4.1-1.1-5.5-.7-1.4-1.7-2.6-3-3.4-1.3-.8-2.8-1.4-4.5-1.7-1.7-.3-3.5-.5-5.5-.5-4.2 0-7.6 1-10.3 3-2.7 2-4.1 5.2-4.2 9.6h-6.6c.2-3.4.9-6.1 2-8.4zm33 16.1c-.4.8-1.2 1.3-2.4 1.7-1.2.4-2.2.6-3.1.7-2.8.5-5.7.9-8.6 1.3-3 .4-5.7 1-8.1 1.7-2.4.8-4.5 1.9-6 3.3-1.6 1.4-2.4 3.5-2.4 6.1 0 1.7.3 3.2 1 4.5.7 1.3 1.6 2.4 2.7 3.4 1.1.9 2.4 1.7 3.9 2.1 1.5.5 3 .7 4.5.7 2.5 0 4.9-.4 7.2-1.2 2.3-.8 4.3-1.9 6-3.4 1.7-1.5 3.1-3.2 4.1-5.3 1-2.1 1.5-4.5 1.5-7.1v-8.6h-.3zM341 15.9c4.8 0 9.3.8 13.5 2.3 4.2 1.5 7.8 3.8 10.8 6.9 3 3.1 5.4 6.9 7.1 11.5 1.7 4.6 2.6 10 2.6 16.2 0 5.4-.7 10.5-2.1 15.1-1.4 4.6-3.5 8.6-6.3 11.9-2.8 3.4-6.4 6-10.6 7.9-4.2 1.9-9.2 2.9-14.9 2.9h-32.3v-74.7h32.2zm-1.2 61c2.4 0 4.7-.4 6.9-1.2 2.2-.8 4.2-2 6-3.8 1.7-1.8 3.1-4.1 4.2-7 1-2.9 1.6-6.4 1.6-10.5 0-3.8-.4-7.2-1.1-10.2s-1.9-5.6-3.6-7.8c-1.7-2.2-3.9-3.8-6.7-5-2.8-1.2-6.2-1.7-10.2-1.7h-11.7v47.2h14.6z" enable-background="new"/><g enable-background="new"><path d="M382.6 44.5c1.5-2.3 3.5-4.2 5.9-5.6 2.4-1.4 5-2.4 8-3 3-.6 6-.9 9-.9 2.7 0 5.5.2 8.3.6 2.8.4 5.3 1.1 7.7 2.3 2.3 1.1 4.2 2.7 5.7 4.7s2.2 4.6 2.2 7.9v28.2c0 2.4.1 4.8.4 7 .3 2.2.8 3.9 1.5 5h-15.3c-.3-.8-.5-1.7-.7-2.6-.2-.9-.3-1.8-.4-2.7-2.4 2.4-5.2 4.2-8.4 5.1-3.2 1-6.5 1.5-9.9 1.5-2.6 0-5-.3-7.2-.9-2.2-.6-4.2-1.6-5.9-2.9-1.7-1.3-3-3-3.9-5-.9-2-1.4-4.4-1.4-7.2 0-3.1.5-5.6 1.6-7.6s2.5-3.6 4.2-4.8c1.7-1.2 3.7-2.1 5.9-2.7 2.2-.6 4.4-1.1 6.7-1.4 2.2-.3 4.4-.6 6.6-.8 2.2-.2 4.1-.5 5.8-.9s3-1 4-1.8 1.4-2 1.4-3.5c0-1.6-.3-2.9-.8-3.8-.5-.9-1.2-1.7-2.1-2.2-.9-.5-1.9-.9-3-1-1.2-.2-2.4-.3-3.7-.3-2.9 0-5.2.6-6.9 1.9-1.7 1.3-2.7 3.4-2.9 6.3h-15c.2-3.7 1-6.6 2.6-8.9zm29.4 21c-.9.3-2 .6-3 .8-1.1.2-2.2.4-3.4.5-1.2.1-2.4.3-3.6.5-1.1.2-2.2.5-3.3.8-1.1.4-2 .8-2.8 1.4-.8.6-1.5 1.3-1.9 2.3-.5.9-.7 2.1-.7 3.5 0 1.3.2 2.4.7 3.4.5.9 1.2 1.6 2 2.1s1.8.9 2.9 1.1c1.1.2 2.3.3 3.5.3 2.9 0 5.2-.5 6.8-1.5 1.6-1 2.8-2.1 3.6-3.5.8-1.4 1.2-2.7 1.4-4.1.2-1.4.3-2.5.3-3.4v-5.6c-.8.6-1.6 1.1-2.5 1.4zM460.8 106.8c-2.9 1.9-6.8 2.8-11.9 2.8-1.5 0-3.1-.1-4.6-.2-1.5-.1-3-.2-4.6-.4v-12.1c1.4.1 2.8.3 4.3.4 1.5.1 2.9.2 4.4.1 2-.2 3.4-1 4.3-2.3.9-1.3 1.4-2.8 1.4-4.4 0-1.2-.2-2.3-.6-3.4l-19-50.8h15.8l12.3 37.1h.2l11.8-37.1h15.4l-22.6 60.9c-1.5 4.4-3.8 7.6-6.6 9.4z"/></g><path d="M503.5 77.2c.7 1.2 1.5 2.1 2.6 2.8 1 .7 2.3 1.3 3.6 1.6 1.4.4 2.8.5 4.2.5 1 0 2.1-.1 3.3-.4 1.2-.2 2.2-.6 3.1-1.2.9-.5 1.7-1.2 2.4-2.1.6-.9.9-2 .9-3.3 0-2.2-1.5-3.9-4.5-5s-7.1-2.2-12.4-3.4c-2.2-.5-4.3-1.1-6.3-1.7-2.1-.7-3.9-1.5-5.5-2.6s-2.9-2.4-3.9-4.1c-1-1.6-1.5-3.7-1.5-6 0-3.5.7-6.4 2-8.6 1.4-2.2 3.2-4 5.4-5.3 2.2-1.3 4.8-2.2 7.5-2.7 2.8-.5 5.7-.8 8.6-.8 2.9 0 5.8.3 8.5.8 2.8.6 5.2 1.5 7.4 2.8 2.2 1.3 4 3.1 5.4 5.3 1.4 2.2 2.3 5 2.6 8.3h-14.1c-.2-2.9-1.3-4.8-3.2-5.8-2-1-4.3-1.5-6.9-1.5-.8 0-1.7.1-2.7.2-1 .1-1.9.3-2.7.7-.8.3-1.5.9-2 1.5-.6.7-.8 1.6-.8 2.7 0 1.3.5 2.4 1.5 3.2 1 .8 2.3 1.5 3.8 2 1.6.5 3.4 1 5.4 1.4 2 .4 4.1.9 6.2 1.4 2.2.5 4.3 1.1 6.3 1.8 2.1.7 3.9 1.6 5.5 2.8 1.6 1.2 2.9 2.6 3.9 4.3 1 1.7 1.5 3.8 1.5 6.3 0 3.6-.7 6.5-2.1 9-1.4 2.4-3.3 4.3-5.6 5.8s-4.9 2.5-7.9 3.1c-3 .6-6 .9-9.1.9-3.1 0-6.2-.3-9.2-.9-3-.6-5.7-1.7-8-3.1-2.3-1.5-4.3-3.4-5.8-5.8s-2.3-5.4-2.5-9.1h14.1c0 1.7.3 3.1 1 4.2z" enable-background="new"/></g><path fill="#fff" d="M66.4 74.6c1.3 2.6 3 4.6 5.2 6.2 2.2 1.5 4.8 2.6 7.8 3.3 3 .7 6.2 1 9.6 1 2 0 4.1-.3 6.4-.8 2.3-.6 4.5-1.4 6.4-2.7 2-1.2 3.6-2.8 5-4.7 1.3-1.9 2-4.2 2-7 0-2.1-.5-3.9-1.4-5.4-.9-1.5-2.2-2.8-3.7-3.9-1.5-1-3.2-1.9-5-2.6-1.8-.7-3.6-1.2-5.3-1.6l-16.7-4.1c-2.2-.6-4.3-1.3-6.3-2.1-2.1-.8-3.9-2-5.4-3.4-1.5-1.4-2.8-3.1-3.7-5.1-.9-2-1.4-4.5-1.4-7.4 0-1.8.3-3.9 1-6.4.7-2.4 2-4.8 3.9-6.9 1.9-2.2 4.6-4 7.9-5.5 3.4-1.5 7.7-2.3 12.9-2.3 3.7 0 7.2.5 10.6 1.5 3.4 1 6.3 2.4 8.8 4.4s4.5 4.4 6 7.3c1.5 2.9 2.3 6.3 2.3 10.1h-7.1c-.1-2.9-.8-5.4-1.9-7.5-1.2-2.1-2.7-3.9-4.5-5.3-1.9-1.4-4-2.5-6.4-3.2-2.4-.7-4.9-1.1-7.6-1.1-2.4 0-4.8.3-7.1.8s-4.3 1.4-6 2.5c-1.7 1.2-3.1 2.7-4.1 4.6-1 1.9-1.6 4.2-1.6 7 0 1.7.3 3.3.9 4.6.6 1.3 1.4 2.4 2.5 3.3 1 .9 2.3 1.6 3.6 2.2 1.4.6 2.8 1 4.3 1.4l18.2 4.5c2.7.7 5.2 1.6 7.5 2.6s4.4 2.3 6.2 3.8c1.8 1.5 3.2 3.3 4.2 5.5s1.5 4.8 1.5 7.9c0 .8-.1 2-.3 3.4-.2 1.4-.6 2.9-1.3 4.5-.7 1.6-1.6 3.2-2.8 4.8-1.2 1.6-2.9 3.1-5 4.3-2.1 1.3-4.8 2.3-7.9 3.1-3.1.8-6.9 1.2-11.3 1.2s-8.5-.5-12.3-1.5c-3.8-1-7-2.6-9.6-4.7-2.7-2.1-4.7-4.8-6.1-8.1-1.4-3.3-2-7.2-1.8-11.8h7.1c-.1 3.5.5 6.7 1.8 9.3z" enable-background="new"/><g enable-background="new" fill="#fff"><path d="M154.9 43c-2.4-2.3-5.9-3.5-10.3-3.5-3.1 0-5.9.7-8.3 2-2.4 1.3-4.3 3.1-5.9 5.2-1.6 2.2-2.8 4.6-3.6 7.4-.8 2.8-1.2 5.6-1.2 8.4 0 2.9.4 5.7 1.2 8.4.8 2.8 2 5.2 3.6 7.4s3.5 3.9 5.9 5.2c2.4 1.3 5.1 2 8.3 2 2 0 3.9-.4 5.8-1.2 1.8-.8 3.4-1.8 4.8-3.2 1.4-1.4 2.5-3 3.5-4.9.9-1.9 1.5-3.9 1.7-6.2h6.6c-.9 6.6-3.3 11.7-7.2 15.4-3.9 3.7-8.9 5.5-15.1 5.5-4.1 0-7.8-.8-11-2.3-3.2-1.5-5.9-3.5-8-6.1-2.2-2.6-3.8-5.6-4.9-9.1-1.1-3.5-1.7-7.1-1.7-11.1 0-3.9.6-7.6 1.7-11.1s2.8-6.5 4.9-9.1c2.2-2.6 4.8-4.6 8-6.2 3.2-1.5 6.8-2.3 11-2.3 5.8 0 10.7 1.5 14.7 4.6 4 3.1 6.4 7.7 7.2 13.9h-6.6c-1-3.6-2.7-6.8-5.1-9.1zM177.5 43.9c1.1-2.3 2.6-4.2 4.6-5.7 1.9-1.5 4.2-2.5 6.8-3.2 2.6-.7 5.4-1 8.6-1 2.4 0 4.8.2 7.1.7 2.4.5 4.5 1.3 6.4 2.6 1.9 1.3 3.4 3 4.6 5.3 1.2 2.3 1.8 5.2 1.8 8.9v28.7c0 2.7 1.3 4 3.9 4 .8 0 1.5-.1 2.1-.4v5.6c-.8.1-1.5.2-2 .3-.6.1-1.3.1-2.3.1-1.7 0-3-.2-4-.7-1-.5-1.8-1.1-2.4-1.9-.6-.8-.9-1.8-1.1-3-.2-1.2-.3-2.4-.3-3.8h-.2c-1.2 1.7-2.4 3.3-3.6 4.7-1.2 1.4-2.6 2.5-4.1 3.4-1.5.9-3.2 1.6-5.1 2.1-1.9.5-4.2.7-6.9.7-2.5 0-4.9-.3-7.1-.9-2.2-.6-4.1-1.5-5.8-2.8-1.6-1.3-2.9-2.9-3.9-4.9-.9-2-1.4-4.3-1.4-7.1 0-3.8.8-6.7 2.5-8.9 1.7-2.1 3.9-3.8 6.7-4.9 2.8-1.1 5.9-1.9 9.3-2.4 3.5-.5 7-.9 10.5-1.3 1.4-.1 2.6-.3 3.7-.5 1-.2 1.9-.6 2.6-1.1.7-.5 1.2-1.2 1.6-2.1.4-.9.6-2.1.6-3.6 0-2.2-.4-4.1-1.1-5.5-.7-1.4-1.7-2.6-3-3.4-1.3-.8-2.8-1.4-4.5-1.7-1.7-.3-3.5-.5-5.5-.5-4.2 0-7.6 1-10.3 3-2.7 2-4.1 5.2-4.2 9.6h-6.6c.3-3.4.9-6.1 2-8.4zm33 16.2c-.4.8-1.2 1.3-2.4 1.7-1.2.4-2.2.6-3.1.7-2.8.5-5.7.9-8.6 1.3-3 .4-5.7 1-8.1 1.7-2.4.8-4.5 1.9-6 3.3-1.6 1.4-2.4 3.5-2.4 6.1 0 1.7.3 3.2 1 4.5.7 1.3 1.6 2.4 2.7 3.4 1.1.9 2.4 1.7 3.9 2.1 1.5.5 3 .7 4.5.7 2.5 0 4.9-.4 7.2-1.2 2.3-.8 4.3-1.9 6-3.4 1.7-1.5 3.1-3.2 4.1-5.3 1-2.1 1.5-4.5 1.5-7.1v-8.6h-.3z"/></g><path fill="#fff" d="M233.1 14.8v74.8h-6.6v-74.8h6.6zM243 43.9c1.1-2.3 2.6-4.2 4.6-5.7 1.9-1.5 4.2-2.5 6.8-3.2 2.6-.7 5.4-1 8.6-1 2.4 0 4.8.2 7.1.7 2.4.5 4.5 1.3 6.4 2.6 1.9 1.3 3.4 3 4.6 5.3 1.2 2.3 1.8 5.2 1.8 8.9v28.7c0 2.7 1.3 4 3.9 4 .8 0 1.5-.1 2.1-.4v5.6c-.8.1-1.5.2-2 .3-.6.1-1.3.1-2.3.1-1.7 0-3-.2-4-.7-1-.5-1.8-1.1-2.4-1.9-.6-.8-.9-1.8-1.1-3-.2-1.2-.3-2.4-.3-3.8h-.2c-1.2 1.7-2.4 3.3-3.6 4.7-1.2 1.4-2.6 2.5-4.1 3.4-1.5.9-3.2 1.6-5.1 2.1-1.9.5-4.2.7-6.9.7-2.5 0-4.9-.3-7.1-.9-2.2-.6-4.1-1.5-5.8-2.8-1.6-1.3-2.9-2.9-3.9-4.9-.9-2-1.4-4.3-1.4-7.1 0-3.8.8-6.7 2.5-8.9 1.7-2.1 3.9-3.8 6.7-4.9 2.8-1.1 5.9-1.9 9.3-2.4 3.5-.5 7-.9 10.5-1.3 1.4-.1 2.6-.3 3.7-.5 1-.2 1.9-.6 2.6-1.1.7-.5 1.2-1.2 1.6-2.1.4-.9.6-2.1.6-3.6 0-2.2-.4-4.1-1.1-5.5-.7-1.4-1.7-2.6-3-3.4-1.3-.8-2.8-1.4-4.5-1.7-1.7-.3-3.5-.5-5.5-.5-4.2 0-7.6 1-10.3 3-2.7 2-4.1 5.2-4.2 9.6h-6.6c.2-3.4.9-6.1 2-8.4zm33 16.2c-.4.8-1.2 1.3-2.4 1.7-1.2.4-2.2.6-3.1.7-2.8.5-5.7.9-8.6 1.3-3 .4-5.7 1-8.1 1.7-2.4.8-4.5 1.9-6 3.3-1.6 1.4-2.4 3.5-2.4 6.1 0 1.7.3 3.2 1 4.5.7 1.3 1.6 2.4 2.7 3.4 1.1.9 2.4 1.7 3.9 2.1 1.5.5 3 .7 4.5.7 2.5 0 4.9-.4 7.2-1.2 2.3-.8 4.3-1.9 6-3.4 1.7-1.5 3.1-3.2 4.1-5.3 1-2.1 1.5-4.5 1.5-7.1v-8.6h-.3z" enable-background="new"/><path fill="#E25758" d="M341 14.8c4.8 0 9.3.8 13.5 2.3 4.2 1.5 7.8 3.8 10.8 6.9 3 3.1 5.4 6.9 7.1 11.5 1.7 4.6 2.6 10 2.6 16.2 0 5.4-.7 10.5-2.1 15.1-1.4 4.6-3.5 8.6-6.3 11.9-2.8 3.4-6.4 6-10.6 7.9-4.2 1.9-9.2 2.9-14.9 2.9h-32.3v-74.7h32.2zm-1.2 61c2.4 0 4.7-.4 6.9-1.2 2.2-.8 4.2-2 6-3.8 1.7-1.8 3.1-4.1 4.2-7 1-2.9 1.6-6.4 1.6-10.5 0-3.8-.4-7.2-1.1-10.2s-1.9-5.6-3.6-7.8c-1.7-2.2-3.9-3.8-6.7-5-2.8-1.2-6.2-1.7-10.2-1.7h-11.7v47.2h14.6z" enable-background="new"/><g enable-background="new" fill="#E25758"><path d="M382.6 43.4c1.5-2.3 3.5-4.2 5.9-5.6 2.4-1.4 5-2.4 8-3 3-.6 6-.9 9-.9 2.7 0 5.5.2 8.3.6 2.8.4 5.3 1.1 7.7 2.3 2.3 1.1 4.2 2.7 5.7 4.7s2.2 4.6 2.2 7.9v28.2c0 2.4.1 4.8.4 7 .3 2.2.8 3.9 1.5 5h-15.3c-.3-.8-.5-1.7-.7-2.6-.2-.9-.3-1.8-.4-2.7-2.4 2.4-5.2 4.2-8.4 5.1-3.2 1-6.5 1.5-9.9 1.5-2.6 0-5-.3-7.2-.9-2.2-.6-4.2-1.6-5.9-2.9-1.7-1.3-3-3-3.9-5-.9-2-1.4-4.4-1.4-7.2 0-3.1.5-5.6 1.6-7.6s2.5-3.6 4.2-4.8c1.7-1.2 3.7-2.1 5.9-2.7 2.2-.6 4.4-1.1 6.7-1.4 2.2-.3 4.4-.6 6.6-.8 2.2-.2 4.1-.5 5.8-.9s3-1 4-1.8 1.4-2 1.4-3.5c0-1.6-.3-2.9-.8-3.8-.5-.9-1.2-1.7-2.1-2.2-.9-.5-1.9-.9-3-1-1.2-.2-2.4-.3-3.7-.3-2.9 0-5.2.6-6.9 1.9-1.7 1.3-2.7 3.4-2.9 6.3h-15c.2-3.7 1-6.6 2.6-8.9zm29.4 21c-.9.3-2 .6-3 .8-1.1.2-2.2.4-3.4.5-1.2.1-2.4.3-3.6.5-1.1.2-2.2.5-3.3.8-1.1.4-2 .8-2.8 1.4-.8.6-1.5 1.3-1.9 2.3-.5.9-.7 2.1-.7 3.5 0 1.3.2 2.4.7 3.4.5.9 1.2 1.6 2 2.1s1.8.9 2.9 1.1c1.1.2 2.3.3 3.5.3 2.9 0 5.2-.5 6.8-1.5 1.6-1 2.8-2.1 3.6-3.5.8-1.4 1.2-2.7 1.4-4.1.2-1.4.3-2.5.3-3.4v-5.6c-.8.7-1.6 1.1-2.5 1.4zM460.8 105.7c-2.9 1.9-6.8 2.8-11.9 2.8-1.5 0-3.1-.1-4.6-.2-1.5-.1-3-.2-4.6-.4v-12.1c1.4.1 2.8.3 4.3.4 1.5.1 2.9.2 4.4.1 2-.2 3.4-1 4.3-2.3.9-1.3 1.4-2.8 1.4-4.4 0-1.2-.2-2.3-.6-3.4l-19-50.8h15.8l12.3 37.1h.2l11.8-37.1h15.4l-22.6 60.9c-1.5 4.4-3.8 7.6-6.6 9.4z"/></g><path fill="#E25758" d="M503.5 76.1c.7 1.2 1.5 2.1 2.6 2.8 1 .7 2.3 1.3 3.6 1.6 1.4.4 2.8.5 4.2.5 1 0 2.1-.1 3.3-.4 1.2-.2 2.2-.6 3.1-1.2.9-.5 1.7-1.2 2.4-2.1.6-.9.9-2 .9-3.3 0-2.2-1.5-3.9-4.5-5s-7.1-2.2-12.4-3.4c-2.2-.5-4.3-1.1-6.3-1.7-2.1-.7-3.9-1.5-5.5-2.6s-2.9-2.4-3.9-4.1c-1-1.6-1.5-3.7-1.5-6 0-3.5.7-6.4 2-8.6 1.4-2.2 3.2-4 5.4-5.3 2.2-1.3 4.8-2.2 7.5-2.7 2.8-.5 5.7-.8 8.6-.8 2.9 0 5.8.3 8.5.8 2.8.6 5.2 1.5 7.4 2.8 2.2 1.3 4 3.1 5.4 5.3 1.4 2.2 2.3 5 2.6 8.3h-14.1c-.2-2.9-1.3-4.8-3.2-5.8-2-1-4.3-1.5-6.9-1.5-.8 0-1.7.1-2.7.2-1 .1-1.9.3-2.7.7-.8.3-1.5.9-2 1.5-.6.7-.8 1.6-.8 2.7 0 1.3.5 2.4 1.5 3.2 1 .8 2.3 1.5 3.8 2 1.6.5 3.4 1 5.4 1.4 2 .4 4.1.9 6.2 1.4 2.2.5 4.3 1.1 6.3 1.8 2.1.7 3.9 1.6 5.5 2.8 1.6 1.2 2.9 2.6 3.9 4.3 1 1.7 1.5 3.8 1.5 6.3 0 3.6-.7 6.5-2.1 9-1.4 2.4-3.3 4.3-5.6 5.8s-4.9 2.5-7.9 3.1c-3 .6-6 .9-9.1.9-3.1 0-6.2-.3-9.2-.9-3-.6-5.7-1.7-8-3.1-2.3-1.5-4.3-3.4-5.8-5.8s-2.3-5.4-2.5-9.1h14.1c0 1.7.3 3.1 1 4.2z" enable-background="new"/><path fill="#fff" d="M166.1 151.3v-14.9h-5.8v-3.5c.8 0 1.6 0 2.3-.2.8-.1 1.4-.4 2-.8s1.1-.8 1.5-1.4c.4-.6.7-1.3.8-2.2h3.7v22.9h-4.5zM244.2 151.3v-14.9h-5.8v-3.5c.8 0 1.6 0 2.3-.2.8-.1 1.4-.4 2-.8s1.1-.8 1.5-1.4c.4-.6.7-1.3.8-2.2h3.7v22.9h-4.5z" enable-background="new"/><g enable-background="new" fill="#fff"><path d="M62.6 127.9l5.4 16.1h.1l5.2-16.1h7.2v23.4h-4.8v-16.6h-.1l-5.7 16.6h-4l-5.7-16.4h-.1v16.4h-4.8v-23.4h7.3zM85.2 136.8c.5-.7 1.1-1.3 1.8-1.7.7-.4 1.6-.7 2.5-.9.9-.2 1.9-.3 2.8-.3.9 0 1.7.1 2.6.2.9.1 1.7.4 2.4.7.7.3 1.3.8 1.8 1.5.5.6.7 1.4.7 2.5v8.8c0 .8 0 1.5.1 2.2.1.7.2 1.2.5 1.6h-4.7c-.1-.3-.2-.5-.2-.8-.1-.3-.1-.6-.1-.8-.7.8-1.6 1.3-2.6 1.6-1 .3-2 .5-3.1.5-.8 0-1.6-.1-2.3-.3-.7-.2-1.3-.5-1.8-.9s-.9-.9-1.2-1.6c-.3-.6-.4-1.4-.4-2.3 0-1 .2-1.8.5-2.4.3-.6.8-1.1 1.3-1.5.5-.4 1.1-.6 1.8-.8.7-.2 1.4-.3 2.1-.4l2.1-.3s1.3-.2 1.8-.3.9-.3 1.2-.6c.3-.2.4-.6.4-1.1 0-.5-.1-.9-.2-1.2-.2-.3-.4-.5-.7-.7-.3-.2-.6-.3-.9-.3-.4-.1-.7-.1-1.2-.1-.9 0-1.6.2-2.2.6-.5.4-.8 1-.9 2h-4.7c0-1.2.3-2.1.8-2.9zm9.2 6.6c-.3.1-.6.2-.9.2-.3.1-.7.1-1.1.2-.4 0-.7.1-1.1.2l-1 .3-.9.4c-.3.2-.5.4-.6.7-.2.3-.2.6-.2 1.1 0 .4.1.8.2 1 .2.3.4.5.6.7.3.2.6.3.9.3.3.1.7.1 1.1.1.9 0 1.6-.2 2.1-.5s.9-.7 1.1-1.1c.2-.4.4-.9.4-1.3.1-.4.1-.8.1-1v-1.7c-.2.2-.5.3-.7.4zM107.8 134.3v3.1h.1c.2-.5.5-1 .9-1.5.4-.4.8-.8 1.3-1.1.5-.3 1-.6 1.5-.7.5-.2 1.1-.3 1.7-.3.3 0 .6.1 1 .2v4.3c-.2 0-.5-.1-.8-.1h-.9c-.9 0-1.6.1-2.2.4-.6.3-1.1.7-1.4 1.2-.4.5-.6 1.1-.8 1.7-.2.7-.2 1.4-.2 2.1v7.6h-4.7v-16.9h4.5zM123.6 137.4c-.7 0-1.4.2-1.9.5s-.9.8-1.2 1.3c-.3.5-.5 1.1-.7 1.8-.1.6-.2 1.3-.2 1.9 0 .6.1 1.2.2 1.9.1.6.3 1.2.6 1.7s.7.9 1.2 1.3c.5.3 1.1.5 1.8.5 1.1 0 2-.3 2.6-.9.6-.6 1-1.5 1.1-2.5h4.5c-.3 2.2-1.2 4-2.6 5.1s-3.3 1.8-5.5 1.8c-1.3 0-2.4-.2-3.5-.6s-2-1-2.7-1.8c-.7-.8-1.3-1.7-1.7-2.7-.4-1.1-.6-2.2-.6-3.5 0-1.3.2-2.5.6-3.7.4-1.1.9-2.1 1.7-2.9.7-.8 1.6-1.5 2.7-1.9 1.1-.5 2.3-.7 3.7-.7 1 0 2 .1 2.9.4.9.3 1.8.7 2.5 1.2s1.3 1.2 1.8 2 .7 1.7.8 2.8h-4.7c-.3-2-1.4-3-3.4-3zM138.9 127.9v8.8h.1c.6-1 1.3-1.7 2.3-2.1.9-.4 1.8-.7 2.7-.7 1.2 0 2.3.2 3.1.5.8.3 1.4.8 1.9 1.4.5.6.8 1.3 1 2.2.2.9.3 1.8.3 2.9v10.4h-4.7v-9.6c0-1.4-.2-2.4-.7-3.1-.4-.7-1.2-1-2.3-1-1.3 0-2.2.4-2.8 1.1-.6.8-.9 2-.9 3.7v8.9h-4.7v-23.4h4.7z"/></g><g enable-background="new" fill="#fff"><path d="M185.2 132.2c-.5-.6-1.2-.9-2-.9s-1.5.2-2.1.7-1 1.1-1.3 1.8c-.3.7-.6 1.5-.7 2.3-.2.8-.2 1.5-.3 2.2l.1.1c.6-.9 1.4-1.6 2.2-2 .9-.4 1.8-.6 2.9-.6 1 0 1.9.2 2.9.6.9.4 1.7 1 2.4 1.7.6.7 1.1 1.5 1.3 2.4s.4 1.8.4 2.7c0 1.2-.2 2.3-.6 3.3-.4 1-.9 1.9-1.6 2.7-.7.8-1.6 1.3-2.5 1.8s-2.1.6-3.3.6c-1.7 0-3.2-.3-4.3-1-1.1-.7-2-1.6-2.7-2.7s-1.1-2.4-1.4-3.8c-.3-1.4-.4-2.8-.4-4.3 0-1.4.2-2.8.5-4.3.3-1.4.9-2.7 1.6-3.8.7-1.1 1.6-2.1 2.8-2.8 1.1-.7 2.5-1.1 4.2-1.1 1 0 1.9.1 2.8.4.9.3 1.6.7 2.3 1.2.7.5 1.2 1.2 1.6 2s.7 1.7.8 2.7h-4.4c-.3-.6-.6-1.3-1.2-1.9zm-3.9 7.5c-.5.2-.9.5-1.2.9-.3.4-.5.8-.7 1.4-.2.5-.2 1.1-.2 1.6s.1 1 .2 1.6c.2.5.4 1 .7 1.4.3.4.7.7 1.2 1s1 .4 1.6.4c.6 0 1.1-.1 1.5-.4s.8-.6 1.1-1c.3-.4.5-.8.7-1.3.2-.5.2-1 .2-1.5s-.1-1.1-.2-1.6-.4-1-.6-1.4c-.3-.4-.6-.7-1.1-1-.4-.3-1-.4-1.6-.4-.6 0-1.1.1-1.6.3zM202.8 134.3v3.1h-3.4v8.4c0 .8.1 1.3.4 1.6.3.3.8.4 1.6.4h.8l.7-.1v3.6c-.4.1-.8.1-1.3.1h-1.4c-.7 0-1.4 0-2-.1-.6-.1-1.2-.3-1.7-.6s-.9-.7-1.2-1.2c-.3-.5-.4-1.2-.4-2.1v-10h-2.9v-3.1h2.8v-5.1h4.7v5.1h3.3zM209.7 127.9v8.8h.1c.6-1 1.3-1.7 2.3-2.1.9-.4 1.8-.7 2.7-.7 1.2 0 2.3.2 3.1.5.8.3 1.4.8 1.9 1.4.5.6.8 1.3 1 2.2.2.9.3 1.8.3 2.9v10.4h-4.7v-9.6c0-1.4-.2-2.4-.7-3.1-.4-.7-1.2-1-2.3-1-1.3 0-2.2.4-2.8 1.1-.6.8-.9 2-.9 3.7v8.9h-4.7v-23.4h4.7zM234.3 140.3v4h-9.9v-4h9.9z"/></g><g enable-background="new" fill="#fff"><path d="M254.4 131.4c.5-.8 1.1-1.4 1.8-2 .7-.5 1.6-.9 2.5-1.2s1.8-.4 2.8-.4c1.4 0 2.6.2 3.6.7 1 .4 1.8 1 2.4 1.6s1 1.3 1.3 2c.3.7.4 1.3.4 1.9 0 1.1-.3 2.1-.8 3s-1.4 1.5-2.5 1.8v.1c1.4.3 2.4 1 3.2 1.9.7 1 1.1 2.2 1.1 3.7 0 1.2-.2 2.3-.7 3.2-.5.9-1.1 1.6-1.9 2.2-.8.6-1.7 1-2.8 1.3-1 .3-2.1.4-3.1.4-1.1 0-2.2-.1-3.2-.4-1-.3-2-.7-2.8-1.3-.8-.6-1.5-1.3-2-2.2s-.7-2-.7-3.2c0-1.5.4-2.7 1.1-3.7s1.8-1.6 3.2-2v-.1c-1.1-.3-2-.9-2.5-1.7-.6-.9-.9-1.8-.9-3-.2-.9 0-1.8.5-2.6zm3.3 14.5c.2.5.5.9.9 1.2.4.3.8.6 1.3.8.5.2 1 .3 1.6.3.6 0 1.1-.1 1.6-.3.5-.2.9-.4 1.2-.8.4-.3.6-.7.8-1.2.2-.5.3-1 .3-1.6 0-.5-.1-1-.3-1.5-.2-.4-.5-.8-.9-1.2-.4-.3-.8-.6-1.2-.8-.5-.2-1-.3-1.5-.3-1.1 0-2.1.3-2.9.9-.8.6-1.2 1.5-1.2 2.7 0 .8.1 1.4.3 1.8zm1.2-9.1c.7.5 1.5.8 2.5.8s1.8-.3 2.5-.8 1-1.3 1-2.2c0-.3 0-.6-.1-1s-.3-.7-.5-1c-.3-.3-.6-.6-1-.8-.4-.2-1-.3-1.8-.3-.5 0-.9.1-1.3.2s-.8.3-1.1.6c-.3.3-.6.6-.8 1-.2.4-.3.9-.3 1.4-.1.9.2 1.6.9 2.1zM281.5 134.3v3.1h-3.4v8.4c0 .8.1 1.3.4 1.6.3.3.8.4 1.6.4h.8l.7-.1v3.6c-.4.1-.8.1-1.3.1h-1.4c-.7 0-1.4 0-2-.1-.6-.1-1.2-.3-1.7-.6s-.9-.7-1.2-1.2c-.3-.5-.4-1.2-.4-2.1v-10h-2.8v-3.1h2.8v-5.1h4.7v5.1h3.2zM288.4 127.9v8.8h.1c.6-1 1.3-1.7 2.3-2.1.9-.4 1.8-.7 2.7-.7 1.2 0 2.3.2 3.1.5.8.3 1.4.8 1.9 1.4.5.6.8 1.3 1 2.2.2.9.3 1.8.3 2.9v10.4h-4.8v-9.6c0-1.4-.2-2.4-.7-3.1-.4-.7-1.2-1-2.3-1-1.3 0-2.2.4-2.8 1.1-.6.8-.9 2-.9 3.7v8.9h-4.7v-23.4h4.8zM308.6 146.2v5c0 .7-.1 1.4-.4 2-.3.6-.6 1.2-1.1 1.6-.5.5-1 .8-1.6 1.1s-1.3.5-2 .6v-2.4c.3-.1.6-.2.9-.4.3-.2.6-.4.8-.7.2-.3.4-.6.5-.9s.2-.7.1-1h-2.4v-5h5.2z"/></g><g enable-background="new" fill="#E25758"><path d="M325.8 145.5c.3.5.7 1 1.1 1.3.5.3 1 .6 1.7.8.6.2 1.3.2 2 .2.5 0 .9 0 1.5-.1.5-.1 1-.2 1.5-.4s.8-.5 1.1-.9c.3-.4.5-.9.5-1.5s-.2-1.1-.6-1.5c-.4-.4-.9-.7-1.6-1-.7-.3-1.4-.5-2.2-.7-.8-.2-1.7-.4-2.5-.7-.9-.2-1.7-.5-2.6-.8-.8-.3-1.6-.7-2.2-1.2-.7-.5-1.2-1.1-1.6-1.9-.4-.8-.6-1.7-.6-2.7 0-1.2.3-2.2.8-3.1.5-.9 1.2-1.6 2-2.2.8-.6 1.8-1 2.8-1.3 1-.3 2.1-.4 3.1-.4 1.2 0 2.4.1 3.5.4 1.1.3 2.1.7 3 1.3s1.6 1.4 2.1 2.3c.5.9.8 2.1.8 3.5h-5c0-.7-.2-1.3-.4-1.7-.3-.5-.6-.8-1-1.1-.4-.3-.9-.4-1.4-.6-.5-.1-1.1-.2-1.8-.2-.4 0-.8 0-1.2.1-.4.1-.8.2-1.1.5-.3.2-.6.5-.8.8-.2.3-.3.7-.3 1.2s.1.8.3 1.1c.2.3.5.5 1 .8.5.2 1.2.5 2.1.7.9.2 2.1.5 3.6.9.4.1 1 .2 1.8.5.8.2 1.5.6 2.3 1.1.8.5 1.4 1.2 2 2 .6.8.8 1.9.8 3.2 0 1.1-.2 2.1-.6 3-.4.9-1 1.7-1.9 2.4-.8.7-1.8 1.2-3 1.6-1.2.4-2.6.6-4.2.6-1.3 0-2.5-.2-3.8-.5s-2.3-.8-3.2-1.5c-.9-.7-1.7-1.5-2.2-2.6-.5-1-.8-2.3-.8-3.7h5c-.2.8-.1 1.5.2 2zM343.3 136.8c.5-.7 1.1-1.3 1.8-1.7.7-.4 1.6-.7 2.5-.9.9-.2 1.9-.3 2.8-.3.9 0 1.7.1 2.6.2s1.7.4 2.4.7c.7.3 1.3.8 1.8 1.5.5.6.7 1.4.7 2.5v8.8c0 .8 0 1.5.1 2.2.1.7.2 1.2.5 1.6h-4.7c-.1-.3-.2-.5-.2-.8-.1-.3-.1-.6-.1-.8-.7.8-1.6 1.3-2.6 1.6-1 .3-2 .5-3.1.5-.8 0-1.6-.1-2.3-.3-.7-.2-1.3-.5-1.8-.9s-.9-.9-1.2-1.6c-.3-.6-.4-1.4-.4-2.3 0-1 .2-1.8.5-2.4.3-.6.8-1.1 1.3-1.5.5-.4 1.1-.6 1.8-.8.7-.2 1.4-.3 2.1-.4l2.1-.3c.7-.1 1.3-.2 1.8-.3.5-.1.9-.3 1.2-.6.3-.2.4-.6.4-1.1 0-.5-.1-.9-.2-1.2s-.4-.5-.7-.7c-.3-.2-.6-.3-.9-.3-.4-.1-.7-.1-1.2-.1-.9 0-1.6.2-2.2.6-.5.4-.8 1-.9 2h-4.7c0-1.2.3-2.1.8-2.9zm9.1 6.6c-.3.1-.6.2-1 .2s-.7.1-1.1.2-.7.1-1.1.2l-1 .3-.9.4s-.5.4-.6.7c-.2.3-.2.6-.2 1.1 0 .4.1.8.2 1 .2.3.4.5.6.7s.6.3.9.3c.3.1.7.1 1.1.1.9 0 1.6-.2 2.1-.5s.9-.7 1.1-1.1.4-.9.4-1.3c.1-.4.1-.8.1-1v-1.7c0 .2-.3.3-.6.4zM365.9 134.3v2.4h.1c.6-1 1.4-1.7 2.3-2.1.9-.4 1.9-.7 2.9-.7 1.2 0 2.3.2 3.1.5.8.3 1.4.8 1.9 1.4.5.6.8 1.3 1 2.2.2.9.3 1.8.3 2.9v10.4h-4.7v-9.6c0-1.4-.2-2.4-.7-3.1-.4-.7-1.2-1-2.3-1-1.3 0-2.2.4-2.8 1.1-.6.8-.9 2-.9 3.7v8.9h-4.7v-16.9h4.5zM406.9 127.9v4.3h-11.3v5.4h9.8v4h-9.8v9.7h-5.1v-23.4h16.4zM413.8 134.3v3.1h.1c.2-.5.5-1 .9-1.5.4-.4.8-.8 1.3-1.1.5-.3 1-.6 1.5-.7.5-.2 1.1-.3 1.7-.3.3 0 .6.1 1 .2v4.3c-.2 0-.5-.1-.8-.1h-.9c-.9 0-1.6.1-2.2.4-.6.3-1.1.7-1.4 1.2s-.6 1.1-.8 1.7c-.2.7-.2 1.4-.2 2.1v7.6h-4.7v-16.9h4.5zM422.7 136.8c.5-.7 1.1-1.3 1.8-1.7.7-.4 1.6-.7 2.5-.9.9-.2 1.9-.3 2.8-.3.9 0 1.7.1 2.6.2s1.7.4 2.4.7c.7.3 1.3.8 1.8 1.5.5.6.7 1.4.7 2.5v8.8c0 .8 0 1.5.1 2.2.1.7.2 1.2.5 1.6h-4.7c-.1-.3-.2-.5-.2-.8-.1-.3-.1-.6-.1-.8-.7.8-1.6 1.3-2.6 1.6-1 .3-2 .5-3.1.5-.8 0-1.6-.1-2.3-.3-.7-.2-1.3-.5-1.8-.9s-.9-.9-1.2-1.6c-.3-.6-.4-1.4-.4-2.3 0-1 .2-1.8.5-2.4.3-.6.8-1.1 1.3-1.5.5-.4 1.1-.6 1.8-.8.7-.2 1.4-.3 2.1-.4l2.1-.3c.7-.1 1.3-.2 1.8-.3.5-.1.9-.3 1.2-.6.3-.2.4-.6.4-1.1 0-.5-.1-.9-.2-1.2s-.4-.5-.7-.7c-.3-.2-.6-.3-.9-.3-.4-.1-.7-.1-1.2-.1-.9 0-1.6.2-2.2.6-.5.4-.8 1-.9 2h-4.7c.1-1.2.4-2.1.8-2.9zm9.2 6.6c-.3.1-.6.2-1 .2s-.7.1-1.1.2-.7.1-1.1.2l-1 .3-.9.4s-.5.4-.6.7c-.2.3-.2.6-.2 1.1 0 .4.1.8.2 1 .2.3.4.5.6.7s.6.3.9.3c.3.1.7.1 1.1.1.9 0 1.6-.2 2.1-.5s.9-.7 1.1-1.1.4-.9.4-1.3c.1-.4.1-.8.1-1v-1.7c0 .2-.3.3-.6.4zM445.3 134.3v2.4h.1c.6-1 1.4-1.7 2.3-2.1.9-.4 1.9-.7 2.9-.7 1.2 0 2.3.2 3.1.5.8.3 1.4.8 1.9 1.4.5.6.8 1.3 1 2.2.2.9.3 1.8.3 2.9v10.4h-4.7v-9.6c0-1.4-.2-2.4-.7-3.1-.4-.7-1.2-1-2.3-1-1.3 0-2.2.4-2.8 1.1-.6.8-.9 2-.9 3.7v8.9h-4.7v-16.9h4.5zM468.4 137.4c-.7 0-1.4.2-1.9.5s-.9.8-1.2 1.3c-.3.5-.5 1.1-.7 1.8-.1.6-.2 1.3-.2 1.9 0 .6.1 1.2.2 1.9.1.6.3 1.2.6 1.7s.7.9 1.2 1.3c.5.3 1.1.5 1.8.5 1.1 0 2-.3 2.6-.9.6-.6 1-1.5 1.1-2.5h4.5c-.3 2.2-1.2 4-2.6 5.1-1.4 1.2-3.3 1.8-5.5 1.8-1.3 0-2.4-.2-3.5-.6-1.1-.4-2-1-2.7-1.8-.7-.8-1.3-1.7-1.7-2.7-.4-1.1-.6-2.2-.6-3.5 0-1.3.2-2.5.6-3.7.4-1.1.9-2.1 1.7-2.9.7-.8 1.6-1.5 2.7-1.9 1.1-.5 2.3-.7 3.7-.7 1 0 2 .1 2.9.4.9.3 1.8.7 2.5 1.2s1.3 1.2 1.8 2 .7 1.7.8 2.8h-4.6c-.3-2-1.5-3-3.5-3zM479.3 131.7v-3.8h4.7v3.8h-4.7zm4.6 2.6v16.9h-4.7v-16.9h4.7zM491.5 147.1c.2.4.5.7.8.9s.7.4 1.1.5.9.2 1.3.2c.3 0 .7 0 1-.1.4-.1.7-.2 1-.4.3-.2.5-.4.7-.7.2-.3.3-.6.3-1 0-.7-.5-1.2-1.4-1.6-.9-.3-2.2-.7-3.9-1l-2-.5c-.6-.2-1.2-.5-1.7-.8s-.9-.8-1.2-1.3-.5-1.1-.5-1.9c0-1.1.2-2 .6-2.7.4-.7 1-1.2 1.7-1.7.7-.4 1.5-.7 2.4-.9.9-.2 1.8-.2 2.7-.2s1.8.1 2.7.3c.9.2 1.6.5 2.3.9.7.4 1.2 1 1.7 1.7.4.7.7 1.6.8 2.6h-4.4c-.1-.9-.4-1.5-1-1.8-.6-.3-1.3-.5-2.2-.5h-.9c-.3 0-.6.1-.8.2s-.5.3-.6.5c-.2.2-.3.5-.3.8 0 .4.2.8.5 1 .3.3.7.5 1.2.6.5.2 1.1.3 1.7.4l1.9.4c.7.2 1.3.3 2 .6.6.2 1.2.5 1.7.9s.9.8 1.2 1.3c.3.5.5 1.2.5 2 0 1.1-.2 2-.7 2.8-.4.8-1 1.4-1.8 1.8-.7.5-1.5.8-2.5 1-.9.2-1.9.3-2.8.3-1 0-1.9-.1-2.9-.3-.9-.2-1.8-.5-2.5-1s-1.3-1.1-1.8-1.8c-.5-.8-.7-1.7-.8-2.8h4.4c.2.5.3.9.5 1.3zM513.3 137.4c-.7 0-1.4.2-1.9.5s-.9.8-1.2 1.3c-.3.5-.5 1.1-.7 1.8-.1.6-.2 1.3-.2 1.9 0 .6.1 1.2.2 1.9.1.6.3 1.2.6 1.7s.7.9 1.2 1.3c.5.3 1.1.5 1.8.5 1.1 0 2-.3 2.6-.9.6-.6 1-1.5 1.1-2.5h4.5c-.3 2.2-1.2 4-2.6 5.1-1.4 1.2-3.3 1.8-5.5 1.8-1.3 0-2.4-.2-3.5-.6-1.1-.4-2-1-2.7-1.8-.7-.8-1.3-1.7-1.7-2.7-.4-1.1-.6-2.2-.6-3.5 0-1.3.2-2.5.6-3.7.4-1.1.9-2.1 1.7-2.9.7-.8 1.6-1.5 2.7-1.9 1.1-.5 2.3-.7 3.7-.7 1 0 2 .1 2.9.4.9.3 1.8.7 2.5 1.2s1.3 1.2 1.8 2 .7 1.7.8 2.8h-4.6c-.4-2-1.6-3-3.5-3zM524.1 139.1c.4-1.1 1-2 1.8-2.8.8-.8 1.7-1.4 2.8-1.8 1.1-.4 2.3-.6 3.6-.6s2.5.2 3.6.6c1.1.4 2 1 2.8 1.8.8.8 1.4 1.7 1.8 2.8.4 1.1.6 2.3.6 3.7s-.2 2.6-.6 3.7c-.4 1.1-1 2-1.8 2.8-.8.8-1.7 1.4-2.8 1.8-1.1.4-2.3.6-3.6.6s-2.5-.2-3.6-.6c-1.1-.4-2-1-2.8-1.8-.8-.8-1.4-1.7-1.8-2.8-.4-1.1-.6-2.3-.6-3.7s.2-2.6.6-3.7zm4.2 5.7c.1.6.4 1.2.7 1.7.3.5.7.9 1.3 1.2.5.3 1.2.5 2 .5s1.4-.2 2-.5 1-.7 1.3-1.2c.3-.5.5-1.1.7-1.7.1-.6.2-1.3.2-2s-.1-1.3-.2-2-.4-1.2-.7-1.7-.7-.9-1.3-1.2c-.5-.3-1.2-.5-2-.5s-1.4.2-2 .5c-.5.3-.9.7-1.3 1.2s-.5 1.1-.7 1.7c-.1.7-.2 1.3-.2 2s.1 1.4.2 2z"/></g><g enable-background="new" fill="#fff"><path d="M107.2 190.1c-.2.9-.5 1.8-1 2.6s-1.3 1.5-2.4 2c-1 .5-2.4.8-4.2.8-1 0-1.9-.1-2.8-.4-.9-.3-1.7-.7-2.5-1.3-.7-.6-1.3-1.3-1.7-2.2-.4-.9-.7-2-.7-3.3v-2h4.7v1c0 .6 0 1.1.1 1.6s.2.9.5 1.2c.2.3.5.6.9.8.4.2.9.3 1.5.3.7 0 1.2-.1 1.6-.4.4-.2.6-.6.8-.9.2-.4.3-.8.3-1.2v-17.1h5.1v16c.1.7 0 1.6-.2 2.5zM123 194.9v-2.4h-.1c-.6 1-1.4 1.7-2.3 2.1-.9.4-1.9.7-2.9.7-1.2 0-2.3-.2-3.1-.5-.8-.3-1.4-.8-1.9-1.4s-.8-1.3-1-2.2c-.2-.9-.3-1.8-.3-2.9v-10.3h4.7v9.6c0 1.4.2 2.4.7 3.1.4.7 1.2 1 2.3 1 1.3 0 2.2-.4 2.8-1.1.6-.8.9-2 .9-3.7v-8.9h4.7v16.9h-4.5zM135.3 178v2.4h.1c.6-1 1.4-1.7 2.3-2.1.9-.4 1.9-.7 2.9-.7 1.2 0 2.3.2 3.1.5.8.3 1.4.8 1.9 1.4.5.6.8 1.3 1 2.2.2.9.3 1.8.3 2.9v10.4h-4.7v-9.6c0-1.4-.2-2.4-.7-3.1-.4-.7-1.2-1-2.3-1-1.3 0-2.2.4-2.8 1.1-.6.8-.9 2-.9 3.7v8.9h-4.7v-17h4.5zM155.3 190.9c.7.7 1.7 1 3 1 .9 0 1.7-.2 2.4-.7.7-.5 1.1-1 1.2-1.5h4.1c-.7 2-1.7 3.5-3 4.4-1.4.9-3 1.3-4.9 1.3-1.3 0-2.5-.2-3.6-.6-1.1-.4-2-1-2.7-1.8-.7-.8-1.3-1.7-1.7-2.8-.4-1.1-.6-2.3-.6-3.6 0-1.3.2-2.4.6-3.5s1-2 1.8-2.8c.8-.8 1.7-1.4 2.7-1.9 1.1-.5 2.2-.7 3.5-.7 1.4 0 2.7.3 3.8.8 1.1.6 1.9 1.3 2.6 2.2.7.9 1.2 2 1.5 3.2.3 1.2.4 2.5.3 3.8h-12.2c.1 1.4.5 2.5 1.2 3.2zm5.3-8.9c-.6-.6-1.4-.9-2.5-.9-.7 0-1.4.1-1.9.4s-.9.6-1.2.9c-.3.4-.5.8-.6 1.2-.1.4-.2.8-.2 1.1h7.6c-.3-1.2-.7-2.1-1.2-2.7zM205.7 178v3.1h-3.4v8.4c0 .8.1 1.3.4 1.6.3.3.8.4 1.6.4h.8l.7-.1v3.6c-.4.1-.8.1-1.3.1h-1.4c-.7 0-1.4 0-2-.1-.6-.1-1.2-.3-1.7-.6s-.9-.7-1.2-1.2c-.3-.5-.4-1.2-.4-2.1v-10h-2.8v-3.1h2.8v-5.1h4.7v5.1h3.2zM212.6 171.6v8.8h.1c.6-1 1.3-1.7 2.3-2.1.9-.4 1.8-.7 2.7-.7 1.2 0 2.3.2 3.1.5.8.3 1.4.8 1.9 1.4.5.6.8 1.3 1 2.2.2.9.3 1.8.3 2.9v10.4h-4.7v-9.6c0-1.4-.2-2.4-.7-3.1-.4-.7-1.2-1-2.3-1-1.3 0-2.2.4-2.8 1.1-.6.8-.9 2-.9 3.7v8.9h-4.6v-23.4h4.6zM237.2 184v4h-9.9v-4h9.9zM178.8 174.9c.5-.8 1.1-1.4 1.8-2 .7-.5 1.6-.9 2.5-1.2s1.8-.4 2.8-.4c1.4 0 2.6.2 3.6.7 1 .4 1.8 1 2.4 1.6s1 1.3 1.3 2c.3.7.4 1.3.4 1.9 0 1.1-.3 2.1-.8 3s-1.4 1.5-2.5 1.8v.1c1.4.3 2.4 1 3.2 1.9.7 1 1.1 2.2 1.1 3.7 0 1.2-.2 2.3-.7 3.2-.5.9-1.1 1.6-1.9 2.2-.8.6-1.7 1-2.8 1.3-1 .3-2.1.4-3.1.4-1.1 0-2.2-.1-3.2-.4-1-.3-2-.7-2.8-1.3-.8-.6-1.5-1.3-2-2.2s-.7-2-.7-3.2c0-1.5.4-2.7 1.1-3.7s1.8-1.6 3.2-2v-.1c-1.1-.3-2-.9-2.5-1.7-.6-.9-.9-1.8-.9-3-.2-.9 0-1.8.5-2.6zm3.3 14.5c.2.5.5.9.9 1.2.4.3.8.6 1.3.8.5.2 1 .3 1.6.3.6 0 1.1-.1 1.6-.3.5-.2.9-.4 1.2-.8.4-.3.6-.7.8-1.2.2-.5.3-1 .3-1.6 0-.5-.1-1-.3-1.5-.2-.4-.5-.8-.9-1.2-.4-.3-.8-.6-1.2-.8-.5-.2-1-.3-1.5-.3-1.1 0-2.1.3-2.9.9-.8.6-1.2 1.5-1.2 2.7 0 .8.1 1.3.3 1.8zm1.3-9.1c.7.5 1.5.8 2.5.8s1.8-.3 2.5-.8 1-1.3 1-2.2c0-.3 0-.6-.1-1s-.3-.7-.5-1c-.3-.3-.6-.6-1-.8-.4-.2-1-.3-1.8-.3-.5 0-.9.1-1.3.2s-.8.3-1.1.6c-.3.3-.6.6-.8 1-.2.4-.3.9-.3 1.4-.2.8.2 1.6.9 2.1z"/></g><path fill="#fff" d="M247.1 194.9v-14.9h-5.8v-3.5c.8 0 1.6 0 2.3-.2.8-.1 1.4-.4 2-.8s1.1-.8 1.5-1.4c.4-.6.7-1.3.8-2.2h3.7v22.9h-4.5z" enable-background="new"/><g enable-background="new" fill="#fff"><path d="M256.5 177.8c.4-1.5 1.1-2.7 1.8-3.7.8-.9 1.7-1.6 2.7-2 1-.4 2.1-.6 3.2-.6 1.2 0 2.2.2 3.3.6 1 .4 1.9 1 2.7 2 .8.9 1.4 2.1 1.8 3.7.4 1.5.7 3.4.7 5.6 0 2.3-.2 4.2-.7 5.7-.4 1.5-1.1 2.8-1.8 3.7-.8.9-1.7 1.6-2.7 2-1 .4-2.1.6-3.3.6-1.1 0-2.2-.2-3.2-.6-1-.4-1.9-1-2.7-2-.8-.9-1.4-2.1-1.8-3.7-.4-1.5-.7-3.5-.7-5.7s.3-4.1.7-5.6zm4.1 8c0 .9.2 1.8.4 2.7.2.9.6 1.6 1.1 2.2.5.6 1.2.9 2.2.9 1 0 1.7-.3 2.2-.9.5-.6.9-1.3 1.1-2.2.2-.9.4-1.8.4-2.7 0-.9.1-1.7.1-2.4v-1.4l-.1-1.7-.3-1.8c-.1-.6-.4-1.1-.6-1.6-.3-.5-.6-.8-1.1-1.1-.4-.3-1-.4-1.6-.4-.6 0-1.2.1-1.6.4-.4.3-.8.7-1 1.1-.3.5-.5 1-.6 1.6-.2.6-.3 1.2-.3 1.8-.1.6-.1 1.2-.1 1.7v1.4c-.3.6-.3 1.4-.2 2.4zM284.4 178v3.1h-3.4v8.4c0 .8.1 1.3.4 1.6.3.3.8.4 1.6.4h.8l.7-.1v3.6c-.4.1-.8.1-1.3.1h-1.4c-.7 0-1.4 0-2-.1-.6-.1-1.2-.3-1.7-.6s-.9-.7-1.2-1.2c-.3-.5-.4-1.2-.4-2.1v-10h-2.8v-3.1h2.8v-5.1h4.7v5.1h3.2zM291.3 171.6v8.8h.1c.6-1 1.3-1.7 2.3-2.1.9-.4 1.8-.7 2.7-.7 1.2 0 2.3.2 3.1.5.8.3 1.4.8 1.9 1.4.5.6.8 1.3 1 2.2.2.9.3 1.8.3 2.9v10.4h-4.7v-9.6c0-1.4-.2-2.4-.7-3.1-.4-.7-1.2-1-2.3-1-1.3 0-2.2.4-2.8 1.1-.6.8-.9 2-.9 3.7v8.9h-4.7v-23.4h4.7zM311.5 189.9v5c0 .7-.1 1.4-.4 2-.3.6-.6 1.2-1.1 1.6-.5.5-1 .8-1.6 1.1s-1.3.5-2 .6v-2.2c.3-.1.6-.2.9-.4.3-.2.6-.4.8-.7.2-.3.4-.6.5-.9s.2-.7.1-1h-2.4v-5h5.2z"/></g><g enable-background="new" fill="#E25758"><path d="M336.4 171.6l8.7 23.4h-5.3l-1.8-5.2h-8.7l-1.8 5.2h-5.2l8.8-23.4h5.3zm.3 14.3l-2.9-8.6h-.1l-3 8.6h6zM351.2 178v2.3h.1c.6-.9 1.3-1.6 2.2-2 .9-.5 1.8-.7 3-.7 1.1 0 2 .2 2.9.6s1.6 1.1 2 2.2c.5-.7 1.2-1.4 2-2 .9-.6 1.9-.9 3.1-.9.9 0 1.7.1 2.5.3.8.2 1.4.6 2 1 .5.5 1 1.1 1.3 1.9.3.8.5 1.7.5 2.8v11.3h-4.7v-9.6c0-.6 0-1.1-.1-1.6s-.2-.9-.4-1.3-.5-.7-.9-.9c-.4-.2-.9-.3-1.6-.3-.7 0-1.2.1-1.6.4-.4.3-.7.6-.9 1-.2.4-.4.9-.5 1.4-.1.5-.1 1-.1 1.6v9.4h-4.7v-11s-.1-.9-.3-1.4c-.2-.4-.4-.7-.8-1-.4-.3-.9-.4-1.7-.4-.2 0-.5 0-.9.1s-.7.3-1 .6c-.3.3-.6.7-.9 1.2s-.4 1.2-.4 2v9.8h-4.7v-16.8h4.6zM380.3 190.7c.2.4.5.7.8.9s.7.4 1.1.5.9.2 1.3.2c.3 0 .7 0 1-.1.4-.1.7-.2 1-.4.3-.2.5-.4.7-.7.2-.3.3-.6.3-1 0-.7-.5-1.2-1.4-1.6-.9-.3-2.2-.7-3.9-1l-2-.5c-.6-.2-1.2-.5-1.7-.8s-.9-.8-1.2-1.3-.5-1.1-.5-1.9c0-1.1.2-2 .6-2.7.4-.7 1-1.2 1.7-1.7.7-.4 1.5-.7 2.4-.9.9-.2 1.8-.2 2.7-.2s1.8.1 2.7.3c.9.2 1.6.5 2.3.9.7.4 1.2 1 1.7 1.7.4.7.7 1.6.8 2.6h-4.4c-.1-.9-.4-1.5-1-1.8-.6-.3-1.3-.5-2.2-.5h-.9c-.3 0-.6.1-.8.2s-.5.3-.6.5c-.2.2-.3.5-.3.8 0 .4.2.8.5 1 .3.3.7.5 1.2.6.5.2 1.1.3 1.7.4l1.9.4c.7.2 1.3.3 2 .6.6.2 1.2.5 1.7.9s.9.8 1.2 1.3c.3.5.5 1.2.5 2 0 1.1-.2 2-.7 2.8-.4.8-1 1.4-1.8 1.8-.7.5-1.5.8-2.5 1-.9.2-1.9.3-2.8.3-1 0-1.9-.1-2.9-.3-.9-.2-1.8-.5-2.5-1s-1.3-1.1-1.8-1.8c-.5-.8-.7-1.7-.8-2.8h4.4c.2.5.3 1 .5 1.3zM403.3 178v3.1h-3.4v8.4c0 .8.1 1.3.4 1.6.3.3.8.4 1.6.4h.8s.5-.1.7-.1v3.6c-.4.1-.8.1-1.3.1h-1.4c-.7 0-1.4 0-2-.1-.6-.1-1.2-.3-1.7-.6s-.9-.7-1.2-1.2c-.3-.5-.4-1.2-.4-2.1v-10h-2.8v-3.1h2.8v-5.1h4.7v5.1h3.2zM410.5 190.9c.7.7 1.7 1 3 1 .9 0 1.7-.2 2.4-.7.7-.5 1.1-1 1.2-1.5h4.1c-.7 2-1.7 3.5-3 4.4s-3 1.3-4.9 1.3c-1.3 0-2.5-.2-3.6-.6-1.1-.4-2-1-2.7-1.8-.7-.8-1.3-1.7-1.7-2.8-.4-1.1-.6-2.3-.6-3.6 0-1.3.2-2.4.6-3.5.4-1.1 1-2 1.8-2.8.8-.8 1.7-1.4 2.7-1.9 1.1-.5 2.2-.7 3.5-.7 1.4 0 2.7.3 3.8.8 1.1.6 1.9 1.3 2.6 2.2s1.2 2 1.5 3.2c.3 1.2.4 2.5.3 3.8h-12.2c.1 1.4.5 2.5 1.2 3.2zm5.2-8.9c-.6-.6-1.4-.9-2.5-.9-.7 0-1.4.1-1.9.4s-.9.6-1.2.9c-.3.4-.5.8-.6 1.2-.1.4-.2.8-.2 1.1h7.6c-.2-1.2-.6-2.1-1.2-2.7zM428.7 178v3.1h.1c.2-.5.5-1 .9-1.5.4-.4.8-.8 1.3-1.1.5-.3 1-.6 1.5-.7.5-.2 1.1-.3 1.7-.3.3 0 .6.1 1 .2v4.3c-.2 0-.5-.1-.8-.1h-.9c-.9 0-1.6.1-2.2.4-.6.3-1.1.7-1.4 1.2s-.6 1.1-.8 1.7c-.2.7-.2 1.4-.2 2.1v7.6h-4.7v-16.9h4.5zM448.5 192.8c-.5.9-1.3 1.6-2.1 2-.9.4-1.9.6-3 .6-1.3 0-2.4-.2-3.3-.7-1-.5-1.8-1.2-2.4-2-.6-.8-1.1-1.8-1.4-2.9s-.5-2.2-.5-3.4c0-1.1.2-2.2.5-3.3s.8-2 1.4-2.8c.6-.8 1.4-1.5 2.3-1.9s2-.7 3.3-.7c1 0 2 .2 2.9.6.9.4 1.6 1.1 2.1 1.9h.1v-8.5h4.7v23.4h-4.4l-.2-2.3zm-.2-8.4c-.1-.6-.4-1.2-.7-1.7-.3-.5-.7-.9-1.2-1.2-.5-.3-1.1-.5-1.9-.5-.8 0-1.4.2-1.9.5s-.9.7-1.3 1.2c-.3.5-.5 1.1-.7 1.7-.1.6-.2 1.3-.2 2s.1 1.3.2 2c.2.7.4 1.2.7 1.8.3.5.8.9 1.3 1.2s1.1.5 1.9.5c.8 0 1.4-.2 1.9-.5s.9-.7 1.2-1.2c.3-.5.5-1.1.7-1.8s.2-1.3.2-2-.1-1.3-.2-2zM457.1 180.5c.5-.7 1.1-1.3 1.8-1.7.7-.4 1.6-.7 2.5-.9.9-.2 1.9-.3 2.8-.3.9 0 1.7.1 2.6.2s1.7.4 2.4.7c.7.3 1.3.8 1.8 1.5.5.6.7 1.4.7 2.5v8.8c0 .8 0 1.5.1 2.2.1.7.2 1.2.5 1.6h-4.7c-.1-.3-.2-.5-.2-.8-.1-.3-.1-.6-.1-.8-.7.8-1.6 1.3-2.6 1.6-1 .3-2 .5-3.1.5-.8 0-1.6-.1-2.3-.3-.7-.2-1.3-.5-1.8-.9s-.9-.9-1.2-1.6c-.3-.6-.4-1.4-.4-2.3 0-1 .2-1.8.5-2.4.3-.6.8-1.1 1.3-1.5.5-.4 1.1-.6 1.8-.8.7-.2 1.4-.3 2.1-.4l2.1-.3c.7-.1 1.3-.2 1.8-.3.5-.1.9-.3 1.2-.6.3-.2.4-.6.4-1.1 0-.5-.1-.9-.2-1.2s-.4-.5-.7-.7c-.3-.2-.6-.3-.9-.3-.4-.1-.7-.1-1.2-.1-.9 0-1.6.2-2.2.6-.5.4-.8 1-.9 2h-4.7c0-1.3.3-2.2.8-2.9zm9.2 6.6c-.3.1-.6.2-1 .2s-.7.1-1.1.2-.7.1-1.1.2l-1 .3-.9.4s-.5.4-.6.7c-.2.3-.2.6-.2 1.1 0 .4.1.8.2 1 .2.3.4.5.6.7s.6.3.9.3c.3.1.7.1 1.1.1.9 0 1.6-.2 2.1-.5s.9-.7 1.1-1.1.4-.9.4-1.3c.1-.4.1-.8.1-1v-1.7c-.1.1-.3.3-.6.4zM479.8 178v2.3h.1c.6-.9 1.3-1.6 2.2-2 .9-.5 1.8-.7 3-.7 1.1 0 2 .2 2.9.6s1.6 1.1 2 2.2c.5-.7 1.2-1.4 2-2 .9-.6 1.9-.9 3.1-.9.9 0 1.7.1 2.5.3.8.2 1.4.6 2 1 .5.5 1 1.1 1.3 1.9.3.8.5 1.7.5 2.8v11.3h-4.7v-9.6c0-.6 0-1.1-.1-1.6s-.2-.9-.4-1.3-.5-.7-.9-.9c-.4-.2-.9-.3-1.6-.3-.7 0-1.2.1-1.6.4-.4.3-.7.6-.9 1-.2.4-.4.9-.5 1.4-.1.5-.1 1-.1 1.6v9.4h-4.6v-11s-.1-.9-.3-1.4c-.2-.4-.4-.7-.8-1-.4-.3-.9-.4-1.7-.4-.2 0-.5 0-.9.1s-.7.3-1 .6c-.3.3-.6.7-.9 1.2s-.4 1.2-.4 2v9.8h-4.7v-16.8h4.5z"/></g></g></svg>