<?xml version="1.0" encoding="utf-8"?>
<!-- Generator: Adobe Illustrator 18.1.1, SVG Export Plug-In . SVG Version: 6.00 Build 0)  -->
<!DOCTYPE svg PUBLIC "-//W3C//DTD SVG 1.1//EN" "http://www.w3.org/Graphics/SVG/1.1/DTD/svg11.dtd">
<svg version="1.1" id="Layer_1" xmlns="http://www.w3.org/2000/svg" xmlns:xlink="http://www.w3.org/1999/xlink" x="0px" y="0px"
	 viewBox="-99 10 220 80" enable-background="new -99 10 220 80" xml:space="preserve">
<g>
	<g opacity="0.25">
		<path d="M-89.6,48.4c0.6,1.1,1.3,2,2.3,2.7c1,0.7,2.1,1.1,3.4,1.4s2.7,0.4,4.2,0.4c0.9,0,1.8-0.1,2.8-0.3c1-0.3,2-0.6,2.8-1.2
			c0.9-0.5,1.6-1.2,2.2-2c0.6-0.8,0.9-1.8,0.9-3c0-0.9-0.2-1.7-0.6-2.3c-0.4-0.7-1-1.2-1.6-1.7c-0.7-0.4-1.4-0.8-2.2-1.1
			c-0.8-0.3-1.6-0.5-2.3-0.7l-7.2-1.8c-1-0.3-1.9-0.6-2.7-0.9c-0.9-0.3-1.7-0.9-2.3-1.5c-0.7-0.6-1.2-1.3-1.6-2.2s-0.6-2-0.6-3.2
			c0-0.8,0.1-1.7,0.4-2.8c0.3-1,0.9-2.1,1.7-3c0.8-1,2-1.7,3.4-2.4c1.5-0.7,3.3-1,5.6-1c1.6,0,3.1,0.2,4.6,0.7
			c1.5,0.4,2.7,1,3.8,1.9c1.1,0.9,2,1.9,2.6,3.2c0.7,1.3,1,2.7,1,4.4h-3.1c0-1.3-0.3-2.3-0.8-3.3c-0.5-0.9-1.2-1.7-2-2.3
			c-0.8-0.6-1.7-1.1-2.8-1.4c-1-0.3-2.1-0.5-3.3-0.5c-1,0-2.1,0.1-3.1,0.3c-1,0.2-1.9,0.6-2.6,1.1c-0.7,0.5-1.3,1.2-1.8,2
			c-0.4,0.8-0.7,1.8-0.7,3c0,0.7,0.1,1.4,0.4,2s0.6,1,1.1,1.4c0.4,0.4,1,0.7,1.6,1c0.6,0.3,1.2,0.4,1.9,0.6l7.9,2
			c1.2,0.3,2.3,0.7,3.3,1.1c1,0.4,1.9,1,2.7,1.6c0.8,0.7,1.4,1.4,1.8,2.4s0.7,2.1,0.7,3.4c0,0.3,0,0.9-0.1,1.5
			c-0.1,0.6-0.3,1.3-0.6,2s-0.7,1.4-1.2,2.1c-0.5,0.7-1.3,1.3-2.2,1.9c-0.9,0.6-2.1,1-3.4,1.3c-1.3,0.3-3,0.5-4.9,0.5
			c-1.9,0-3.7-0.2-5.3-0.7c-1.6-0.4-3-1.1-4.2-2c-1.2-0.9-2-2.1-2.6-3.5c-0.6-1.4-0.9-3.1-0.8-5.1h3.1
			C-90.4,45.9-90.1,47.3-89.6,48.4z"/>
		<g enable-background="new    ">
			<path d="M-51.2,34.7c-1-1-2.6-1.5-4.5-1.5c-1.3,0-2.6,0.3-3.6,0.9c-1,0.6-1.9,1.3-2.6,2.3c-0.7,1-1.2,2-1.6,3.2
				c-0.3,1.2-0.5,2.4-0.5,3.6c0,1.3,0.2,2.5,0.5,3.6c0.3,1.2,0.9,2.3,1.6,3.2s1.5,1.7,2.6,2.3c1,0.6,2.2,0.9,3.6,0.9
				c0.9,0,1.7-0.2,2.5-0.5c0.8-0.3,1.5-0.8,2.1-1.4c0.6-0.6,1.1-1.3,1.5-2.1c0.4-0.8,0.7-1.7,0.7-2.7h2.9c-0.4,2.9-1.4,5.1-3.1,6.7
				c-1.7,1.6-3.9,2.4-6.6,2.4c-1.8,0-3.4-0.3-4.8-1c-1.4-0.7-2.6-1.5-3.5-2.6c-1-1.1-1.6-2.4-2.1-3.9c-0.5-1.5-0.7-3.1-0.7-4.8
				c0-1.7,0.3-3.3,0.7-4.8c0.5-1.5,1.2-2.8,2.1-3.9c1-1.1,2.1-2,3.5-2.7c1.4-0.7,3-1,4.8-1c2.5,0,4.6,0.7,6.4,2s2.8,3.3,3.1,6h-2.9
				C-49.4,37.1-50.1,35.7-51.2,34.7z M-41.3,35.1c0.5-1,1.1-1.8,2-2.5c0.8-0.7,1.8-1.1,3-1.4c1.1-0.3,2.3-0.4,3.7-0.4
				c1,0,2.1,0.1,3.1,0.3c1,0.2,2,0.6,2.8,1.1c0.8,0.6,1.5,1.3,2,2.3c0.5,1,0.8,2.3,0.8,3.9v12.5c0,1.2,0.6,1.7,1.7,1.7
				c0.3,0,0.7,0,0.9-0.2v2.4c-0.3,0-0.7,0.1-0.9,0.1c-0.3,0-0.6,0-1,0c-0.7,0-1.3-0.1-1.7-0.3c-0.4-0.2-0.8-0.5-1-0.8
				c-0.3-0.3-0.4-0.8-0.5-1.3c-0.1-0.5-0.1-1-0.1-1.6h-0.1c-0.5,0.7-1,1.4-1.6,2c-0.5,0.6-1.1,1.1-1.8,1.5c-0.7,0.4-1.4,0.7-2.2,0.9
				c-0.8,0.2-1.8,0.3-3,0.3c-1.1,0-2.1-0.1-3.1-0.4c-1-0.3-1.8-0.7-2.5-1.2c-0.7-0.6-1.3-1.3-1.7-2.1c-0.4-0.9-0.6-1.9-0.6-3.1
				c0-1.6,0.3-2.9,1.1-3.9c0.7-0.9,1.7-1.6,2.9-2.1c1.2-0.5,2.6-0.8,4-1c1.5-0.2,3-0.4,4.6-0.6c0.6,0,1.1-0.1,1.6-0.2
				c0.4-0.1,0.8-0.3,1.1-0.5c0.3-0.2,0.5-0.5,0.7-0.9c0.2-0.4,0.3-0.9,0.3-1.6c0-1-0.2-1.8-0.5-2.4c-0.3-0.6-0.7-1.1-1.3-1.5
				c-0.6-0.3-1.2-0.6-2-0.7c-0.7-0.1-1.5-0.2-2.4-0.2c-1.8,0-3.3,0.4-4.5,1.3s-1.8,2.3-1.8,4.2h-2.9C-42.1,37.3-41.8,36.1-41.3,35.1
				z M-27,42.1c-0.2,0.3-0.5,0.6-1,0.7s-1,0.3-1.3,0.3c-1.2,0.2-2.5,0.4-3.7,0.6c-1.3,0.2-2.5,0.4-3.5,0.7c-1,0.3-2,0.8-2.6,1.4
				c-0.7,0.6-1,1.5-1,2.6c0,0.7,0.1,1.4,0.4,2c0.3,0.6,0.7,1,1.2,1.5c0.5,0.4,1,0.7,1.7,0.9c0.7,0.2,1.3,0.3,2,0.3
				c1.1,0,2.1-0.2,3.1-0.5c1-0.3,1.9-0.8,2.6-1.5c0.7-0.7,1.3-1.4,1.8-2.3c0.4-0.9,0.7-2,0.7-3.1v-3.7L-27,42.1L-27,42.1z"/>
		</g>
		<path d="M-17.2,22.5V55h-2.9V22.5C-20.1,22.5-17.2,22.5-17.2,22.5z M-12.9,35.1c0.5-1,1.1-1.8,2-2.5c0.8-0.7,1.8-1.1,3-1.4
			c1.1-0.3,2.3-0.4,3.7-0.4c1,0,2.1,0.1,3.1,0.3c1,0.2,2,0.6,2.8,1.1s1.5,1.3,2,2.3c0.5,1,0.8,2.3,0.8,3.9v12.5
			c0,1.2,0.6,1.7,1.7,1.7c0.3,0,0.7,0,0.9-0.2v2.4c-0.3,0-0.7,0.1-0.9,0.1c-0.3,0-0.6,0-1,0c-0.7,0-1.3-0.1-1.7-0.3
			c-0.4-0.2-0.8-0.5-1-0.8c-0.3-0.3-0.4-0.8-0.5-1.3c-0.1-0.5-0.1-1-0.1-1.6H1.7c-0.5,0.7-1,1.4-1.6,2s-1.1,1.1-1.8,1.5
			c-0.7,0.4-1.4,0.7-2.2,0.9s-1.8,0.3-3,0.3c-1.1,0-2.1-0.1-3.1-0.4c-1-0.3-1.8-0.7-2.5-1.2c-0.7-0.6-1.3-1.3-1.7-2.1
			c-0.4-0.9-0.6-1.9-0.6-3.1c0-1.6,0.3-2.9,1.1-3.9c0.7-0.9,1.7-1.6,2.9-2.1c1.2-0.5,2.6-0.8,4-1c1.5-0.2,3-0.4,4.6-0.6
			c0.6,0,1.1-0.1,1.6-0.2c0.4-0.1,0.8-0.3,1.1-0.5c0.3-0.2,0.5-0.5,0.7-0.9c0.2-0.4,0.3-0.9,0.3-1.6c0-1-0.2-1.8-0.5-2.4
			s-0.7-1.1-1.3-1.5s-1.2-0.6-2-0.7c-0.7-0.1-1.5-0.2-2.4-0.2c-1.8,0-3.3,0.4-4.5,1.3s-1.8,2.3-1.8,4.2h-2.9
			C-13.7,37.3-13.4,36.1-12.9,35.1z M1.4,42.1c-0.2,0.3-0.5,0.6-1,0.7c-0.5,0.2-1,0.3-1.3,0.3c-1.2,0.2-2.5,0.4-3.7,0.6
			c-1.3,0.2-2.5,0.4-3.5,0.7c-1,0.3-2,0.8-2.6,1.4c-0.7,0.6-1,1.5-1,2.6c0,0.7,0.1,1.4,0.4,2c0.3,0.6,0.7,1,1.2,1.5
			c0.5,0.4,1,0.7,1.7,0.9c0.7,0.2,1.3,0.3,2,0.3c1.1,0,2.1-0.2,3.1-0.5c1-0.3,1.9-0.8,2.6-1.5c0.7-0.7,1.3-1.4,1.8-2.3
			c0.4-0.9,0.7-2,0.7-3.1v-3.7L1.4,42.1L1.4,42.1z M29.6,22.5c2.1,0,4,0.3,5.9,1c1.8,0.7,3.4,1.6,4.7,3c1.3,1.3,2.3,3,3.1,5
			c0.7,2,1.1,4.3,1.1,7c0,2.3-0.3,4.6-0.9,6.6c-0.6,2-1.5,3.7-2.7,5.2c-1.2,1.5-2.8,2.6-4.6,3.4s-4,1.3-6.5,1.3h-14V22.5
			C15.6,22.5,29.6,22.5,29.6,22.5z M29.1,49c1,0,2-0.2,3-0.5c1-0.3,1.8-0.9,2.6-1.6c0.7-0.8,1.3-1.8,1.8-3c0.4-1.3,0.7-2.8,0.7-4.6
			c0-1.6-0.2-3.1-0.5-4.4c-0.3-1.3-0.8-2.4-1.6-3.4c-0.7-1-1.7-1.6-2.9-2.2c-1.2-0.5-2.7-0.7-4.4-0.7h-5.1V49
			C22.8,49,29.1,49,29.1,49z"/>
		<g enable-background="new    ">
			<path d="M47.7,34.9c0.7-1,1.5-1.8,2.6-2.4s2.2-1,3.5-1.3s2.6-0.4,3.9-0.4c1.2,0,2.4,0.1,3.6,0.3s2.3,0.5,3.3,1
				c1,0.5,1.8,1.2,2.5,2c0.7,0.9,1,2,1,3.4v12.2c0,1,0,2.1,0.2,3c0.1,1,0.3,1.7,0.7,2.2h-6.6c-0.1-0.3-0.2-0.7-0.3-1.1
				c-0.1-0.4-0.1-0.8-0.2-1.2c-1,1-2.3,1.8-3.6,2.2c-1.4,0.4-2.8,0.7-4.3,0.7c-1.1,0-2.2-0.1-3.1-0.4c-1-0.3-1.8-0.7-2.6-1.3
				c-0.7-0.6-1.3-1.3-1.7-2.2c-0.4-0.9-0.6-1.9-0.6-3.1c0-1.3,0.2-2.4,0.7-3.3s1.1-1.6,1.8-2.1c0.7-0.5,1.6-0.9,2.6-1.2
				c1-0.3,1.9-0.5,2.9-0.6c1-0.1,1.9-0.3,2.9-0.3c1-0.1,1.8-0.2,2.5-0.4s1.3-0.4,1.7-0.8c0.4-0.3,0.6-0.9,0.6-1.5
				c0-0.7-0.1-1.3-0.3-1.6c-0.2-0.4-0.5-0.7-0.9-1c-0.4-0.2-0.8-0.4-1.3-0.4c-0.5-0.1-1-0.1-1.6-0.1c-1.3,0-2.3,0.3-3,0.8
				c-0.7,0.6-1.2,1.5-1.3,2.7h-6.5C46.6,37.2,47,35.9,47.7,34.9z M60.4,44c-0.4,0.1-0.9,0.3-1.3,0.3c-0.5,0.1-1,0.2-1.5,0.2
				c-0.5,0-1,0.1-1.6,0.2c-0.5,0.1-1,0.2-1.4,0.3c-0.5,0.2-0.9,0.3-1.2,0.6c-0.3,0.3-0.7,0.6-0.8,1c-0.2,0.4-0.3,0.9-0.3,1.5
				c0,0.6,0.1,1,0.3,1.5c0.2,0.4,0.5,0.7,0.9,0.9c0.3,0.2,0.8,0.4,1.3,0.5c0.5,0.1,1,0.1,1.5,0.1c1.3,0,2.3-0.2,3-0.7
				c0.7-0.4,1.2-0.9,1.6-1.5c0.3-0.6,0.5-1.2,0.6-1.8c0.1-0.6,0.1-1.1,0.1-1.5v-2.4C61.2,43.7,60.8,43.9,60.4,44z M81.6,61.9
				c-1.3,0.8-3,1.2-5.2,1.2c-0.7,0-1.3,0-2-0.1c-0.7,0-1.3-0.1-2-0.2v-5.3c0.6,0,1.2,0.1,1.9,0.2c0.7,0,1.3,0.1,1.9,0
				c0.9-0.1,1.5-0.4,1.9-1c0.4-0.6,0.6-1.2,0.6-1.9c0-0.5-0.1-1-0.3-1.5l-8.2-22H77l5.3,16.1h0.1l5.1-16.1h6.7l-9.8,26.4
				C83.8,59.8,82.8,61.2,81.6,61.9z"/>
		</g>
		<path d="M100.1,49.1c0.3,0.5,0.7,0.9,1.1,1.2c0.4,0.3,1,0.6,1.6,0.7c0.6,0.2,1.2,0.2,1.8,0.2c0.4,0,0.9,0,1.4-0.2
			c0.5-0.1,1-0.3,1.3-0.5c0.4-0.2,0.7-0.5,1-0.9c0.3-0.4,0.4-0.9,0.4-1.4c0-1-0.7-1.7-2-2.2c-1.3-0.5-3.1-1-5.4-1.5
			c-1-0.2-1.9-0.5-2.7-0.7c-0.9-0.3-1.7-0.7-2.4-1.1c-0.7-0.5-1.3-1-1.7-1.8c-0.4-0.7-0.7-1.6-0.7-2.6c0-1.5,0.3-2.8,0.9-3.7
			c0.6-1,1.4-1.7,2.3-2.3c1-0.6,2.1-1,3.3-1.2c1.2-0.2,2.5-0.3,3.7-0.3c1.3,0,2.5,0.1,3.7,0.3c1.2,0.3,2.3,0.7,3.2,1.2
			c1,0.6,1.7,1.3,2.3,2.3s1,2.2,1.1,3.6h-6.1c-0.1-1.3-0.6-2.1-1.4-2.5c-0.9-0.4-1.9-0.7-3-0.7c-0.3,0-0.7,0-1.2,0.1
			c-0.4,0-0.8,0.1-1.2,0.3c-0.3,0.1-0.7,0.4-0.9,0.7c-0.3,0.3-0.3,0.7-0.3,1.2c0,0.6,0.2,1,0.7,1.4c0.4,0.3,1,0.7,1.6,0.9
			c0.7,0.2,1.5,0.4,2.3,0.6c0.9,0.2,1.8,0.4,2.7,0.6c1,0.2,1.9,0.5,2.7,0.8c0.9,0.3,1.7,0.7,2.4,1.2c0.7,0.5,1.3,1.1,1.7,1.9
			s0.7,1.6,0.7,2.7c0,1.6-0.3,2.8-0.9,3.9c-0.6,1-1.4,1.9-2.4,2.5c-1,0.7-2.1,1.1-3.4,1.3c-1.3,0.3-2.6,0.4-3.9,0.4
			c-1.3,0-2.7-0.1-4-0.4c-1.3-0.3-2.5-0.7-3.5-1.3c-1-0.7-1.9-1.5-2.5-2.5c-0.7-1-1-2.3-1.1-3.9h6.1C99.7,48,99.8,48.6,100.1,49.1z"
			/>
	</g>
	<path fill="#FFFFFF" d="M-89.6,48c0.6,1.1,1.3,2,2.3,2.7c1,0.7,2.1,1.1,3.4,1.4s2.7,0.4,4.2,0.4c0.9,0,1.8-0.1,2.8-0.3
		c1-0.3,2-0.6,2.8-1.2c0.9-0.5,1.6-1.2,2.2-2c0.6-0.8,0.9-1.8,0.9-3c0-0.9-0.2-1.7-0.6-2.3s-1-1.2-1.6-1.7c-0.7-0.4-1.4-0.8-2.2-1.1
		c-0.8-0.3-1.6-0.5-2.3-0.7l-7.2-1.8c-1-0.3-1.9-0.6-2.7-0.9c-0.9-0.3-1.7-0.9-2.3-1.5c-0.7-0.6-1.2-1.3-1.6-2.2s-0.6-2-0.6-3.2
		c0-0.8,0.1-1.7,0.4-2.8c0.3-1,0.9-2.1,1.7-3c0.8-1,2-1.7,3.4-2.4c1.5-0.7,3.3-1,5.6-1c1.6,0,3.1,0.2,4.6,0.7c1.5,0.4,2.7,1,3.8,1.9
		c1.1,0.9,2,1.9,2.6,3.2c0.7,1.3,1,2.7,1,4.4h-3.1c0-1.3-0.3-2.3-0.8-3.3c-0.5-0.9-1.2-1.7-2-2.3c-0.8-0.6-1.7-1.1-2.8-1.4
		c-1-0.3-2.1-0.5-3.3-0.5c-1,0-2.1,0.1-3.1,0.3c-1,0.2-1.9,0.6-2.6,1.1c-0.7,0.5-1.3,1.2-1.8,2c-0.4,0.8-0.7,1.8-0.7,3
		c0,0.7,0.1,1.4,0.4,2c0.3,0.6,0.6,1,1.1,1.4c0.4,0.4,1,0.7,1.6,1c0.6,0.3,1.2,0.4,1.9,0.6l7.9,2c1.2,0.3,2.3,0.7,3.3,1.1
		c1,0.4,1.9,1,2.7,1.6c0.8,0.7,1.4,1.4,1.8,2.4s0.7,2.1,0.7,3.4c0,0.3,0,0.9-0.1,1.5c-0.1,0.6-0.3,1.3-0.6,2s-0.7,1.4-1.2,2.1
		c-0.5,0.7-1.3,1.3-2.2,1.9c-0.9,0.6-2.1,1-3.4,1.3c-1.3,0.3-3,0.5-4.9,0.5c-1.9,0-3.7-0.2-5.3-0.7c-1.6-0.4-3-1.1-4.2-2
		c-1.2-0.9-2-2.1-2.6-3.5c-0.6-1.4-0.9-3.1-0.8-5.1h3.1C-90.4,45.5-90.1,46.8-89.6,48z"/>
	<g enable-background="new    ">
		<path fill="#FFFFFF" d="M-51.2,34.3c-1-1-2.6-1.5-4.5-1.5c-1.3,0-2.6,0.3-3.6,0.9c-1,0.6-1.9,1.3-2.6,2.3c-0.7,1-1.2,2-1.6,3.2
			c-0.3,1.2-0.5,2.4-0.5,3.6c0,1.3,0.2,2.5,0.5,3.6c0.3,1.2,0.9,2.3,1.6,3.2s1.5,1.7,2.6,2.3s2.2,0.9,3.6,0.9c0.9,0,1.7-0.2,2.5-0.5
			c0.8-0.3,1.5-0.8,2.1-1.4c0.6-0.6,1.1-1.3,1.5-2.1c0.4-0.8,0.7-1.7,0.7-2.7h2.9c-0.4,2.9-1.4,5.1-3.1,6.7
			c-1.7,1.6-3.9,2.4-6.6,2.4c-1.8,0-3.4-0.3-4.8-1c-1.4-0.7-2.6-1.5-3.5-2.6c-1-1.1-1.6-2.4-2.1-3.9c-0.5-1.5-0.7-3.1-0.7-4.8
			c0-1.7,0.3-3.3,0.7-4.8c0.5-1.5,1.2-2.8,2.1-3.9c1-1.1,2.1-2,3.5-2.7c1.4-0.7,3-1,4.8-1c2.5,0,4.6,0.7,6.4,2s2.8,3.3,3.1,6h-2.9
			C-49.4,36.6-50.1,35.3-51.2,34.3z M-41.3,34.6c0.5-1,1.1-1.8,2-2.5c0.8-0.7,1.8-1.1,3-1.4c1.1-0.3,2.3-0.4,3.7-0.4
			c1,0,2.1,0.1,3.1,0.3c1,0.2,2,0.6,2.8,1.1c0.8,0.6,1.5,1.3,2,2.3c0.5,1,0.8,2.3,0.8,3.9v12.5c0,1.2,0.6,1.7,1.7,1.7
			c0.3,0,0.7,0,0.9-0.2v2.4c-0.3,0-0.7,0.1-0.9,0.1c-0.3,0-0.6,0-1,0c-0.7,0-1.3-0.1-1.7-0.3c-0.4-0.2-0.8-0.5-1-0.8
			c-0.3-0.3-0.4-0.8-0.5-1.3c-0.1-0.5-0.1-1-0.1-1.6h-0.1c-0.5,0.7-1,1.4-1.6,2c-0.5,0.6-1.1,1.1-1.8,1.5c-0.7,0.4-1.4,0.7-2.2,0.9
			c-0.8,0.2-1.8,0.3-3,0.3c-1.1,0-2.1-0.1-3.1-0.4c-1-0.3-1.8-0.7-2.5-1.2c-0.7-0.6-1.3-1.3-1.7-2.1c-0.4-0.9-0.6-1.9-0.6-3.1
			c0-1.6,0.3-2.9,1.1-3.9c0.7-0.9,1.7-1.6,2.9-2.1c1.2-0.5,2.6-0.8,4-1c1.5-0.2,3-0.4,4.6-0.6c0.6,0,1.1-0.1,1.6-0.2
			c0.4-0.1,0.8-0.3,1.1-0.5c0.3-0.2,0.5-0.5,0.7-0.9c0.2-0.4,0.3-0.9,0.3-1.6c0-1-0.2-1.8-0.5-2.4c-0.3-0.6-0.7-1.1-1.3-1.5
			c-0.6-0.3-1.2-0.6-2-0.7c-0.7-0.1-1.5-0.2-2.4-0.2c-1.8,0-3.3,0.4-4.5,1.3s-1.8,2.3-1.8,4.2h-2.9C-42.1,36.8-41.8,35.6-41.3,34.6z
			 M-27,41.7c-0.2,0.3-0.5,0.6-1,0.7s-1,0.3-1.3,0.3c-1.2,0.2-2.5,0.4-3.7,0.6c-1.3,0.2-2.5,0.4-3.5,0.7c-1,0.3-2,0.8-2.6,1.4
			c-0.7,0.6-1,1.5-1,2.6c0,0.7,0.1,1.4,0.4,2c0.3,0.6,0.7,1,1.2,1.5c0.5,0.4,1,0.7,1.7,0.9c0.7,0.2,1.3,0.3,2,0.3
			c1.1,0,2.1-0.2,3.1-0.5s1.9-0.8,2.6-1.5c0.7-0.7,1.3-1.4,1.8-2.3s0.7-2,0.7-3.1v-3.7L-27,41.7L-27,41.7z"/>
	</g>
	<path fill="#FFFFFF" d="M-17.2,22v32.5h-2.9V22C-20.1,22-17.2,22-17.2,22z M-12.9,34.6c0.5-1,1.1-1.8,2-2.5c0.8-0.7,1.8-1.1,3-1.4
		c1.1-0.3,2.3-0.4,3.7-0.4c1,0,2.1,0.1,3.1,0.3c1,0.2,2,0.6,2.8,1.1c0.8,0.6,1.5,1.3,2,2.3s0.8,2.3,0.8,3.9v12.5
		c0,1.2,0.6,1.7,1.7,1.7c0.3,0,0.7,0,0.9-0.2v2.4c-0.3,0-0.7,0.1-0.9,0.1c-0.3,0-0.6,0-1,0c-0.7,0-1.3-0.1-1.7-0.3
		c-0.4-0.2-0.8-0.5-1-0.8S2,52.7,1.9,52.1c-0.1-0.5-0.1-1-0.1-1.6H1.7c-0.5,0.7-1,1.4-1.6,2S-1,53.6-1.7,54s-1.4,0.7-2.2,0.9
		s-1.8,0.3-3,0.3c-1.1,0-2.1-0.1-3.1-0.4c-1-0.3-1.8-0.7-2.5-1.2c-0.7-0.6-1.3-1.3-1.7-2.1c-0.4-0.9-0.6-1.9-0.6-3.1
		c0-1.6,0.3-2.9,1.1-3.9c0.7-0.9,1.7-1.6,2.9-2.1c1.2-0.5,2.6-0.8,4-1c1.5-0.2,3-0.4,4.6-0.6c0.6,0,1.1-0.1,1.6-0.2
		c0.4-0.1,0.8-0.3,1.1-0.5c0.3-0.2,0.5-0.5,0.7-0.9c0.2-0.4,0.3-0.9,0.3-1.6c0-1-0.2-1.8-0.5-2.4c-0.3-0.6-0.7-1.1-1.3-1.5
		c-0.6-0.3-1.2-0.6-2-0.7c-0.7-0.1-1.5-0.2-2.4-0.2c-1.8,0-3.3,0.4-4.5,1.3s-1.8,2.3-1.8,4.2h-2.9C-13.7,36.8-13.4,35.6-12.9,34.6z
		 M1.4,41.7c-0.2,0.3-0.5,0.6-1,0.7c-0.5,0.2-1,0.3-1.3,0.3c-1.2,0.2-2.5,0.4-3.7,0.6C-6,43.5-7.2,43.7-8.2,44c-1,0.3-2,0.8-2.6,1.4
		c-0.7,0.6-1,1.5-1,2.6c0,0.7,0.1,1.4,0.4,2c0.3,0.6,0.7,1,1.2,1.5c0.5,0.4,1,0.7,1.7,0.9c0.7,0.2,1.3,0.3,2,0.3
		c1.1,0,2.1-0.2,3.1-0.5c1-0.3,1.9-0.8,2.6-1.5s1.3-1.4,1.8-2.3s0.7-2,0.7-3.1v-3.7L1.4,41.7L1.4,41.7z"/>
	<path fill="#E25758" d="M29.6,22c2.1,0,4,0.3,5.9,1c1.8,0.7,3.4,1.6,4.7,3c1.3,1.3,2.3,3,3.1,5c0.7,2,1.1,4.3,1.1,7
		c0,2.3-0.3,4.6-0.9,6.6c-0.6,2-1.5,3.7-2.7,5.2c-1.2,1.5-2.8,2.6-4.6,3.4s-4,1.3-6.5,1.3h-14V22C15.6,22,29.6,22,29.6,22z
		 M29.1,48.5c1,0,2-0.2,3-0.5c1-0.3,1.8-0.9,2.6-1.6c0.7-0.8,1.3-1.8,1.8-3c0.4-1.3,0.7-2.8,0.7-4.6c0-1.6-0.2-3.1-0.5-4.4
		s-0.8-2.4-1.6-3.4c-0.7-1-1.7-1.6-2.9-2.2C31,28.2,29.6,28,27.8,28h-5.1v20.5C22.8,48.5,29.1,48.5,29.1,48.5z"/>
	<g enable-background="new    ">
		<path fill="#E25758" d="M47.7,34.4c0.7-1,1.5-1.8,2.6-2.4c1-0.6,2.2-1,3.5-1.3s2.6-0.4,3.9-0.4c1.2,0,2.4,0.1,3.6,0.3
			c1.2,0.2,2.3,0.5,3.3,1c1,0.5,1.8,1.2,2.5,2c0.7,0.9,1,2,1,3.4v12.2c0,1,0,2.1,0.2,3c0.1,1,0.3,1.7,0.7,2.2h-6.6
			c-0.1-0.3-0.2-0.7-0.3-1.1c-0.1-0.4-0.1-0.8-0.2-1.2c-1,1-2.3,1.8-3.6,2.2c-1.4,0.4-2.8,0.7-4.3,0.7c-1.1,0-2.2-0.1-3.1-0.4
			c-1-0.3-1.8-0.7-2.6-1.3c-0.7-0.6-1.3-1.3-1.7-2.2c-0.4-0.9-0.6-1.9-0.6-3.1c0-1.3,0.2-2.4,0.7-3.3s1.1-1.6,1.8-2.1
			c0.7-0.5,1.6-0.9,2.6-1.2c1-0.3,1.9-0.5,2.9-0.6c1-0.1,1.9-0.3,2.9-0.3c1-0.1,1.8-0.2,2.5-0.4s1.3-0.4,1.7-0.8
			c0.4-0.3,0.6-0.9,0.6-1.5c0-0.7-0.1-1.3-0.3-1.6c-0.2-0.4-0.5-0.7-0.9-1c-0.4-0.2-0.8-0.4-1.3-0.4c-0.5-0.1-1-0.1-1.6-0.1
			c-1.3,0-2.3,0.3-3,0.8c-0.7,0.6-1.2,1.5-1.3,2.7h-6.5C46.6,36.7,47,35.4,47.7,34.4z M60.4,43.5c-0.4,0.1-0.9,0.3-1.3,0.3
			c-0.5,0.1-1,0.2-1.5,0.2c-0.5,0-1,0.1-1.6,0.2c-0.5,0.1-1,0.2-1.4,0.3c-0.5,0.2-0.9,0.3-1.2,0.6c-0.3,0.3-0.7,0.6-0.8,1
			c-0.2,0.4-0.3,0.9-0.3,1.5c0,0.6,0.1,1,0.3,1.5c0.2,0.4,0.5,0.7,0.9,0.9c0.3,0.2,0.8,0.4,1.3,0.5c0.5,0.1,1,0.1,1.5,0.1
			c1.3,0,2.3-0.2,3-0.7c0.7-0.4,1.2-0.9,1.6-1.5c0.3-0.6,0.5-1.2,0.6-1.8c0.1-0.6,0.1-1.1,0.1-1.5v-2.4
			C61.2,43.2,60.8,43.4,60.4,43.5z M81.6,61.5c-1.3,0.8-3,1.2-5.2,1.2c-0.7,0-1.3,0-2-0.1c-0.7,0-1.3-0.1-2-0.2v-5.3
			c0.6,0,1.2,0.1,1.9,0.2c0.7,0,1.3,0.1,1.9,0c0.9-0.1,1.5-0.4,1.9-1c0.4-0.6,0.6-1.2,0.6-1.9c0-0.5-0.1-1-0.3-1.5l-8.2-22H77
			l5.3,16.1h0.1L87.6,31h6.7l-9.8,26.4C83.8,59.3,82.8,60.7,81.6,61.5z"/>
	</g>
	<path fill="#E25758" d="M100.1,48.6c0.3,0.5,0.7,0.9,1.1,1.2c0.4,0.3,1,0.6,1.6,0.7c0.6,0.2,1.2,0.2,1.8,0.2c0.4,0,0.9,0,1.4-0.2
		c0.5-0.1,1-0.3,1.3-0.5c0.4-0.2,0.7-0.5,1-0.9c0.3-0.4,0.4-0.9,0.4-1.4c0-1-0.7-1.7-2-2.2c-1.3-0.5-3.1-1-5.4-1.5
		c-1-0.2-1.9-0.5-2.7-0.7c-0.9-0.3-1.7-0.7-2.4-1.1s-1.3-1-1.7-1.8c-0.4-0.7-0.7-1.6-0.7-2.6c0-1.5,0.3-2.8,0.9-3.7
		c0.6-1,1.4-1.7,2.3-2.3c1-0.6,2.1-1,3.3-1.2c1.2-0.2,2.5-0.3,3.7-0.3c1.3,0,2.5,0.1,3.7,0.3c1.2,0.3,2.3,0.7,3.2,1.2
		c1,0.6,1.7,1.3,2.3,2.3s1,2.2,1.1,3.6h-6.1c-0.1-1.3-0.6-2.1-1.4-2.5c-0.9-0.4-1.9-0.7-3-0.7c-0.3,0-0.7,0-1.2,0.1
		c-0.4,0-0.8,0.1-1.2,0.3c-0.3,0.1-0.7,0.4-0.9,0.7c-0.3,0.3-0.3,0.7-0.3,1.2c0,0.6,0.2,1,0.7,1.4c0.4,0.3,1,0.7,1.6,0.9
		c0.7,0.2,1.5,0.4,2.3,0.6c0.9,0.2,1.8,0.4,2.7,0.6c1,0.2,1.9,0.5,2.7,0.8c0.9,0.3,1.7,0.7,2.4,1.2s1.3,1.1,1.7,1.9
		c0.4,0.7,0.7,1.6,0.7,2.7c0,1.6-0.3,2.8-0.9,3.9c-0.6,1-1.4,1.9-2.4,2.5c-1,0.7-2.1,1.1-3.4,1.3c-1.3,0.3-2.6,0.4-3.9,0.4
		c-1.3,0-2.7-0.1-4-0.4c-1.3-0.3-2.5-0.7-3.5-1.3c-1-0.7-1.9-1.5-2.5-2.5c-0.7-1-1-2.3-1.1-3.9h6.1C99.7,47.5,99.8,48.1,100.1,48.6z
		"/>
	<g enable-background="new    ">
		<path fill="#FFFFFF" d="M-71.9,78.6c-0.1,0.4-0.2,0.8-0.4,1.1s-0.6,0.7-1,0.9c-0.4,0.2-1,0.3-1.8,0.3c-0.4,0-0.8,0-1.2-0.2
			c-0.4-0.1-0.7-0.3-1.1-0.6c-0.3-0.3-0.6-0.6-0.7-1c-0.2-0.4-0.3-0.9-0.3-1.4v-0.9h2v0.4c0,0.3,0,0.5,0,0.7s0.1,0.4,0.2,0.5
			c0.1,0.1,0.2,0.3,0.4,0.3c0.2,0.1,0.4,0.1,0.7,0.1c0.3,0,0.5,0,0.7-0.2c0.2-0.1,0.3-0.3,0.3-0.4C-74,78.3-74,78.2-74,78v-7.4h2.2
			v6.9C-71.7,77.8-71.8,78.2-71.9,78.6z M-65,80.7v-1h0c-0.3,0.4-0.6,0.7-1,0.9c-0.4,0.2-0.8,0.3-1.3,0.3c-0.5,0-1-0.1-1.3-0.2
			s-0.6-0.3-0.8-0.6c-0.2-0.3-0.3-0.6-0.4-1c-0.1-0.4-0.1-0.8-0.1-1.3v-4.5h2v4.2c0,0.6,0.1,1,0.3,1.3c0.2,0.3,0.5,0.4,1,0.4
			c0.6,0,1-0.2,1.2-0.5c0.3-0.3,0.4-0.9,0.4-1.6v-3.9h2v7.3C-63,80.7-65,80.7-65,80.7z M-59.7,73.3v1h0c0.3-0.4,0.6-0.7,1-0.9
			c0.4-0.2,0.8-0.3,1.3-0.3c0.5,0,1,0.1,1.3,0.2s0.6,0.3,0.8,0.6c0.2,0.3,0.3,0.6,0.4,1c0.1,0.4,0.1,0.8,0.1,1.3v4.5h-2v-4.2
			c0-0.6-0.1-1-0.3-1.3c-0.2-0.3-0.5-0.4-1-0.4c-0.6,0-1,0.2-1.2,0.5c-0.3,0.3-0.4,0.9-0.4,1.6v3.9h-2v-7.4
			C-61.6,73.3-59.7,73.3-59.7,73.3z M-51,78.9c0.3,0.3,0.7,0.4,1.3,0.4c0.4,0,0.7-0.1,1-0.3c0.3-0.2,0.5-0.4,0.5-0.7h1.8
			c-0.3,0.9-0.7,1.5-1.3,1.9c-0.6,0.4-1.3,0.6-2.1,0.6c-0.6,0-1.1-0.1-1.6-0.3c-0.5-0.2-0.9-0.4-1.2-0.8c-0.3-0.3-0.6-0.7-0.7-1.2
			c-0.2-0.5-0.3-1-0.3-1.6s0.1-1,0.3-1.5c0.2-0.5,0.4-0.9,0.8-1.2s0.7-0.6,1.2-0.8c0.5-0.2,1-0.3,1.5-0.3c0.6,0,1.2,0.1,1.6,0.3
			c0.5,0.3,0.8,0.6,1.1,1c0.3,0.4,0.5,0.9,0.7,1.4c0.1,0.5,0.2,1.1,0.1,1.6h-5.3C-51.5,78.2-51.3,78.6-51,78.9z M-48.7,75.1
			c-0.3-0.3-0.6-0.4-1.1-0.4c-0.3,0-0.6,0-0.8,0.2c-0.2,0.1-0.4,0.3-0.5,0.4c-0.1,0.2-0.2,0.3-0.3,0.5c0,0.2-0.1,0.3-0.1,0.5h3.3
			C-48.3,75.7-48.5,75.3-48.7,75.1z M-29.1,73.3v1.3h-1.5v3.6c0,0.3,0,0.6,0.2,0.7c0.1,0.1,0.3,0.2,0.7,0.2h0.3l0.3,0v1.6
			c-0.2,0-0.3,0-0.6,0h-0.6c-0.3,0-0.6,0-0.9,0s-0.5-0.1-0.7-0.3c-0.2-0.1-0.4-0.3-0.5-0.5s-0.2-0.5-0.2-0.9v-4.3h-1.2v-1.3h1.2
			v-2.2h2v2.2C-30.5,73.3-29.1,73.3-29.1,73.3z M-26.1,70.6v3.8h0c0.3-0.4,0.6-0.7,1-0.9c0.4-0.2,0.8-0.3,1.2-0.3
			c0.5,0,1,0.1,1.3,0.2c0.3,0.1,0.6,0.3,0.8,0.6c0.2,0.3,0.3,0.6,0.4,1c0.1,0.4,0.1,0.8,0.1,1.3v4.5h-2v-4.2c0-0.6-0.1-1-0.3-1.3
			c-0.2-0.3-0.5-0.4-1-0.4c-0.6,0-1,0.2-1.2,0.5c-0.3,0.3-0.4,0.9-0.4,1.6v3.9h-2V70.6C-28.1,70.6-26.1,70.6-26.1,70.6z M-15.4,75.9
			v1.7h-4.3v-1.7H-15.4z M-40.8,72c0.2-0.3,0.5-0.6,0.8-0.9c0.3-0.2,0.7-0.4,1.1-0.5c0.4-0.1,0.8-0.2,1.2-0.2c0.6,0,1.1,0.1,1.6,0.3
			c0.4,0.2,0.8,0.4,1,0.7s0.4,0.6,0.6,0.9c0.1,0.3,0.2,0.6,0.2,0.8c0,0.5-0.1,0.9-0.3,1.3s-0.6,0.7-1.1,0.8v0c0.6,0.1,1,0.4,1.4,0.8
			c0.3,0.4,0.5,1,0.5,1.6c0,0.5-0.1,1-0.3,1.4c-0.2,0.4-0.5,0.7-0.8,1c-0.3,0.3-0.7,0.4-1.2,0.6c-0.4,0.1-0.9,0.2-1.3,0.2
			c-0.5,0-1,0-1.4-0.2c-0.4-0.1-0.9-0.3-1.2-0.6s-0.7-0.6-0.9-1c-0.2-0.4-0.3-0.9-0.3-1.4c0-0.7,0.2-1.2,0.5-1.6s0.8-0.7,1.4-0.9v0
			c-0.5-0.1-0.9-0.4-1.1-0.7c-0.3-0.4-0.4-0.8-0.4-1.3C-41.1,72.7-41,72.3-40.8,72z M-39.3,78.3c0.1,0.2,0.2,0.4,0.4,0.5
			s0.3,0.3,0.6,0.3c0.2,0.1,0.4,0.1,0.7,0.1c0.3,0,0.5,0,0.7-0.1c0.2-0.1,0.4-0.2,0.5-0.3c0.2-0.1,0.3-0.3,0.3-0.5s0.1-0.4,0.1-0.7
			c0-0.2,0-0.4-0.1-0.7c-0.1-0.2-0.2-0.3-0.4-0.5c-0.2-0.1-0.3-0.3-0.5-0.3c-0.2-0.1-0.4-0.1-0.7-0.1c-0.5,0-0.9,0.1-1.3,0.4
			c-0.3,0.3-0.5,0.7-0.5,1.2C-39.5,77.8-39.4,78.1-39.3,78.3z M-38.8,74.3c0.3,0.2,0.7,0.3,1.1,0.3c0.4,0,0.8-0.1,1.1-0.3
			s0.4-0.6,0.4-1c0-0.1,0-0.3,0-0.4c0-0.2-0.1-0.3-0.2-0.4c-0.1-0.1-0.3-0.3-0.4-0.3c-0.2-0.1-0.4-0.1-0.8-0.1c-0.2,0-0.4,0-0.6,0.1
			c-0.2,0-0.3,0.1-0.5,0.3c-0.1,0.1-0.3,0.3-0.3,0.4c-0.1,0.2-0.1,0.4-0.1,0.6C-39.3,73.8-39.1,74.1-38.8,74.3z"/>
	</g>
	<path fill="#FFFFFF" d="M-11.1,80.7v-6.5h-2.5v-1.5c0.3,0,0.7,0,1-0.1c0.3,0,0.6-0.2,0.9-0.3c0.3-0.2,0.5-0.3,0.7-0.6
		c0.2-0.3,0.3-0.6,0.3-1h1.6v9.9L-11.1,80.7L-11.1,80.7z"/>
	<g enable-background="new    ">
		<path fill="#FFFFFF" d="M-7.1,73.2c0.2-0.7,0.5-1.2,0.8-1.6c0.3-0.4,0.7-0.7,1.2-0.9c0.4-0.2,0.9-0.3,1.4-0.3c0.5,0,1,0.1,1.4,0.3
			c0.4,0.2,0.8,0.4,1.2,0.9c0.3,0.4,0.6,0.9,0.8,1.6c0.2,0.7,0.3,1.5,0.3,2.4c0,1-0.1,1.8-0.3,2.5c-0.2,0.7-0.5,1.2-0.8,1.6
			c-0.3,0.4-0.7,0.7-1.2,0.9c-0.4,0.2-0.9,0.3-1.4,0.3c-0.5,0-1-0.1-1.4-0.3c-0.4-0.2-0.8-0.4-1.2-0.9c-0.3-0.4-0.6-0.9-0.8-1.6
			c-0.2-0.7-0.3-1.5-0.3-2.5C-7.4,74.7-7.2,73.9-7.1,73.2z M-5.3,76.7c0,0.4,0.1,0.8,0.2,1.2c0.1,0.4,0.3,0.7,0.5,1
			c0.2,0.3,0.5,0.4,1,0.4s0.7-0.1,1-0.4c0.2-0.3,0.4-0.6,0.5-1c0.1-0.4,0.2-0.8,0.2-1.2c0-0.4,0-0.7,0-1v-0.6l0-0.7l-0.1-0.8
			c0-0.3-0.2-0.5-0.3-0.7c-0.1-0.2-0.3-0.3-0.5-0.5c-0.2-0.1-0.4-0.2-0.7-0.2s-0.5,0-0.7,0.2c-0.2,0.1-0.3,0.3-0.4,0.5
			C-4.9,73.1-5,73.3-5,73.6c-0.1,0.3-0.1,0.5-0.1,0.8c0,0.3,0,0.5,0,0.7v0.6C-5.3,75.9-5.3,76.3-5.3,76.7z M5,73.3v1.3H3.6v3.6
			c0,0.3,0,0.6,0.2,0.7s0.3,0.2,0.7,0.2h0.3l0.3,0v1.6c-0.2,0-0.3,0-0.6,0H3.9c-0.3,0-0.6,0-0.9,0s-0.5-0.1-0.7-0.3
			s-0.4-0.3-0.5-0.5c-0.1-0.2-0.2-0.5-0.2-0.9v-4.3H0.4v-1.3h1.2v-2.2h2v2.2C3.7,73.3,5,73.3,5,73.3z M8,70.6v3.8h0
			c0.3-0.4,0.6-0.7,1-0.9c0.4-0.2,0.8-0.3,1.2-0.3c0.5,0,1,0.1,1.3,0.2c0.3,0.1,0.6,0.3,0.8,0.6c0.2,0.3,0.3,0.6,0.4,1
			c0.1,0.4,0.1,0.8,0.1,1.3v4.5h-2v-4.2c0-0.6-0.1-1-0.3-1.3c-0.2-0.3-0.5-0.4-1-0.4c-0.6,0-1,0.2-1.2,0.5C8.2,75.6,8,76.1,8,76.9
			v3.9H6V70.6C6,70.6,8,70.6,8,70.6z M16.8,78.5v2.2c0,0.3,0,0.6-0.2,0.9s-0.3,0.5-0.5,0.7c-0.2,0.2-0.4,0.3-0.7,0.5
			c-0.3,0.1-0.6,0.2-0.9,0.3v-1c0.1,0,0.3-0.1,0.4-0.2c0.1-0.1,0.3-0.2,0.3-0.3c0.1-0.1,0.2-0.3,0.2-0.4c0-0.1,0.1-0.3,0-0.4h-1
			v-2.2L16.8,78.5L16.8,78.5z"/>
	</g>
	<g enable-background="new    ">
		<path fill="#E25758" d="M27.6,70.6l3.8,10.2h-2.3l-0.8-2.3h-3.8l-0.8,2.3h-2.3l3.8-10.2H27.6z M27.7,76.8L26.5,73h0l-1.3,3.7H27.7
			z M34,73.3v1h0c0.3-0.4,0.6-0.7,1-0.9c0.4-0.2,0.8-0.3,1.3-0.3c0.5,0,0.9,0.1,1.3,0.3c0.4,0.2,0.7,0.5,0.9,1
			c0.2-0.3,0.5-0.6,0.9-0.9c0.4-0.3,0.8-0.4,1.3-0.4c0.4,0,0.7,0,1.1,0.1c0.3,0.1,0.6,0.3,0.9,0.4c0.2,0.2,0.4,0.5,0.6,0.8
			c0.1,0.3,0.2,0.7,0.2,1.2v4.9h-2v-4.2c0-0.3,0-0.5,0-0.7c0-0.2-0.1-0.4-0.2-0.6c-0.1-0.2-0.2-0.3-0.4-0.4s-0.4-0.1-0.7-0.1
			s-0.5,0-0.7,0.2s-0.3,0.3-0.4,0.4c-0.1,0.2-0.2,0.4-0.2,0.6c0,0.2,0,0.4,0,0.7v4.1h-2v-4.8c0,0,0-0.4-0.1-0.6
			c-0.1-0.2-0.2-0.3-0.3-0.4s-0.4-0.2-0.7-0.2c-0.1,0-0.2,0-0.4,0c-0.2,0-0.3,0.1-0.4,0.3c-0.1,0.1-0.3,0.3-0.4,0.5
			c-0.1,0.2-0.2,0.5-0.2,0.9v4.3h-2v-7.3C32,73.3,34,73.3,34,73.3z M46.7,78.8c0.1,0.2,0.2,0.3,0.3,0.4c0.1,0.1,0.3,0.2,0.5,0.2
			c0.2,0,0.4,0.1,0.6,0.1c0.1,0,0.3,0,0.4,0c0.2,0,0.3-0.1,0.4-0.2c0.1-0.1,0.2-0.2,0.3-0.3c0.1-0.1,0.1-0.3,0.1-0.4
			c0-0.3-0.2-0.5-0.6-0.7c-0.4-0.1-1-0.3-1.7-0.4l-0.9-0.2c-0.3-0.1-0.5-0.2-0.7-0.3s-0.4-0.3-0.5-0.6c-0.1-0.2-0.2-0.5-0.2-0.8
			c0-0.5,0.1-0.9,0.3-1.2c0.2-0.3,0.4-0.5,0.7-0.7c0.3-0.2,0.7-0.3,1-0.4c0.4-0.1,0.8-0.1,1.2-0.1s0.8,0,1.2,0.1
			c0.4,0.1,0.7,0.2,1,0.4c0.3,0.2,0.5,0.4,0.7,0.7c0.2,0.3,0.3,0.7,0.3,1.1h-1.9c0-0.4-0.2-0.7-0.4-0.8c-0.3-0.1-0.6-0.2-1-0.2h-0.4
			c-0.1,0-0.3,0-0.3,0.1c-0.1,0-0.2,0.1-0.3,0.2c-0.1,0.1-0.1,0.2-0.1,0.3c0,0.2,0.1,0.3,0.2,0.4c0.1,0.1,0.3,0.2,0.5,0.3
			c0.2,0.1,0.5,0.1,0.7,0.2l0.8,0.2c0.3,0.1,0.6,0.1,0.9,0.3c0.3,0.1,0.5,0.2,0.7,0.4c0.2,0.2,0.4,0.3,0.5,0.6
			c0.1,0.2,0.2,0.5,0.2,0.9c0,0.5-0.1,0.9-0.3,1.2c-0.2,0.3-0.4,0.6-0.8,0.8c-0.3,0.2-0.7,0.3-1.1,0.4c-0.4,0.1-0.8,0.1-1.2,0.1
			c-0.4,0-0.8,0-1.3-0.1c-0.4-0.1-0.8-0.2-1.1-0.4s-0.6-0.5-0.8-0.8c-0.2-0.3-0.3-0.7-0.3-1.2h1.9C46.5,78.5,46.6,78.7,46.7,78.8z
			 M56.6,73.3v1.3h-1.5v3.6c0,0.3,0,0.6,0.2,0.7c0.1,0.1,0.3,0.2,0.7,0.2h0.3c0,0,0.2,0,0.3,0v1.6c-0.2,0-0.3,0-0.6,0h-0.6
			c-0.3,0-0.6,0-0.9,0s-0.5-0.1-0.7-0.3c-0.2-0.1-0.4-0.3-0.5-0.5c-0.1-0.2-0.2-0.5-0.2-0.9v-4.3H52v-1.3h1.2v-2.2h2v2.2
			C55.3,73.3,56.6,73.3,56.6,73.3z M59.8,78.9c0.3,0.3,0.7,0.4,1.3,0.4c0.4,0,0.7-0.1,1-0.3c0.3-0.2,0.5-0.4,0.5-0.7h1.8
			c-0.3,0.9-0.7,1.5-1.3,1.9c-0.6,0.4-1.3,0.6-2.1,0.6c-0.6,0-1.1-0.1-1.6-0.3c-0.5-0.2-0.9-0.4-1.2-0.8s-0.6-0.7-0.7-1.2
			c-0.2-0.5-0.3-1-0.3-1.6s0.1-1,0.3-1.5s0.4-0.9,0.8-1.2s0.7-0.6,1.2-0.8c0.5-0.2,1-0.3,1.5-0.3c0.6,0,1.2,0.1,1.6,0.3
			c0.5,0.3,0.8,0.6,1.1,1c0.3,0.4,0.5,0.9,0.7,1.4c0.1,0.5,0.2,1.1,0.1,1.6h-5.3C59.3,78.2,59.5,78.6,59.8,78.9z M62,75.1
			c-0.3-0.3-0.6-0.4-1.1-0.4c-0.3,0-0.6,0-0.8,0.2c-0.2,0.1-0.4,0.3-0.5,0.4c-0.1,0.2-0.2,0.3-0.3,0.5c0,0.2-0.1,0.3-0.1,0.5h3.3
			C62.5,75.7,62.3,75.3,62,75.1z M67.7,73.3v1.3h0c0.1-0.2,0.2-0.4,0.4-0.7c0.2-0.2,0.3-0.3,0.6-0.5c0.2-0.1,0.4-0.3,0.7-0.3
			c0.2-0.1,0.5-0.1,0.7-0.1c0.1,0,0.3,0,0.4,0.1v1.9c-0.1,0-0.2,0-0.3,0h-0.4c-0.4,0-0.7,0-1,0.2c-0.3,0.1-0.5,0.3-0.6,0.5
			s-0.3,0.5-0.3,0.7c-0.1,0.3-0.1,0.6-0.1,0.9v3.3h-2v-7.3H67.7z M76.3,79.8c-0.2,0.4-0.6,0.7-0.9,0.9c-0.4,0.2-0.8,0.3-1.3,0.3
			c-0.6,0-1-0.1-1.4-0.3c-0.4-0.2-0.8-0.5-1-0.9c-0.3-0.3-0.5-0.8-0.6-1.3c-0.1-0.5-0.2-1-0.2-1.5c0-0.5,0.1-1,0.2-1.4
			s0.3-0.9,0.6-1.2c0.3-0.3,0.6-0.7,1-0.8c0.4-0.2,0.9-0.3,1.4-0.3c0.4,0,0.9,0.1,1.3,0.3c0.4,0.2,0.7,0.5,0.9,0.8h0v-3.7h2v10.2
			h-1.9C76.3,80.8,76.3,79.8,76.3,79.8z M76.2,76.1c0-0.3-0.2-0.5-0.3-0.7c-0.1-0.2-0.3-0.4-0.5-0.5c-0.2-0.1-0.5-0.2-0.8-0.2
			s-0.6,0.1-0.8,0.2c-0.2,0.1-0.4,0.3-0.6,0.5c-0.1,0.2-0.2,0.5-0.3,0.7c0,0.3-0.1,0.6-0.1,0.9c0,0.3,0,0.6,0.1,0.9
			c0.1,0.3,0.2,0.5,0.3,0.8c0.1,0.2,0.3,0.4,0.6,0.5c0.2,0.1,0.5,0.2,0.8,0.2s0.6-0.1,0.8-0.2c0.2-0.1,0.4-0.3,0.5-0.5
			c0.1-0.2,0.2-0.5,0.3-0.8c0.1-0.3,0.1-0.6,0.1-0.9C76.3,76.7,76.2,76.4,76.2,76.1z M80,74.4c0.2-0.3,0.5-0.6,0.8-0.7
			c0.3-0.2,0.7-0.3,1.1-0.4c0.4-0.1,0.8-0.1,1.2-0.1c0.4,0,0.7,0,1.1,0.1c0.4,0,0.7,0.2,1,0.3c0.3,0.1,0.6,0.3,0.8,0.7
			c0.2,0.3,0.3,0.6,0.3,1.1v3.8c0,0.3,0,0.7,0,1c0,0.3,0.1,0.5,0.2,0.7h-2c0-0.1-0.1-0.2-0.1-0.3c0-0.1,0-0.3,0-0.3
			c-0.3,0.3-0.7,0.6-1.1,0.7c-0.4,0.1-0.9,0.2-1.3,0.2c-0.3,0-0.7,0-1-0.1c-0.3-0.1-0.6-0.2-0.8-0.4c-0.2-0.2-0.4-0.4-0.5-0.7
			c-0.1-0.3-0.2-0.6-0.2-1c0-0.4,0.1-0.8,0.2-1c0.1-0.3,0.3-0.5,0.6-0.7c0.2-0.2,0.5-0.3,0.8-0.3c0.3-0.1,0.6-0.1,0.9-0.2l0.9-0.1
			c0.3,0,0.6-0.1,0.8-0.1c0.2,0,0.4-0.1,0.5-0.3c0.1-0.1,0.2-0.3,0.2-0.5s0-0.4-0.1-0.5s-0.2-0.2-0.3-0.3c-0.1-0.1-0.3-0.1-0.4-0.1
			c-0.2,0-0.3,0-0.5,0c-0.4,0-0.7,0.1-1,0.3c-0.2,0.2-0.3,0.4-0.4,0.9h-2C79.6,75.1,79.8,74.7,80,74.4z M84,77.3
			c-0.1,0-0.3,0.1-0.4,0.1c-0.2,0-0.3,0-0.5,0.1c-0.2,0-0.3,0-0.5,0.1l-0.4,0.1l-0.4,0.2c0,0-0.2,0.2-0.3,0.3
			c-0.1,0.1-0.1,0.3-0.1,0.5c0,0.2,0,0.3,0.1,0.4c0.1,0.1,0.2,0.2,0.3,0.3c0.1,0.1,0.3,0.1,0.4,0.1c0.1,0,0.3,0,0.5,0
			c0.4,0,0.7-0.1,0.9-0.2s0.4-0.3,0.5-0.5c0.1-0.2,0.2-0.4,0.2-0.6c0-0.2,0-0.3,0-0.4v-0.7C84.2,77.2,84.1,77.2,84,77.3z M89.8,73.3
			v1h0c0.3-0.4,0.6-0.7,1-0.9c0.4-0.2,0.8-0.3,1.3-0.3c0.5,0,0.9,0.1,1.3,0.3c0.4,0.2,0.7,0.5,0.9,1c0.2-0.3,0.5-0.6,0.9-0.9
			c0.4-0.3,0.8-0.4,1.3-0.4c0.4,0,0.7,0,1.1,0.1c0.3,0.1,0.6,0.3,0.9,0.4c0.2,0.2,0.4,0.5,0.6,0.8s0.2,0.7,0.2,1.2v4.9h-2v-4.2
			c0-0.3,0-0.5,0-0.7c0-0.2-0.1-0.4-0.2-0.6c-0.1-0.2-0.2-0.3-0.4-0.4c-0.2-0.1-0.4-0.1-0.7-0.1c-0.3,0-0.5,0-0.7,0.2
			c-0.2,0.1-0.3,0.3-0.4,0.4c-0.1,0.2-0.2,0.4-0.2,0.6s0,0.4,0,0.7v4.1h-2v-4.8c0,0,0-0.4-0.1-0.6c-0.1-0.2-0.2-0.3-0.3-0.4
			c-0.2-0.1-0.4-0.2-0.7-0.2c-0.1,0-0.2,0-0.4,0c-0.2,0-0.3,0.1-0.4,0.3s-0.3,0.3-0.4,0.5c-0.1,0.2-0.2,0.5-0.2,0.9v4.3h-2v-7.3
			C87.9,73.3,89.8,73.3,89.8,73.3z"/>
	</g>
</g>
</svg>
