<?xml version="1.0" encoding="utf-8"?>
<!-- Generator: Adobe Illustrator 18.0.0, SVG Export Plug-In . SVG Version: 6.00 Build 0)  -->
<!DOCTYPE svg PUBLIC "-//W3C//DTD SVG 1.1//EN" "http://www.w3.org/Graphics/SVG/1.1/DTD/svg11.dtd">
<svg version="1.1" id="Layer_1" xmlns="http://www.w3.org/2000/svg" xmlns:xlink="http://www.w3.org/1999/xlink" x="0px" y="0px"
	 viewBox="0 117 400 150" enable-background="new 0 117 400 150" xml:space="preserve">
<g id="Layer_2" display="none">
	<rect x="-176.6" y="-2.9" display="inline" fill="#59C8E8" width="727.7" height="363.8"/>
</g>
<g id="Layer_1_1_">
	<g opacity="0.25">
		<text transform="matrix(1 0 0 1 36.0898 185.2347)" font-family="'HelveticaNeue-Light'" font-size="70.42" letter-spacing="-1">S</text>
		<text transform="matrix(1 0 0 1 77.6083 185.2347)" font-family="'HelveticaNeue-Light'" font-size="70.42">ca</text>
		<text transform="matrix(1 0 0 1 147.8813 185.2347)" font-family="'HelveticaNeue-Light'" font-size="70.42" letter-spacing="-1">l</text>
		<text transform="matrix(1 0 0 1 158.1508 185.2347)" font-family="'HelveticaNeue-Light'" font-size="70.42">a</text>
		<text transform="matrix(1 0 0 1 202.5634 185.2348)" font-family="'HelveticaNeue-Bold'" font-size="70.42" letter-spacing="-1">D</text>
		<text transform="matrix(1 0 0 1 251.9306 185.2348)" font-family="'HelveticaNeue-Bold'" font-size="70.42">ay</text>
		<text transform="matrix(1 0 0 1 326.0918 185.2348)" font-family="'HelveticaNeue-Bold'" font-size="70.42">s</text>
	</g>
	
		<text transform="matrix(1 0 0 1 36.0898 184.5009)" fill="#FFFFFF" font-family="'HelveticaNeue-Light'" font-size="70.42" letter-spacing="-1">S</text>
	<text transform="matrix(1 0 0 1 77.6083 184.5009)" fill="#FFFFFF" font-family="'HelveticaNeue-Light'" font-size="70.42">ca</text>
	
		<text transform="matrix(1 0 0 1 147.8813 184.5009)" fill="#FFFFFF" font-family="'HelveticaNeue-Light'" font-size="70.42" letter-spacing="-1">l</text>
	<text transform="matrix(1 0 0 1 158.1508 184.5009)" fill="#FFFFFF" font-family="'HelveticaNeue-Light'" font-size="70.42">a</text>
	
		<text transform="matrix(1 0 0 1 202.5634 184.5009)" fill="#E25758" font-family="'HelveticaNeue-Bold'" font-size="70.42" letter-spacing="-1">D</text>
	<text transform="matrix(1 0 0 1 251.9306 184.5009)" fill="#E25758" font-family="'HelveticaNeue-Bold'" font-size="70.42">ay</text>
	<text transform="matrix(1 0 0 1 326.0918 184.5009)" fill="#E25758" font-family="'HelveticaNeue-Bold'" font-size="70.42">s</text>
	<g>
		<text transform="matrix(1 0 0 1 106.1292 225.9383)" fill="#FFFFFF" font-family="'HelveticaNeue-Bold'" font-size="22.0062">1</text>
		<text transform="matrix(1 0 0 1 158.577 225.9383)" fill="#FFFFFF" font-family="'HelveticaNeue-Bold'" font-size="22.0062">1</text>
		<text transform="matrix(1 0 0 1 208.6782 225.9383)" font-family="'HelveticaNeue-Bold'" font-size="22.0062"> </text>
		<g>
			<text transform="matrix(1 0 0 1 35.6605 225.9383)" fill="#FFFFFF" font-family="'HelveticaNeue-Bold'" font-size="22.0062">March</text>
			<text transform="matrix(1 0 0 1 116.6186 225.9383)" fill="#FFFFFF" font-family="'HelveticaNeue-Bold'" font-size="22.0062">6th-</text>
			<text transform="matrix(1 0 0 1 169.5067 225.9383)" fill="#FFFFFF" font-family="'HelveticaNeue-Bold'" font-size="22.0062">8th,</text>
			<text transform="matrix(1 0 0 1 214.7661 225.9383)" fill="#E25758" font-family="'HelveticaNeue-Bold'" font-size="22.0062">San Francisco</text>
		</g>
	</g>
	<text transform="matrix(1 0 0 1 61.4945 255.2792)" fill="#FFFFFF" font-family="'HelveticaNeue-Bold'" font-size="22.0062">June 6th-</text>
	<text transform="matrix(1 0 0 1 160.5223 255.2792)" fill="#FFFFFF" font-family="'HelveticaNeue-Bold'" font-size="22.0062">1</text>
	<text transform="matrix(1 0 0 1 171.452 255.2792)" fill="#FFFFFF" font-family="'HelveticaNeue-Bold'" font-size="22.0062">0th,</text>
	<text transform="matrix(1 0 0 1 210.623 255.2792)" font-family="'HelveticaNeue-Bold'" font-size="22.0062"> </text>
	<text transform="matrix(1 0 0 1 216.7119 255.2792)" fill="#E25758" font-family="'HelveticaNeue-Bold'" font-size="22.0062">Amsterdam</text>
</g>
</svg>
