<?xml version="1.0" encoding="utf-8"?>
<!-- Generator: Adobe Illustrator 18.0.0, SVG Export Plug-In . SVG Version: 6.00 Build 0)  -->
<!DOCTYPE svg PUBLIC "-//W3C//DTD SVG 1.1//EN" "http://www.w3.org/Graphics/SVG/1.1/DTD/svg11.dtd">
<svg version="1.1" id="Layer_1" xmlns="http://www.w3.org/2000/svg" xmlns:xlink="http://www.w3.org/1999/xlink" x="0px" y="0px"
	 viewBox="0 0 595.3 205.5" enable-background="new 0 0 595.3 205.5" xml:space="preserve">
<g id="Layer_2" display="none">
	<rect x="-262.8" y="36.7" display="inline" fill="#59C8E8" width="1083" height="541.4"/>
</g>
<g id="Layer_1_1_">
	<g opacity="0.25">
		<g enable-background="new    ">
			<path d="M66.4,75.7c1.3,2.6,3,4.6,5.2,6.2c2.2,1.5,4.8,2.6,7.8,3.3c3,0.7,6.2,1,9.6,1c2,0,4.1-0.3,6.4-0.8
				c2.3-0.6,4.5-1.4,6.4-2.7c2-1.2,3.6-2.8,5-4.7c1.3-1.9,2-4.2,2-7c0-2.1-0.5-3.9-1.4-5.4c-0.9-1.5-2.2-2.8-3.7-3.9
				c-1.5-1-3.2-1.9-5-2.6c-1.8-0.7-3.6-1.2-5.3-1.6l-16.7-4.1c-2.2-0.6-4.3-1.3-6.3-2.1c-2.1-0.8-3.9-2-5.4-3.4
				c-1.5-1.4-2.8-3.1-3.7-5.1c-0.9-2-1.4-4.5-1.4-7.4c0-1.8,0.3-3.9,1-6.4c0.7-2.4,2-4.8,3.9-6.9c1.9-2.2,4.6-4,7.9-5.5
				c3.4-1.5,7.7-2.3,12.9-2.3c3.7,0,7.2,0.5,10.6,1.5c3.4,1,6.3,2.4,8.8,4.4s4.5,4.4,6,7.3c1.5,2.9,2.3,6.3,2.3,10.1h-7.1
				c-0.1-2.9-0.8-5.4-1.9-7.5c-1.2-2.1-2.7-3.9-4.5-5.3c-1.9-1.4-4-2.5-6.4-3.2c-2.4-0.7-4.9-1.1-7.6-1.1c-2.4,0-4.8,0.3-7.1,0.8
				c-2.3,0.5-4.3,1.4-6,2.5c-1.7,1.2-3.1,2.7-4.1,4.6c-1,1.9-1.6,4.2-1.6,7c0,1.7,0.3,3.3,0.9,4.6c0.6,1.3,1.4,2.4,2.5,3.3
				c1,0.9,2.3,1.6,3.6,2.2c1.4,0.6,2.8,1,4.3,1.4l18.2,4.5c2.7,0.7,5.2,1.6,7.5,2.6c2.3,1,4.4,2.3,6.2,3.8c1.8,1.5,3.2,3.3,4.2,5.5
				c1,2.2,1.5,4.8,1.5,7.9c0,0.8-0.1,2-0.3,3.4c-0.2,1.4-0.6,2.9-1.3,4.5c-0.7,1.6-1.6,3.2-2.8,4.8c-1.2,1.6-2.9,3.1-5,4.3
				c-2.1,1.3-4.8,2.3-7.9,3.1c-3.1,0.8-6.9,1.2-11.3,1.2c-4.4,0-8.5-0.5-12.3-1.5c-3.8-1-7-2.6-9.6-4.7c-2.7-2.1-4.7-4.8-6.1-8.1
				c-1.4-3.3-2-7.2-1.8-11.8h7.1C64.5,69.9,65.1,73.1,66.4,75.7z"/>
		</g>
		<g enable-background="new    ">
			<path d="M154.9,44.1c-2.4-2.3-5.9-3.5-10.3-3.5c-3.1,0-5.9,0.7-8.3,2c-2.4,1.3-4.3,3.1-5.9,5.2c-1.6,2.2-2.8,4.6-3.6,7.4
				c-0.8,2.8-1.2,5.6-1.2,8.4c0,2.9,0.4,5.7,1.2,8.4c0.8,2.8,2,5.2,3.6,7.4c1.6,2.2,3.5,3.9,5.9,5.2c2.4,1.3,5.1,2,8.3,2
				c2,0,3.9-0.4,5.8-1.2c1.8-0.8,3.4-1.8,4.8-3.2c1.4-1.4,2.5-3,3.5-4.9c0.9-1.9,1.5-3.9,1.7-6.2h6.6c-0.9,6.6-3.3,11.7-7.2,15.4
				c-3.9,3.7-8.9,5.5-15.1,5.5c-4.1,0-7.8-0.8-11-2.3c-3.2-1.5-5.9-3.5-8-6.1c-2.2-2.6-3.8-5.6-4.9-9.1c-1.1-3.5-1.7-7.1-1.7-11.1
				c0-3.9,0.6-7.6,1.7-11.1c1.1-3.5,2.8-6.5,4.9-9.1c2.2-2.6,4.8-4.6,8-6.2c3.2-1.5,6.8-2.3,11-2.3c5.8,0,10.7,1.5,14.7,4.6
				c4,3.1,6.4,7.7,7.2,13.9h-6.6C159,49.5,157.3,46.4,154.9,44.1z"/>
			<path d="M177.5,45c1.1-2.3,2.6-4.2,4.6-5.7c1.9-1.5,4.2-2.5,6.8-3.2c2.6-0.7,5.4-1,8.6-1c2.4,0,4.8,0.2,7.1,0.7
				c2.4,0.5,4.5,1.3,6.4,2.6c1.9,1.3,3.4,3,4.6,5.3c1.2,2.3,1.8,5.2,1.8,8.9v28.7c0,2.7,1.3,4,3.9,4c0.8,0,1.5-0.1,2.1-0.4v5.6
				c-0.8,0.1-1.5,0.2-2,0.3c-0.6,0.1-1.3,0.1-2.3,0.1c-1.7,0-3-0.2-4-0.7c-1-0.5-1.8-1.1-2.4-1.9c-0.6-0.8-0.9-1.8-1.1-3
				c-0.2-1.2-0.3-2.4-0.3-3.8h-0.2c-1.2,1.7-2.4,3.3-3.6,4.7c-1.2,1.4-2.6,2.5-4.1,3.4c-1.5,0.9-3.2,1.6-5.1,2.1
				c-1.9,0.5-4.2,0.7-6.9,0.7c-2.5,0-4.9-0.3-7.1-0.9c-2.2-0.6-4.1-1.5-5.8-2.8c-1.6-1.3-2.9-2.9-3.9-4.9c-0.9-2-1.4-4.3-1.4-7.1
				c0-3.8,0.8-6.7,2.5-8.9c1.7-2.1,3.9-3.8,6.7-4.9c2.8-1.1,5.9-1.9,9.3-2.4c3.5-0.5,7-0.9,10.5-1.3c1.4-0.1,2.6-0.3,3.7-0.5
				c1-0.2,1.9-0.6,2.6-1.1c0.7-0.5,1.2-1.2,1.6-2.1c0.4-0.9,0.6-2.1,0.6-3.6c0-2.2-0.4-4.1-1.1-5.5c-0.7-1.4-1.7-2.6-3-3.4
				c-1.3-0.8-2.8-1.4-4.5-1.7c-1.7-0.3-3.5-0.5-5.5-0.5c-4.2,0-7.6,1-10.3,3c-2.7,2-4.1,5.2-4.2,9.6h-6.6
				C175.8,50,176.4,47.3,177.5,45z M210.5,61.1c-0.4,0.8-1.2,1.3-2.4,1.7c-1.2,0.4-2.2,0.6-3.1,0.7c-2.8,0.5-5.7,0.9-8.6,1.3
				c-3,0.4-5.7,1-8.1,1.7c-2.4,0.8-4.5,1.9-6,3.3c-1.6,1.4-2.4,3.5-2.4,6.1c0,1.7,0.3,3.2,1,4.5c0.7,1.3,1.6,2.4,2.7,3.4
				c1.1,0.9,2.4,1.7,3.9,2.1c1.5,0.5,3,0.7,4.5,0.7c2.5,0,4.9-0.4,7.2-1.2c2.3-0.8,4.3-1.9,6-3.4c1.7-1.5,3.1-3.2,4.1-5.3
				c1-2.1,1.5-4.5,1.5-7.1v-8.6H210.5z"/>
		</g>
		<g enable-background="new    ">
			<path d="M233.1,15.9v74.8h-6.6V15.9H233.1z"/>
		</g>
		<g enable-background="new    ">
			<path d="M243,45c1.1-2.3,2.6-4.2,4.6-5.7c1.9-1.5,4.2-2.5,6.8-3.2c2.6-0.7,5.4-1,8.6-1c2.4,0,4.8,0.2,7.1,0.7
				c2.4,0.5,4.5,1.3,6.4,2.6c1.9,1.3,3.4,3,4.6,5.3c1.2,2.3,1.8,5.2,1.8,8.9v28.7c0,2.7,1.3,4,3.9,4c0.8,0,1.5-0.1,2.1-0.4v5.6
				c-0.8,0.1-1.5,0.2-2,0.3c-0.6,0.1-1.3,0.1-2.3,0.1c-1.7,0-3-0.2-4-0.7c-1-0.5-1.8-1.1-2.4-1.9c-0.6-0.8-0.9-1.8-1.1-3
				c-0.2-1.2-0.3-2.4-0.3-3.8h-0.2c-1.2,1.7-2.4,3.3-3.6,4.7c-1.2,1.4-2.6,2.5-4.1,3.4c-1.5,0.9-3.2,1.6-5.1,2.1
				c-1.9,0.5-4.2,0.7-6.9,0.7c-2.5,0-4.9-0.3-7.1-0.9c-2.2-0.6-4.1-1.5-5.8-2.8c-1.6-1.3-2.9-2.9-3.9-4.9c-0.9-2-1.4-4.3-1.4-7.1
				c0-3.8,0.8-6.7,2.5-8.9c1.7-2.1,3.9-3.8,6.7-4.9c2.8-1.1,5.9-1.9,9.3-2.4c3.5-0.5,7-0.9,10.5-1.3c1.4-0.1,2.6-0.3,3.7-0.5
				c1-0.2,1.9-0.6,2.6-1.1c0.7-0.5,1.2-1.2,1.6-2.1c0.4-0.9,0.6-2.1,0.6-3.6c0-2.2-0.4-4.1-1.1-5.5c-0.7-1.4-1.7-2.6-3-3.4
				c-1.3-0.8-2.8-1.4-4.5-1.7c-1.7-0.3-3.5-0.5-5.5-0.5c-4.2,0-7.6,1-10.3,3c-2.7,2-4.1,5.2-4.2,9.6H241C241.2,50,241.9,47.3,243,45
				z M276,61.1c-0.4,0.8-1.2,1.3-2.4,1.7c-1.2,0.4-2.2,0.6-3.1,0.7c-2.8,0.5-5.7,0.9-8.6,1.3c-3,0.4-5.7,1-8.1,1.7
				c-2.4,0.8-4.5,1.9-6,3.3c-1.6,1.4-2.4,3.5-2.4,6.1c0,1.7,0.3,3.2,1,4.5c0.7,1.3,1.6,2.4,2.7,3.4c1.1,0.9,2.4,1.7,3.9,2.1
				c1.5,0.5,3,0.7,4.5,0.7c2.5,0,4.9-0.4,7.2-1.2c2.3-0.8,4.3-1.9,6-3.4c1.7-1.5,3.1-3.2,4.1-5.3c1-2.1,1.5-4.5,1.5-7.1v-8.6H276z"
				/>
		</g>
		<g enable-background="new    ">
			<path d="M341,15.9c4.8,0,9.3,0.8,13.5,2.3c4.2,1.5,7.8,3.8,10.8,6.9c3,3.1,5.4,6.9,7.1,11.5c1.7,4.6,2.6,10,2.6,16.2
				c0,5.4-0.7,10.5-2.1,15.1c-1.4,4.6-3.5,8.6-6.3,11.9c-2.8,3.4-6.4,6-10.6,7.9c-4.2,1.9-9.2,2.9-14.9,2.9h-32.3V15.9H341z
				 M339.8,76.9c2.4,0,4.7-0.4,6.9-1.2c2.2-0.8,4.2-2,6-3.8c1.7-1.8,3.1-4.1,4.2-7c1-2.9,1.6-6.4,1.6-10.5c0-3.8-0.4-7.2-1.1-10.2
				s-1.9-5.6-3.6-7.8c-1.7-2.2-3.9-3.8-6.7-5c-2.8-1.2-6.2-1.7-10.2-1.7h-11.7v47.2H339.8z"/>
		</g>
		<g enable-background="new    ">
			<path d="M382.6,44.5c1.5-2.3,3.5-4.2,5.9-5.6c2.4-1.4,5-2.4,8-3c3-0.6,6-0.9,9-0.9c2.7,0,5.5,0.2,8.3,0.6
				c2.8,0.4,5.3,1.1,7.7,2.3c2.3,1.1,4.2,2.7,5.7,4.7c1.5,2,2.2,4.6,2.2,7.9v28.2c0,2.4,0.1,4.8,0.4,7c0.3,2.2,0.8,3.9,1.5,5H416
				c-0.3-0.8-0.5-1.7-0.7-2.6c-0.2-0.9-0.3-1.8-0.4-2.7c-2.4,2.4-5.2,4.2-8.4,5.1c-3.2,1-6.5,1.5-9.9,1.5c-2.6,0-5-0.3-7.2-0.9
				c-2.2-0.6-4.2-1.6-5.9-2.9c-1.7-1.3-3-3-3.9-5c-0.9-2-1.4-4.4-1.4-7.2c0-3.1,0.5-5.6,1.6-7.6c1.1-2,2.5-3.6,4.2-4.8
				c1.7-1.2,3.7-2.1,5.9-2.7c2.2-0.6,4.4-1.1,6.7-1.4c2.2-0.3,4.4-0.6,6.6-0.8c2.2-0.2,4.1-0.5,5.8-0.9s3-1,4-1.8
				c1-0.8,1.4-2,1.4-3.5c0-1.6-0.3-2.9-0.8-3.8c-0.5-0.9-1.2-1.7-2.1-2.2c-0.9-0.5-1.9-0.9-3-1c-1.2-0.2-2.4-0.3-3.7-0.3
				c-2.9,0-5.2,0.6-6.9,1.9c-1.7,1.3-2.7,3.4-2.9,6.3H380C380.2,49.7,381,46.8,382.6,44.5z M412,65.5c-0.9,0.3-2,0.6-3,0.8
				c-1.1,0.2-2.2,0.4-3.4,0.5c-1.2,0.1-2.4,0.3-3.6,0.5c-1.1,0.2-2.2,0.5-3.3,0.8c-1.1,0.4-2,0.8-2.8,1.4c-0.8,0.6-1.5,1.3-1.9,2.3
				c-0.5,0.9-0.7,2.1-0.7,3.5c0,1.3,0.2,2.4,0.7,3.4c0.5,0.9,1.2,1.6,2,2.1c0.8,0.5,1.8,0.9,2.9,1.1c1.1,0.2,2.3,0.3,3.5,0.3
				c2.9,0,5.2-0.5,6.8-1.5c1.6-1,2.8-2.1,3.6-3.5c0.8-1.4,1.2-2.7,1.4-4.1c0.2-1.4,0.3-2.5,0.3-3.4v-5.6
				C413.7,64.7,412.9,65.2,412,65.5z"/>
			<path d="M460.8,106.8c-2.9,1.9-6.8,2.8-11.9,2.8c-1.5,0-3.1-0.1-4.6-0.2c-1.5-0.1-3-0.2-4.6-0.4V96.9c1.4,0.1,2.8,0.3,4.3,0.4
				c1.5,0.1,2.9,0.2,4.4,0.1c2-0.2,3.4-1,4.3-2.3c0.9-1.3,1.4-2.8,1.4-4.4c0-1.2-0.2-2.3-0.6-3.4l-19-50.8h15.8l12.3,37.1h0.2
				l11.8-37.1h15.4l-22.6,60.9C465.9,101.8,463.6,105,460.8,106.8z"/>
		</g>
		<g enable-background="new    ">
			<path d="M503.5,77.2c0.7,1.2,1.5,2.1,2.6,2.8c1,0.7,2.3,1.3,3.6,1.6c1.4,0.4,2.8,0.5,4.2,0.5c1,0,2.1-0.1,3.3-0.4
				c1.2-0.2,2.2-0.6,3.1-1.2c0.9-0.5,1.7-1.2,2.4-2.1c0.6-0.9,0.9-2,0.9-3.3c0-2.2-1.5-3.9-4.5-5c-3-1.1-7.1-2.2-12.4-3.4
				c-2.2-0.5-4.3-1.1-6.3-1.7c-2.1-0.7-3.9-1.5-5.5-2.6c-1.6-1.1-2.9-2.4-3.9-4.1c-1-1.6-1.5-3.7-1.5-6c0-3.5,0.7-6.4,2-8.6
				c1.4-2.2,3.2-4,5.4-5.3c2.2-1.3,4.8-2.2,7.5-2.7c2.8-0.5,5.7-0.8,8.6-0.8c2.9,0,5.8,0.3,8.5,0.8c2.8,0.6,5.2,1.5,7.4,2.8
				c2.2,1.3,4,3.1,5.4,5.3c1.4,2.2,2.3,5,2.6,8.3h-14.1c-0.2-2.9-1.3-4.8-3.2-5.8c-2-1-4.3-1.5-6.9-1.5c-0.8,0-1.7,0.1-2.7,0.2
				c-1,0.1-1.9,0.3-2.7,0.7c-0.8,0.3-1.5,0.9-2,1.5c-0.6,0.7-0.8,1.6-0.8,2.7c0,1.3,0.5,2.4,1.5,3.2c1,0.8,2.3,1.5,3.8,2
				c1.6,0.5,3.4,1,5.4,1.4c2,0.4,4.1,0.9,6.2,1.4c2.2,0.5,4.3,1.1,6.3,1.8c2.1,0.7,3.9,1.6,5.5,2.8c1.6,1.2,2.9,2.6,3.9,4.3
				c1,1.7,1.5,3.8,1.5,6.3c0,3.6-0.7,6.5-2.1,9c-1.4,2.4-3.3,4.3-5.6,5.8c-2.3,1.5-4.9,2.5-7.9,3.1c-3,0.6-6,0.9-9.1,0.9
				c-3.1,0-6.2-0.3-9.2-0.9c-3-0.6-5.7-1.7-8-3.1c-2.3-1.5-4.3-3.4-5.8-5.8c-1.5-2.4-2.3-5.4-2.5-9.1h14.1
				C502.5,74.7,502.8,76.1,503.5,77.2z"/>
		</g>
	</g>
	<g enable-background="new    ">
		<path fill="#FFFFFF" d="M66.4,74.6c1.3,2.6,3,4.6,5.2,6.2c2.2,1.5,4.8,2.6,7.8,3.3c3,0.7,6.2,1,9.6,1c2,0,4.1-0.3,6.4-0.8
			c2.3-0.6,4.5-1.4,6.4-2.7c2-1.2,3.6-2.8,5-4.7c1.3-1.9,2-4.2,2-7c0-2.1-0.5-3.9-1.4-5.4c-0.9-1.5-2.2-2.8-3.7-3.9
			c-1.5-1-3.2-1.9-5-2.6c-1.8-0.7-3.6-1.2-5.3-1.6l-16.7-4.1c-2.2-0.6-4.3-1.3-6.3-2.1c-2.1-0.8-3.9-2-5.4-3.4
			c-1.5-1.4-2.8-3.1-3.7-5.1c-0.9-2-1.4-4.5-1.4-7.4c0-1.8,0.3-3.9,1-6.4c0.7-2.4,2-4.8,3.9-6.9c1.9-2.2,4.6-4,7.9-5.5
			c3.4-1.5,7.7-2.3,12.9-2.3c3.7,0,7.2,0.5,10.6,1.5c3.4,1,6.3,2.4,8.8,4.4s4.5,4.4,6,7.3c1.5,2.9,2.3,6.3,2.3,10.1h-7.1
			c-0.1-2.9-0.8-5.4-1.9-7.5c-1.2-2.1-2.7-3.9-4.5-5.3c-1.9-1.4-4-2.5-6.4-3.2c-2.4-0.7-4.9-1.1-7.6-1.1c-2.4,0-4.8,0.3-7.1,0.8
			c-2.3,0.5-4.3,1.4-6,2.5c-1.7,1.2-3.1,2.7-4.1,4.6c-1,1.9-1.6,4.2-1.6,7c0,1.7,0.3,3.3,0.9,4.6c0.6,1.3,1.4,2.4,2.5,3.3
			c1,0.9,2.3,1.6,3.6,2.2c1.4,0.6,2.8,1,4.3,1.4l18.2,4.5c2.7,0.7,5.2,1.6,7.5,2.6c2.3,1,4.4,2.3,6.2,3.8c1.8,1.5,3.2,3.3,4.2,5.5
			c1,2.2,1.5,4.8,1.5,7.9c0,0.8-0.1,2-0.3,3.4c-0.2,1.4-0.6,2.9-1.3,4.5c-0.7,1.6-1.6,3.2-2.8,4.8c-1.2,1.6-2.9,3.1-5,4.3
			c-2.1,1.3-4.8,2.3-7.9,3.1c-3.1,0.8-6.9,1.2-11.3,1.2c-4.4,0-8.5-0.5-12.3-1.5c-3.8-1-7-2.6-9.6-4.7c-2.7-2.1-4.7-4.8-6.1-8.1
			c-1.4-3.3-2-7.2-1.8-11.8h7.1C64.5,68.8,65.1,72,66.4,74.6z"/>
	</g>
	<g enable-background="new    ">
		<path fill="#FFFFFF" d="M154.9,43c-2.4-2.3-5.9-3.5-10.3-3.5c-3.1,0-5.9,0.7-8.3,2c-2.4,1.3-4.3,3.1-5.9,5.2
			c-1.6,2.2-2.8,4.6-3.6,7.4c-0.8,2.8-1.2,5.6-1.2,8.4c0,2.9,0.4,5.7,1.2,8.4c0.8,2.8,2,5.2,3.6,7.4c1.6,2.2,3.5,3.9,5.9,5.2
			c2.4,1.3,5.1,2,8.3,2c2,0,3.9-0.4,5.8-1.2c1.8-0.8,3.4-1.8,4.8-3.2c1.4-1.4,2.5-3,3.5-4.9c0.9-1.9,1.5-3.9,1.7-6.2h6.6
			c-0.9,6.6-3.3,11.7-7.2,15.4c-3.9,3.7-8.9,5.5-15.1,5.5c-4.1,0-7.8-0.8-11-2.3c-3.2-1.5-5.9-3.5-8-6.1c-2.2-2.6-3.8-5.6-4.9-9.1
			c-1.1-3.5-1.7-7.1-1.7-11.1c0-3.9,0.6-7.6,1.7-11.1c1.1-3.5,2.8-6.5,4.9-9.1c2.2-2.6,4.8-4.6,8-6.2c3.2-1.5,6.8-2.3,11-2.3
			c5.8,0,10.7,1.5,14.7,4.6c4,3.1,6.4,7.7,7.2,13.9h-6.6C159,48.5,157.3,45.3,154.9,43z"/>
		<path fill="#FFFFFF" d="M177.5,43.9c1.1-2.3,2.6-4.2,4.6-5.7c1.9-1.5,4.2-2.5,6.8-3.2c2.6-0.7,5.4-1,8.6-1c2.4,0,4.8,0.2,7.1,0.7
			c2.4,0.5,4.5,1.3,6.4,2.6c1.9,1.3,3.4,3,4.6,5.3c1.2,2.3,1.8,5.2,1.8,8.9v28.7c0,2.7,1.3,4,3.9,4c0.8,0,1.5-0.1,2.1-0.4v5.6
			c-0.8,0.1-1.5,0.2-2,0.3c-0.6,0.1-1.3,0.1-2.3,0.1c-1.7,0-3-0.2-4-0.7c-1-0.5-1.8-1.1-2.4-1.9c-0.6-0.8-0.9-1.8-1.1-3
			c-0.2-1.2-0.3-2.4-0.3-3.8h-0.2c-1.2,1.7-2.4,3.3-3.6,4.7c-1.2,1.4-2.6,2.5-4.1,3.4c-1.5,0.9-3.2,1.6-5.1,2.1
			c-1.9,0.5-4.2,0.7-6.9,0.7c-2.5,0-4.9-0.3-7.1-0.9c-2.2-0.6-4.1-1.5-5.8-2.8c-1.6-1.3-2.9-2.9-3.9-4.9c-0.9-2-1.4-4.3-1.4-7.1
			c0-3.8,0.8-6.7,2.5-8.9c1.7-2.1,3.9-3.8,6.7-4.9c2.8-1.1,5.9-1.9,9.3-2.4c3.5-0.5,7-0.9,10.5-1.3c1.4-0.1,2.6-0.3,3.7-0.5
			c1-0.2,1.9-0.6,2.6-1.1c0.7-0.5,1.2-1.2,1.6-2.1c0.4-0.9,0.6-2.1,0.6-3.6c0-2.2-0.4-4.1-1.1-5.5c-0.7-1.4-1.7-2.6-3-3.4
			c-1.3-0.8-2.8-1.4-4.5-1.7c-1.7-0.3-3.5-0.5-5.5-0.5c-4.2,0-7.6,1-10.3,3c-2.7,2-4.1,5.2-4.2,9.6h-6.6
			C175.8,48.9,176.4,46.2,177.5,43.9z M210.5,60.1c-0.4,0.8-1.2,1.3-2.4,1.7c-1.2,0.4-2.2,0.6-3.1,0.7c-2.8,0.5-5.7,0.9-8.6,1.3
			c-3,0.4-5.7,1-8.1,1.7c-2.4,0.8-4.5,1.9-6,3.3c-1.6,1.4-2.4,3.5-2.4,6.1c0,1.7,0.3,3.2,1,4.5c0.7,1.3,1.6,2.4,2.7,3.4
			c1.1,0.9,2.4,1.7,3.9,2.1c1.5,0.5,3,0.7,4.5,0.7c2.5,0,4.9-0.4,7.2-1.2c2.3-0.8,4.3-1.9,6-3.4c1.7-1.5,3.1-3.2,4.1-5.3
			c1-2.1,1.5-4.5,1.5-7.1v-8.6H210.5z"/>
	</g>
	<g enable-background="new    ">
		<path fill="#FFFFFF" d="M233.1,14.8v74.8h-6.6V14.8H233.1z"/>
	</g>
	<g enable-background="new    ">
		<path fill="#FFFFFF" d="M243,43.9c1.1-2.3,2.6-4.2,4.6-5.7c1.9-1.5,4.2-2.5,6.8-3.2c2.6-0.7,5.4-1,8.6-1c2.4,0,4.8,0.2,7.1,0.7
			c2.4,0.5,4.5,1.3,6.4,2.6c1.9,1.3,3.4,3,4.6,5.3c1.2,2.3,1.8,5.2,1.8,8.9v28.7c0,2.7,1.3,4,3.9,4c0.8,0,1.5-0.1,2.1-0.4v5.6
			c-0.8,0.1-1.5,0.2-2,0.3c-0.6,0.1-1.3,0.1-2.3,0.1c-1.7,0-3-0.2-4-0.7c-1-0.5-1.8-1.1-2.4-1.9c-0.6-0.8-0.9-1.8-1.1-3
			c-0.2-1.2-0.3-2.4-0.3-3.8h-0.2c-1.2,1.7-2.4,3.3-3.6,4.7c-1.2,1.4-2.6,2.5-4.1,3.4c-1.5,0.9-3.2,1.6-5.1,2.1
			c-1.9,0.5-4.2,0.7-6.9,0.7c-2.5,0-4.9-0.3-7.1-0.9c-2.2-0.6-4.1-1.5-5.8-2.8c-1.6-1.3-2.9-2.9-3.9-4.9c-0.9-2-1.4-4.3-1.4-7.1
			c0-3.8,0.8-6.7,2.5-8.9c1.7-2.1,3.9-3.8,6.7-4.9c2.8-1.1,5.9-1.9,9.3-2.4c3.5-0.5,7-0.9,10.5-1.3c1.4-0.1,2.6-0.3,3.7-0.5
			c1-0.2,1.9-0.6,2.6-1.1c0.7-0.5,1.2-1.2,1.6-2.1c0.4-0.9,0.6-2.1,0.6-3.6c0-2.2-0.4-4.1-1.1-5.5c-0.7-1.4-1.7-2.6-3-3.4
			c-1.3-0.8-2.8-1.4-4.5-1.7c-1.7-0.3-3.5-0.5-5.5-0.5c-4.2,0-7.6,1-10.3,3c-2.7,2-4.1,5.2-4.2,9.6H241
			C241.2,48.9,241.9,46.2,243,43.9z M276,60.1c-0.4,0.8-1.2,1.3-2.4,1.7c-1.2,0.4-2.2,0.6-3.1,0.7c-2.8,0.5-5.7,0.9-8.6,1.3
			c-3,0.4-5.7,1-8.1,1.7c-2.4,0.8-4.5,1.9-6,3.3c-1.6,1.4-2.4,3.5-2.4,6.1c0,1.7,0.3,3.2,1,4.5c0.7,1.3,1.6,2.4,2.7,3.4
			c1.1,0.9,2.4,1.7,3.9,2.1c1.5,0.5,3,0.7,4.5,0.7c2.5,0,4.9-0.4,7.2-1.2c2.3-0.8,4.3-1.9,6-3.4c1.7-1.5,3.1-3.2,4.1-5.3
			c1-2.1,1.5-4.5,1.5-7.1v-8.6H276z"/>
	</g>
	<g enable-background="new    ">
		<path fill="#E25758" d="M341,14.8c4.8,0,9.3,0.8,13.5,2.3c4.2,1.5,7.8,3.8,10.8,6.9c3,3.1,5.4,6.9,7.1,11.5
			c1.7,4.6,2.6,10,2.6,16.2c0,5.4-0.7,10.5-2.1,15.1c-1.4,4.6-3.5,8.6-6.3,11.9c-2.8,3.4-6.4,6-10.6,7.9c-4.2,1.9-9.2,2.9-14.9,2.9
			h-32.3V14.8H341z M339.8,75.8c2.4,0,4.7-0.4,6.9-1.2c2.2-0.8,4.2-2,6-3.8c1.7-1.8,3.1-4.1,4.2-7c1-2.9,1.6-6.4,1.6-10.5
			c0-3.8-0.4-7.2-1.1-10.2s-1.9-5.6-3.6-7.8c-1.7-2.2-3.9-3.8-6.7-5c-2.8-1.2-6.2-1.7-10.2-1.7h-11.7v47.2H339.8z"/>
	</g>
	<g enable-background="new    ">
		<path fill="#E25758" d="M382.6,43.4c1.5-2.3,3.5-4.2,5.9-5.6c2.4-1.4,5-2.4,8-3c3-0.6,6-0.9,9-0.9c2.7,0,5.5,0.2,8.3,0.6
			c2.8,0.4,5.3,1.1,7.7,2.3c2.3,1.1,4.2,2.7,5.7,4.7c1.5,2,2.2,4.6,2.2,7.9v28.2c0,2.4,0.1,4.8,0.4,7c0.3,2.2,0.8,3.9,1.5,5H416
			c-0.3-0.8-0.5-1.7-0.7-2.6c-0.2-0.9-0.3-1.8-0.4-2.7c-2.4,2.4-5.2,4.2-8.4,5.1c-3.2,1-6.5,1.5-9.9,1.5c-2.6,0-5-0.3-7.2-0.9
			c-2.2-0.6-4.2-1.6-5.9-2.9c-1.7-1.3-3-3-3.9-5c-0.9-2-1.4-4.4-1.4-7.2c0-3.1,0.5-5.6,1.6-7.6c1.1-2,2.5-3.6,4.2-4.8
			c1.7-1.2,3.7-2.1,5.9-2.7c2.2-0.6,4.4-1.1,6.7-1.4c2.2-0.3,4.4-0.6,6.6-0.8c2.2-0.2,4.1-0.5,5.8-0.9s3-1,4-1.8
			c1-0.8,1.4-2,1.4-3.5c0-1.6-0.3-2.9-0.8-3.8c-0.5-0.9-1.2-1.7-2.1-2.2c-0.9-0.5-1.9-0.9-3-1c-1.2-0.2-2.4-0.3-3.7-0.3
			c-2.9,0-5.2,0.6-6.9,1.9c-1.7,1.3-2.7,3.4-2.9,6.3H380C380.2,48.6,381,45.7,382.6,43.4z M412,64.4c-0.9,0.3-2,0.6-3,0.8
			c-1.1,0.2-2.2,0.4-3.4,0.5c-1.2,0.1-2.4,0.3-3.6,0.5c-1.1,0.2-2.2,0.5-3.3,0.8c-1.1,0.4-2,0.8-2.8,1.4c-0.8,0.6-1.5,1.3-1.9,2.3
			c-0.5,0.9-0.7,2.1-0.7,3.5c0,1.3,0.2,2.4,0.7,3.4c0.5,0.9,1.2,1.6,2,2.1c0.8,0.5,1.8,0.9,2.9,1.1c1.1,0.2,2.3,0.3,3.5,0.3
			c2.9,0,5.2-0.5,6.8-1.5c1.6-1,2.8-2.1,3.6-3.5c0.8-1.4,1.2-2.7,1.4-4.1c0.2-1.4,0.3-2.5,0.3-3.4v-5.6
			C413.7,63.7,412.9,64.1,412,64.4z"/>
		<path fill="#E25758" d="M460.8,105.7c-2.9,1.9-6.8,2.8-11.9,2.8c-1.5,0-3.1-0.1-4.6-0.2c-1.5-0.1-3-0.2-4.6-0.4V95.8
			c1.4,0.1,2.8,0.3,4.3,0.4c1.5,0.1,2.9,0.2,4.4,0.1c2-0.2,3.4-1,4.3-2.3c0.9-1.3,1.4-2.8,1.4-4.4c0-1.2-0.2-2.3-0.6-3.4l-19-50.8
			h15.8l12.3,37.1h0.2l11.8-37.1h15.4l-22.6,60.9C465.9,100.7,463.6,103.9,460.8,105.7z"/>
	</g>
	<g enable-background="new    ">
		<path fill="#E25758" d="M503.5,76.1c0.7,1.2,1.5,2.1,2.6,2.8c1,0.7,2.3,1.3,3.6,1.6c1.4,0.4,2.8,0.5,4.2,0.5c1,0,2.1-0.1,3.3-0.4
			c1.2-0.2,2.2-0.6,3.1-1.2c0.9-0.5,1.7-1.2,2.4-2.1c0.6-0.9,0.9-2,0.9-3.3c0-2.2-1.5-3.9-4.5-5c-3-1.1-7.1-2.2-12.4-3.4
			c-2.2-0.5-4.3-1.1-6.3-1.7c-2.1-0.7-3.9-1.5-5.5-2.6c-1.6-1.1-2.9-2.4-3.9-4.1c-1-1.6-1.5-3.7-1.5-6c0-3.5,0.7-6.4,2-8.6
			c1.4-2.2,3.2-4,5.4-5.3c2.2-1.3,4.8-2.2,7.5-2.7c2.8-0.5,5.7-0.8,8.6-0.8c2.9,0,5.8,0.3,8.5,0.8c2.8,0.6,5.2,1.5,7.4,2.8
			c2.2,1.3,4,3.1,5.4,5.3c1.4,2.2,2.3,5,2.6,8.3h-14.1c-0.2-2.9-1.3-4.8-3.2-5.8c-2-1-4.3-1.5-6.9-1.5c-0.8,0-1.7,0.1-2.7,0.2
			c-1,0.1-1.9,0.3-2.7,0.7c-0.8,0.3-1.5,0.9-2,1.5c-0.6,0.7-0.8,1.6-0.8,2.7c0,1.3,0.5,2.4,1.5,3.2c1,0.8,2.3,1.5,3.8,2
			c1.6,0.5,3.4,1,5.4,1.4c2,0.4,4.1,0.9,6.2,1.4c2.2,0.5,4.3,1.1,6.3,1.8c2.1,0.7,3.9,1.6,5.5,2.8c1.6,1.2,2.9,2.6,3.9,4.3
			c1,1.7,1.5,3.8,1.5,6.3c0,3.6-0.7,6.5-2.1,9c-1.4,2.4-3.3,4.3-5.6,5.8c-2.3,1.5-4.9,2.5-7.9,3.1c-3,0.6-6,0.9-9.1,0.9
			c-3.1,0-6.2-0.3-9.2-0.9c-3-0.6-5.7-1.7-8-3.1c-2.3-1.5-4.3-3.4-5.8-5.8c-1.5-2.4-2.3-5.4-2.5-9.1h14.1
			C502.5,73.6,502.8,75,503.5,76.1z"/>
	</g>
	<g>
		<g enable-background="new    ">
			<path fill="#FFFFFF" d="M166.1,151.3v-14.9h-5.8v-3.5c0.8,0,1.6,0,2.3-0.2c0.8-0.1,1.4-0.4,2-0.8s1.1-0.8,1.5-1.4
				c0.4-0.6,0.7-1.3,0.8-2.2h3.7v22.9H166.1z"/>
		</g>
		<g enable-background="new    ">
			<path fill="#FFFFFF" d="M244.2,151.3v-14.9h-5.8v-3.5c0.8,0,1.6,0,2.3-0.2c0.8-0.1,1.4-0.4,2-0.8s1.1-0.8,1.5-1.4
				c0.4-0.6,0.7-1.3,0.8-2.2h3.7v22.9H244.2z"/>
		</g>
		<g>
			<g enable-background="new    ">
				<path fill="#FFFFFF" d="M62.6,127.9L68,144h0.1l5.2-16.1h7.2v23.4h-4.8v-16.6h-0.1l-5.7,16.6h-4l-5.7-16.4h-0.1v16.4h-4.8v-23.4
					H62.6z"/>
				<path fill="#FFFFFF" d="M85.2,136.8c0.5-0.7,1.1-1.3,1.8-1.7c0.7-0.4,1.6-0.7,2.5-0.9c0.9-0.2,1.9-0.3,2.8-0.3
					c0.9,0,1.7,0.1,2.6,0.2c0.9,0.1,1.7,0.4,2.4,0.7c0.7,0.3,1.3,0.8,1.8,1.5c0.5,0.6,0.7,1.4,0.7,2.5v8.8c0,0.8,0,1.5,0.1,2.2
					c0.1,0.7,0.2,1.2,0.5,1.6h-4.7c-0.1-0.3-0.2-0.5-0.2-0.8c-0.1-0.3-0.1-0.6-0.1-0.8c-0.7,0.8-1.6,1.3-2.6,1.6
					c-1,0.3-2,0.5-3.1,0.5c-0.8,0-1.6-0.1-2.3-0.3c-0.7-0.2-1.3-0.5-1.8-0.9c-0.5-0.4-0.9-0.9-1.2-1.6c-0.3-0.6-0.4-1.4-0.4-2.3
					c0-1,0.2-1.8,0.5-2.4c0.3-0.6,0.8-1.1,1.3-1.5c0.5-0.4,1.1-0.6,1.8-0.8c0.7-0.2,1.4-0.3,2.1-0.4c0.7-0.1,1.4-0.2,2.1-0.3
					s1.3-0.2,1.8-0.3s0.9-0.3,1.2-0.6c0.3-0.2,0.4-0.6,0.4-1.1c0-0.5-0.1-0.9-0.2-1.2c-0.2-0.3-0.4-0.5-0.7-0.7
					c-0.3-0.2-0.6-0.3-0.9-0.3c-0.4-0.1-0.7-0.1-1.2-0.1c-0.9,0-1.6,0.2-2.2,0.6c-0.5,0.4-0.8,1-0.9,2h-4.7
					C84.4,138.5,84.7,137.6,85.2,136.8z M94.4,143.4c-0.3,0.1-0.6,0.2-0.9,0.2c-0.3,0.1-0.7,0.1-1.1,0.2c-0.4,0-0.7,0.1-1.1,0.2
					c-0.3,0.1-0.7,0.2-1,0.3c-0.3,0.1-0.6,0.3-0.9,0.4c-0.3,0.2-0.5,0.4-0.6,0.7c-0.2,0.3-0.2,0.6-0.2,1.1c0,0.4,0.1,0.8,0.2,1
					c0.2,0.3,0.4,0.5,0.6,0.7c0.3,0.2,0.6,0.3,0.9,0.3c0.3,0.1,0.7,0.1,1.1,0.1c0.9,0,1.6-0.2,2.1-0.5c0.5-0.3,0.9-0.7,1.1-1.1
					c0.2-0.4,0.4-0.9,0.4-1.3c0.1-0.4,0.1-0.8,0.1-1V143C94.9,143.2,94.6,143.3,94.4,143.4z"/>
				<path fill="#FFFFFF" d="M107.8,134.3v3.1h0.1c0.2-0.5,0.5-1,0.9-1.5c0.4-0.4,0.8-0.8,1.3-1.1c0.5-0.3,1-0.6,1.5-0.7
					c0.5-0.2,1.1-0.3,1.7-0.3c0.3,0,0.6,0.1,1,0.2v4.3c-0.2,0-0.5-0.1-0.8-0.1c-0.3,0-0.6,0-0.9,0c-0.9,0-1.6,0.1-2.2,0.4
					c-0.6,0.3-1.1,0.7-1.4,1.2c-0.4,0.5-0.6,1.1-0.8,1.7c-0.2,0.7-0.2,1.4-0.2,2.1v7.6h-4.7v-16.9H107.8z"/>
				<path fill="#FFFFFF" d="M123.6,137.4c-0.7,0-1.4,0.2-1.9,0.5c-0.5,0.3-0.9,0.8-1.2,1.3c-0.3,0.5-0.5,1.1-0.7,1.8
					c-0.1,0.6-0.2,1.3-0.2,1.9c0,0.6,0.1,1.2,0.2,1.9c0.1,0.6,0.3,1.2,0.6,1.7c0.3,0.5,0.7,0.9,1.2,1.3c0.5,0.3,1.1,0.5,1.8,0.5
					c1.1,0,2-0.3,2.6-0.9c0.6-0.6,1-1.5,1.1-2.5h4.5c-0.3,2.2-1.2,4-2.6,5.1s-3.3,1.8-5.5,1.8c-1.3,0-2.4-0.2-3.5-0.6s-2-1-2.7-1.8
					c-0.7-0.8-1.3-1.7-1.7-2.7c-0.4-1.1-0.6-2.2-0.6-3.5c0-1.3,0.2-2.5,0.6-3.7c0.4-1.1,0.9-2.1,1.7-2.9c0.7-0.8,1.6-1.5,2.7-1.9
					c1.1-0.5,2.3-0.7,3.7-0.7c1,0,2,0.1,2.9,0.4c0.9,0.3,1.8,0.7,2.5,1.2c0.7,0.5,1.3,1.2,1.8,2s0.7,1.7,0.8,2.8H127
					C126.7,138.4,125.6,137.4,123.6,137.4z"/>
				<path fill="#FFFFFF" d="M138.9,127.9v8.8h0.1c0.6-1,1.3-1.7,2.3-2.1c0.9-0.4,1.8-0.7,2.7-0.7c1.2,0,2.3,0.2,3.1,0.5
					c0.8,0.3,1.4,0.8,1.9,1.4c0.5,0.6,0.8,1.3,1,2.2c0.2,0.9,0.3,1.8,0.3,2.9v10.4h-4.7v-9.6c0-1.4-0.2-2.4-0.7-3.1
					c-0.4-0.7-1.2-1-2.3-1c-1.3,0-2.2,0.4-2.8,1.1c-0.6,0.8-0.9,2-0.9,3.7v8.9h-4.7v-23.4H138.9z"/>
			</g>
			<g enable-background="new    ">
				<path fill="#FFFFFF" d="M185.2,132.2c-0.5-0.6-1.2-0.9-2-0.9c-0.8,0-1.5,0.2-2.1,0.7s-1,1.1-1.3,1.8c-0.3,0.7-0.6,1.5-0.7,2.3
					c-0.2,0.8-0.2,1.5-0.3,2.2l0.1,0.1c0.6-0.9,1.4-1.6,2.2-2c0.9-0.4,1.8-0.6,2.9-0.6c1,0,1.9,0.2,2.9,0.6c0.9,0.4,1.7,1,2.4,1.7
					c0.6,0.7,1.1,1.5,1.3,2.4s0.4,1.8,0.4,2.7c0,1.2-0.2,2.3-0.6,3.3c-0.4,1-0.9,1.9-1.6,2.7c-0.7,0.8-1.6,1.3-2.5,1.8
					s-2.1,0.6-3.3,0.6c-1.7,0-3.2-0.3-4.3-1c-1.1-0.7-2-1.6-2.7-2.7s-1.1-2.4-1.4-3.8c-0.3-1.4-0.4-2.8-0.4-4.3
					c0-1.4,0.2-2.8,0.5-4.3c0.3-1.4,0.9-2.7,1.6-3.8c0.7-1.1,1.6-2.1,2.8-2.8c1.1-0.7,2.5-1.1,4.2-1.1c1,0,1.9,0.1,2.8,0.4
					c0.9,0.3,1.6,0.7,2.3,1.2c0.7,0.5,1.2,1.2,1.6,2s0.7,1.7,0.8,2.7h-4.4C186.1,133.5,185.8,132.8,185.2,132.2z M181.3,139.7
					c-0.5,0.2-0.9,0.5-1.2,0.9c-0.3,0.4-0.5,0.8-0.7,1.4c-0.2,0.5-0.2,1.1-0.2,1.6c0,0.5,0.1,1,0.2,1.6c0.2,0.5,0.4,1,0.7,1.4
					c0.3,0.4,0.7,0.7,1.2,1s1,0.4,1.6,0.4c0.6,0,1.1-0.1,1.5-0.4s0.8-0.6,1.1-1c0.3-0.4,0.5-0.8,0.7-1.3c0.2-0.5,0.2-1,0.2-1.5
					c0-0.5-0.1-1.1-0.2-1.6c-0.1-0.5-0.4-1-0.6-1.4c-0.3-0.4-0.6-0.7-1.1-1c-0.4-0.3-1-0.4-1.6-0.4
					C182.3,139.4,181.8,139.5,181.3,139.7z"/>
				<path fill="#FFFFFF" d="M202.8,134.3v3.1h-3.4v8.4c0,0.8,0.1,1.3,0.4,1.6c0.3,0.3,0.8,0.4,1.6,0.4c0.3,0,0.5,0,0.8,0
					c0.2,0,0.5-0.1,0.7-0.1v3.6c-0.4,0.1-0.8,0.1-1.3,0.1c-0.5,0-0.9,0-1.4,0c-0.7,0-1.4,0-2-0.1c-0.6-0.1-1.2-0.3-1.7-0.6
					c-0.5-0.3-0.9-0.7-1.2-1.2c-0.3-0.5-0.4-1.2-0.4-2.1v-10H192v-3.1h2.8v-5.1h4.7v5.1H202.8z"/>
				<path fill="#FFFFFF" d="M209.7,127.9v8.8h0.1c0.6-1,1.3-1.7,2.3-2.1c0.9-0.4,1.8-0.7,2.7-0.7c1.2,0,2.3,0.2,3.1,0.5
					c0.8,0.3,1.4,0.8,1.9,1.4c0.5,0.6,0.8,1.3,1,2.2c0.2,0.9,0.3,1.8,0.3,2.9v10.4h-4.7v-9.6c0-1.4-0.2-2.4-0.7-3.1
					c-0.4-0.7-1.2-1-2.3-1c-1.3,0-2.2,0.4-2.8,1.1c-0.6,0.8-0.9,2-0.9,3.7v8.9h-4.7v-23.4H209.7z"/>
				<path fill="#FFFFFF" d="M234.3,140.3v4h-9.9v-4H234.3z"/>
			</g>
			<g enable-background="new    ">
				<path fill="#FFFFFF" d="M254.4,131.4c0.5-0.8,1.1-1.4,1.8-2c0.7-0.5,1.6-0.9,2.5-1.2s1.8-0.4,2.8-0.4c1.4,0,2.6,0.2,3.6,0.7
					c1,0.4,1.8,1,2.4,1.6s1,1.3,1.3,2c0.3,0.7,0.4,1.3,0.4,1.9c0,1.1-0.3,2.1-0.8,3s-1.4,1.5-2.5,1.8v0.1c1.4,0.3,2.4,1,3.2,1.9
					c0.7,1,1.1,2.2,1.1,3.7c0,1.2-0.2,2.3-0.7,3.2c-0.5,0.9-1.1,1.6-1.9,2.2c-0.8,0.6-1.7,1-2.8,1.3c-1,0.3-2.1,0.4-3.1,0.4
					c-1.1,0-2.2-0.1-3.2-0.4c-1-0.3-2-0.7-2.8-1.3c-0.8-0.6-1.5-1.3-2-2.2s-0.7-2-0.7-3.2c0-1.5,0.4-2.7,1.1-3.7s1.8-1.6,3.2-2v-0.1
					c-1.1-0.3-2-0.9-2.5-1.7c-0.6-0.9-0.9-1.8-0.9-3C253.7,133.1,253.9,132.2,254.4,131.4z M257.7,145.9c0.2,0.5,0.5,0.9,0.9,1.2
					c0.4,0.3,0.8,0.6,1.3,0.8c0.5,0.2,1,0.3,1.6,0.3c0.6,0,1.1-0.1,1.6-0.3c0.5-0.2,0.9-0.4,1.2-0.8c0.4-0.3,0.6-0.7,0.8-1.2
					c0.2-0.5,0.3-1,0.3-1.6c0-0.5-0.1-1-0.3-1.5c-0.2-0.4-0.5-0.8-0.9-1.2c-0.4-0.3-0.8-0.6-1.2-0.8c-0.5-0.2-1-0.3-1.5-0.3
					c-1.1,0-2.1,0.3-2.9,0.9c-0.8,0.6-1.2,1.5-1.2,2.7C257.4,144.9,257.5,145.5,257.7,145.9z M258.9,136.8c0.7,0.5,1.5,0.8,2.5,0.8
					c1,0,1.8-0.3,2.5-0.8c0.7-0.5,1-1.3,1-2.2c0-0.3,0-0.6-0.1-1c-0.1-0.4-0.3-0.7-0.5-1c-0.3-0.3-0.6-0.6-1-0.8
					c-0.4-0.2-1-0.3-1.8-0.3c-0.5,0-0.9,0.1-1.3,0.2c-0.4,0.1-0.8,0.3-1.1,0.6c-0.3,0.3-0.6,0.6-0.8,1c-0.2,0.4-0.3,0.9-0.3,1.4
					C257.9,135.6,258.2,136.3,258.9,136.8z"/>
				<path fill="#FFFFFF" d="M281.5,134.3v3.1h-3.4v8.4c0,0.8,0.1,1.3,0.4,1.6c0.3,0.3,0.8,0.4,1.6,0.4c0.3,0,0.5,0,0.8,0
					c0.2,0,0.5-0.1,0.7-0.1v3.6c-0.4,0.1-0.8,0.1-1.3,0.1c-0.5,0-0.9,0-1.4,0c-0.7,0-1.4,0-2-0.1c-0.6-0.1-1.2-0.3-1.7-0.6
					c-0.5-0.3-0.9-0.7-1.2-1.2c-0.3-0.5-0.4-1.2-0.4-2.1v-10h-2.8v-3.1h2.8v-5.1h4.7v5.1H281.5z"/>
				<path fill="#FFFFFF" d="M288.4,127.9v8.8h0.1c0.6-1,1.3-1.7,2.3-2.1c0.9-0.4,1.8-0.7,2.7-0.7c1.2,0,2.3,0.2,3.1,0.5
					c0.8,0.3,1.4,0.8,1.9,1.4c0.5,0.6,0.8,1.3,1,2.2c0.2,0.9,0.3,1.8,0.3,2.9v10.4H295v-9.6c0-1.4-0.2-2.4-0.7-3.1
					c-0.4-0.7-1.2-1-2.3-1c-1.3,0-2.2,0.4-2.8,1.1c-0.6,0.8-0.9,2-0.9,3.7v8.9h-4.7v-23.4H288.4z"/>
				<path fill="#FFFFFF" d="M308.6,146.2v5c0,0.7-0.1,1.4-0.4,2c-0.3,0.6-0.6,1.2-1.1,1.6c-0.5,0.5-1,0.8-1.6,1.1s-1.3,0.5-2,0.6
					v-2.4c0.3-0.1,0.6-0.2,0.9-0.4c0.3-0.2,0.6-0.4,0.8-0.7c0.2-0.3,0.4-0.6,0.5-0.9s0.2-0.7,0.1-1h-2.4v-5H308.6z"/>
			</g>
			<g enable-background="new    ">
				<path fill="#E25758" d="M325.8,145.5c0.3,0.5,0.7,1,1.1,1.3c0.5,0.3,1,0.6,1.7,0.8c0.6,0.2,1.3,0.2,2,0.2c0.5,0,0.9,0,1.5-0.1
					c0.5-0.1,1-0.2,1.5-0.4c0.5-0.2,0.8-0.5,1.1-0.9c0.3-0.4,0.5-0.9,0.5-1.5c0-0.6-0.2-1.1-0.6-1.5c-0.4-0.4-0.9-0.7-1.6-1
					c-0.7-0.3-1.4-0.5-2.2-0.7c-0.8-0.2-1.7-0.4-2.5-0.7c-0.9-0.2-1.7-0.5-2.6-0.8c-0.8-0.3-1.6-0.7-2.2-1.2
					c-0.7-0.5-1.2-1.1-1.6-1.9c-0.4-0.8-0.6-1.7-0.6-2.7c0-1.2,0.3-2.2,0.8-3.1c0.5-0.9,1.2-1.6,2-2.2c0.8-0.6,1.8-1,2.8-1.3
					c1-0.3,2.1-0.4,3.1-0.4c1.2,0,2.4,0.1,3.5,0.4c1.1,0.3,2.1,0.7,3,1.3s1.6,1.4,2.1,2.3c0.5,0.9,0.8,2.1,0.8,3.5h-5
					c0-0.7-0.2-1.3-0.4-1.7c-0.3-0.5-0.6-0.8-1-1.1c-0.4-0.3-0.9-0.4-1.4-0.6c-0.5-0.1-1.1-0.2-1.8-0.2c-0.4,0-0.8,0-1.2,0.1
					c-0.4,0.1-0.8,0.2-1.1,0.5c-0.3,0.2-0.6,0.5-0.8,0.8c-0.2,0.3-0.3,0.7-0.3,1.2c0,0.5,0.1,0.8,0.3,1.1c0.2,0.3,0.5,0.5,1,0.8
					c0.5,0.2,1.2,0.5,2.1,0.7c0.9,0.2,2.1,0.5,3.6,0.9c0.4,0.1,1,0.2,1.8,0.5c0.8,0.2,1.5,0.6,2.3,1.1c0.8,0.5,1.4,1.2,2,2
					c0.6,0.8,0.8,1.9,0.8,3.2c0,1.1-0.2,2.1-0.6,3c-0.4,0.9-1,1.7-1.9,2.4c-0.8,0.7-1.8,1.2-3,1.6c-1.2,0.4-2.6,0.6-4.2,0.6
					c-1.3,0-2.5-0.2-3.8-0.5s-2.3-0.8-3.2-1.5c-0.9-0.7-1.7-1.5-2.2-2.6c-0.5-1-0.8-2.3-0.8-3.7h5
					C325.4,144.3,325.5,145,325.8,145.5z"/>
				<path fill="#E25758" d="M343.3,136.8c0.5-0.7,1.1-1.3,1.8-1.7c0.7-0.4,1.6-0.7,2.5-0.9c0.9-0.2,1.9-0.3,2.8-0.3
					c0.9,0,1.7,0.1,2.6,0.2s1.7,0.4,2.4,0.7c0.7,0.3,1.3,0.8,1.8,1.5c0.5,0.6,0.7,1.4,0.7,2.5v8.8c0,0.8,0,1.5,0.1,2.2
					c0.1,0.7,0.2,1.2,0.5,1.6h-4.7c-0.1-0.3-0.2-0.5-0.2-0.8c-0.1-0.3-0.1-0.6-0.1-0.8c-0.7,0.8-1.6,1.3-2.6,1.6
					c-1,0.3-2,0.5-3.1,0.5c-0.8,0-1.6-0.1-2.3-0.3c-0.7-0.2-1.3-0.5-1.8-0.9c-0.5-0.4-0.9-0.9-1.2-1.6c-0.3-0.6-0.4-1.4-0.4-2.3
					c0-1,0.2-1.8,0.5-2.4c0.3-0.6,0.8-1.1,1.3-1.5c0.5-0.4,1.1-0.6,1.8-0.8c0.7-0.2,1.4-0.3,2.1-0.4c0.7-0.1,1.4-0.2,2.1-0.3
					c0.7-0.1,1.3-0.2,1.8-0.3c0.5-0.1,0.9-0.3,1.2-0.6c0.3-0.2,0.4-0.6,0.4-1.1c0-0.5-0.1-0.9-0.2-1.2s-0.4-0.5-0.7-0.7
					c-0.3-0.2-0.6-0.3-0.9-0.3c-0.4-0.1-0.7-0.1-1.2-0.1c-0.9,0-1.6,0.2-2.2,0.6c-0.5,0.4-0.8,1-0.9,2h-4.7
					C342.5,138.5,342.8,137.6,343.3,136.8z M352.4,143.4c-0.3,0.1-0.6,0.2-1,0.2s-0.7,0.1-1.1,0.2s-0.7,0.1-1.1,0.2
					c-0.3,0.1-0.7,0.2-1,0.3c-0.3,0.1-0.6,0.3-0.9,0.4s-0.5,0.4-0.6,0.7c-0.2,0.3-0.2,0.6-0.2,1.1c0,0.4,0.1,0.8,0.2,1
					c0.2,0.3,0.4,0.5,0.6,0.7s0.6,0.3,0.9,0.3c0.3,0.1,0.7,0.1,1.1,0.1c0.9,0,1.6-0.2,2.1-0.5c0.5-0.3,0.9-0.7,1.1-1.1
					s0.4-0.9,0.4-1.3c0.1-0.4,0.1-0.8,0.1-1V143C353,143.2,352.7,143.3,352.4,143.4z"/>
				<path fill="#E25758" d="M365.9,134.3v2.4h0.1c0.6-1,1.4-1.7,2.3-2.1c0.9-0.4,1.9-0.7,2.9-0.7c1.2,0,2.3,0.2,3.1,0.5
					c0.8,0.3,1.4,0.8,1.9,1.4c0.5,0.6,0.8,1.3,1,2.2c0.2,0.9,0.3,1.8,0.3,2.9v10.4h-4.7v-9.6c0-1.4-0.2-2.4-0.7-3.1
					c-0.4-0.7-1.2-1-2.3-1c-1.3,0-2.2,0.4-2.8,1.1c-0.6,0.8-0.9,2-0.9,3.7v8.9h-4.7v-16.9H365.9z"/>
				<path fill="#E25758" d="M406.9,127.9v4.3h-11.3v5.4h9.8v4h-9.8v9.7h-5.1v-23.4H406.9z"/>
				<path fill="#E25758" d="M413.8,134.3v3.1h0.1c0.2-0.5,0.5-1,0.9-1.5c0.4-0.4,0.8-0.8,1.3-1.1c0.5-0.3,1-0.6,1.5-0.7
					c0.5-0.2,1.1-0.3,1.7-0.3c0.3,0,0.6,0.1,1,0.2v4.3c-0.2,0-0.5-0.1-0.8-0.1c-0.3,0-0.6,0-0.9,0c-0.9,0-1.6,0.1-2.2,0.4
					c-0.6,0.3-1.1,0.7-1.4,1.2s-0.6,1.1-0.8,1.7c-0.2,0.7-0.2,1.4-0.2,2.1v7.6h-4.7v-16.9H413.8z"/>
				<path fill="#E25758" d="M422.7,136.8c0.5-0.7,1.1-1.3,1.8-1.7c0.7-0.4,1.6-0.7,2.5-0.9c0.9-0.2,1.9-0.3,2.8-0.3
					c0.9,0,1.7,0.1,2.6,0.2s1.7,0.4,2.4,0.7c0.7,0.3,1.3,0.8,1.8,1.5c0.5,0.6,0.7,1.4,0.7,2.5v8.8c0,0.8,0,1.5,0.1,2.2
					c0.1,0.7,0.2,1.2,0.5,1.6h-4.7c-0.1-0.3-0.2-0.5-0.2-0.8c-0.1-0.3-0.1-0.6-0.1-0.8c-0.7,0.8-1.6,1.3-2.6,1.6
					c-1,0.3-2,0.5-3.1,0.5c-0.8,0-1.6-0.1-2.3-0.3c-0.7-0.2-1.3-0.5-1.8-0.9c-0.5-0.4-0.9-0.9-1.2-1.6c-0.3-0.6-0.4-1.4-0.4-2.3
					c0-1,0.2-1.8,0.5-2.4c0.3-0.6,0.8-1.1,1.3-1.5c0.5-0.4,1.1-0.6,1.8-0.8c0.7-0.2,1.4-0.3,2.1-0.4c0.7-0.1,1.4-0.2,2.1-0.3
					c0.7-0.1,1.3-0.2,1.8-0.3c0.5-0.1,0.9-0.3,1.2-0.6c0.3-0.2,0.4-0.6,0.4-1.1c0-0.5-0.1-0.9-0.2-1.2s-0.4-0.5-0.7-0.7
					c-0.3-0.2-0.6-0.3-0.9-0.3c-0.4-0.1-0.7-0.1-1.2-0.1c-0.9,0-1.6,0.2-2.2,0.6c-0.5,0.4-0.8,1-0.9,2h-4.7
					C422,138.5,422.3,137.6,422.7,136.8z M431.9,143.4c-0.3,0.1-0.6,0.2-1,0.2s-0.7,0.1-1.1,0.2s-0.7,0.1-1.1,0.2
					c-0.3,0.1-0.7,0.2-1,0.3c-0.3,0.1-0.6,0.3-0.9,0.4s-0.5,0.4-0.6,0.7c-0.2,0.3-0.2,0.6-0.2,1.1c0,0.4,0.1,0.8,0.2,1
					c0.2,0.3,0.4,0.5,0.6,0.7s0.6,0.3,0.9,0.3c0.3,0.1,0.7,0.1,1.1,0.1c0.9,0,1.6-0.2,2.1-0.5c0.5-0.3,0.9-0.7,1.1-1.1
					s0.4-0.9,0.4-1.3c0.1-0.4,0.1-0.8,0.1-1V143C432.5,143.2,432.2,143.3,431.9,143.4z"/>
				<path fill="#E25758" d="M445.3,134.3v2.4h0.1c0.6-1,1.4-1.7,2.3-2.1c0.9-0.4,1.9-0.7,2.9-0.7c1.2,0,2.3,0.2,3.1,0.5
					c0.8,0.3,1.4,0.8,1.9,1.4c0.5,0.6,0.8,1.3,1,2.2c0.2,0.9,0.3,1.8,0.3,2.9v10.4h-4.7v-9.6c0-1.4-0.2-2.4-0.7-3.1
					c-0.4-0.7-1.2-1-2.3-1c-1.3,0-2.2,0.4-2.8,1.1c-0.6,0.8-0.9,2-0.9,3.7v8.9h-4.7v-16.9H445.3z"/>
				<path fill="#E25758" d="M468.4,137.4c-0.7,0-1.4,0.2-1.9,0.5c-0.5,0.3-0.9,0.8-1.2,1.3c-0.3,0.5-0.5,1.1-0.7,1.8
					c-0.1,0.6-0.2,1.3-0.2,1.9c0,0.6,0.1,1.2,0.2,1.9c0.1,0.6,0.3,1.2,0.6,1.7c0.3,0.5,0.7,0.9,1.2,1.3c0.5,0.3,1.1,0.5,1.8,0.5
					c1.1,0,2-0.3,2.6-0.9c0.6-0.6,1-1.5,1.1-2.5h4.5c-0.3,2.2-1.2,4-2.6,5.1c-1.4,1.2-3.3,1.8-5.5,1.8c-1.3,0-2.4-0.2-3.5-0.6
					c-1.1-0.4-2-1-2.7-1.8c-0.7-0.8-1.3-1.7-1.7-2.7c-0.4-1.1-0.6-2.2-0.6-3.5c0-1.3,0.2-2.5,0.6-3.7c0.4-1.1,0.9-2.1,1.7-2.9
					c0.7-0.8,1.6-1.5,2.7-1.9c1.1-0.5,2.3-0.7,3.7-0.7c1,0,2,0.1,2.9,0.4c0.9,0.3,1.8,0.7,2.5,1.2s1.3,1.2,1.8,2
					c0.5,0.8,0.7,1.7,0.8,2.8h-4.6C471.6,138.4,470.4,137.4,468.4,137.4z"/>
				<path fill="#E25758" d="M479.3,131.7v-3.8h4.7v3.8H479.3z M483.9,134.3v16.9h-4.7v-16.9H483.9z"/>
				<path fill="#E25758" d="M491.5,147.1c0.2,0.4,0.5,0.7,0.8,0.9s0.7,0.4,1.1,0.5s0.9,0.2,1.3,0.2c0.3,0,0.7,0,1-0.1
					c0.4-0.1,0.7-0.2,1-0.4c0.3-0.2,0.5-0.4,0.7-0.7c0.2-0.3,0.3-0.6,0.3-1c0-0.7-0.5-1.2-1.4-1.6c-0.9-0.3-2.2-0.7-3.9-1
					c-0.7-0.2-1.3-0.3-2-0.5c-0.6-0.2-1.2-0.5-1.7-0.8s-0.9-0.8-1.2-1.3s-0.5-1.1-0.5-1.9c0-1.1,0.2-2,0.6-2.7
					c0.4-0.7,1-1.2,1.7-1.7c0.7-0.4,1.5-0.7,2.4-0.9c0.9-0.2,1.8-0.2,2.7-0.2s1.8,0.1,2.7,0.3c0.9,0.2,1.6,0.5,2.3,0.9
					c0.7,0.4,1.2,1,1.7,1.7c0.4,0.7,0.7,1.6,0.8,2.6h-4.4c-0.1-0.9-0.4-1.5-1-1.8c-0.6-0.3-1.3-0.5-2.2-0.5c-0.3,0-0.5,0-0.9,0
					c-0.3,0-0.6,0.1-0.8,0.2s-0.5,0.3-0.6,0.5c-0.2,0.2-0.3,0.5-0.3,0.8c0,0.4,0.2,0.8,0.5,1c0.3,0.3,0.7,0.5,1.2,0.6
					c0.5,0.2,1.1,0.3,1.7,0.4c0.6,0.1,1.3,0.3,1.9,0.4c0.7,0.2,1.3,0.3,2,0.6c0.6,0.2,1.2,0.5,1.7,0.9c0.5,0.4,0.9,0.8,1.2,1.3
					c0.3,0.5,0.5,1.2,0.5,2c0,1.1-0.2,2-0.7,2.8c-0.4,0.8-1,1.4-1.8,1.8c-0.7,0.5-1.5,0.8-2.5,1c-0.9,0.2-1.9,0.3-2.8,0.3
					c-1,0-1.9-0.1-2.9-0.3c-0.9-0.2-1.8-0.5-2.5-1c-0.7-0.5-1.3-1.1-1.8-1.8c-0.5-0.8-0.7-1.7-0.8-2.8h4.4
					C491.2,146.3,491.3,146.7,491.5,147.1z"/>
				<path fill="#E25758" d="M513.3,137.4c-0.7,0-1.4,0.2-1.9,0.5c-0.5,0.3-0.9,0.8-1.2,1.3c-0.3,0.5-0.5,1.1-0.7,1.8
					c-0.1,0.6-0.2,1.3-0.2,1.9c0,0.6,0.1,1.2,0.2,1.9c0.1,0.6,0.3,1.2,0.6,1.7c0.3,0.5,0.7,0.9,1.2,1.3c0.5,0.3,1.1,0.5,1.8,0.5
					c1.1,0,2-0.3,2.6-0.9c0.6-0.6,1-1.5,1.1-2.5h4.5c-0.3,2.2-1.2,4-2.6,5.1c-1.4,1.2-3.3,1.8-5.5,1.8c-1.3,0-2.4-0.2-3.5-0.6
					c-1.1-0.4-2-1-2.7-1.8c-0.7-0.8-1.3-1.7-1.7-2.7c-0.4-1.1-0.6-2.2-0.6-3.5c0-1.3,0.2-2.5,0.6-3.7c0.4-1.1,0.9-2.1,1.7-2.9
					c0.7-0.8,1.6-1.5,2.7-1.9c1.1-0.5,2.3-0.7,3.7-0.7c1,0,2,0.1,2.9,0.4c0.9,0.3,1.8,0.7,2.5,1.2s1.3,1.2,1.8,2
					c0.5,0.8,0.7,1.7,0.8,2.8h-4.6C516.4,138.4,515.2,137.4,513.3,137.4z"/>
				<path fill="#E25758" d="M524.1,139.1c0.4-1.1,1-2,1.8-2.8c0.8-0.8,1.7-1.4,2.8-1.8c1.1-0.4,2.3-0.6,3.6-0.6s2.5,0.2,3.6,0.6
					c1.1,0.4,2,1,2.8,1.8c0.8,0.8,1.4,1.7,1.8,2.8c0.4,1.1,0.6,2.3,0.6,3.7s-0.2,2.6-0.6,3.7c-0.4,1.1-1,2-1.8,2.8
					c-0.8,0.8-1.7,1.4-2.8,1.8c-1.1,0.4-2.3,0.6-3.6,0.6s-2.5-0.2-3.6-0.6c-1.1-0.4-2-1-2.8-1.8c-0.8-0.8-1.4-1.7-1.8-2.8
					c-0.4-1.1-0.6-2.3-0.6-3.7S523.7,140.2,524.1,139.1z M528.3,144.8c0.1,0.6,0.4,1.2,0.7,1.7c0.3,0.5,0.7,0.9,1.3,1.2
					c0.5,0.3,1.2,0.5,2,0.5c0.8,0,1.4-0.2,2-0.5s1-0.7,1.3-1.2c0.3-0.5,0.5-1.1,0.7-1.7c0.1-0.6,0.2-1.3,0.2-2s-0.1-1.3-0.2-2
					c-0.1-0.7-0.4-1.2-0.7-1.7s-0.7-0.9-1.3-1.2c-0.5-0.3-1.2-0.5-2-0.5c-0.8,0-1.4,0.2-2,0.5c-0.5,0.3-0.9,0.7-1.3,1.2
					s-0.5,1.1-0.7,1.7c-0.1,0.7-0.2,1.3-0.2,2S528.2,144.2,528.3,144.8z"/>
			</g>
		</g>
	</g>
	<g enable-background="new    ">
		<path fill="#FFFFFF" d="M107.2,190.1c-0.2,0.9-0.5,1.8-1,2.6c-0.5,0.8-1.3,1.5-2.4,2c-1,0.5-2.4,0.8-4.2,0.8c-1,0-1.9-0.1-2.8-0.4
			c-0.9-0.3-1.7-0.7-2.5-1.3c-0.7-0.6-1.3-1.3-1.7-2.2c-0.4-0.9-0.7-2-0.7-3.3v-2h4.7v1c0,0.6,0,1.1,0.1,1.6
			c0.1,0.5,0.2,0.9,0.5,1.2c0.2,0.3,0.5,0.6,0.9,0.8c0.4,0.2,0.9,0.3,1.5,0.3c0.7,0,1.2-0.1,1.6-0.4c0.4-0.2,0.6-0.6,0.8-0.9
			c0.2-0.4,0.3-0.8,0.3-1.2c0-0.4,0-0.9,0-1.3v-15.8h5.1v16C107.5,188.3,107.4,189.2,107.2,190.1z"/>
		<path fill="#FFFFFF" d="M123,194.9v-2.4h-0.1c-0.6,1-1.4,1.7-2.3,2.1c-0.9,0.4-1.9,0.7-2.9,0.7c-1.2,0-2.3-0.2-3.1-0.5
			c-0.8-0.3-1.4-0.8-1.9-1.4s-0.8-1.3-1-2.2c-0.2-0.9-0.3-1.8-0.3-2.9V178h4.7v9.6c0,1.4,0.2,2.4,0.7,3.1c0.4,0.7,1.2,1,2.3,1
			c1.3,0,2.2-0.4,2.8-1.1c0.6-0.8,0.9-2,0.9-3.7V178h4.7v16.9H123z"/>
		<path fill="#FFFFFF" d="M135.3,178v2.4h0.1c0.6-1,1.4-1.7,2.3-2.1c0.9-0.4,1.9-0.7,2.9-0.7c1.2,0,2.3,0.2,3.1,0.5
			c0.8,0.3,1.4,0.8,1.9,1.4c0.5,0.6,0.8,1.3,1,2.2c0.2,0.9,0.3,1.8,0.3,2.9v10.4h-4.7v-9.6c0-1.4-0.2-2.4-0.7-3.1
			c-0.4-0.7-1.2-1-2.3-1c-1.3,0-2.2,0.4-2.8,1.1c-0.6,0.8-0.9,2-0.9,3.7v8.9h-4.7V178H135.3z"/>
		<path fill="#FFFFFF" d="M155.3,190.9c0.7,0.7,1.7,1,3,1c0.9,0,1.7-0.2,2.4-0.7c0.7-0.5,1.1-1,1.2-1.5h4.1c-0.7,2-1.7,3.5-3,4.4
			c-1.4,0.9-3,1.3-4.9,1.3c-1.3,0-2.5-0.2-3.6-0.6c-1.1-0.4-2-1-2.7-1.8c-0.7-0.8-1.3-1.7-1.7-2.8c-0.4-1.1-0.6-2.3-0.6-3.6
			c0-1.3,0.2-2.4,0.6-3.5s1-2,1.8-2.8c0.8-0.8,1.7-1.4,2.7-1.9c1.1-0.5,2.2-0.7,3.5-0.7c1.4,0,2.7,0.3,3.8,0.8
			c1.1,0.6,1.9,1.3,2.6,2.2c0.7,0.9,1.2,2,1.5,3.2c0.3,1.2,0.4,2.5,0.3,3.8h-12.2C154.2,189.1,154.6,190.2,155.3,190.9z M160.6,182
			c-0.6-0.6-1.4-0.9-2.5-0.9c-0.7,0-1.4,0.1-1.9,0.4s-0.9,0.6-1.2,0.9c-0.3,0.4-0.5,0.8-0.6,1.2c-0.1,0.4-0.2,0.8-0.2,1.1h7.6
			C161.5,183.5,161.1,182.6,160.6,182z"/>
		<path fill="#FFFFFF" d="M205.7,178v3.1h-3.4v8.4c0,0.8,0.1,1.3,0.4,1.6c0.3,0.3,0.8,0.4,1.6,0.4c0.3,0,0.5,0,0.8,0
			c0.2,0,0.5-0.1,0.7-0.1v3.6c-0.4,0.1-0.8,0.1-1.3,0.1c-0.5,0-0.9,0-1.4,0c-0.7,0-1.4,0-2-0.1c-0.6-0.1-1.2-0.3-1.7-0.6
			c-0.5-0.3-0.9-0.7-1.2-1.2c-0.3-0.5-0.4-1.2-0.4-2.1v-10h-2.8V178h2.8v-5.1h4.7v5.1H205.7z"/>
		<path fill="#FFFFFF" d="M212.6,171.6v8.8h0.1c0.6-1,1.3-1.7,2.3-2.1c0.9-0.4,1.8-0.7,2.7-0.7c1.2,0,2.3,0.2,3.1,0.5
			c0.8,0.3,1.4,0.8,1.9,1.4c0.5,0.6,0.8,1.3,1,2.2c0.2,0.9,0.3,1.8,0.3,2.9v10.4h-4.7v-9.6c0-1.4-0.2-2.4-0.7-3.1
			c-0.4-0.7-1.2-1-2.3-1c-1.3,0-2.2,0.4-2.8,1.1c-0.6,0.8-0.9,2-0.9,3.7v8.9H208v-23.4H212.6z"/>
		<path fill="#FFFFFF" d="M237.2,184v4h-9.9v-4H237.2z"/>
		<path fill="#FFFFFF" d="M178.8,174.9c0.5-0.8,1.1-1.4,1.8-2c0.7-0.5,1.6-0.9,2.5-1.2s1.8-0.4,2.8-0.4c1.4,0,2.6,0.2,3.6,0.7
			c1,0.4,1.8,1,2.4,1.6s1,1.3,1.3,2c0.3,0.7,0.4,1.3,0.4,1.9c0,1.1-0.3,2.1-0.8,3s-1.4,1.5-2.5,1.8v0.1c1.4,0.3,2.4,1,3.2,1.9
			c0.7,1,1.1,2.2,1.1,3.7c0,1.2-0.2,2.3-0.7,3.2c-0.5,0.9-1.1,1.6-1.9,2.2c-0.8,0.6-1.7,1-2.8,1.3c-1,0.3-2.1,0.4-3.1,0.4
			c-1.1,0-2.2-0.1-3.2-0.4c-1-0.3-2-0.7-2.8-1.3c-0.8-0.6-1.5-1.3-2-2.2s-0.7-2-0.7-3.2c0-1.5,0.4-2.7,1.1-3.7s1.8-1.6,3.2-2v-0.1
			c-1.1-0.3-2-0.9-2.5-1.7c-0.6-0.9-0.9-1.8-0.9-3C178.1,176.6,178.3,175.7,178.8,174.9z M182.1,189.4c0.2,0.5,0.5,0.9,0.9,1.2
			c0.4,0.3,0.8,0.6,1.3,0.8c0.5,0.2,1,0.3,1.6,0.3c0.6,0,1.1-0.1,1.6-0.3c0.5-0.2,0.9-0.4,1.2-0.8c0.4-0.3,0.6-0.7,0.8-1.2
			c0.2-0.5,0.3-1,0.3-1.6c0-0.5-0.1-1-0.3-1.5c-0.2-0.4-0.5-0.8-0.9-1.2c-0.4-0.3-0.8-0.6-1.2-0.8c-0.5-0.2-1-0.3-1.5-0.3
			c-1.1,0-2.1,0.3-2.9,0.9c-0.8,0.6-1.2,1.5-1.2,2.7C181.8,188.4,181.9,188.9,182.1,189.4z M183.4,180.3c0.7,0.5,1.5,0.8,2.5,0.8
			c1,0,1.8-0.3,2.5-0.8c0.7-0.5,1-1.3,1-2.2c0-0.3,0-0.6-0.1-1c-0.1-0.4-0.3-0.7-0.5-1c-0.3-0.3-0.6-0.6-1-0.8
			c-0.4-0.2-1-0.3-1.8-0.3c-0.5,0-0.9,0.1-1.3,0.2c-0.4,0.1-0.8,0.3-1.1,0.6c-0.3,0.3-0.6,0.6-0.8,1c-0.2,0.4-0.3,0.9-0.3,1.4
			C182.3,179,182.7,179.8,183.4,180.3z"/>
	</g>
	<g enable-background="new    ">
		<path fill="#FFFFFF" d="M247.1,194.9v-14.9h-5.8v-3.5c0.8,0,1.6,0,2.3-0.2c0.8-0.1,1.4-0.4,2-0.8s1.1-0.8,1.5-1.4
			c0.4-0.6,0.7-1.3,0.8-2.2h3.7v22.9H247.1z"/>
	</g>
	<g enable-background="new    ">
		<path fill="#FFFFFF" d="M256.5,177.8c0.4-1.5,1.1-2.7,1.8-3.7c0.8-0.9,1.7-1.6,2.7-2c1-0.4,2.1-0.6,3.2-0.6c1.2,0,2.2,0.2,3.3,0.6
			c1,0.4,1.9,1,2.7,2c0.8,0.9,1.4,2.1,1.8,3.7c0.4,1.5,0.7,3.4,0.7,5.6c0,2.3-0.2,4.2-0.7,5.7c-0.4,1.5-1.1,2.8-1.8,3.7
			c-0.8,0.9-1.7,1.6-2.7,2c-1,0.4-2.1,0.6-3.3,0.6c-1.1,0-2.2-0.2-3.2-0.6c-1-0.4-1.9-1-2.7-2c-0.8-0.9-1.4-2.1-1.8-3.7
			c-0.4-1.5-0.7-3.5-0.7-5.7C255.8,181.2,256.1,179.3,256.5,177.8z M260.6,185.8c0,0.9,0.2,1.8,0.4,2.7c0.2,0.9,0.6,1.6,1.1,2.2
			c0.5,0.6,1.2,0.9,2.2,0.9c1,0,1.7-0.3,2.2-0.9c0.5-0.6,0.9-1.3,1.1-2.2c0.2-0.9,0.4-1.8,0.4-2.7c0-0.9,0.1-1.7,0.1-2.4
			c0-0.4,0-0.9,0-1.4c0-0.6-0.1-1.1-0.1-1.7c-0.1-0.6-0.2-1.2-0.3-1.8c-0.1-0.6-0.4-1.1-0.6-1.6c-0.3-0.5-0.6-0.8-1.1-1.1
			c-0.4-0.3-1-0.4-1.6-0.4c-0.6,0-1.2,0.1-1.6,0.4c-0.4,0.3-0.8,0.7-1,1.1c-0.3,0.5-0.5,1-0.6,1.6c-0.2,0.6-0.3,1.2-0.3,1.8
			c-0.1,0.6-0.1,1.2-0.1,1.7c0,0.6,0,1,0,1.4C260.5,184,260.5,184.8,260.6,185.8z"/>
		<path fill="#FFFFFF" d="M284.4,178v3.1H281v8.4c0,0.8,0.1,1.3,0.4,1.6c0.3,0.3,0.8,0.4,1.6,0.4c0.3,0,0.5,0,0.8,0
			c0.2,0,0.5-0.1,0.7-0.1v3.6c-0.4,0.1-0.8,0.1-1.3,0.1c-0.5,0-0.9,0-1.4,0c-0.7,0-1.4,0-2-0.1c-0.6-0.1-1.2-0.3-1.7-0.6
			c-0.5-0.3-0.9-0.7-1.2-1.2c-0.3-0.5-0.4-1.2-0.4-2.1v-10h-2.8V178h2.8v-5.1h4.7v5.1H284.4z"/>
		<path fill="#FFFFFF" d="M291.3,171.6v8.8h0.1c0.6-1,1.3-1.7,2.3-2.1c0.9-0.4,1.8-0.7,2.7-0.7c1.2,0,2.3,0.2,3.1,0.5
			c0.8,0.3,1.4,0.8,1.9,1.4c0.5,0.6,0.8,1.3,1,2.2c0.2,0.9,0.3,1.8,0.3,2.9v10.4h-4.7v-9.6c0-1.4-0.2-2.4-0.7-3.1
			c-0.4-0.7-1.2-1-2.3-1c-1.3,0-2.2,0.4-2.8,1.1c-0.6,0.8-0.9,2-0.9,3.7v8.9h-4.7v-23.4H291.3z"/>
		<path fill="#FFFFFF" d="M311.5,189.9v5c0,0.7-0.1,1.4-0.4,2c-0.3,0.6-0.6,1.2-1.1,1.6c-0.5,0.5-1,0.8-1.6,1.1s-1.3,0.5-2,0.6V198
			c0.3-0.1,0.6-0.2,0.9-0.4c0.3-0.2,0.6-0.4,0.8-0.7c0.2-0.3,0.4-0.6,0.5-0.9s0.2-0.7,0.1-1h-2.4v-5H311.5z"/>
	</g>
	<g enable-background="new    ">
		<path fill="#E25758" d="M336.4,171.6l8.7,23.4h-5.3l-1.8-5.2h-8.7l-1.8,5.2h-5.2l8.8-23.4H336.4z M336.7,185.9l-2.9-8.6h-0.1
			l-3,8.6H336.7z"/>
		<path fill="#E25758" d="M351.2,178v2.3h0.1c0.6-0.9,1.3-1.6,2.2-2c0.9-0.5,1.8-0.7,3-0.7c1.1,0,2,0.2,2.9,0.6s1.6,1.1,2,2.2
			c0.5-0.7,1.2-1.4,2-2c0.9-0.6,1.9-0.9,3.1-0.9c0.9,0,1.7,0.1,2.5,0.3c0.8,0.2,1.4,0.6,2,1c0.5,0.5,1,1.1,1.3,1.9
			c0.3,0.8,0.5,1.7,0.5,2.8v11.3h-4.7v-9.6c0-0.6,0-1.1-0.1-1.6s-0.2-0.9-0.4-1.3c-0.2-0.4-0.5-0.7-0.9-0.9
			c-0.4-0.2-0.9-0.3-1.6-0.3c-0.7,0-1.2,0.1-1.6,0.4c-0.4,0.3-0.7,0.6-0.9,1c-0.2,0.4-0.4,0.9-0.5,1.4c-0.1,0.5-0.1,1-0.1,1.6v9.4
			h-4.7v-9.5c0-0.5,0-1,0-1.5s-0.1-0.9-0.3-1.4c-0.2-0.4-0.4-0.7-0.8-1c-0.4-0.3-0.9-0.4-1.7-0.4c-0.2,0-0.5,0-0.9,0.1
			c-0.4,0.1-0.7,0.3-1,0.6c-0.3,0.3-0.6,0.7-0.9,1.2s-0.4,1.2-0.4,2v9.8h-4.7V178H351.2z"/>
		<path fill="#E25758" d="M380.3,190.7c0.2,0.4,0.5,0.7,0.8,0.9s0.7,0.4,1.1,0.5s0.9,0.2,1.3,0.2c0.3,0,0.7,0,1-0.1
			c0.4-0.1,0.7-0.2,1-0.4c0.3-0.2,0.5-0.4,0.7-0.7c0.2-0.3,0.3-0.6,0.3-1c0-0.7-0.5-1.2-1.4-1.6c-0.9-0.3-2.2-0.7-3.9-1
			c-0.7-0.2-1.3-0.3-2-0.5c-0.6-0.2-1.2-0.5-1.7-0.8s-0.9-0.8-1.2-1.3s-0.5-1.1-0.5-1.9c0-1.1,0.2-2,0.6-2.7c0.4-0.7,1-1.2,1.7-1.7
			c0.7-0.4,1.5-0.7,2.4-0.9c0.9-0.2,1.8-0.2,2.7-0.2s1.8,0.1,2.7,0.3c0.9,0.2,1.6,0.5,2.3,0.9c0.7,0.4,1.2,1,1.7,1.7
			c0.4,0.7,0.7,1.6,0.8,2.6h-4.4c-0.1-0.9-0.4-1.5-1-1.8c-0.6-0.3-1.3-0.5-2.2-0.5c-0.3,0-0.5,0-0.9,0c-0.3,0-0.6,0.1-0.8,0.2
			s-0.5,0.3-0.6,0.5c-0.2,0.2-0.3,0.5-0.3,0.8c0,0.4,0.2,0.8,0.5,1c0.3,0.3,0.7,0.5,1.2,0.6c0.5,0.2,1.1,0.3,1.7,0.4
			c0.6,0.1,1.3,0.3,1.9,0.4c0.7,0.2,1.3,0.3,2,0.6c0.6,0.2,1.2,0.5,1.7,0.9c0.5,0.4,0.9,0.8,1.2,1.3c0.3,0.5,0.5,1.2,0.5,2
			c0,1.1-0.2,2-0.7,2.8c-0.4,0.8-1,1.4-1.8,1.8c-0.7,0.5-1.5,0.8-2.5,1c-0.9,0.2-1.9,0.3-2.8,0.3c-1,0-1.9-0.1-2.9-0.3
			c-0.9-0.2-1.8-0.5-2.5-1c-0.7-0.5-1.3-1.1-1.8-1.8c-0.5-0.8-0.7-1.7-0.8-2.8h4.4C380,189.9,380.1,190.4,380.3,190.7z"/>
		<path fill="#E25758" d="M403.3,178v3.1h-3.4v8.4c0,0.8,0.1,1.3,0.4,1.6c0.3,0.3,0.8,0.4,1.6,0.4c0.3,0,0.5,0,0.8,0
			s0.5-0.1,0.7-0.1v3.6c-0.4,0.1-0.8,0.1-1.3,0.1c-0.5,0-1,0-1.4,0c-0.7,0-1.4,0-2-0.1c-0.6-0.1-1.2-0.3-1.7-0.6
			c-0.5-0.3-0.9-0.7-1.2-1.2c-0.3-0.5-0.4-1.2-0.4-2.1v-10h-2.8V178h2.8v-5.1h4.7v5.1H403.3z"/>
		<path fill="#E25758" d="M410.5,190.9c0.7,0.7,1.7,1,3,1c0.9,0,1.7-0.2,2.4-0.7c0.7-0.5,1.1-1,1.2-1.5h4.1c-0.7,2-1.7,3.5-3,4.4
			s-3,1.3-4.9,1.3c-1.3,0-2.5-0.2-3.6-0.6c-1.1-0.4-2-1-2.7-1.8c-0.7-0.8-1.3-1.7-1.7-2.8c-0.4-1.1-0.6-2.3-0.6-3.6
			c0-1.3,0.2-2.4,0.6-3.5c0.4-1.1,1-2,1.8-2.8c0.8-0.8,1.7-1.4,2.7-1.9c1.1-0.5,2.2-0.7,3.5-0.7c1.4,0,2.7,0.3,3.8,0.8
			c1.1,0.6,1.9,1.3,2.6,2.2s1.2,2,1.5,3.2c0.3,1.2,0.4,2.5,0.3,3.8h-12.2C409.4,189.1,409.8,190.2,410.5,190.9z M415.7,182
			c-0.6-0.6-1.4-0.9-2.5-0.9c-0.7,0-1.4,0.1-1.9,0.4s-0.9,0.6-1.2,0.9c-0.3,0.4-0.5,0.8-0.6,1.2c-0.1,0.4-0.2,0.8-0.2,1.1h7.6
			C416.7,183.5,416.3,182.6,415.7,182z"/>
		<path fill="#E25758" d="M428.7,178v3.1h0.1c0.2-0.5,0.5-1,0.9-1.5c0.4-0.4,0.8-0.8,1.3-1.1c0.5-0.3,1-0.6,1.5-0.7
			c0.5-0.2,1.1-0.3,1.7-0.3c0.3,0,0.6,0.1,1,0.2v4.3c-0.2,0-0.5-0.1-0.8-0.1c-0.3,0-0.6,0-0.9,0c-0.9,0-1.6,0.1-2.2,0.4
			c-0.6,0.3-1.1,0.7-1.4,1.2s-0.6,1.1-0.8,1.7c-0.2,0.7-0.2,1.4-0.2,2.1v7.6h-4.7V178H428.7z"/>
		<path fill="#E25758" d="M448.5,192.8c-0.5,0.9-1.3,1.6-2.1,2c-0.9,0.4-1.9,0.6-3,0.6c-1.3,0-2.4-0.2-3.3-0.7c-1-0.5-1.8-1.2-2.4-2
			c-0.6-0.8-1.1-1.8-1.4-2.9s-0.5-2.2-0.5-3.4c0-1.1,0.2-2.2,0.5-3.3s0.8-2,1.4-2.8c0.6-0.8,1.4-1.5,2.3-1.9s2-0.7,3.3-0.7
			c1,0,2,0.2,2.9,0.6c0.9,0.4,1.6,1.1,2.1,1.9h0.1v-8.5h4.7v23.4h-4.4L448.5,192.8L448.5,192.8z M448.3,184.4
			c-0.1-0.6-0.4-1.2-0.7-1.7c-0.3-0.5-0.7-0.9-1.2-1.2c-0.5-0.3-1.1-0.5-1.9-0.5c-0.8,0-1.4,0.2-1.9,0.5c-0.5,0.3-0.9,0.7-1.3,1.2
			c-0.3,0.5-0.5,1.1-0.7,1.7c-0.1,0.6-0.2,1.3-0.2,2c0,0.7,0.1,1.3,0.2,2c0.2,0.7,0.4,1.2,0.7,1.8c0.3,0.5,0.8,0.9,1.3,1.2
			s1.1,0.5,1.9,0.5c0.8,0,1.4-0.2,1.9-0.5c0.5-0.3,0.9-0.7,1.2-1.2c0.3-0.5,0.5-1.1,0.7-1.8s0.2-1.3,0.2-2S448.4,185.1,448.3,184.4z
			"/>
		<path fill="#E25758" d="M457.1,180.5c0.5-0.7,1.1-1.3,1.8-1.7c0.7-0.4,1.6-0.7,2.5-0.9c0.9-0.2,1.9-0.3,2.8-0.3
			c0.9,0,1.7,0.1,2.6,0.2s1.7,0.4,2.4,0.7c0.7,0.3,1.3,0.8,1.8,1.5c0.5,0.6,0.7,1.4,0.7,2.5v8.8c0,0.8,0,1.5,0.1,2.2
			c0.1,0.7,0.2,1.2,0.5,1.6h-4.7c-0.1-0.3-0.2-0.5-0.2-0.8c-0.1-0.3-0.1-0.6-0.1-0.8c-0.7,0.8-1.6,1.3-2.6,1.6c-1,0.3-2,0.5-3.1,0.5
			c-0.8,0-1.6-0.1-2.3-0.3c-0.7-0.2-1.3-0.5-1.8-0.9c-0.5-0.4-0.9-0.9-1.2-1.6c-0.3-0.6-0.4-1.4-0.4-2.3c0-1,0.2-1.8,0.5-2.4
			c0.3-0.6,0.8-1.1,1.3-1.5c0.5-0.4,1.1-0.6,1.8-0.8c0.7-0.2,1.4-0.3,2.1-0.4c0.7-0.1,1.4-0.2,2.1-0.3c0.7-0.1,1.3-0.2,1.8-0.3
			c0.5-0.1,0.9-0.3,1.2-0.6c0.3-0.2,0.4-0.6,0.4-1.1c0-0.5-0.1-0.9-0.2-1.2s-0.4-0.5-0.7-0.7c-0.3-0.2-0.6-0.3-0.9-0.3
			c-0.4-0.1-0.7-0.1-1.2-0.1c-0.9,0-1.6,0.2-2.2,0.6c-0.5,0.4-0.8,1-0.9,2h-4.7C456.3,182.1,456.6,181.2,457.1,180.5z M466.3,187.1
			c-0.3,0.1-0.6,0.2-1,0.2s-0.7,0.1-1.1,0.2s-0.7,0.1-1.1,0.2c-0.3,0.1-0.7,0.2-1,0.3c-0.3,0.1-0.6,0.3-0.9,0.4s-0.5,0.4-0.6,0.7
			c-0.2,0.3-0.2,0.6-0.2,1.1c0,0.4,0.1,0.8,0.2,1c0.2,0.3,0.4,0.5,0.6,0.7s0.6,0.3,0.9,0.3c0.3,0.1,0.7,0.1,1.1,0.1
			c0.9,0,1.6-0.2,2.1-0.5c0.5-0.3,0.9-0.7,1.1-1.1s0.4-0.9,0.4-1.3c0.1-0.4,0.1-0.8,0.1-1v-1.7C466.8,186.8,466.6,187,466.3,187.1z"
			/>
		<path fill="#E25758" d="M479.8,178v2.3h0.1c0.6-0.9,1.3-1.6,2.2-2c0.9-0.5,1.8-0.7,3-0.7c1.1,0,2,0.2,2.9,0.6s1.6,1.1,2,2.2
			c0.5-0.7,1.2-1.4,2-2c0.9-0.6,1.9-0.9,3.1-0.9c0.9,0,1.7,0.1,2.5,0.3c0.8,0.2,1.4,0.6,2,1c0.5,0.5,1,1.1,1.3,1.9
			c0.3,0.8,0.5,1.7,0.5,2.8v11.3h-4.7v-9.6c0-0.6,0-1.1-0.1-1.6s-0.2-0.9-0.4-1.3c-0.2-0.4-0.5-0.7-0.9-0.9
			c-0.4-0.2-0.9-0.3-1.6-0.3c-0.7,0-1.2,0.1-1.6,0.4c-0.4,0.3-0.7,0.6-0.9,1c-0.2,0.4-0.4,0.9-0.5,1.4c-0.1,0.5-0.1,1-0.1,1.6v9.4
			H486v-9.5c0-0.5,0-1,0-1.5s-0.1-0.9-0.3-1.4c-0.2-0.4-0.4-0.7-0.8-1c-0.4-0.3-0.9-0.4-1.7-0.4c-0.2,0-0.5,0-0.9,0.1
			c-0.4,0.1-0.7,0.3-1,0.6c-0.3,0.3-0.6,0.7-0.9,1.2s-0.4,1.2-0.4,2v9.8h-4.7V178H479.8z"/>
	</g>
</g>
</svg>
