<?xml version="1.0" encoding="utf-8"?>
<!-- Generator: Adobe Illustrator 19.1.0, SVG Export Plug-In . SVG Version: 6.00 Build 0)  -->
<!DOCTYPE svg PUBLIC "-//W3C//DTD SVG 1.1//EN" "http://www.w3.org/Graphics/SVG/1.1/DTD/svg11.dtd">
<svg version="1.1" id="Layer_1" xmlns="http://www.w3.org/2000/svg" xmlns:xlink="http://www.w3.org/1999/xlink" x="0px" y="0px"
	 width="430px" height="102px" viewBox="288 -104.4 430 102" style="enable-background:new 288 -104.4 430 102;"
	 xml:space="preserve">
<style type="text/css">
	.st0{fill:#F37721;}
</style>
<g id="trifork">
	<g>
		<g>
			<g>
				<path d="M295.7-94.6h52.1v10.5h-19.2v31.7h-13.7v-31.7h-19.2V-94.6z"/>
				<path d="M353.8-94.6h41.3c10.5,0,13.4,5,13.4,12.5v2.7c0,5.7-1.4,9-7.6,10.4v0.1c4.1,0.7,7.5,2.4,7.5,9.3v7.2h-13.7v-5.1
					c0-4.4-1.4-5.9-5.6-5.9h-21.7v11h-13.6L353.8-94.6L353.8-94.6z M367.4-73.9H390c3.7,0,5.1-1.4,5.1-4.4v-1.4c0-3.7-2-4.4-6.3-4.4
					h-21.4V-73.9L367.4-73.9z"/>
				<path d="M418.4-94.6h13.7v42.2h-13.7V-94.6z"/>
				<path d="M442.1-94.6h46.6v10.1h-32.9v7.9h31.4v9.8h-31.4v14.4h-13.7V-94.6L442.1-94.6z"/>
				<path d="M495.9-79.8c0-12.4,7.3-15.3,19.7-15.3h21.9c12.3,0,19.7,2.9,19.7,15.3v12.6c0,12.4-7.3,15.3-19.7,15.3h-21.9
					c-12.3,0-19.7-2.9-19.7-15.3V-79.8L495.9-79.8z M510-71.2c0,6.1,1.4,8.5,7.8,8.5h17.5c6.5,0,7.8-2.3,7.8-8.5v-4.5
					c0-5.2-1.4-8.5-8.6-8.5h-16c-7.2,0-8.6,3.2-8.6,8.5v4.5C509.9-71.2,510-71.2,510-71.2z"/>
				<path d="M565.5-94.6h41.3c10.5,0,13.4,5,13.4,12.5v2.7c0,5.7-1.4,9-7.6,10.4v0.1c4.1,0.7,7.5,2.4,7.5,9.3v7.2h-13.7v-5.1
					c0-4.4-1.4-5.9-5.6-5.9h-21.5v11h-13.7L565.5-94.6L565.5-94.6z M579.1-73.9h22.6c3.7,0,5.1-1.4,5.1-4.4v-1.4
					c0-3.7-2-4.4-6.3-4.4h-21.4V-73.9L579.1-73.9z"/>
				<path d="M629.4-94.6H643v15.5h6.4l17.3-15.5h18.6L661.1-74l27,21.6h-19.4L649-68.6h-6v16.2h-13.7v-42.2H629.4z"/>
			</g>
			<g>
				<path class="st0" d="M697.4-64.3h12.9v11.9h-12.9V-64.3z"/>
			</g>
		</g>
	</g>
	<g>
		<path d="M367.5-14.9c0,0.5-0.3,1-0.9,1.3c-0.6,0.3-1.3,0.5-1.9,0.5c-0.4,0-0.8-0.2-1.2-0.6s-0.6-0.9-0.6-1.3
			c0-0.3,0.1-0.7,0.4-1.1c0.1-0.2,0.6-0.8,1.4-1.8c0.7,0.3,1.3,0.7,1.8,1.2C367.2-16.1,367.5-15.5,367.5-14.9z"/>
		<path d="M382.3-14.9c0,0.5-0.3,1-0.9,1.3c-0.6,0.3-1.3,0.5-1.9,0.5c-0.4,0-0.8-0.2-1.2-0.6c-0.4-0.4-0.6-0.9-0.6-1.3
			c0-0.3,0.1-0.7,0.4-1.1c0.1-0.2,0.6-0.8,1.4-1.8c0.7,0.3,1.3,0.7,1.8,1.2C382-16.1,382.3-15.5,382.3-14.9z"/>
		<path d="M397.1-14.9c0,0.5-0.3,1-0.9,1.3c-0.6,0.3-1.3,0.5-1.9,0.5c-0.4,0-0.8-0.2-1.2-0.6c-0.4-0.4-0.6-0.9-0.6-1.3
			c0-0.3,0.1-0.7,0.4-1.1c0.1-0.2,0.6-0.8,1.4-1.8c0.7,0.3,1.3,0.7,1.8,1.2C396.8-16.1,397.1-15.5,397.1-14.9z"/>
		<path d="M424.7-27.9c0,0.6-0.1,1-0.2,1.1c-0.2,0.2-0.5,0.4-1.1,0.6c-0.6-0.1-1.2-0.3-1.9-0.4c-0.6-0.2-1.2-0.2-1.8-0.2
			c-1.3,0-2.4,0.4-3.4,1.3c-0.9,0.8-1.4,1.9-1.4,3.2c0,1,0.1,2.2,0.4,3.5c0.7,3.2,1,5.2,1,6c-0.5,0-0.9,0-1.1,0.1
			c-0.3,0-0.7,0.1-1.4,0.3c-0.2-1-0.5-3.4-0.8-7.2c-0.1-1.6-0.3-3.1-0.6-4.3c-1.3,0.8-2.5,1.5-3.8,2.2c-1.7,0.9-3,1.4-3.9,1.4h-0.2
			v-1c0-1.1,0.8-2.1,2.4-2.8c3.8-1.7,5.8-2.9,6-3.5c0.1-2.6,0.2-4.8,0.3-6.6c0.2-3.5,0.9-5.2,2.1-5.2c0.4,0,0.8,0.1,1.1,0.3
			s0.4,0.5,0.4,0.9c0,0.7-0.3,2.1-0.8,4c-0.6,2-0.8,3.4-0.8,4.4c0,0.3,0,0.6,0,0.9s0.1,0.7,0.2,1.3c2.7-0.6,5.3-1.2,8-1.9
			C424.2-29.5,424.7-29,424.7-27.9z"/>
		<path d="M446.4-15c-0.5,0.7-1,1.3-1.5,1.7c-0.7,0.6-1.4,0.9-2,0.9l-0.9-0.4c-0.7-1-1.2-3.2-1.6-6.5c-0.4-3.9-0.7-6.3-1-7.2
			c-0.9,0.7-2,2.3-3.2,4.7c-0.9,2-1.9,4-2.8,5.9c-0.9,2-1.6,2.9-2.1,2.9c-0.3,0-0.6-0.2-0.7-0.5c-0.1-0.3-0.2-0.7-0.2-1.2
			c0-0.4,0-0.9,0.1-1.5c0.2-1.3,0.3-2.2,0.3-2.5c0-1.8,0-4.5,0.1-8.1c0.1-3.6,0.1-6.3,0.1-8.1c0-0.9,0.1-1.8,0.4-2.7
			c0.3-1.3,0.9-2,1.5-2c0.9,0,1.4,0.4,1.4,1.3c0,0.1-0.4,2.2-1.2,6.3c-0.4,2.1-0.6,3.8-0.6,5c0,1.7,0.2,3.4,0.5,5
			c0.7-0.3,2.3-2.4,4.8-6.2c1-1.6,1.9-2.4,2.7-2.4c1.1,0,1.8,1.3,2,3.8c0.1,2.4,0.1,4.9,0.2,7.4c0.1,2.5,0.6,3.8,1.6,3.9L446.4-15z"
			/>
		<path d="M459.1-28.6c0,0.8-0.1,1.8-0.4,2.9c-0.1,0.4-0.6,2.1-1.6,5c-0.2,0.6-0.3,1.6-0.4,2.9c-0.1,1.3-0.2,2.4-0.4,3.3
			c-0.2,0.8-0.7,1.5-1.6,2c-0.1-0.1-0.2-0.2-0.5-0.4c-0.4-0.3-0.6-0.6-0.6-1c0-0.2,0-0.4,0.1-0.8c0.1-0.3,0.2-0.6,0.2-0.7
			c0.1-0.6,0.2-1.3,0.3-2.1c0.1-0.8,0.1-1.5,0.1-2.3c0-0.6,0.3-2.3,0.9-5.1c0.6-2.8,1-4.3,1.3-4.6s0.5-0.5,0.7-0.6s0.4-0.1,0.6-0.1
			c0.4,0,0.7,0.2,0.9,0.5C459-29.3,459.1-29,459.1-28.6z M461.4-37c0,0.4-0.1,0.8-0.4,1.1c-0.3,0.4-0.6,0.5-1,0.5
			c-0.5,0-1-0.2-1.4-0.7c-0.4-0.5-0.6-1-0.6-1.6c0-0.3,0.1-0.6,0.4-0.9c0.2-0.3,0.5-0.4,0.9-0.4c0.5,0,1,0.2,1.5,0.5
			C461.1-38,461.4-37.5,461.4-37z"/>
		<path d="M481.6-13.9c0,0.3-0.2,0.7-0.6,1.1c-0.4,0.4-0.8,0.6-1.1,0.6c-0.2,0-0.5-0.1-0.9-0.3c-0.4-0.2-0.6-0.3-0.7-0.4
			c-1.5-0.9-2.6-2.5-3.1-4.9c-0.3-1.5-0.5-3.7-0.5-6.4c0-0.4,0-0.7,0-0.9s0-0.5,0-0.6c-0.9,0.8-2.3,3.7-4.1,8.7
			c-0.8,2.3-1.7,3.8-2.7,4.6c-0.6-0.6-0.9-1.3-1.1-2.1c-0.2-0.9-0.3-1.8-0.3-2.9c0-0.7,0.1-1.7,0.2-3c0.1-1.3,0.2-2.4,0.2-3.1
			c0-0.3-0.1-0.9-0.2-1.7c-0.1-0.8-0.2-1.3-0.2-1.6c0-0.5,0.1-1,0.4-1.3s0.7-0.5,1.2-0.5c0.8,0,1.3,1.2,1.6,3.6
			c0.1,1,0.2,2.6,0.2,4.7l0.4-0.4c0.5-2.1,1.1-3.9,1.8-5.4c1.1-2.4,2.4-3.6,3.8-3.6c0.8,0,1.3,0.7,1.6,2.2c0.2,1.1,0.4,2.5,0.4,4.3
			c0,0.5,0,0.9,0,1.4s0,1,0,1.6c0,1.5,0.1,2.5,0.2,3.3c0.2,0.7,0.4,1.2,0.8,1.4c0.8,0.2,1.4,0.3,1.8,0.4
			C481.2-15,481.6-14.6,481.6-13.9z"/>
		<path d="M502.4-14.7c-0.5,0.6-0.9,1-1.3,1.2c-0.4,0.2-0.8,0.3-1.1,0.3c-0.2,0-1.6-0.5-4.2-1.5c-1.6-0.6-3.3-1.2-4.9-1.8
			c0,0.2,0,0.4,0,0.8c0,0.3,0,0.8,0.1,1.3c0,0.5,0.1,0.8,0.1,0.8c0,0.4-0.2,0.8-0.6,1c-0.1,0.1-0.6,0.3-1.2,0.6
			c-0.1-0.1-0.3-0.3-0.4-0.5c-0.1-0.2-0.2-0.5-0.3-0.8c-0.2-0.6-0.4-1.4-0.4-2.4c-0.1-1-0.1-1.9-0.1-2.9c0-0.3,0-0.6,0-0.7
			c0-1.6,0.1-4.1,0.4-7.5c0.3-3.3,0.4-5.8,0.4-7.5c0-0.4-0.1-1-0.2-1.9c-0.1-0.9-0.2-1.4-0.2-1.7c0-1,0.5-1.8,1.5-2.2
			c0.8,1.9,1.2,3.9,1.2,5.9c0,0.9-0.1,2-0.3,3.3c-0.4,3-0.6,4.8-0.6,5.5l0.1,1.5c1.9-0.5,3.7-1.8,5.5-3.9c1.4-1.7,2.6-3.6,3.5-5.8
			c0.5,0.2,0.8,0.5,1.1,0.9c0.3,0.3,0.4,0.7,0.4,1.2c0,1.3-0.8,2.6-2.4,4.1c-0.2,0.2-1.7,1.4-4.6,3.6c-1.6,1.3-2.5,2.3-2.5,2.9
			c0,1.3,2.2,2.7,6.7,4.4C500.4-15.3,501.9-14.8,502.4-14.7z"/>
		<path d="M541.8-17.3c0,1.1-1.2,2.1-3.6,3.1c-2.1,0.9-3.7,1.3-5,1.3c-1.6,0-2.9-0.3-4-0.9c-1.3-0.8-2-1.9-2-3.4
			c0-0.8,0.3-1.2,0.8-1.5c0.5-0.2,1.2-0.3,2.1-0.3c0.5,0,0.8,0.1,1,0.3s0.4,0.6,0.6,1.2l-2.5,0.7v0.4c0,0.7,0.6,1.2,1.8,1.5
			c0.8,0.2,1.7,0.3,2.6,0.3c1,0,2.1-0.3,3.3-0.9c1.4-0.7,2.1-1.5,2.1-2.4c0-1.2-1-2.2-3.1-2.8c-2.1-0.6-4.1-1.2-6.1-1.8
			c-2.2-0.9-3.3-2.3-3.3-4.3s1.3-3.7,3.8-5c2.1-1.1,4.3-1.6,6.6-1.6c0.9,0,1.6,0.3,2.1,0.9s0.8,1.3,0.8,2.2c0,0.8-0.2,1.4-0.7,1.9
			c-0.4,0.5-1.1,0.7-1.8,0.7c0-0.6,0-1.1,0-1.5c0-0.8-0.2-1.4-0.5-1.7s-0.9-0.5-1.7-0.5c-1.3,0-2.6,0.4-4,1.2
			c-1.6,0.9-2.4,2-2.4,3.1c0,1,1.1,1.9,3.4,2.8c4,1.5,6.1,2.3,6.3,2.3C540.7-20.6,541.8-19.1,541.8-17.3z"/>
		<path d="M565.9-22.4c0,2.7-1.2,5.1-3.6,7.1c-2.3,1.9-4.8,2.9-7.6,2.9c-2.1,0-3.7-0.6-4.9-1.9c-1.2-1.2-1.8-2.9-1.8-5.1
			c0-2.8,0.9-5.2,2.8-7.1c1.9-1.9,4.2-2.8,7.1-2.8c2.5,0,4.4,0.5,5.7,1.5C565.1-26.7,565.9-24.9,565.9-22.4z M563.9-22.9
			c0-1.6-0.7-2.7-2-3.5c-1-0.6-2.4-0.8-4.1-0.8c-1.9,0-3.6,0.8-5.2,2.5c-1.5,1.7-2.3,3.4-2.3,5.4c0,1.5,0.4,2.7,1.3,3.5
			c0.9,0.9,2.1,1.3,3.5,1.3c2.3,0,4.3-0.8,6.1-2.5C563-18.7,563.9-20.7,563.9-22.9z"/>
		<path d="M592.7-40.3c0,0.8-0.2,1.5-0.5,2.2c-0.4,0.7-0.9,1.3-1.5,1.8c-0.1-0.2-0.1-0.5-0.1-0.9c0-0.3,0-0.6,0-0.8
			c0-1.4-0.1-2.3-0.2-2.8c-0.3-0.9-1.1-1.3-2.3-1.3c-2.4,0-4.2,1.2-5.6,3.7c-1.2,2.1-1.7,4.4-1.7,6.9c0,3.4,0.5,5.5,1.6,6.2
			c0.7,0.5,2.8,0.7,6.2,0.7c0.6,0,1.2,0.2,1.7,0.5s0.8,0.8,0.8,1.4s-0.4,0.8-1.1,0.8c-0.4,0-1-0.1-1.8-0.4c-0.8-0.2-1.4-0.4-1.9-0.4
			s-0.9,0-1.2,0.1c-0.4,0.1-0.9,0.2-1.6,0.4c0.5,1.6,0.9,3,1.2,4.2c0.3,1.1,0.4,2,0.4,2.6s-0.1,1.2-0.4,1.6s-0.7,0.7-1.3,0.9
			c-0.4-1.8-0.8-3.4-1.2-4.7c-0.2-0.8-0.7-2.4-1.4-4.6c-0.1,0-1.8,0.5-5.3,1.4c-0.8,0.2-1.6,0.4-2.3,0.6c-0.6,0-1.2-0.1-1.8-0.3
			c0.4-1,1.7-1.8,3.9-2.6c0.3-0.1,1.9-0.6,4.8-1.4v0.1c0-0.6-0.3-2.1-1-4.4c-0.3-1.2-0.5-2.2-0.5-2.9c0-2.8,1-5.6,2.9-8.4
			c2.1-3.1,4.6-4.6,7.3-4.6c1.2,0,2.1,0.4,2.9,1.3C592.3-42.5,592.7-41.5,592.7-40.3z"/>
		<path d="M616.6-27.9c0,0.6-0.1,1-0.2,1.1c-0.2,0.2-0.5,0.4-1.1,0.6c-0.6-0.1-1.2-0.3-1.9-0.4c-0.6-0.2-1.2-0.2-1.8-0.2
			c-1.3,0-2.4,0.4-3.4,1.3c-0.9,0.8-1.4,1.9-1.4,3.2c0,1,0.1,2.2,0.4,3.5c0.7,3.2,1,5.2,1,6c-0.5,0-0.9,0-1.1,0.1
			c-0.3,0-0.7,0.1-1.4,0.3c-0.2-1-0.5-3.4-0.8-7.2c-0.1-1.6-0.3-3.1-0.6-4.3c-1.3,0.8-2.5,1.5-3.8,2.2c-1.7,0.9-3,1.4-3.9,1.4h-0.2
			v-1c0-1.1,0.8-2.1,2.4-2.8c3.8-1.7,5.8-2.9,6-3.5c0.1-2.6,0.2-4.8,0.3-6.6c0.2-3.5,0.9-5.2,2.1-5.2c0.4,0,0.8,0.1,1.1,0.3
			c0.3,0.2,0.4,0.5,0.4,0.9c0,0.7-0.3,2.1-0.8,4c-0.6,2-0.8,3.4-0.8,4.4c0,0.3,0,0.6,0,0.9s0.1,0.7,0.2,1.3c2.7-0.6,5.3-1.2,8-1.9
			C616.2-29.5,616.6-29,616.6-27.9z"/>
		<path d="M642.2-26.6c0,3-0.3,5.9-1,8.5c-1,4-2.7,6-4.9,6c-0.9,0-1.7-0.7-2.4-2.1c-0.6-1.7-1.1-2.8-1.3-3.3c-0.6,0.3-2,1.3-4,3
			c-1.6,1.4-3.1,2.1-4.6,2.1c-1.2,0-1.7-0.6-1.7-1.7c0-0.9,0.3-1.9,0.8-2.9c0.8-1.5,1.5-3,2.3-4.5c0.4-1.4,0.8-2.8,1.2-4.2
			c0.4-1.4,1.4-2.4,2.8-3c0.2,0.6,0.3,1.2,0.3,1.8c0,1.3-0.7,3.3-2,6.1c-1.3,2.7-2,4.4-2,5.1v0.7c2-0.6,3.7-1.9,5.1-4
			c0.6-1,1.5-2.8,2.5-5.4c0.7-1.8,1.4-2.7,1.9-2.7c0.3,0,0.6,0.2,0.8,0.5c0.2,0.4,0.3,0.7,0.3,1.1c0,0.5-0.1,1.2-0.3,2
			c-0.4,1.8-0.6,2.9-0.6,3.4c0,1,0.1,2.1,0.4,3.1c0.1,0.3,0.3,0.9,0.5,1.9c1.6-0.6,2.8-2,3.6-4.4c0.5-1.6,0.7-3.6,0.7-6
			c0-0.7-0.2-1.5-0.7-2.3c-1.1-1.9-1.7-2.9-1.7-3.1c0-0.4,0.1-0.8,0.4-1.1c0.2-0.4,0.6-0.7,1-1c1.1,0.5,1.8,1.4,2.3,2.7
			C642-29.3,642.2-28.1,642.2-26.6z"/>
		<path d="M666.9-13.8c-0.2,0.4-0.4,0.7-0.8,1c-0.4,0.3-0.8,0.4-1.3,0.4c-1.1,0-2.1-1.2-2.9-3.7c-0.3-0.9-0.6-1.9-0.8-2.9
			c-2.3,1.9-4,3.4-5.3,4.4c-2.4,1.9-4.4,2.9-6,2.9c-0.7,0-1.2-0.2-1.6-0.7c-0.3-0.5-0.5-1.1-0.5-1.9c0-2.1,0.9-4.6,2.8-7.5
			c1.7-2.7,3.6-4.8,5.5-6c1-0.7,2.1-1.2,3.4-1.6s2.6-0.5,3.8-0.5c0.9,0,1.5,0.3,1.9,1c0.3,0.5,0.4,1.3,0.4,2.2c0,0.8-0.2,1.8-0.5,3
			c-0.8,2.6-1.2,4.3-1.2,5c0,1.3,0.4,2.2,1.2,2.8C666.1-15.1,666.7-14.4,666.9-13.8z M662.9-27.2c-0.2-0.2-0.4-0.4-0.6-0.6
			s-0.5-0.3-0.8-0.3c-2.4,0-4.8,1.5-7.3,4.5s-3.7,5.7-3.7,8.1l0.1,1.2c2-0.5,3.8-1.4,5.5-2.8c1.4-1.2,2.7-2.7,3.9-4.7
			C660.9-23.1,661.8-24.9,662.9-27.2z"/>
		<path d="M689.2-28.3c0,0.4-0.2,0.7-0.5,1.1s-0.7,0.5-1.1,0.5c-0.3,0-0.8-0.6-1.7-1.7c-0.9-1.2-1.7-1.7-2.5-1.7
			c-1.7,0-3.5,1-5.2,2.9c-1.7,2-2.6,3.8-2.6,5.6c0,0.5,0.1,1.5,0.3,3c0.1,0.9,0.2,1.5,0.2,1.8c0,1.3-0.1,2.1-0.4,2.6
			c-0.3,0.6-1,1-2.2,1.4c0-1.2-0.1-3.2-0.2-6c-0.1-2.8-0.2-4.6-0.2-5.5c0-2.3,0.5-4.3,1.5-6.1h0.4c0.1,0.1,0.4,0.4,1.1,1
			c0.3,0.3,0.5,0.5,0.7,0.7l0.7-0.7h0.5l-0.5,0.1c1.3-0.7,2.3-1.3,3.2-1.7c1.5-0.7,2.6-1,3.4-1c1,0,2.1,0.3,3.2,1
			C688.5-30.2,689.2-29.3,689.2-28.3z"/>
		<path d="M710.3-18.2l-0.4,0.4c0,1.5-1.9,2.9-5.6,4c-3,0.9-5.6,1.4-7.7,1.4c-1.7,0-2.9-0.5-3.7-1.4s-1.2-2.3-1.2-4
			c0-2.7,1.2-5.5,3.6-8.4c2.5-3.1,5.1-4.6,7.7-4.6c0.5,0,0.9,0.2,1.1,0.5s0.3,0.8,0.3,1.3c0,2-0.9,3.9-2.7,5.6
			c-0.5,0.5-2.2,1.8-5,3.9c-1.8,1.3-2.7,2.4-2.7,3.3c0,0.7,0.4,1.2,1.1,1.7c0.8,0.4,1.5,0.6,2.3,0.6c1,0,2.7-0.4,5.1-1.1
			s3.9-1.4,4.5-2.1c0.3-0.5,0.6-0.9,0.8-1.1c0.3-0.5,0.7-0.8,0.9-0.9l1.6,0.5L710.3-18.2L710.3-18.2z M702-28.3l-0.7,0.7
			c-0.3,0-0.7,0.1-1,0.3s-0.6,0.3-0.8,0.4c-0.9,0.4-1.7,1-2.4,1.8c-0.3,0.3-1.3,1.8-3,4.3h0.6c1.6,0,3.2-0.9,4.9-2.6
			C701.2-25,702-26.7,702-28.3z"/>
	</g>
</g>
</svg>
