<?xml version="1.0" encoding="utf-8"?>
<!-- Generator: Adobe Illustrator 17.1.0, SVG Export Plug-In . SVG Version: 6.00 Build 0)  -->
<!DOCTYPE svg PUBLIC "-//W3C//DTD SVG 1.1//EN" "http://www.w3.org/Graphics/SVG/1.1/DTD/svg11.dtd">
<svg version="1.1" id="Layer_1" xmlns="http://www.w3.org/2000/svg" xmlns:xlink="http://www.w3.org/1999/xlink" x="0px" y="0px"
	 viewBox="0 0 450 150" enable-background="new 0 0 450 150" xml:space="preserve">
<g>
	<path fill-rule="evenodd" clip-rule="evenodd" fill="#0D3A51" d="M83.8,24.7H109c3.5,0,6.3,2.8,6.3,6.3v12.6c0,3.5-2.8,6.3-6.3,6.3
		H83.8c-3.5,0-6.3-2.8-6.3-6.3V31C77.6,27.6,80.4,24.7,83.8,24.7z"/>
	<path fill-rule="evenodd" clip-rule="evenodd" fill="#0D3A51" d="M52.4,43.6h25.1c3.5,0,6.3,2.8,6.3,6.3v12.6
		c0,3.5-2.8,6.3-6.3,6.3H52.4c-3.5,0-6.3-2.8-6.3-6.3V49.9C46.2,46.4,49,43.6,52.4,43.6z"/>
	<path fill-rule="evenodd" clip-rule="evenodd" fill="#0D3A51" d="M21,62.4h25.1c3.5,0,6.3,2.8,6.3,6.3v12.6c0,3.5-2.8,6.3-6.3,6.3
		H21c-3.5,0-6.3-2.8-6.3-6.3V68.7C14.7,65.2,17.6,62.4,21,62.4z"/>
	<path fill-rule="evenodd" clip-rule="evenodd" fill="#0D3A51" d="M83.8,62.4H109c3.5,0,6.3,2.8,6.3,6.3v12.6c0,3.5-2.8,6.3-6.3,6.3
		H83.8c-3.5,0-6.3-2.8-6.3-6.3V68.7C77.6,65.2,80.4,62.4,83.8,62.4z"/>
	<path fill-rule="evenodd" clip-rule="evenodd" fill="#0D3A51" d="M52.4,81.3h25.1c3.5,0,6.3,2.8,6.3,6.3v12.6
		c0,3.5-2.8,6.3-6.3,6.3H52.4c-3.5,0-6.3-2.8-6.3-6.3V87.6C46.2,84.1,49,81.3,52.4,81.3z"/>
	<path fill-rule="evenodd" clip-rule="evenodd" fill="#0D3A51" d="M21,100.1h25.1c3.5,0,6.3,2.8,6.3,6.3V119c0,3.5-2.8,6.3-6.3,6.3
		H21c-3.5,0-6.3-2.8-6.3-6.3v-12.6C14.7,102.9,17.6,100.1,21,100.1z"/>
	<path fill="#0D3A51" d="M137.4,41v8.8h14.9v40.9h10.5V49.8h14.9V41H137.4z"/>
	<path fill="#0D3A51" d="M180.1,105.4c1,0.1,1.8,0.1,2.3,0.1c0.5,0,1.2,0,2.1,0c4.3,0,7.1-0.8,8.5-2.5c1.4-1.7,3.3-6,5.8-13
		l12.6-36.2h-10.2L193.5,81l-8-27.1h-10.7l13.5,38.4c0.1,0.3-0.1,1-0.6,2.2c-0.5,1.2-1,2-1.6,2.4c-0.6,0.4-1.3,0.7-2.2,0.8
		c-0.9,0.1-1.8,0.1-2.7,0.1l-1.2-0.1V105.4z"/>
	<path fill="#0D3A51" d="M243.2,72.3c0,3.4-0.7,6.2-2.1,8.3c-1.4,2.1-3.5,3.1-6.2,3.1c-1.9,0-3.5-0.5-4.8-1.5
		c-2.3-1.7-3.4-4.7-3.4-9c0-2.7,0.3-4.9,1-6.7c1.3-3.3,3.7-5,7.3-5c2.9,0,5.1,1.1,6.4,3.3C242.6,67,243.2,69.5,243.2,72.3
		L243.2,72.3z M237.7,53.1c-3,0-5.5,0.8-7.7,2.5c-1.2,0.9-2.3,2.2-3.3,3.8v-5.4h-9.2v51.2h9.5V86c1,1.6,2.1,2.7,3.1,3.5
		c1.9,1.5,4.4,2.2,7.3,2.2c4.6,0,8.4-1.7,11.3-5.1c2.9-3.4,4.4-8.3,4.4-14.8c0-6.1-1.5-10.8-4.5-14C245.7,54.7,242,53.1,237.7,53.1
		L237.7,53.1z"/>
	<path fill="#0D3A51" d="M275.9,60.9c2.3,0,4.2,0.7,5.7,2c1.5,1.3,2.4,3.3,2.6,5.8h-16.6c0.3-2.4,1.2-4.3,2.6-5.7
		C271.6,61.6,273.5,60.9,275.9,60.9L275.9,60.9z M275.9,52.9c-5.4,0-9.8,1.7-13.1,5.1c-3.4,3.4-5.1,8.3-5.1,14.7
		c0,6.8,1.9,11.7,5.6,14.7c3.7,3,8.1,4.5,13,4.5c5.9,0,10.5-1.8,13.8-5.4c2.1-2.2,3.3-4.5,3.6-6.6h-9.8c-0.6,1.1-1.2,1.9-2,2.5
		c-1.4,1.1-3.1,1.7-5.3,1.7c-2.1,0-3.8-0.5-5.3-1.4c-2.4-1.5-3.7-4.1-3.8-7.8h26.8c0-3.2-0.1-5.6-0.3-7.3c-0.4-2.9-1.4-5.4-2.9-7.6
		c-1.7-2.5-3.8-4.3-6.4-5.4C282,53.5,279.1,52.9,275.9,52.9L275.9,52.9z"/>
	<path fill="#0D3A51" d="M297.4,78.9c0,3.8,1.4,6.9,4.1,9.3c2.8,2.4,7,3.7,12.8,3.7c5.7,0,9.9-1.2,12.6-3.5c2.7-2.3,4.1-5.3,4.1-8.9
		c0-2.8-0.9-5.1-2.8-6.9c-1.9-1.8-4.8-3.2-8.6-4.1c-5.7-1.3-9.1-2.1-10-2.7c-0.9-0.5-1.4-1.3-1.4-2.4c0-0.9,0.4-1.6,1.3-2.3
		c0.9-0.7,2.4-1,4.5-1c2.5,0,4.4,0.7,5.4,2c0.6,0.7,0.9,1.7,1,2.9h9.6c-0.4-4.5-2.1-7.7-5-9.5c-2.9-1.8-6.6-2.7-11.2-2.7
		c-4.8,0-8.6,1.2-11.3,3.7c-2.7,2.4-4,5.4-4,8.8c0,2.9,0.9,5.1,2.6,6.6c1.7,1.6,4.7,2.8,8.8,3.9c5.8,1.4,9.2,2.3,10.1,2.9
		c0.9,0.6,1.4,1.4,1.4,2.5c0,1.1-0.6,2-1.7,2.5c-1.1,0.6-2.6,0.8-4.5,0.8c-3.2,0-5.4-0.6-6.6-1.9c-0.7-0.7-1.1-1.9-1.3-3.6H297.4z"
		/>
	<path fill="#0D3A51" d="M359.3,76.4c-0.1,3.2-1,5.4-2.8,6.6c-1.8,1.2-3.7,1.8-5.8,1.8c-1.3,0-2.5-0.4-3.4-1.1
		c-0.9-0.7-1.4-1.9-1.4-3.6c0-1.8,0.8-3.2,2.3-4.1c0.9-0.5,2.4-1,4.4-1.3l2.2-0.4c1.1-0.2,2-0.4,2.6-0.7c0.6-0.2,1.2-0.5,1.9-0.9
		V76.4z M350.1,68.7c-3.7,0.5-6.6,1.3-8.5,2.4c-3.5,2-5.3,5.3-5.3,9.8c0,3.5,1.1,6.2,3.3,8.1c2.2,1.9,4.9,2.9,8.3,2.9
		c2.6,0,5-0.6,7.1-1.8c1.7-1,3.3-2.2,4.6-3.7c0.1,0.8,0.2,1.6,0.3,2.2c0.1,0.7,0.3,1.3,0.6,2.1h10.5v-1.4c-0.6-0.3-1.1-0.7-1.4-1.1
		c-0.3-0.4-0.5-1.3-0.6-2.6c0-1.7-0.1-3.1-0.1-4.3V64.5c0-4.4-1.6-7.4-4.7-9c-3.1-1.6-6.7-2.4-10.8-2.4c-6.2,0-10.6,1.6-13.1,4.9
		c-1.6,2.1-2.5,4.7-2.7,7.9h9.3c0.2-1.4,0.7-2.5,1.4-3.4c1-1.1,2.6-1.7,4.9-1.7c2.1,0,3.6,0.3,4.7,0.9c1.1,0.6,1.6,1.6,1.6,3.1
		c0,1.2-0.7,2.1-2.1,2.7c-0.8,0.3-2.1,0.6-3.8,0.8L350.1,68.7z"/>
	<path fill="#0D3A51" d="M391.5,40.4c-5.3,0-8.7,1.1-10.1,3.3c-1.3,1.5-2,4.2-2,8.1v2.4h-5.3V61h5.4v29.7h9.5V61h6.3v-6.8h-6.3
		c0-1.3,0-2.4,0-3.1c0-0.7,0.2-1.4,0.7-2c0.5-0.6,1.4-0.9,2.6-0.8c1.3,0,2.2,0.1,2.7,0.2v-7.8c-0.9-0.1-1.5-0.1-2-0.2
		C392.7,40.5,392.1,40.4,391.5,40.4L391.5,40.4z"/>
	<path fill="#0D3A51" d="M417,60.9c2.3,0,4.2,0.7,5.7,2c1.5,1.3,2.4,3.3,2.6,5.8h-16.6c0.3-2.4,1.2-4.3,2.6-5.7
		C412.6,61.6,414.5,60.9,417,60.9L417,60.9z M417,52.9c-5.4,0-9.8,1.7-13.1,5.1c-3.4,3.4-5.1,8.3-5.1,14.7c0,6.8,1.9,11.7,5.6,14.7
		c3.7,3,8.1,4.5,13,4.5c5.9,0,10.5-1.8,13.8-5.4c2.1-2.2,3.3-4.5,3.6-6.6h-9.8c-0.6,1.1-1.2,1.9-2,2.5c-1.4,1.1-3.1,1.7-5.3,1.7
		c-2.1,0-3.8-0.5-5.3-1.4c-2.4-1.5-3.7-4.1-3.8-7.8h26.8c0-3.2-0.1-5.6-0.3-7.3c-0.4-2.9-1.4-5.4-2.9-7.6c-1.7-2.5-3.8-4.3-6.4-5.4
		C423.1,53.5,420.2,52.9,417,52.9L417,52.9z"/>
</g>
</svg>
