<?xml version="1.0" encoding="utf-8"?>
<!-- Generator: Adobe Illustrator 19.1.0, SVG Export Plug-In . SVG Version: 6.00 Build 0)  -->
<!DOCTYPE svg PUBLIC "-//W3C//DTD SVG 1.1//EN" "http://www.w3.org/Graphics/SVG/1.1/DTD/svg11.dtd">
<svg version="1.1" id="Layer_1" xmlns="http://www.w3.org/2000/svg" xmlns:xlink="http://www.w3.org/1999/xlink" x="0px" y="0px"
	 width="660px" height="160px" viewBox="244 -64.8 660 160" style="enable-background:new 244 -64.8 660 160;" xml:space="preserve"
	>
<style type="text/css">
	.st0{fill:#0E3A51;}
	.st1{clip-path:url(#SVGID_2_);}
	.st2{fill:#15A9CE;}
	.st3{fill:#92D13D;}
	.st4{fill:#DE3423;}
</style>
<g id="Layer_2">
</g>
<g id="Layer_1_1_">
	<g>
		<g>
			<g>
				<path class="st0" d="M441.9-23.6H412v-17.7h80v17.7h-29.9V51h-20.3v-74.6H441.9z"/>
				<path class="st0" d="M480.6,79.2l16.5-35l-25.5-55.9H492l6.5,15.6c2.8,6.8,5.5,13.4,8,19.9h0.3c2.8-6.9,5.6-13.5,8.5-20.3
					l6.6-15.2h19.3l-40.8,90.9H480.6z"/>
				<path class="st0" d="M562.7,79.2h-19.4v-90.9h19v3.2l0.3,0.1c4.1-2.8,9.3-4.7,15.6-4.7c16.1,0,29.7,12.8,29.7,32.3
					c0,20.2-14.4,33.3-32.8,33.3c-5.1,0-9.2-1-12.1-2.4l-0.3,0.1L562.7,79.2L562.7,79.2z M572.6,36.8c10.1,0,15.7-7.3,15.7-16.6
					c0-9.4-5.6-17.1-15.2-17.1c-4,0-7.7,1.4-10.5,3.4v27.8C565.1,35.6,568.7,36.8,572.6,36.8z"/>
				<path class="st0" d="M630.3,24.8c2.2,8.7,9.3,12.6,18.2,12.6c7,0,14.7-2.4,21.3-6.9v16.2c-6.1,3.8-15.6,5.7-23.9,5.7
					c-20.7,0-35.6-12.9-35.6-32.5c0-20,15.6-33,32.9-33c15.4,0,30,10.2,30,31.3c0,2.2-0.1,5-0.4,6.6H630.3z M655.4,12.6
					c-1.1-6.8-6.1-10.8-12.4-10.8c-6,0-11.2,3.7-12.9,10.8H655.4z"/>
				<path class="st0" d="M678.4,30.3c8.7,5.1,18.8,7.3,24.8,7.3c5.4,0,8.5-1.4,8.5-4.8c0-4.8-7-4.3-16.5-6.8
					c-11.9-2.9-18.9-7.9-18.9-18.2C676.4-5.5,688.2-13,703.7-13c7.5,0,16.8,1.5,24,5V8.7c-8.3-4.7-18-6.8-23.6-6.8
					c-5.1,0-8.2,1.5-8.2,4.5c0,4.6,6.8,4.2,16.1,6.5c12,2.9,19.3,7.5,19.3,18.4c-0.1,13.8-12.1,21.3-28.2,21.3
					c-7.5,0-17.2-1.5-24.8-5.2V30.3H678.4z"/>
				<path class="st0" d="M773.2,47.3c-4.1,2.9-10.3,5.2-17.5,5.2c-5.4,0-10.5-1.3-14.5-4.1c-4.6-3.2-7.4-8.2-7.4-14.7
					c0-6.9,3.2-12.1,7.7-15.2c4.8-3.3,11.1-4.5,17.6-4.5c3.7,0,7.4,0.4,10.8,1.1v-2.4c0-3.1-1-5.4-2.4-6.6c-1.8-1.7-5.1-2.7-9.7-2.7
					c-7,0-13.4,2.3-18.4,5V-8.2c5.1-2.6,12.8-4.8,21.9-4.8c8.4,0,15.9,1.9,20.9,6c4.7,3.8,7,9.4,7,17.4v21.3c0,2.9,1.1,5,3.8,5
					c1,0,2.2-0.3,3.2-0.8v14.5c-2.2,1.1-5.6,1.9-9.3,1.9c-5.1,0-10.1-1.4-13.5-5H773.2z M769.9,26.5c-2-0.6-4.8-0.9-6.9-0.9
					c-5,0-10,1.5-10,6.4c0,4.1,3.6,6.3,8,6.3c3.3,0,6.5-1.1,8.8-2.6v-9.2H769.9z"/>
				<path class="st0" d="M803,4.4h-8.9v-16.1h8.9V-21c0-8.8,1.8-16.3,6.6-20.9c4.5-4.3,11.5-5.9,17.7-5.9c3.6,0,7.3,0.5,10.7,1.8
					v15.7c-2.4-0.6-6.3-1.1-8.4-1.1c-6,0-7.3,3.8-7.3,9.2v10.6H837V4.5h-14.5v46.7H803V4.4z"/>
				<path class="st0" d="M856,24.8c2.2,8.7,9.3,12.6,18.2,12.6c7,0,14.7-2.4,21.3-6.9v16.2c-6.1,3.8-15.6,5.7-23.9,5.7
					c-20.7,0-35.6-12.9-35.6-32.5c0-20,15.6-33,32.9-33c15.4,0,30,10.2,30,31.3c0,2.2-0.1,5-0.4,6.6H856z M881.1,12.6
					C880,5.8,875,1.8,868.7,1.8c-6,0-11.2,3.7-12.9,10.8H881.1z"/>
			</g>
		</g>
		<g>
			<circle class="st0" cx="325" cy="14.7" r="75"/>
			<g>
				<g>
					<defs>
						<circle id="SVGID_1_" cx="325" cy="14.7" r="75"/>
					</defs>
					<clipPath id="SVGID_2_">
						<use xlink:href="#SVGID_1_"  style="overflow:visible;"/>
					</clipPath>
					<g class="st1">
						<g>
							<g>
								<g>
									<path class="st2" d="M315.7,22.4h146.2c4.8,0,8.7-3.9,8.7-8.7l0,0c0-4.8-3.9-8.7-8.7-8.7H315.7c-4.8,0-8.7,3.9-8.7,8.7l0,0
										C307,18.5,310.9,22.4,315.7,22.4z"/>
								</g>
							</g>
						</g>
						<g>
							<g>
								<g>
									<path class="st3" d="M333.7-6h146.2c4.8,0,8.7-3.9,8.7-8.7l0,0c0-4.8-3.9-8.7-8.7-8.7H333.7c-4.8,0-8.7,3.9-8.7,8.7l0,0
										C325-9.8,328.9-6,333.7-6z"/>
								</g>
							</g>
						</g>
						<g>
							<g>
								<g>
									<path class="st4" d="M297.7,50.7h146.2c4.8,0,8.7-3.9,8.7-8.7l0,0c0-4.8-3.9-8.7-8.7-8.7H297.7c-4.8,0-8.7,3.9-8.7,8.7l0,0
										C289,46.8,292.9,50.7,297.7,50.7z"/>
								</g>
							</g>
						</g>
					</g>
				</g>
			</g>
		</g>
	</g>
</g>
</svg>
