<?xml version="1.0" encoding="utf-8"?>
<!-- Generator: Adobe Illustrator 18.0.0, SVG Export Plug-In . SVG Version: 6.00 Build 0)  -->
<!DOCTYPE svg PUBLIC "-//W3C//DTD SVG 1.1//EN" "http://www.w3.org/Graphics/SVG/1.1/DTD/svg11.dtd">
<svg version="1.1" xmlns="http://www.w3.org/2000/svg" xmlns:xlink="http://www.w3.org/1999/xlink" x="0px" y="0px"
	 viewBox="0 0 660 160" enable-background="new 0 0 660 160" xml:space="preserve">
<g id="Layer_2">
</g>
<g id="Layer_1">
	<g>
		<g>
			<g>
				<path fill="#0E3A51" d="M197.9,41.2H168V23.5h80v17.7h-29.9v74.6h-20.3V41.2z"/>
				<path fill="#0E3A51" d="M236.6,144l16.5-35l-25.5-55.9H248l6.5,15.6c2.8,6.8,5.5,13.4,8,19.9h0.3c2.8-6.9,5.6-13.5,8.5-20.3
					l6.6-15.2h19.3L256.4,144H236.6z"/>
				<path fill="#0E3A51" d="M318.7,144h-19.4V53.1h19v3.2l0.3,0.1c4.1-2.8,9.3-4.7,15.6-4.7c16.1,0,29.7,12.8,29.7,32.3
					c0,20.2-14.4,33.3-32.8,33.3c-5.1,0-9.2-1-12.1-2.4l-0.3,0.1V144z M328.6,101.6c10.1,0,15.7-7.3,15.7-16.6
					c0-9.4-5.6-17.1-15.2-17.1c-4,0-7.7,1.4-10.5,3.4v27.8C321.1,100.4,324.7,101.6,328.6,101.6z"/>
				<path fill="#0E3A51" d="M386.3,89.6c2.2,8.7,9.3,12.6,18.2,12.6c7,0,14.7-2.4,21.3-6.9v16.2c-6.1,3.8-15.6,5.7-23.9,5.7
					c-20.7,0-35.6-12.9-35.6-32.5c0-20,15.6-33,32.9-33c15.4,0,30,10.2,30,31.3c0,2.2-0.1,5-0.4,6.6H386.3z M411.4,77.4
					c-1.1-6.8-6.1-10.8-12.4-10.8c-6,0-11.2,3.7-12.9,10.8H411.4z"/>
				<path fill="#0E3A51" d="M434.4,95.1c8.7,5.1,18.8,7.3,24.8,7.3c5.4,0,8.5-1.4,8.5-4.8c0-4.8-7-4.3-16.5-6.8
					c-11.9-2.9-18.9-7.9-18.9-18.2c0.1-13.3,11.9-20.8,27.4-20.8c7.5,0,16.8,1.5,24,5v16.7c-8.3-4.7-18-6.8-23.6-6.8
					c-5.1,0-8.2,1.5-8.2,4.5c0,4.6,6.8,4.2,16.1,6.5c12,2.9,19.3,7.5,19.3,18.4c-0.1,13.8-12.1,21.3-28.2,21.3
					c-7.5,0-17.2-1.5-24.8-5.2V95.1z"/>
				<path fill="#0E3A51" d="M529.2,112.1c-4.1,2.9-10.3,5.2-17.5,5.2c-5.4,0-10.5-1.3-14.5-4.1c-4.6-3.2-7.4-8.2-7.4-14.7
					c0-6.9,3.2-12.1,7.7-15.2c4.8-3.3,11.1-4.5,17.6-4.5c3.7,0,7.4,0.4,10.8,1.1v-2.4c0-3.1-1-5.4-2.4-6.6c-1.8-1.7-5.1-2.7-9.7-2.7
					c-7,0-13.4,2.3-18.4,5V56.6c5.1-2.6,12.8-4.8,21.9-4.8c8.4,0,15.9,1.9,20.9,6c4.7,3.8,7,9.4,7,17.4v21.3c0,2.9,1.1,5,3.8,5
					c1,0,2.2-0.3,3.2-0.8v14.5c-2.2,1.1-5.6,1.9-9.3,1.9c-5.1,0-10.1-1.4-13.5-5H529.2z M525.9,91.3c-2-0.6-4.8-0.9-6.9-0.9
					c-5,0-10,1.5-10,6.4c0,4.1,3.6,6.3,8,6.3c3.3,0,6.5-1.1,8.8-2.6V91.3z"/>
				<path fill="#0E3A51" d="M559,69.2h-8.9V53.1h8.9v-9.3c0-8.8,1.8-16.3,6.6-20.9c4.5-4.3,11.5-5.9,17.7-5.9
					c3.6,0,7.3,0.5,10.7,1.8v15.7c-2.4-0.6-6.3-1.1-8.4-1.1c-6,0-7.3,3.8-7.3,9.2v10.6H593v16.1h-14.5v46.7H559V69.2z"/>
				<path fill="#0E3A51" d="M612,89.6c2.2,8.7,9.3,12.6,18.2,12.6c7,0,14.7-2.4,21.3-6.9v16.2c-6.1,3.8-15.6,5.7-23.9,5.7
					c-20.7,0-35.6-12.9-35.6-32.5c0-20,15.6-33,32.9-33c15.4,0,30,10.2,30,31.3c0,2.2-0.1,5-0.4,6.6H612z M637.1,77.4
					c-1.1-6.8-6.1-10.8-12.4-10.8c-6,0-11.2,3.7-12.9,10.8H637.1z"/>
			</g>
		</g>
		<g>
			<circle fill="#0E3A51" cx="81" cy="79.5" r="75"/>
			<g>
				<defs>
					<circle id="SVGID_9_" cx="81" cy="79.5" r="75"/>
				</defs>
				<clipPath id="SVGID_2_">
					<use xlink:href="#SVGID_9_"  overflow="visible"/>
				</clipPath>
				<g clip-path="url(#SVGID_2_)">
					<g>
						<g>
							<g>
								<path fill="#15A9CE" d="M71.7,87.2h146.2c4.8,0,8.7-3.9,8.7-8.7v0c0-4.8-3.9-8.7-8.7-8.7H71.7c-4.8,0-8.7,3.9-8.7,8.7v0
									C63,83.3,66.9,87.2,71.7,87.2z"/>
							</g>
						</g>
					</g>
					<g>
						<g>
							<g>
								<path fill="#92D13D" d="M89.7,58.8h146.2c4.8,0,8.7-3.9,8.7-8.7v0c0-4.8-3.9-8.7-8.7-8.7H89.7c-4.8,0-8.7,3.9-8.7,8.7v0
									C81,55,84.9,58.8,89.7,58.8z"/>
							</g>
						</g>
					</g>
					<g>
						<g>
							<g>
								<path fill="#DE3423" d="M53.7,115.5h146.2c4.8,0,8.7-3.9,8.7-8.7v0c0-4.8-3.9-8.7-8.7-8.7H53.7c-4.8,0-8.7,3.9-8.7,8.7v0
									C45,111.6,48.9,115.5,53.7,115.5z"/>
							</g>
						</g>
					</g>
				</g>
			</g>
		</g>
	</g>
</g>
</svg>
