<svg id="Layer_1" data-name="Layer 1" xmlns="http://www.w3.org/2000/svg" viewBox="0 0 279.15 277.95">
  <title>good-conduct</title>
  <g id="LINE">
    <g id="_Group_" data-name="&lt;Group&gt;">
      <g>
        <circle cx="262.95" cy="170.84" r="16.2" fill="#364550"/>
        <path d="M260.91,131.32a5,5,0,0,1-9.56,2.13,97.42,97.42,0,0,0-22.11-34.23,9.45,9.45,0,0,0-11.41,15.07,9.77,9.77,0,0,0,1.24.8l-10.17,5.14A66,66,0,0,0,177.48,90l9.25-18.42a59.63,59.63,0,0,0-36.05-2.06,5,5,0,0,1-3.54-9.32,93.06,93.06,0,0,1,38.5-1.84h0a12.67,12.67,0,0,0,12.69-9.9A112,112,0,0,1,218.8,61,20.57,20.57,0,0,0,237.72,79.6,112.42,112.42,0,0,1,260.91,131.32Z" transform="translate(-10.42 -11.02)" fill="#39bad8"/>
        <circle cx="228.85" cy="48.06" r="16.2" fill="#39bad8"/>
        <path d="M224.58,187.07a5,5,0,0,1,4.63,5.35,93.16,93.16,0,0,1-17.65,34.27l0,0a12.65,12.65,0,0,0,2.23,15.93,112.65,112.65,0,0,1-21.12,11.43,20.58,20.58,0,0,0-25.56,7.09,112.42,112.42,0,0,1-56.38-5.77,5,5,0,0,1,2.93-9.34,97.56,97.56,0,0,0,40.7-2A9.45,9.45,0,0,0,147,226.6a9.3,9.3,0,0,0-1.31.68l.63-11.38a66,66,0,0,0,41.89-12.1L199.56,221a59.62,59.62,0,0,0,19.82-30.19A5,5,0,0,1,224.58,187.07Z" transform="translate(-10.42 -11.02)" fill="#de3423"/>
        <path d="M214.85,190.89a9.53,9.53,0,0,0-.07,1.47l-9.54-6.23a66.05,66.05,0,0,0,10.48-42.34l20.57-1.19a59.6,59.6,0,0,0-16.23-32.26,5,5,0,0,1,6.29-7.73A93,93,0,0,1,247.19,135v0a12.67,12.67,0,0,0,14.91,6,112.72,112.72,0,0,1-.66,24,20.57,20.57,0,0,0-6.63,25.67,112.52,112.52,0,0,1-33.19,45.94A5,5,0,0,1,215,229.5a97.52,97.52,0,0,0,18.59-36.26,9.45,9.45,0,1,0-18.76-2.35Z" transform="translate(-10.42 -11.02)" fill="#364550"/>
        <circle cx="173.67" cy="261.75" r="16.2" fill="#de3423"/>
        <path d="M189.28,44.61A5,5,0,0,1,186.35,54a97.57,97.57,0,0,0-40.7,2A9.45,9.45,0,0,0,153,73.4a9.35,9.35,0,0,0,1.31-.68l-.63,11.38a66,66,0,0,0-41.89,12.1L100.44,79a59.62,59.62,0,0,0-19.82,30.19,5,5,0,0,1-9.84-1.59A93.14,93.14,0,0,1,88.43,73.31l0,0a12.65,12.65,0,0,0-2.23-15.93,112.65,112.65,0,0,1,21.12-11.43,20.58,20.58,0,0,0,25.56-7.09A112.42,112.42,0,0,1,189.28,44.61Z" transform="translate(-10.42 -11.02)" fill="#de3423"/>
        <path d="M113.46,241.66a12.67,12.67,0,0,0-11.81,9.9A112.06,112.06,0,0,1,81.2,239,20.57,20.57,0,0,0,62.28,220.4a112.42,112.42,0,0,1-23.2-51.72,5,5,0,0,1,9.56-2.13,97.42,97.42,0,0,0,22.11,34.23,9.45,9.45,0,0,0,11.41-15.07,9.75,9.75,0,0,0-1.24-.8l10.17-5.14A66,66,0,0,0,122.52,210l-9.25,18.42a59.57,59.57,0,0,0,36.05,2.07,5,5,0,0,1,3.55,9.32,93.06,93.06,0,0,1-38.5,1.84Z" transform="translate(-10.42 -11.02)" fill="#39bad8"/>
        <circle cx="105.48" cy="16.2" r="16.2" fill="#de3423"/>
        <path d="M85.22,107.64l9.54,6.23a66,66,0,0,0-10.48,42.34L63.71,157.4a59.6,59.6,0,0,0,16.23,32.26,5,5,0,0,1-6.29,7.73A93,93,0,0,1,52.81,165v0a12.67,12.67,0,0,0-14.91-6,112.69,112.69,0,0,1,.66-24,20.57,20.57,0,0,0,6.63-25.67A112.51,112.51,0,0,1,78.36,63.29,5,5,0,0,1,85,70.5a97.51,97.51,0,0,0-18.59,36.26,9.45,9.45,0,1,0,18.83.88Z" transform="translate(-10.42 -11.02)" fill="#364550"/>
        <circle cx="50.3" cy="229.89" r="16.2" fill="#39bad8"/>
        <circle cx="16.2" cy="107.11" r="16.2" fill="#364550"/>
      </g>
    </g>
  </g>
</svg>
