<?xml version="1.0" encoding="utf-8"?>
<!-- Generator: Adobe Illustrator 21.1.0, SVG Export Plug-In . SVG Version: 6.00 Build 0)  -->
<svg version="1.1" id="Layer_1" xmlns="http://www.w3.org/2000/svg" xmlns:xlink="http://www.w3.org/1999/xlink" x="0px" y="0px"
	 viewBox="0 0 810 1311" style="enable-background:new 0 0 810 1311;" xml:space="preserve">
<style type="text/css">
	.st0{clip-path:url(#SVGID_2_);}
	.st1{opacity:0.7;}
	.st2{fill:#FFFFFF;}
</style>
<g>
	<g>
		<defs>
			<rect id="SVGID_1_" width="810" height="1311"/>
		</defs>
		<clipPath id="SVGID_2_">
			<use xlink:href="#SVGID_1_"  style="overflow:visible;"/>
		</clipPath>
		<g class="st0">
			<g class="st1">
				<path class="st2" d="M281.2,806.4c119.7-6.5,234.8-23.7,355.2-18.2c59,2.7,120,6.5,178.1-6.5c25.2-5.6,49.8-14.9,71-29.9
					c53.3-37.7,63.9-132.6,71.2-191.5c4.9-39.8,22.9-113-15.5-139.7c-37.7-26.2-159.1-44.7-208.8-31.7c-35.7,9.3-66.3,39-97.9,56.4
					C533.6,500.7,426.4,544,327.3,602.7c-44,26.1-89.6,56.2-121.5,97c-11.3,14.4-48,74.8-29.9,101.5c7,4,17.3,4.9,25.1,5.6
					C227.6,809,254.7,807.8,281.2,806.4L281.2,806.4z M1099.5,848.9c-23.3-67-234.3-64-296.2-49c-41.3,10-75.1,43.9-110.5,65.4
					c-91,55.3-186.9,105.4-269.8,172.7c-14.8,12-123.1,140.1-107,166.8c11.7,2.5,18.6,5.7,45.4,6.5c105.6,3,209.4-21,314.5-25.2
					c89.8-3.6,182.6,8.2,271.3-10.8c101.2-21.6,133.8-99,148.2-197.2C1100.7,942.9,1111.4,883.3,1099.5,848.9
					C1099.1,847.9,1101.2,853.7,1099.5,848.9z"/>
			</g>
			<path class="st2" d="M692,173.3C520.5,294.6,228.9,431,66,487.7l-0.3,0.1c16.2,46.7,73.1,210.4,108,311c0.3,0.9,1,1.7,2.1,2.5
				C287,762.3,618,607,805.2,478.1c36.1-24.9,70.4-50,93.7-72c21.4-20.2,33.6-37.9,29.2-50.4C892.4,253,833.8,84.3,819.1,41.8
				C829.4,71.3,761.4,124.3,692,173.3L692,173.3z M832.2,576.9C729.6,649.5,584,727.4,448.7,790.5c-90.9,42.3-177.1,78-242.6,100.7
				l-0.3,0.1c16.2,46.7,73.1,210.4,108,311c0.3,0.9,1,1.7,2.1,2.5c111.2-38.9,442.1-194.2,629.3-323.2c36.1-24.9,70.4-50,93.7-72
				c21.4-20.2,33.6-37.9,29.2-50.4c-8.1-23.2-17.3-49.9-27-77.6c-24.9-71.8-63.2-181.9-82.1-236.2
				C969.6,474.9,901.6,527.8,832.2,576.9L832.2,576.9z M972.4,980.5C869.8,1053,724.2,1131,588.9,1194
				c-91,42.4-177.3,78.1-242.9,100.8c18.5,53.3,83.7,240.8,109,313.9c110.1-38.2,442.6-194.2,630.5-323.6
				c69.2-47.7,132-96.3,123-122.4c-8.1-23.2-17.3-49.9-27-77.6c-24.9-71.8-63.2-181.9-82.1-236.2
				C1109.8,878.5,1041.8,931.4,972.4,980.5L972.4,980.5z"/>
		</g>
	</g>
</g>
</svg>
