<svg id="Layer_1" data-name="Layer 1" xmlns="http://www.w3.org/2000/svg" viewBox="0 0 600 123">
  <title>scala-days-logo</title>
  <g>
    <path d="M11.35,79.1A21.83,21.83,0,0,0,18.12,87a27.62,27.62,0,0,0,10,4.11,55.37,55.37,0,0,0,12.35,1.18,42.13,42.13,0,0,0,8.21-.87c2.93-.87,5.89-1.75,8.21-3.53A20.47,20.47,0,0,0,63.34,82,14.37,14.37,0,0,0,66,73.21a12.18,12.18,0,0,0-1.75-6.76,24.28,24.28,0,0,0-4.71-5,42.87,42.87,0,0,0-6.46-3.23c-2.36-.87-4.71-1.48-6.76-2.05L25.18,50.9c-2.93-.87-5.59-1.75-7.94-2.66a18.16,18.16,0,0,1-6.76-4.41,17.38,17.38,0,0,1-4.71-6.46A23.37,23.37,0,0,1,4,28,30.81,30.81,0,0,1,5.2,19.78a24.78,24.78,0,0,1,5-8.82c2.36-2.93,5.89-5,10-7C24.58,1.87,29.86,1,36.63,1A41.29,41.29,0,0,1,50.12,3.05,28.43,28.43,0,0,1,61.29,8.64,26.46,26.46,0,0,1,68.93,18a26.25,26.25,0,0,1,2.93,12.92H62.74a20.43,20.43,0,0,0-2.36-9.69,22,22,0,0,0-5.89-6.76,24.13,24.13,0,0,0-8.21-4.11,33.64,33.64,0,0,0-9.69-1.48,49.51,49.51,0,0,0-9.12.87A19.66,19.66,0,0,0,19.83,13a20.83,20.83,0,0,0-5.28,5.89,19.48,19.48,0,0,0-2.05,8.82,13.37,13.37,0,0,0,1.18,5.89,11.12,11.12,0,0,0,3.23,4.11,17.84,17.84,0,0,0,4.71,2.93,30.14,30.14,0,0,0,5.59,1.75l23.19,5.89a72.64,72.64,0,0,1,9.69,3.23A35.11,35.11,0,0,1,68,56.22a17.85,17.85,0,0,1,5.28,7,27.08,27.08,0,0,1,1.75,14.4,27.79,27.79,0,0,1-1.75,5.89,32,32,0,0,1-3.53,6.16,25.05,25.05,0,0,1-6.46,5.59,31,31,0,0,1-10,3.8,66.07,66.07,0,0,1-14.4,1.48,52.27,52.27,0,0,1-15.58-2.05A34.18,34.18,0,0,1,11,92.63a24,24,0,0,1-7.57-10.3,33.66,33.66,0,0,1-2.36-15h9.12A17.46,17.46,0,0,0,11.35,79.1Z" fill="#fff"/>
    <g style="isolation: isolate">
      <path d="M124.69,38.89c-2.93-2.93-7.64-4.41-13.22-4.41a20.71,20.71,0,0,0-10.57,2.66,23.61,23.61,0,0,0-7.64,6.76,35.61,35.61,0,0,0-4.71,9.39,44,44,0,0,0-1.48,10.57,38.9,38.9,0,0,0,1.48,10.57,25.45,25.45,0,0,0,4.71,9.39,24.42,24.42,0,0,0,7.64,6.76,21.05,21.05,0,0,0,10.57,2.66,19.82,19.82,0,0,0,7.34-1.48A17.36,17.36,0,0,0,125,87.65a23.53,23.53,0,0,0,4.41-6.16,17.59,17.59,0,0,0,2.05-7.94h8.51c-1.18,8.51-4.11,15-9.12,19.69s-11.44,7-19.38,7a31.11,31.11,0,0,1-14.1-2.93A30,30,0,0,1,87.1,89.7a30.56,30.56,0,0,1-6.16-11.44,44,44,0,0,1-2.05-14.1,54.44,54.44,0,0,1,2.05-14.1A36.21,36.21,0,0,1,87.1,38.62a34.28,34.28,0,0,1,10.26-7.94,31.11,31.11,0,0,1,14.1-2.93,31.14,31.14,0,0,1,18.81,5.89c5.28,3.8,8.21,9.69,9.12,17.63h-8.55C130,45.65,127.92,41.82,124.69,38.89Zm24.48.87a21,21,0,0,1,14.71-11.44,41.39,41.39,0,0,1,10.87-1.18,49.51,49.51,0,0,1,9.12.87,24.51,24.51,0,0,1,8.21,3.23A18.68,18.68,0,0,1,198,38a25.36,25.36,0,0,1,2.36,11.44V86.17c0,3.53,1.75,5,5,5a4.11,4.11,0,0,0,2.66-.57v7c-.87,0-2.05.3-2.66.3h-2.93a11.91,11.91,0,0,1-5-.87,7.74,7.74,0,0,1-2.93-2.36c-.87-.87-1.18-2.36-1.48-3.8a22.94,22.94,0,0,1-.3-4.71h-.3a46.92,46.92,0,0,1-4.71,5.89,19.74,19.74,0,0,1-5.28,4.41,25.37,25.37,0,0,1-6.46,2.66,38,38,0,0,1-8.82.87A31.4,31.4,0,0,1,158,98.82a24,24,0,0,1-7.34-3.53,19.9,19.9,0,0,1-5-6.16A21.94,21.94,0,0,1,143.92,80c0-4.71.87-8.51,3.23-11.44a20.22,20.22,0,0,1,8.51-6.16,48,48,0,0,1,11.74-2.93c4.41-.57,8.82-1.18,13.49-1.75a25.07,25.07,0,0,0,4.71-.57,10.55,10.55,0,0,0,3.23-1.48A6.25,6.25,0,0,0,190.9,53a10.59,10.59,0,0,0,.87-4.71,15.28,15.28,0,0,0-1.48-7,11.09,11.09,0,0,0-3.8-4.41,17.63,17.63,0,0,0-5.89-2.05,47.56,47.56,0,0,0-7-.57c-5.28,0-9.69,1.18-13.22,3.8s-5.28,6.76-5.28,12.35h-8.51A27.29,27.29,0,0,1,149.17,39.77Zm42,20.86a4.55,4.55,0,0,1-2.93,2.05,31.37,31.37,0,0,1-3.8.87l-10.87,1.75a77.77,77.77,0,0,0-10.26,2.05,19.07,19.07,0,0,0-7.64,4.11c-2.05,1.75-2.93,4.41-2.93,7.64A13.37,13.37,0,0,0,153.91,85a16.71,16.71,0,0,0,3.53,4.41,13.86,13.86,0,0,0,5,2.66,20.8,20.8,0,0,0,5.89.87,30.44,30.44,0,0,0,9.12-1.48A18.06,18.06,0,0,0,185.07,87a30,30,0,0,0,5.28-6.76,18.84,18.84,0,0,0,2.05-9.12V60.29l-1.25.34Z" fill="#fff"/>
    </g>
    <path d="M221.08,2.75V98.18h-8.51V2.75Zm10.9,37a21,21,0,0,1,14.71-11.44,41.39,41.39,0,0,1,10.87-1.18,49.51,49.51,0,0,1,9.12.87,24.51,24.51,0,0,1,8.21,3.23A18.68,18.68,0,0,1,280.77,38a25.36,25.36,0,0,1,2.36,11.44V86.17c0,3.53,1.75,5,5,5a4.11,4.11,0,0,0,2.66-.57v7c-.87,0-2.05.3-2.66.3h-2.93a11.91,11.91,0,0,1-5-.87,9,9,0,0,1-4.68-5.89,23.11,23.11,0,0,1-.3-4.71h-.3a46.92,46.92,0,0,1-4.71,5.89,25,25,0,0,1-5.28,4.41,25.37,25.37,0,0,1-6.46,2.66,38,38,0,0,1-8.82.87,31.4,31.4,0,0,1-9.12-1.18,24,24,0,0,1-7.34-3.53,19.9,19.9,0,0,1-5-6.16,21.94,21.94,0,0,1-1.75-9.12c0-4.71.87-8.51,3.23-11.44a20.22,20.22,0,0,1,8.51-6.16,48,48,0,0,1,11.74-2.93c4.41-.57,8.82-1.18,13.49-1.75a25.07,25.07,0,0,0,4.71-.57A10.55,10.55,0,0,0,271.38,56a6.25,6.25,0,0,0,2.05-2.66,10.59,10.59,0,0,0,.87-4.71,15.28,15.28,0,0,0-1.48-7,11.09,11.09,0,0,0-3.8-4.41,17.63,17.63,0,0,0-5.89-2.05,47.56,47.56,0,0,0-7-.57c-5.28,0-9.69,1.18-13.22,3.8s-5.28,6.76-5.28,12.35h-8.51A34.37,34.37,0,0,1,232,39.77Zm42,20.86A4.55,4.55,0,0,1,271,62.68a11.89,11.89,0,0,1-3.8.87l-10.87,1.75a73.66,73.66,0,0,0-10.57,2.05,19.07,19.07,0,0,0-7.64,4.11c-2.05,1.75-2.93,4.41-2.93,7.64A13.37,13.37,0,0,0,236.42,85,16.71,16.71,0,0,0,240,89.4a13.86,13.86,0,0,0,5,2.66,20.8,20.8,0,0,0,5.89.87,30.44,30.44,0,0,0,9.12-1.48A18.06,18.06,0,0,0,267.58,87a30,30,0,0,0,5.28-6.76,18.84,18.84,0,0,0,2.05-9.12V60.29l-.94.34Z" fill="#fff"/>
    <g style="isolation: isolate">
      <path d="M353.92,4.47a47.09,47.09,0,0,1,16.72,2.82c5.74,2.23,9.92,4.89,13.14,8.38l0,0,0,0c3.45,3.45,6.3,8,8.72,14.06a59.91,59.91,0,0,1,3.12,20,66.2,66.2,0,0,1-2.59,18.89,42.29,42.29,0,0,1-7.63,14.69,33.78,33.78,0,0,1-12.85,9.5,45.49,45.49,0,0,1-18.38,3.65h-39.4v-92h39.09m-1.45,77.83a31.27,31.27,0,0,0,9.31-1.55,22.65,22.65,0,0,0,8.28-5.06l.09-.08.08-.09a33.71,33.71,0,0,0,5.57-9.28l0-.08,0-.08a46.64,46.64,0,0,0,2.13-14,58.19,58.19,0,0,0-1.52-13.31,25.83,25.83,0,0,0-5-10.64c-2.21-3.13-5.25-5.05-9.13-7-3.54-1.75-7.76-2.53-13.69-2.53h-16.7V82.09l1.53.17c.12,0,.4,0,19,0m1.45-79.56H313.1V98.18h41.12a46.88,46.88,0,0,0,19.08-3.8,35.43,35.43,0,0,0,13.49-10,44,44,0,0,0,7.94-15.28,68,68,0,0,0,2.66-19.38,61.75,61.75,0,0,0-3.23-20.56A43.37,43.37,0,0,0,385,14.49c-3.8-4.11-8.51-6.76-13.8-8.82a49,49,0,0,0-17.33-2.93Zm-1.45,77.83s-18.51,0-18.81,0V20.35h15c5.28,0,9.39.61,12.92,2.36s6.46,3.53,8.51,6.46a24.28,24.28,0,0,1,4.71,10,56.12,56.12,0,0,1,1.48,12.92,44.81,44.81,0,0,1-2.05,13.49,32.25,32.25,0,0,1-5.28,8.82,20.85,20.85,0,0,1-7.64,4.71,29.9,29.9,0,0,1-8.82,1.48ZM313.1,2.75h0Z" fill="#fff"/>
      <path d="M434.13,28.9a63.75,63.75,0,0,1,10.29.85,32.16,32.16,0,0,1,9.2,2.77A21.69,21.69,0,0,1,460.39,38c1.73,2.26,2.54,5.09,2.54,8.9V82.64a46.36,46.36,0,0,0,.59,9.09,20.07,20.07,0,0,0,.9,4.47H449.18c-.09-.35-.18-.72-.28-1.1l-.21-.84a12.93,12.93,0,0,1-.27-1.65,17.46,17.46,0,0,0-.29-1.84l-.69-3-2.2,2.2a24.86,24.86,0,0,1-9.84,6,44.23,44.23,0,0,1-12.13,2,28.16,28.16,0,0,1-8.58-1.09h0a21.91,21.91,0,0,1-7.06-3.5,16.11,16.11,0,0,1-4.48-5.81,20.17,20.17,0,0,1-1.6-8.42c0-3.79.58-6.61,1.83-8.85a16.34,16.34,0,0,1,4.79-5.6,24.28,24.28,0,0,1,7.12-3.28,40.42,40.42,0,0,1,8.2-1.69c1-.1,2-.24,2.93-.37a38.94,38.94,0,0,1,5.41-.5H432a42.82,42.82,0,0,0,7.62-1.23,12.84,12.84,0,0,0,5.65-2.71,7.2,7.2,0,0,0,2.34-5.71,11.73,11.73,0,0,0-1.09-5.54,9.88,9.88,0,0,0-3.14-3.48l-.13-.1-.15-.07-.15-.07a9.94,9.94,0,0,0-4.22-1.27,25.43,25.43,0,0,0-4.89-.31A16.73,16.73,0,0,0,424,41l-.06,0-.05,0a12.6,12.6,0,0,0-4.2,7.53H403.74a13.59,13.59,0,0,1,2.46-8.43,20.26,20.26,0,0,1,7-6.51l0,0,0,0a33.8,33.8,0,0,1,9.77-3.6,49,49,0,0,1,11.05-1.13m-16.59,44a11.9,11.9,0,0,0-1,5,12.78,12.78,0,0,0,1,5l0,.07,0,.06a7.5,7.5,0,0,0,3.34,3.4,13.86,13.86,0,0,0,4.32,1.68,22.87,22.87,0,0,0,4.76.34c4.4,0,7.51-.74,9.75-2.33a15.6,15.6,0,0,0,5.21-4.9l.06-.09,0-.1A19.74,19.74,0,0,0,447,75.27a26.39,26.39,0,0,0,.33-4.69v-12l-3.07,3.86a4.52,4.52,0,0,1-2.61,1.76c-.36.09-.73.2-1.09.31a9.83,9.83,0,0,1-2.28.51h-.17l-.17,0a20.54,20.54,0,0,1-4.06.54A23.87,23.87,0,0,0,430,66l-1.13.18h-.09l-1,.21c-1.14.23-2.22.44-3.16.69l-.1,0-.09,0-.78.29a8.51,8.51,0,0,0-3.36,1.85l-.51.49a7.25,7.25,0,0,0-2.24,3M486.1,30.62l15.19,46.09.39,1.18h2.8l.39-1.19,14.89-45.79h16l-27.91,75.21c-1.89,5.13-4.59,9-7.83,11.19-3.55,2.19-8.25,3.26-14.34,3.26a36.82,36.82,0,0,1-5.64-.28l-.12,0h-.12a30,30,0,0,1-4.17-.36V107.67c.78.07,1.59.19,2.48.31l1.16.16h.22c.66,0,1.31,0,1.93.07s1.24.07,1.87.07a12.22,12.22,0,0,0,2-.15c3.19-.37,5.34-1.54,6.77-3.67a11.4,11.4,0,0,0,2-6.55,13.73,13.73,0,0,0-1-5L469.88,30.62H486.1m-52-3.44a50.83,50.83,0,0,0-11.44,1.18,35.68,35.68,0,0,0-10.26,3.8,21.91,21.91,0,0,0-7.64,7,15.42,15.42,0,0,0-2.62,11.14h19a11.26,11.26,0,0,1,3.8-7.94C427,40.91,430,40,433.79,40a23.11,23.11,0,0,1,4.71.3,8.55,8.55,0,0,1,3.8,1.18A8.11,8.11,0,0,1,445,44.44a9.82,9.82,0,0,1,.87,4.71,5.54,5.54,0,0,1-1.75,4.41,11.09,11.09,0,0,1-5,2.36,41.84,41.84,0,0,1-7.34,1.18,81.1,81.1,0,0,0-8.51.87,42.55,42.55,0,0,0-8.51,1.75,25.86,25.86,0,0,0-7.64,3.53,18.13,18.13,0,0,0-5.28,6.16,19.65,19.65,0,0,0-2.05,9.69,21.94,21.94,0,0,0,1.75,9.12,18,18,0,0,0,5,6.46,23.57,23.57,0,0,0,7.64,3.8,30.09,30.09,0,0,0,9.12,1.18,45.21,45.21,0,0,0,12.62-2.05,26.59,26.59,0,0,0,10.57-6.46c.27,1.18.27,2.36.57,3.53s.57,2.36.87,3.23h19.38c-1.18-1.48-1.75-3.53-2.05-6.46a44.32,44.32,0,0,1-.57-8.82V46.87c0-4.11-.87-7.34-2.93-10A23.72,23.72,0,0,0,454.39,31a33.91,33.91,0,0,0-9.69-2.93,65.83,65.83,0,0,0-10.57-.87ZM430,86.74a21.44,21.44,0,0,1-4.41-.3,12.12,12.12,0,0,1-3.8-1.48,5.81,5.81,0,0,1-2.66-2.66,11.08,11.08,0,0,1-.87-4.41,10.08,10.08,0,0,1,.87-4.41c.3-1.18,1.48-2.05,2.36-2.93s2.05-1.18,3.53-1.75c1.18-.3,2.62-.57,4.11-.87a32.49,32.49,0,0,1,4.71-.57,22,22,0,0,0,4.41-.57,17.69,17.69,0,0,0,3.8-.87,6.24,6.24,0,0,0,3.53-2.36v7a24.55,24.55,0,0,1-.3,4.41,18.05,18.05,0,0,1-1.75,5.28,13.84,13.84,0,0,1-4.71,4.41c-2.05,1.48-5,2.05-8.82,2.05ZM487.35,28.9h-20L491.49,93.5a12.1,12.1,0,0,1,.87,4.41,9.63,9.63,0,0,1-1.75,5.59c-1.18,1.75-2.93,2.62-5.59,2.93a10.59,10.59,0,0,1-1.78.13c-1.2,0-2.43-.13-3.8-.13a44.31,44.31,0,0,0-5.59-.57v15.58a44.13,44.13,0,0,0,5.89.57,38.59,38.59,0,0,0,5.89.3c6.46,0,11.47-1.18,15.28-3.53,3.5-2.36,6.46-6.46,8.51-12L538.19,29.2H518.51l-15.28,47h-.3L487.35,28.9Z" fill="#fff"/>
      <path d="M566.7,28.84a65.56,65.56,0,0,1,10.52.84A35.91,35.91,0,0,1,586.09,33a16.88,16.88,0,0,1,6.15,6.16,21.56,21.56,0,0,1,2.79,8H580.56c-.6-3.44-2.23-5.84-4.85-7.15l0,0,0,0a23.26,23.26,0,0,0-9.51-2.2,18.24,18.24,0,0,0-3.71.3,9.82,9.82,0,0,0-4,1,8.06,8.06,0,0,0-3.32,2.54c-1.27,1.36-1.27,3-1.27,4.64a6.47,6.47,0,0,0,2.7,5.45l0,0,0,0a19.33,19.33,0,0,0,5.18,2.91l0,0h0c2,.55,4.33,1.16,6.82,1.76h0l4,.87,4,.88h0a49.1,49.1,0,0,1,7.67,2.28h.06A23.69,23.69,0,0,1,591,63.78a13.56,13.56,0,0,1,4.45,5l0,0,0,0a14,14,0,0,1,1.82,7.08,20.89,20.89,0,0,1-2.43,10.58,19.26,19.26,0,0,1-6.42,6.72l-.05,0-.05,0a20.89,20.89,0,0,1-9.26,3.51H579l-.07,0a49,49,0,0,1-11.05,1.13,51.2,51.2,0,0,1-11.36-1.13,33.93,33.93,0,0,1-9.71-3.57A22.87,22.87,0,0,1,540,86.46l0-.05,0-.05c-1.46-2.08-2.35-4.88-2.77-8.73h14.89c.14.38.28.76.41,1.16a15.66,15.66,0,0,0,1.26,3,14,14,0,0,0,3.69,4,13.42,13.42,0,0,0,5.32,2.35,18.33,18.33,0,0,0,5.7.62,12.68,12.68,0,0,0,4.59-.64,12.82,12.82,0,0,0,4.18-1.65,9.91,9.91,0,0,0,3.44-3.12,8.41,8.41,0,0,0,1.52-5.13c0-3.56-2.35-6.28-7-8.07a114.17,114.17,0,0,0-16.1-4.49h0c-1.75-.34-3.4-.81-5-1.26-1-.28-1.89-.54-2.79-.76a36.67,36.67,0,0,1-6.65-3.07,10.66,10.66,0,0,1-4.3-4.56l0,0,0,0a13.85,13.85,0,0,1-1.82-6.78c0-4.18.82-7.6,2.37-9.91l0,0,0,0A19.39,19.39,0,0,1,547.06,33a26.3,26.3,0,0,1,9-3.29,67.44,67.44,0,0,1,10.59-.85m0-1.72a69.62,69.62,0,0,0-10.87.87,27.89,27.89,0,0,0-9.69,3.53,21.28,21.28,0,0,0-6.76,6.76c-1.78,2.66-2.66,6.46-2.66,10.87a15.5,15.5,0,0,0,2.05,7.64,12.43,12.43,0,0,0,5,5.28,37.85,37.85,0,0,0,7,3.23c2.36.57,5,1.48,7.94,2.05a113.25,113.25,0,0,1,15.85,4.41c3.84,1.48,5.89,3.53,5.89,6.46a6.82,6.82,0,0,1-1.18,4.11A8.11,8.11,0,0,1,576.35,85a11.07,11.07,0,0,1-3.8,1.48,10.87,10.87,0,0,1-4.11.57,16.66,16.66,0,0,1-5.28-.57,11.6,11.6,0,0,1-4.71-2.05,12.19,12.19,0,0,1-3.23-3.53c-.87-1.48-1.18-3.23-2-5H535.3c.3,4.68,1.18,8.51,3.23,11.44a25,25,0,0,0,7.34,7.34,35.68,35.68,0,0,0,10.26,3.8,53.5,53.5,0,0,0,11.74,1.18,50.83,50.83,0,0,0,11.44-1.18,22.64,22.64,0,0,0,10-3.8,21,21,0,0,0,7-7.34A22.49,22.49,0,0,0,599,75.91,15.81,15.81,0,0,0,596.95,68a15.34,15.34,0,0,0-5-5.59,25.53,25.53,0,0,0-7-3.53A50.48,50.48,0,0,0,577,56.49c-2.66-.57-5.28-1.18-7.94-1.75-2.36-.57-4.71-1.18-6.76-1.75a18.38,18.38,0,0,1-4.71-2.66,4.74,4.74,0,0,1-2.05-4.11c0-1.48,0-2.66.87-3.53a6.2,6.2,0,0,1,2.66-2.05,8.05,8.05,0,0,1,3.53-.87,16.52,16.52,0,0,1,3.53-.3,21.62,21.62,0,0,1,8.82,2.05c2.36,1.18,3.8,3.53,4.11,7.34h17.9a23.82,23.82,0,0,0-3.23-10.57A18.62,18.62,0,0,0,587,31.52,37.9,37.9,0,0,0,577.56,28a67.07,67.07,0,0,0-10.87-.87Z" fill="#fff"/>
    </g>
  </g>
</svg>
