<?xml version="1.0" encoding="utf-8"?>
<!-- Generator: Adobe Illustrator 21.1.0, SVG Export Plug-In . SVG Version: 6.00 Build 0)  -->
<svg version="1.1" id="Layer_1" xmlns="http://www.w3.org/2000/svg" xmlns:xlink="http://www.w3.org/1999/xlink" x="0px" y="0px"
	 viewBox="0 0 598 121.3" style="enable-background:new 0 0 598 121.3;" xml:space="preserve">
<style type="text/css">
	.st0{fill:#FFFFFF;}
</style>
<title>scala-days-logo-reverse-fill</title>
<g>
	<path class="st0" d="M10.4,78.1c1.6,3.1,3.9,5.9,6.8,7.9c3,2,6.4,3.4,10,4.1c4.1,0.9,8.2,1.3,12.4,1.2c2.8,0,5.5-0.3,8.2-0.9
		c2.9-0.9,5.9-1.8,8.2-3.5c2.5-1.5,4.7-3.5,6.5-5.9c1.8-2.6,2.8-5.6,2.7-8.8c0.1-2.4-0.5-4.7-1.7-6.8c-1.3-1.9-2.9-3.6-4.7-5
		c-2.1-1.3-4.2-2.3-6.5-3.2c-2.4-0.9-4.7-1.5-6.8-2l-21.1-5.3c-2.9-0.9-5.6-1.8-7.9-2.7c-2.6-0.9-4.9-2.5-6.8-4.4
		c-2.1-1.8-3.7-4-4.7-6.5C3.6,33.4,3,30.2,3,27c0-2.8,0.4-5.5,1.2-8.2c1-3.3,2.7-6.3,5-8.8c2.4-2.9,5.9-5,10-7c4.4-2.1,9.7-3,16.4-3
		c4.6-0.1,9.1,0.6,13.5,2c4.1,1,7.9,3,11.2,5.6c3.2,2.5,5.8,5.7,7.6,9.4c2.1,4,3.1,8.4,2.9,12.9h-9.1c0-3.4-0.8-6.7-2.4-9.7
		c-1.5-2.6-3.5-4.9-5.9-6.8c-2.4-1.9-5.2-3.3-8.2-4.1c-3.1-1-6.4-1.5-9.7-1.5c-3.1,0-6.1,0.3-9.1,0.9c-2.7,0.5-5.4,1.6-7.6,3.3
		c-2.1,1.6-3.9,3.6-5.3,5.9c-1.4,2.7-2.1,5.8-2.1,8.8c-0.1,2,0.3,4,1.2,5.9c0.7,1.6,1.8,3,3.2,4.1c1.4,1.2,3,2.2,4.7,2.9
		c1.8,0.8,3.7,1.3,5.6,1.8l23.2,5.9c3.3,0.8,6.5,1.9,9.7,3.2c2.8,1.2,5.5,2.8,7.9,4.7c2.3,1.9,4.1,4.3,5.3,7
		c1.9,4.6,2.5,9.5,1.7,14.4c-0.4,2-1,4-1.8,5.9c-0.9,2.2-2.1,4.2-3.5,6.2c-1.8,2.2-4,4.1-6.5,5.6c-3.1,1.8-6.5,3.1-10,3.8
		c-4.7,1-9.6,1.5-14.4,1.5c-5.3,0.1-10.5-0.6-15.6-2.1c-4.4-1.1-8.6-3.1-12.3-5.9c-3.4-2.7-6-6.2-7.6-10.3c-1.9-4.8-2.7-9.9-2.4-15
		h9.1C8.2,70.3,8.6,74.4,10.4,78.1z"/>
	<path class="st0" d="M123.7,37.9c-2.9-2.9-7.6-4.4-13.2-4.4c-3.7-0.1-7.3,0.8-10.6,2.7c-3,1.7-5.6,4-7.6,6.8c-2,2.9-3.6,6-4.7,9.4
		c-0.9,3.5-1.4,7-1.5,10.6c0,3.6,0.5,7.1,1.5,10.6c0.9,3.4,2.5,6.6,4.7,9.4c2,2.8,4.6,5.1,7.6,6.8c3.2,1.8,6.9,2.7,10.6,2.7
		c2.5,0,5-0.5,7.3-1.5c2.3-0.9,4.4-2.3,6.2-4.1c1.8-1.8,3.3-3.9,4.4-6.2c1.3-2.4,2-5.2,2.1-7.9h8.5c-1.2,8.5-4.1,15-9.1,19.7
		c-5,4.7-11.4,7-19.4,7c-4.9,0.1-9.7-0.9-14.1-2.9c-3.9-1.8-7.5-4.4-10.3-7.6c-2.8-3.3-5-7.2-6.2-11.4c-1.4-4.6-2.1-9.3-2.1-14.1
		c0.1-4.8,0.8-9.5,2.1-14.1c1.3-4.2,3.4-8,6.2-11.4c2.9-3.3,6.4-6,10.3-7.9c4.4-2.1,9.2-3.1,14.1-2.9c6.7-0.1,13.3,1.9,18.8,5.9
		c5.3,3.8,8.2,9.7,9.1,17.6h-8.6C129,44.7,126.9,40.8,123.7,37.9z M148.2,38.8c2.9-5.9,8.3-10.1,14.7-11.4c3.6-0.9,7.2-1.3,10.9-1.2
		c3.1,0,6.1,0.3,9.1,0.9c2.9,0.6,5.7,1.7,8.2,3.2c2.5,1.7,4.5,4.1,5.9,6.8c1.7,3.6,2.5,7.5,2.4,11.4v36.7c0,3.5,1.8,5,5,5
		c0.9,0.1,1.8-0.1,2.6-0.6v7c-0.9,0-2.1,0.3-2.7,0.3h-2.9c-1.7,0.1-3.4-0.2-5-0.9c-1.2-0.5-2.2-1.3-2.9-2.4
		c-0.9-0.9-1.2-2.4-1.5-3.8c-0.3-1.6-0.4-3.1-0.3-4.7h-0.3c-1.4,2.1-3,4-4.7,5.8c-1.5,1.8-3.3,3.3-5.3,4.4c-2,1.2-4.2,2.1-6.4,2.7
		c-2.9,0.6-5.9,0.9-8.8,0.9c-3.1,0.1-6.2-0.3-9.2-1.2c-2.6-0.7-5.1-1.9-7.3-3.5c-2.1-1.7-3.8-3.8-5-6.2c-1.2-2.9-1.8-6-1.7-9.1
		c0-4.7,0.9-8.5,3.2-11.4c2.2-2.8,5.2-4.9,8.5-6.2c3.8-1.5,7.7-2.5,11.7-2.9c4.4-0.6,8.8-1.2,13.5-1.8c1.6,0,3.2-0.2,4.7-0.6
		c1.2-0.3,2.2-0.8,3.2-1.5c0.9-0.7,1.6-1.6,2.1-2.7c0.6-1.5,0.9-3.1,0.9-4.7c0.1-2.4-0.4-4.8-1.5-7c-0.9-1.8-2.2-3.3-3.8-4.4
		c-1.8-1-3.8-1.7-5.9-2c-2.3-0.4-4.7-0.6-7-0.6c-5.3,0-9.7,1.2-13.2,3.8s-5.3,6.8-5.3,12.3h-8.5C145.7,45.8,146.6,42.2,148.2,38.8
		L148.2,38.8z M190.2,59.6c-0.7,1-1.7,1.8-2.9,2c-1.2,0.4-2.5,0.7-3.8,0.9l-10.9,1.8c-3.5,0.5-6.9,1.1-10.3,2.1
		c-2.8,0.8-5.4,2.2-7.6,4.1c-2.1,1.8-2.9,4.4-2.9,7.6c-0.1,2.1,0.3,4.1,1.2,6c0.9,1.7,2.1,3.2,3.5,4.4c1.5,1.2,3.2,2.1,5,2.7
		c1.9,0.6,3.9,0.9,5.9,0.9c3.1,0,6.2-0.5,9.1-1.5c2.9-0.8,5.5-2.4,7.6-4.5c2.1-2,3.9-4.3,5.3-6.8c1.4-2.8,2.1-6,2.1-9.1V59.3
		L190.2,59.6L190.2,59.6z"/>
	<path class="st0" d="M220.1,1.8v95.4h-8.5V1.8H220.1z M231,38.8c2.9-5.9,8.3-10.1,14.7-11.4c3.6-0.9,7.2-1.3,10.9-1.2
		c3.1,0,6.1,0.3,9.1,0.9c2.9,0.6,5.7,1.7,8.2,3.2c2.5,1.7,4.5,4.1,5.9,6.8c1.7,3.6,2.5,7.5,2.4,11.4v36.7c0,3.5,1.8,5,5,5
		c0.9,0.1,1.9-0.1,2.7-0.6v7c-0.9,0-2,0.3-2.7,0.3h-2.9c-1.7,0.1-3.4-0.2-5-0.9c-2.3-1.2-4.1-3.3-4.7-5.9c-0.3-1.6-0.4-3.1-0.3-4.7
		h-0.3c-1.4,2.1-3,4.1-4.7,5.9c-1.5,1.7-3.3,3.2-5.3,4.4c-2,1.2-4.2,2.1-6.5,2.7c-2.9,0.6-5.9,0.9-8.8,0.9c-3.1,0.1-6.2-0.3-9.1-1.2
		c-2.6-0.7-5.1-1.9-7.3-3.5c-2.1-1.7-3.8-3.8-5-6.2c-1.2-2.9-1.8-6-1.8-9.1c0-4.7,0.9-8.5,3.2-11.4c2.2-2.8,5.2-4.9,8.5-6.2
		c3.8-1.5,7.7-2.5,11.7-2.9c4.4-0.6,8.8-1.2,13.5-1.8c1.6,0,3.2-0.2,4.7-0.6c1.2-0.3,2.3-0.8,3.3-1.4c0.9-0.7,1.6-1.6,2-2.7
		c0.6-1.5,0.9-3.1,0.9-4.7c0.1-2.4-0.4-4.8-1.5-7c-0.9-1.8-2.2-3.3-3.8-4.4c-1.8-1-3.8-1.7-5.9-2c-2.3-0.4-4.7-0.6-7-0.6
		c-5.3,0-9.7,1.2-13.2,3.8s-5.3,6.8-5.3,12.4h-8.5C228.4,46,229.4,42.3,231,38.8L231,38.8z M273,59.6c-0.7,1.1-1.8,1.8-3,2.1
		c-1.2,0.5-2.5,0.8-3.8,0.9l-10.8,1.8c-3.6,0.4-7.1,1.1-10.6,2.1c-2.8,0.8-5.4,2.2-7.6,4.1c-2.1,1.8-2.9,4.4-2.9,7.6
		c0,2,0.4,4.1,1.2,5.9c0.9,1.7,2.1,3.1,3.6,4.4c1.5,1.2,3.2,2.1,5,2.7c1.9,0.6,3.9,0.9,5.9,0.9c3.1,0,6.2-0.5,9.1-1.5
		c2.9-0.8,5.5-2.4,7.6-4.4c2.1-2,3.9-4.3,5.3-6.8c1.4-2.8,2.1-6,2-9.1V59.3L273,59.6L273,59.6z"/>
</g>
<g>
	<g>
		<path class="st0" d="M461.9,81.6V45.9c0-3.8-0.8-6.6-2.5-8.9c-1.9-2.3-4.2-4.1-6.8-5.5c-2.9-1.4-6-2.3-9.2-2.8
			c-3.4-0.6-6.8-0.8-10.3-0.9H433c-3.7-0.1-7.4,0.3-11,1.1c-3.4,0.7-6.7,1.9-9.8,3.6c-2.8,1.6-5.2,3.8-7,6.5
			c-1.7,2.5-2.6,5.4-2.5,8.4h16c0.5-2.9,2-5.6,4.2-7.5h0c2.9-1.9,6.4-2.8,9.8-2.6c1.6-0.1,3.3,0,4.9,0.3c1.5,0.1,3,0.6,4.3,1.3
			l0.1,0.1l0.1,0.1l0.1,0.1c1.3,0.9,2.4,2.1,3.1,3.5c0.8,1.7,1.2,3.6,1.1,5.5c0.1,2.2-0.7,4.3-2.3,5.7c-1.6,1.4-3.6,2.3-5.6,2.7
			c-2.5,0.6-5.1,1-7.7,1.2h-0.2c-1.8,0-3.6,0.2-5.4,0.5c-0.9,0.1-1.9,0.3-2.9,0.4c-2.8,0.3-5.5,0.8-8.2,1.7
			c-2.5,0.7-4.9,1.8-7.1,3.3c-2,1.5-3.6,3.4-4.8,5.6c-1.2,2.2-1.8,5.1-1.8,8.8c-0.1,2.9,0.5,5.8,1.6,8.4c1,2.3,2.6,4.2,4.5,5.8
			c2.1,1.6,4.5,2.8,7.1,3.5c2.8,0.8,5.7,1.2,8.6,1.1c4.1-0.1,8.2-0.8,12.1-2c3.7-1.2,7.1-3.3,9.8-6l2.2-2.2l0.7,3
			c0.1,0.6,0.2,1.2,0.3,1.8c0.1,0.6,0.1,1.1,0.3,1.7l0.2,0.8c0.1,0.4,0.2,0.8,0.3,1.1h15.2c-0.5-1.5-0.8-3-0.9-4.5
			C462,87.7,461.8,84.7,461.9,81.6z M446.3,69.6c0,1.6-0.1,3.1-0.3,4.7c-0.4,2-1.1,3.9-2.1,5.7v0.1l-0.1,0.1c-1.3,2-3.1,3.7-5.2,4.9
			c-2.2,1.6-5.4,2.3-9.8,2.3c-1.6,0.1-3.2-0.1-4.8-0.3c-1.5-0.3-3-0.9-4.3-1.7c-1.5-0.7-2.6-1.9-3.3-3.4v-0.1c-0.7-1.6-1-3.3-1-5
			c0-1.7,0.3-3.4,1-5l0.1-0.2c0.5-1.2,1.2-2.2,2.2-3l0.5-0.5c1-0.9,2.1-1.5,3.4-1.8l0.8-0.3h0.2c0.9-0.2,2-0.5,3.2-0.7l1-0.2h0.1
			L429,65c1.3-0.3,2.6-0.4,3.9-0.4c1.4,0,2.7-0.2,4.1-0.5h0.3c0.8-0.1,1.5-0.2,2.3-0.5c0.4-0.1,0.7-0.2,1.1-0.3
			c1.1-0.3,2-0.9,2.6-1.8l3.1-3.9V69.6z"/>
		<path class="st0" d="M382.8,14.7c-3.2-3.5-7.4-6.1-13.1-8.4c-5.4-1.9-11-2.9-16.7-2.8h-39.1v92h39.4c6.3,0.1,12.6-1.2,18.4-3.7
			c5-2.1,9.4-5.4,12.9-9.5c3.5-4.4,6.1-9.3,7.6-14.7c1.8-6.1,2.6-12.5,2.6-18.9c0.1-6.8-1-13.6-3.1-20
			C389.1,22.7,386.2,18.1,382.8,14.7z M374.8,65.1v0.2c-1.3,3.4-3.2,6.5-5.6,9.3l-0.1,0.1l-0.1,0.1c-2.4,2.3-5.2,4-8.3,5.1
			c-3,1-6.1,1.5-9.3,1.6h0h-19l-1.5-0.2V17.6h16.7c5.9,0,10.1,0.8,13.7,2.5c3.9,2,6.9,3.9,9.1,7c2.5,3.1,4.2,6.8,5,10.6
			c1,4.4,1.5,8.8,1.5,13.3C376.9,55.8,376.2,60.5,374.8,65.1L374.8,65.1z"/>
		<path class="st0" d="M518.8,29.9l-14.9,45.8l-0.4,1.2h-2.8l-0.4-1.2l-15.2-46.1h-16.2l23.2,62.3c0.6,1.6,1,3.3,1,5
			c0,2.3-0.7,4.6-2,6.6c-1.4,2.1-3.6,3.3-6.8,3.7c-0.7,0.1-1.3,0.2-2,0.2c-0.6,0-1.2,0-1.9-0.1c-0.6-0.1-1.3-0.1-1.9-0.1h-0.2
			l-1.2-0.2c-0.9-0.1-1.7-0.2-2.5-0.3v12.3c1.4,0.2,2.8,0.3,4.2,0.4h0.2c1.9,0.2,3.8,0.3,5.6,0.3c6.1,0,10.8-1.1,14.3-3.3
			c3.2-2.2,5.9-6.1,7.8-11.2l27.9-75.2L518.8,29.9z"/>
		<path class="st0" d="M590,62.8c-2-1.5-4.3-2.6-6.7-3.3h-0.1c-2.5-1-5.1-1.7-7.7-2.3l-4-0.9l-4-0.9c-2.5-0.6-4.8-1.2-6.8-1.8
			c-1.9-0.7-3.6-1.7-5.2-2.9c-1.8-1.3-2.8-3.3-2.7-5.5c0-1.6,0-3.3,1.3-4.6c0.9-1.1,2-2,3.3-2.5c1.2-0.6,2.6-1,4-1
			c1.2-0.2,2.5-0.3,3.7-0.3c3.3,0.1,6.5,0.8,9.5,2.2c2.6,1.3,4.2,3.7,4.8,7.2H594c-0.4-2.8-1.3-5.5-2.8-8c-1.5-2.6-3.6-4.7-6.1-6.2
			c-2.8-1.5-5.8-2.6-8.9-3.3c-3.5-0.6-7-0.8-10.5-0.8l0,0c-3.5,0-7.1,0.3-10.6,0.9c-3.2,0.5-6.2,1.7-9,3.3c-2.5,1.6-4.6,3.8-6.1,6.3
			c-1.5,2.3-2.4,5.7-2.4,9.9c0,2.4,0.6,4.7,1.8,6.8c0.9,1.9,2.4,3.5,4.3,4.6c2.1,1.2,4.3,2.3,6.7,3.1c0.9,0.2,1.8,0.5,2.8,0.8
			c1.6,0.4,3.2,0.9,5,1.3c5.5,1.1,10.9,2.6,16.1,4.5c4.7,1.8,7,4.5,7,8.1c0.1,1.8-0.5,3.6-1.5,5.1c-0.9,1.3-2.1,2.4-3.4,3.1
			c-1.3,0.8-2.7,1.4-4.2,1.7c-1.5,0.5-3,0.7-4.6,0.6c-1.9,0.1-3.8-0.1-5.7-0.6c-1.9-0.4-3.7-1.2-5.3-2.3c-1.5-1.1-2.7-2.4-3.7-4
			c-0.5-1-0.9-2-1.3-3c-0.1-0.4-0.3-0.8-0.4-1.2h-14.9c0.4,3.8,1.3,6.7,2.8,8.7v0.1c1.8,2.7,4.1,4.9,6.8,6.6c3,1.7,6.3,2.9,9.7,3.6
			c3.7,0.8,7.5,1.2,11.4,1.1c3.7,0,7.4-0.3,11-1.1h0.1c3.3-0.4,6.5-1.6,9.3-3.5h0.1c2.7-1.7,4.9-4,6.4-6.7c1.7-3.3,2.6-6.9,2.4-10.6
			c0-2.5-0.6-4.9-1.8-7.1C593.4,65.8,591.9,64.1,590,62.8z"/>
	</g>
	<path class="st0" d="M384,13.5c-3.8-4.1-8.5-6.8-13.8-8.8c-5.6-2-11.4-3-17.3-2.9h-0.1h-40.7v95.4h41.1c6.6,0.1,13.1-1.2,19.1-3.8
		c5.2-2.2,9.9-5.6,13.5-10c3.6-4.5,6.3-9.7,7.9-15.3c1.8-6.3,2.7-12.8,2.7-19.4c0.1-7-1-13.9-3.2-20.6C391.1,22.7,388,17.7,384,13.5
		z M392,67.6c-1.6,5.4-4.1,10.3-7.6,14.7c-3.5,4.1-7.9,7.4-12.9,9.5c-5.8,2.5-12.1,3.7-18.4,3.7h-39.4v-92h39.1
		c5.7-0.1,11.4,0.9,16.7,2.8c5.7,2.2,9.9,4.9,13.1,8.4c3.5,3.4,6.3,8,8.7,14.1c2.2,6.4,3.2,13.2,3.1,20
		C394.7,55.1,393.8,61.5,392,67.6z"/>
	<path class="st0" d="M370.4,27.1c-2.2-3.1-5.2-5-9.1-7c-3.5-1.8-7.8-2.5-13.7-2.5h-16.7v63.5l1.5,0.2h19h0c3.2,0,6.3-0.6,9.3-1.6
		c3.1-1.1,5.9-2.8,8.3-5l0.1-0.1l0.1-0.1c2.3-2.8,4.2-5.9,5.6-9.3v-0.2c1.4-4.5,2.1-9.3,2.1-14c0-4.5-0.5-8.9-1.5-13.3
		C374.5,33.9,372.8,30.2,370.4,27.1z M373.1,64.6c-1.3,3.2-3.1,6.2-5.3,8.8c-2.2,2.1-4.8,3.7-7.6,4.7c-2.8,0.9-5.8,1.4-8.8,1.5v-0.1
		h-18.8V19.4h15c5.3,0,9.4,0.6,12.9,2.4s6.5,3.5,8.5,6.5c2.3,2.9,3.9,6.3,4.7,10c1,4.2,1.5,8.6,1.5,12.9
		C375.2,55.7,374.5,60.2,373.1,64.6z"/>
	<path class="st0" d="M440.7,63.2c-0.4,0.1-0.7,0.2-1.1,0.3c-0.7,0.3-1.5,0.4-2.3,0.5H437c-1.3,0.3-2.7,0.5-4.1,0.5
		c-1.3,0-2.6,0.2-3.9,0.4l-1.1,0.2h-0.1l-1,0.2c-1.1,0.2-2.2,0.4-3.2,0.7h-0.2l-0.8,0.3c-1.2,0.4-2.4,1-3.4,1.8l-0.5,0.5
		c-1,0.8-1.8,1.8-2.2,3l-0.1,0.2c-0.7,1.6-1,3.3-1,5c0,1.7,0.3,3.4,1,5V82c0.7,1.5,1.9,2.7,3.3,3.4c1.3,0.8,2.8,1.4,4.3,1.7
		c1.6,0.3,3.2,0.4,4.8,0.3c4.4,0,7.5-0.7,9.8-2.3c2.1-1.2,3.9-2.9,5.2-4.9l0.1-0.1V80c1-1.8,1.7-3.7,2.1-5.7
		c0.2-1.6,0.4-3.1,0.3-4.7v-12l-3.1,3.9C442.6,62.3,441.7,62.9,440.7,63.2z M444.6,62.6v7c0,1.5-0.1,3-0.3,4.4
		c-0.3,1.8-0.9,3.6-1.8,5.3c-1.2,1.8-2.8,3.3-4.7,4.4c-2,1.5-5,2-8.8,2l0,0c-1.5,0.1-3,0-4.4-0.3c-1.3-0.3-2.6-0.8-3.8-1.5
		c-1.2-0.6-2.1-1.5-2.7-2.7c-0.6-1.4-0.9-2.9-0.9-4.4c0-1.5,0.3-3,0.9-4.4c0.3-1.2,1.5-2,2.4-2.9s2-1.2,3.5-1.8
		c1.2-0.3,2.6-0.6,4.1-0.9c1.6-0.3,3.1-0.5,4.7-0.6c1.5,0,3-0.2,4.4-0.6c1.3-0.1,2.6-0.4,3.8-0.9C442.5,64.5,443.7,63.7,444.6,62.6z
		"/>
	<path class="st0" d="M517.5,28.2l-15.3,47H502l-15.6-47.3h-20l24.1,64.6c0.6,1.4,0.9,2.9,0.9,4.4c0,2-0.6,4-1.8,5.6
		c-1.2,1.8-2.9,2.6-5.6,2.9c-0.6,0.1-1.2,0.1-1.8,0.1c-1.2,0-2.4-0.1-3.8-0.1c-1.8-0.3-3.7-0.5-5.6-0.6v15.6
		c1.9,0.3,3.9,0.5,5.9,0.6c2,0.3,3.9,0.4,5.9,0.3c6.5,0,11.5-1.2,15.3-3.5c3.5-2.4,6.5-6.5,8.5-12l28.8-77.6H517.5z M506.9,105.1
		c-1.9,5.1-4.6,9-7.8,11.2c-3.5,2.2-8.2,3.3-14.3,3.3c-1.9,0.1-3.8,0-5.6-0.3h-0.2c-1.4,0-2.8-0.1-4.2-0.4v-12.3
		c0.8,0.1,1.6,0.2,2.5,0.3l1.2,0.2h0.2c0.6,0,1.3,0,1.9,0.1c0.6,0.1,1.2,0.1,1.9,0.1c0.7,0,1.3,0,2-0.2c3.2-0.4,5.3-1.5,6.8-3.7
		c1.3-1.9,2-4.2,2-6.6c0-1.7-0.4-3.4-1-5l-23.2-62.3h16.2l15.2,46.1l0.4,1.2h2.8l0.4-1.2l14.9-45.8h16L506.9,105.1z"/>
	<path class="st0" d="M463.7,81.6V45.9c0-4.1-0.9-7.3-2.9-10c-2-2.4-4.5-4.4-7.4-5.9c-3.1-1.5-6.3-2.4-9.7-2.9
		c-3.5-0.6-7-0.9-10.6-0.9l0,0c-3.8,0-7.7,0.4-11.4,1.2c-3.6,0.7-7.1,2-10.3,3.8c-3.1,1.7-5.7,4.1-7.6,7c-2.3,3.2-3.2,7.2-2.6,11.1
		h19c0.1-3.1,1.5-5.9,3.8-7.9c2.6-1.7,5.7-2.5,8.8-2.4c1.6-0.1,3.2,0,4.7,0.3c1.3,0.1,2.6,0.5,3.8,1.2c1.1,0.8,2.1,1.8,2.7,3
		c0.7,1.5,1,3.1,0.9,4.7c0.1,1.7-0.5,3.3-1.8,4.4c-1.4,1.2-3.2,2-5,2.4c-2.4,0.6-4.9,1-7.3,1.2c-2.9,0.1-5.7,0.4-8.5,0.9
		c-2.9,0.3-5.7,0.9-8.5,1.8c-2.7,0.8-5.3,1.9-7.6,3.5c-2.2,1.6-4,3.7-5.3,6.2c-1.5,3-2.2,6.3-2,9.7c-0.1,3.1,0.5,6.2,1.8,9.1
		c1.1,2.5,2.9,4.7,5,6.5c2.3,1.7,4.9,3,7.6,3.8c3,0.9,6,1.3,9.1,1.2c4.3-0.1,8.5-0.7,12.6-2c4-1.3,7.6-3.5,10.6-6.5
		c0.3,1.2,0.3,2.4,0.6,3.5s0.6,2.4,0.9,3.2h19.4c-1.2-1.5-1.8-3.5-2-6.5C463.9,87.6,463.6,84.6,463.7,81.6z M448.2,95.2
		c-0.1-0.3-0.2-0.7-0.3-1.1l-0.2-0.8c-0.1-0.5-0.2-1.1-0.3-1.7c-0.1-0.6-0.2-1.2-0.3-1.8l-0.7-3l-2.2,2.2c-2.8,2.7-6.1,4.8-9.8,6
		c-3.9,1.2-8,1.9-12.1,2c-2.9,0.1-5.8-0.3-8.6-1.1c-2.5-0.7-4.9-1.9-7.1-3.5c-1.9-1.6-3.5-3.6-4.5-5.8c-1.1-2.7-1.7-5.5-1.6-8.4
		c0-3.8,0.6-6.6,1.8-8.8c1.1-2.2,2.8-4.1,4.8-5.6c2.2-1.5,4.6-2.6,7.1-3.3c2.7-0.8,5.4-1.4,8.2-1.7c1-0.1,2-0.2,2.9-0.4
		c1.8-0.3,3.6-0.5,5.4-0.5h0.2c2.6-0.2,5.1-0.6,7.6-1.2c2.1-0.4,4-1.4,5.6-2.7c1.6-1.5,2.5-3.6,2.3-5.7c0.1-1.9-0.3-3.8-1.1-5.5
		c-0.8-1.4-1.8-2.6-3.1-3.5l-0.1-0.1l-0.1-0.1H442c-1.3-0.7-2.7-1.2-4.2-1.3c-1.6-0.3-3.3-0.4-4.9-0.3c-3.5-0.2-6.9,0.7-9.9,2.6
		h-0.1c-2.2,1.9-3.7,4.6-4.2,7.5h-16c-0.1-3,0.7-6,2.5-8.4c1.8-2.7,4.2-4.9,7-6.5c3.1-1.7,6.4-2.9,9.9-3.6c3.6-0.8,7.3-1.2,11-1.1
		h0.1c3.4,0,6.9,0.3,10.3,0.9c3.2,0.5,6.3,1.4,9.2,2.8c2.6,1.4,4.9,3.2,6.8,5.5c1.7,2.3,2.5,5.1,2.5,8.9v35.7
		c-0.1,3,0.1,6.1,0.6,9.1c0.1,1.5,0.4,3,0.9,4.5H448.2z"/>
	<path class="st0" d="M591,61.4c-2.1-1.5-4.5-2.7-7-3.5c-2.6-1-5.3-1.8-8-2.4c-2.7-0.6-5.3-1.2-7.9-1.8c-2.4-0.6-4.7-1.2-6.8-1.8
		c-1.7-0.6-3.3-1.5-4.7-2.7c-1.3-0.9-2.1-2.5-2-4.1c0-1.5,0-2.7,0.9-3.5c0.7-0.9,1.6-1.6,2.7-2c1.1-0.6,2.3-0.9,3.5-0.9
		c1.2-0.2,2.3-0.3,3.5-0.3c3,0,6.1,0.7,8.8,2c2.4,1.2,3.8,3.5,4.1,7.3H596c-0.2-3.7-1.3-7.3-3.2-10.6c-1.6-2.8-4-5.1-6.8-6.8
		c-3-1.6-6.2-2.8-9.4-3.5c-3.6-0.6-7.2-0.9-10.9-0.9l0,0c-3.6,0-7.3,0.3-10.9,0.9c-3.4,0.6-6.7,1.8-9.7,3.5c-2.7,1.7-5,4-6.8,6.8
		c-1.8,2.7-2.7,6.5-2.7,10.9c0,2.7,0.7,5.3,2,7.6c1.1,2.2,2.8,4.1,5,5.3c2.2,1.3,4.6,2.4,7,3.2c2.4,0.6,5,1.5,7.9,2
		c5.4,1.1,10.7,2.6,15.8,4.4c3.8,1.5,5.9,3.5,5.9,6.5c0.1,1.5-0.4,2.9-1.2,4.1c-0.7,1.1-1.7,2.1-2.9,2.7c-1.2,0.7-2.5,1.2-3.8,1.5
		c-1.3,0.5-2.7,0.6-4.1,0.6c-1.8,0.1-3.6-0.1-5.3-0.6c-1.7-0.3-3.3-1-4.7-2c-1.3-1-2.4-2.2-3.2-3.5c-0.9-1.5-1.2-3.2-2-5h-17.9
		c0.3,4.7,1.2,8.5,3.2,11.4c1.9,2.9,4.4,5.4,7.3,7.3c3.2,1.8,6.7,3.1,10.3,3.8c3.9,0.8,7.8,1.2,11.7,1.2c3.8,0,7.7-0.4,11.4-1.2
		c3.6-0.4,7-1.8,10-3.8c2.9-1.8,5.3-4.4,7-7.3c1.9-3.5,2.8-7.5,2.7-11.5c0-2.8-0.7-5.5-2-7.9C594.8,64.8,593.1,62.8,591,61.4z
		 M593.9,85.4c-1.6,2.7-3.8,5-6.4,6.7h-0.1c-2.8,1.9-5.9,3.1-9.3,3.5H578c-3.6,0.8-7.3,1.2-11,1.1c-3.8,0-7.6-0.3-11.4-1.1
		c-3.4-0.7-6.7-1.9-9.7-3.6c-2.7-1.7-5.1-3.9-6.9-6.6v-0.1c-1.5-2.1-2.3-4.9-2.8-8.7h14.9c0.1,0.4,0.3,0.8,0.4,1.2
		c0.3,1,0.7,2,1.3,3c1,1.6,2.2,2.9,3.7,4c1.6,1.2,3.4,2,5.3,2.3c1.9,0.5,3.8,0.7,5.7,0.6c1.6,0.1,3.1-0.1,4.6-0.6
		c1.5-0.3,2.9-0.9,4.2-1.7c1.4-0.8,2.6-1.8,3.4-3.1c1.1-1.5,1.6-3.3,1.5-5.1c0-3.6-2.3-6.3-7-8.1c-5.2-1.9-10.6-3.4-16.1-4.5
		c-1.8-0.3-3.4-0.8-5-1.3c-1-0.3-1.9-0.5-2.8-0.8c-2.3-0.8-4.5-1.8-6.7-3.1c-1.9-1.1-3.4-2.6-4.3-4.6c-1.2-2.1-1.8-4.4-1.8-6.8
		c0-4.2,0.8-7.6,2.4-9.9c1.5-2.5,3.6-4.7,6.1-6.3c2.8-1.6,5.8-2.8,9-3.3c3.5-0.6,7-0.8,10.6-0.9l0,0c3.5,0,7,0.3,10.5,0.8
		c3.1,0.7,6.1,1.8,8.9,3.3c2.6,1.5,4.7,3.6,6.2,6.2c1.4,2.5,2.4,5.2,2.8,8h-14.5c-0.6-3.4-2.2-5.8-4.8-7.2c-3-1.4-6.2-2.1-9.5-2.2
		c-1.2,0-2.5,0.1-3.7,0.3c-1.4,0-2.8,0.4-4,1c-1.3,0.5-2.5,1.4-3.3,2.5c-1.3,1.4-1.3,3-1.3,4.6c-0.1,2.2,0.9,4.2,2.7,5.5
		c1.6,1.2,3.3,2.2,5.2,2.9c2,0.5,4.3,1.2,6.8,1.8l4,0.9l4,0.9c2.6,0.6,5.2,1.3,7.7,2.3h0.1c2.4,0.8,4.6,1.9,6.7,3.3
		c1.9,1.3,3.4,3,4.5,5c1.2,2.2,1.9,4.6,1.8,7.1C596.4,78.5,595.6,82.2,593.9,85.4L593.9,85.4z"/>
</g>
</svg>
