<svg id="Layer_1" data-name="Layer 1" xmlns="http://www.w3.org/2000/svg" viewBox="0 0 600 123">
  <title>scala-days-logo</title>
  <g>
    <path d="M11.35,79.1A21.83,21.83,0,0,0,18.12,87a27.62,27.62,0,0,0,10,4.11,55.37,55.37,0,0,0,12.35,1.18,42.13,42.13,0,0,0,8.21-.87c2.93-.87,5.89-1.75,8.21-3.53A20.47,20.47,0,0,0,63.34,82,14.37,14.37,0,0,0,66,73.21a12.18,12.18,0,0,0-1.75-6.76,24.28,24.28,0,0,0-4.71-5,42.87,42.87,0,0,0-6.46-3.23c-2.36-.87-4.71-1.48-6.76-2.05L25.18,50.9c-2.93-.87-5.59-1.75-7.94-2.66a18.16,18.16,0,0,1-6.76-4.41,17.38,17.38,0,0,1-4.71-6.46A23.37,23.37,0,0,1,4,28,30.81,30.81,0,0,1,5.2,19.78a24.78,24.78,0,0,1,5-8.82c2.36-2.93,5.89-5,10-7C24.58,1.87,29.86,1,36.63,1A41.29,41.29,0,0,1,50.12,3.05,28.43,28.43,0,0,1,61.29,8.64,26.46,26.46,0,0,1,68.93,18a26.25,26.25,0,0,1,2.93,12.92H62.74a20.43,20.43,0,0,0-2.36-9.69,22,22,0,0,0-5.89-6.76,24.13,24.13,0,0,0-8.21-4.11,33.64,33.64,0,0,0-9.69-1.48,49.51,49.51,0,0,0-9.12.87A19.66,19.66,0,0,0,19.83,13a20.83,20.83,0,0,0-5.28,5.89,19.48,19.48,0,0,0-2.05,8.82,13.37,13.37,0,0,0,1.18,5.89,11.12,11.12,0,0,0,3.23,4.11,17.84,17.84,0,0,0,4.71,2.93,30.14,30.14,0,0,0,5.59,1.75l23.19,5.89a72.64,72.64,0,0,1,9.69,3.23A35.11,35.11,0,0,1,68,56.22a17.85,17.85,0,0,1,5.28,7,27.08,27.08,0,0,1,1.75,14.4,27.79,27.79,0,0,1-1.75,5.89,32,32,0,0,1-3.53,6.16,25.05,25.05,0,0,1-6.46,5.59,31,31,0,0,1-10,3.8,66.07,66.07,0,0,1-14.4,1.48,52.27,52.27,0,0,1-15.58-2.05A34.18,34.18,0,0,1,11,92.63a24,24,0,0,1-7.57-10.3,33.66,33.66,0,0,1-2.36-15h9.12A17.46,17.46,0,0,0,11.35,79.1Z" fill="#de3423"/>
    <g style="isolation: isolate">
      <path d="M124.69,38.89c-2.93-2.93-7.64-4.41-13.22-4.41a20.71,20.71,0,0,0-10.57,2.66,23.61,23.61,0,0,0-7.64,6.76,35.61,35.61,0,0,0-4.71,9.39,44,44,0,0,0-1.48,10.57,38.9,38.9,0,0,0,1.48,10.57,25.45,25.45,0,0,0,4.71,9.39,24.42,24.42,0,0,0,7.64,6.76,21.05,21.05,0,0,0,10.57,2.66,19.82,19.82,0,0,0,7.34-1.48A17.36,17.36,0,0,0,125,87.65a23.53,23.53,0,0,0,4.41-6.16,17.59,17.59,0,0,0,2.05-7.94h8.51c-1.18,8.51-4.11,15-9.12,19.69s-11.44,7-19.38,7a31.11,31.11,0,0,1-14.1-2.93A30,30,0,0,1,87.1,89.7a30.56,30.56,0,0,1-6.16-11.44,44,44,0,0,1-2.05-14.1,54.44,54.44,0,0,1,2.05-14.1A36.21,36.21,0,0,1,87.1,38.62a34.28,34.28,0,0,1,10.26-7.94,31.11,31.11,0,0,1,14.1-2.93,31.14,31.14,0,0,1,18.81,5.89c5.28,3.8,8.21,9.69,9.12,17.63h-8.55C130,45.65,127.92,41.82,124.69,38.89Zm24.48.87a21,21,0,0,1,14.71-11.44,41.39,41.39,0,0,1,10.87-1.18,49.51,49.51,0,0,1,9.12.87,24.51,24.51,0,0,1,8.21,3.23A18.68,18.68,0,0,1,198,38a25.36,25.36,0,0,1,2.36,11.44V86.17c0,3.53,1.75,5,5,5a4.11,4.11,0,0,0,2.66-.57v7c-.87,0-2.05.3-2.66.3h-2.93a11.91,11.91,0,0,1-5-.87,7.74,7.74,0,0,1-2.93-2.36c-.87-.87-1.18-2.36-1.48-3.8a22.94,22.94,0,0,1-.3-4.71h-.3a46.92,46.92,0,0,1-4.71,5.89,19.74,19.74,0,0,1-5.28,4.41,25.37,25.37,0,0,1-6.46,2.66,38,38,0,0,1-8.82.87A31.4,31.4,0,0,1,158,98.82a24,24,0,0,1-7.34-3.53,19.9,19.9,0,0,1-5-6.16A21.94,21.94,0,0,1,143.92,80c0-4.71.87-8.51,3.23-11.44a20.22,20.22,0,0,1,8.51-6.16,48,48,0,0,1,11.74-2.93c4.41-.57,8.82-1.18,13.49-1.75a25.07,25.07,0,0,0,4.71-.57,10.55,10.55,0,0,0,3.23-1.48A6.25,6.25,0,0,0,190.9,53a10.59,10.59,0,0,0,.87-4.71,15.28,15.28,0,0,0-1.48-7,11.09,11.09,0,0,0-3.8-4.41,17.63,17.63,0,0,0-5.89-2.05,47.56,47.56,0,0,0-7-.57c-5.28,0-9.69,1.18-13.22,3.8s-5.28,6.76-5.28,12.35h-8.51A27.29,27.29,0,0,1,149.17,39.77Zm42,20.86a4.55,4.55,0,0,1-2.93,2.05,31.37,31.37,0,0,1-3.8.87l-10.87,1.75a77.77,77.77,0,0,0-10.26,2.05,19.07,19.07,0,0,0-7.64,4.11c-2.05,1.75-2.93,4.41-2.93,7.64A13.37,13.37,0,0,0,153.91,85a16.71,16.71,0,0,0,3.53,4.41,13.86,13.86,0,0,0,5,2.66,20.8,20.8,0,0,0,5.89.87,30.44,30.44,0,0,0,9.12-1.48A18.06,18.06,0,0,0,185.07,87a30,30,0,0,0,5.28-6.76,18.84,18.84,0,0,0,2.05-9.12V60.29l-1.25.34Z" fill="#de3423"/>
    </g>
    <path d="M221.08,2.75V98.18h-8.51V2.75Zm10.9,37a21,21,0,0,1,14.71-11.44,41.39,41.39,0,0,1,10.87-1.18,49.51,49.51,0,0,1,9.12.87,24.51,24.51,0,0,1,8.21,3.23A18.68,18.68,0,0,1,280.77,38a25.36,25.36,0,0,1,2.36,11.44V86.17c0,3.53,1.75,5,5,5a4.11,4.11,0,0,0,2.66-.57v7c-.87,0-2.05.3-2.66.3h-2.93a11.91,11.91,0,0,1-5-.87,9,9,0,0,1-4.68-5.89,23.11,23.11,0,0,1-.3-4.71h-.3a46.92,46.92,0,0,1-4.71,5.89,25,25,0,0,1-5.28,4.41,25.37,25.37,0,0,1-6.46,2.66,38,38,0,0,1-8.82.87,31.4,31.4,0,0,1-9.12-1.18,24,24,0,0,1-7.34-3.53,19.9,19.9,0,0,1-5-6.16,21.94,21.94,0,0,1-1.75-9.12c0-4.71.87-8.51,3.23-11.44a20.22,20.22,0,0,1,8.51-6.16,48,48,0,0,1,11.74-2.93c4.41-.57,8.82-1.18,13.49-1.75a25.07,25.07,0,0,0,4.71-.57A10.55,10.55,0,0,0,271.38,56a6.25,6.25,0,0,0,2.05-2.66,10.59,10.59,0,0,0,.87-4.71,15.28,15.28,0,0,0-1.48-7,11.09,11.09,0,0,0-3.8-4.41,17.63,17.63,0,0,0-5.89-2.05,47.56,47.56,0,0,0-7-.57c-5.28,0-9.69,1.18-13.22,3.8s-5.28,6.76-5.28,12.35h-8.51A34.37,34.37,0,0,1,232,39.77Zm42,20.86A4.55,4.55,0,0,1,271,62.68a11.89,11.89,0,0,1-3.8.87l-10.87,1.75a73.66,73.66,0,0,0-10.57,2.05,19.07,19.07,0,0,0-7.64,4.11c-2.05,1.75-2.93,4.41-2.93,7.64A13.37,13.37,0,0,0,236.42,85,16.71,16.71,0,0,0,240,89.4a13.86,13.86,0,0,0,5,2.66,20.8,20.8,0,0,0,5.89.87,30.44,30.44,0,0,0,9.12-1.48A18.06,18.06,0,0,0,267.58,87a30,30,0,0,0,5.28-6.76,18.84,18.84,0,0,0,2.05-9.12V60.29l-.94.34Z" fill="#de3423"/>
    <g style="isolation: isolate">
      <path d="M353.92,2.75a49,49,0,0,1,17.33,2.93c5.28,2.05,10,4.71,13.8,8.82a43.37,43.37,0,0,1,9.12,14.67,61.75,61.75,0,0,1,3.23,20.56,68,68,0,0,1-2.66,19.38,44,44,0,0,1-7.94,15.28,35.43,35.43,0,0,1-13.49,10,46.88,46.88,0,0,1-19.08,3.8H313.1V2.75Zm-1.45,77.83a29.9,29.9,0,0,0,8.82-1.48,20.85,20.85,0,0,0,7.64-4.71,32.24,32.24,0,0,0,5.28-8.82,44.81,44.81,0,0,0,2.05-13.49,56.12,56.12,0,0,0-1.48-12.92,24.28,24.28,0,0,0-4.71-10c-2.05-2.93-5-4.71-8.51-6.46s-7.64-2.36-12.92-2.36h-15v60.2C334,80.58,352.47,80.58,352.47,80.58Z" fill="#de3423"/>
      <path d="M404.79,39.19a21.91,21.91,0,0,1,7.64-7,35.68,35.68,0,0,1,10.26-3.8,50.83,50.83,0,0,1,11.44-1.18,65.83,65.83,0,0,1,10.57.87A33.91,33.91,0,0,1,454.39,31a23.71,23.71,0,0,1,7.34,5.89c2.05,2.66,2.93,5.89,2.93,10V82.64a44.32,44.32,0,0,0,.57,8.82c.3,2.93.87,5,2.05,6.46H447.89c-.3-.87-.57-2.05-.87-3.23s-.3-2.36-.57-3.53a26.59,26.59,0,0,1-10.57,6.46,45.21,45.21,0,0,1-12.62,2.05,30.09,30.09,0,0,1-9.12-1.18,23.57,23.57,0,0,1-7.64-3.8,18,18,0,0,1-5-6.46,21.94,21.94,0,0,1-1.75-9.12,19.65,19.65,0,0,1,2.05-9.69,18.13,18.13,0,0,1,5.28-6.16,25.86,25.86,0,0,1,7.64-3.53A42.55,42.55,0,0,1,423.26,58a81.1,81.1,0,0,1,8.51-.87,41.84,41.84,0,0,0,7.34-1.18,11.09,11.09,0,0,0,5-2.36,5.54,5.54,0,0,0,1.75-4.41,9.82,9.82,0,0,0-.87-4.71,8.11,8.11,0,0,0-2.66-2.93,8.55,8.55,0,0,0-3.8-1.18,23.11,23.11,0,0,0-4.71-.3c-3.8,0-6.76.87-8.82,2.36a11.26,11.26,0,0,0-3.8,7.94h-19A15.42,15.42,0,0,1,404.79,39.19Zm37.28,26.72a17.69,17.69,0,0,1-3.8.87,22,22,0,0,1-4.41.57,32.49,32.49,0,0,0-4.71.57c-1.48.3-2.93.57-4.11.87-1.48.57-2.66.87-3.53,1.75s-2.05,1.75-2.36,2.93a10.08,10.08,0,0,0-.87,4.41,11.08,11.08,0,0,0,.87,4.41A5.81,5.81,0,0,0,421.81,85a12.12,12.12,0,0,0,3.8,1.48,21.43,21.43,0,0,0,4.41.3c3.8,0,6.76-.57,8.82-2.05a13.84,13.84,0,0,0,4.71-4.41A18.05,18.05,0,0,0,445.3,75a24.55,24.55,0,0,0,.3-4.41v-7A6.24,6.24,0,0,1,442.07,65.91Zm58.84,52.86c-3.8,2.36-8.82,3.53-15.28,3.53a38.59,38.59,0,0,1-5.89-.3,44.13,44.13,0,0,1-5.89-.57V105.85a44.31,44.31,0,0,1,5.59.57,34.36,34.36,0,0,0,5.59,0c2.66-.3,4.41-1.18,5.59-2.93a9.63,9.63,0,0,0,1.75-5.59,12.1,12.1,0,0,0-.87-4.41L467.39,28.9h20l15.58,47.28h.3l15.28-47h19.69l-28.77,77.53C507.37,112.32,504.41,116.42,500.91,118.78Z" fill="#de3423"/>
      <path d="M555.22,80.89a12.19,12.19,0,0,0,3.23,3.53,11.6,11.6,0,0,0,4.71,2.05,16.66,16.66,0,0,0,5.28.57,10.87,10.87,0,0,0,4.11-.57,11.08,11.08,0,0,0,3.8-1.48,8.11,8.11,0,0,0,2.93-2.66,6.82,6.82,0,0,0,1.18-4.11c0-2.93-2.05-5-5.89-6.46a113.25,113.25,0,0,0-15.85-4.41c-2.93-.57-5.59-1.48-7.94-2.05a37.85,37.85,0,0,1-7-3.23,12.43,12.43,0,0,1-5-5.28,15.5,15.5,0,0,1-2.05-7.64c0-4.41.87-8.21,2.66-10.87a21.28,21.28,0,0,1,6.76-6.76A27.89,27.89,0,0,1,555.83,28a69.61,69.61,0,0,1,10.87-.87,67.07,67.07,0,0,1,10.87.87A37.9,37.9,0,0,1,587,31.52a18.62,18.62,0,0,1,6.76,6.76,23.82,23.82,0,0,1,3.23,10.57H579c-.3-3.8-1.75-6.16-4.11-7.34a21.62,21.62,0,0,0-8.82-2.05,16.52,16.52,0,0,0-3.53.3,8.05,8.05,0,0,0-3.53.87,6.2,6.2,0,0,0-2.66,2.05c-.87.87-.87,2.05-.87,3.53a4.74,4.74,0,0,0,2.05,4.11A18.37,18.37,0,0,0,562.29,53c2.05.57,4.41,1.18,6.76,1.75,2.66.57,5.28,1.18,7.94,1.75a50.48,50.48,0,0,1,7.94,2.36,25.53,25.53,0,0,1,7,3.53,15.34,15.34,0,0,1,5,5.59A15.81,15.81,0,0,1,599,75.91a22.49,22.49,0,0,1-2.66,11.44,21,21,0,0,1-7,7.34,22.64,22.64,0,0,1-10,3.8,50.83,50.83,0,0,1-11.44,1.18,53.5,53.5,0,0,1-11.74-1.18,35.68,35.68,0,0,1-10.26-3.8,25,25,0,0,1-7.34-7.34c-2.05-2.93-2.93-6.76-3.23-11.44h17.9C554,77.66,554.35,79.41,555.22,80.89Z" fill="#de3423"/>
    </g>
  </g>
</svg>
