<svg width="135" height="261" viewBox="0 0 135 261" xmlns="http://www.w3.org/2000/svg" xmlns:xlink="http://www.w3.org/1999/xlink" xmlns:sketch="http://www.bohemiancoding.com/sketch/ns"><title>scala_graphic</title><desc>Created with Sketch.</desc><defs><path id="a" d="M0 0h167v261h-167z"/></defs><g transform="translate(-32)" sketch:type="MSLayerGroup" fill="none"><mask id="b" sketch:name="Mask"><use xlink:href="#a"/></mask><use sketch:type="MSShapeGroup" xlink:href="#a"/><g sketch:type="MSShapeGroup" mask="url(#b)"><path d="M77.874 134.745c25.169-1.362 49.372-4.956 74.688-3.799 12.4.567 25.221 1.352 37.439-1.368 5.296-1.178 10.468-3.126 14.921-6.258 11.208-7.888 13.445-27.741 14.98-40.06 1.037-8.335 4.821-23.648-3.269-29.23-7.933-5.473-33.448-9.352-43.908-6.63-7.5 1.956-13.929 8.153-20.585 11.794-21.199 11.595-43.75 20.657-64.575 32.948-9.245 5.457-18.832 11.762-25.553 20.288-2.372 3.004-10.086 15.639-6.288 21.244 1.472.829 3.644 1.031 5.284 1.165 5.588.456 11.284.209 16.868-.094" fill="#C64144"/><path d="M249.913 143.645c-4.892-14.012-49.267-13.394-62.271-10.262-8.679 2.09-15.783 9.179-23.237 13.687-19.122 11.562-39.306 22.048-56.723 36.137-3.112 2.517-25.886 29.318-22.486 34.9 2.458.525 3.906 1.201 9.549 1.358 22.2.626 44.026-4.396 66.129-5.281 18.874-.755 38.389 1.707 57.03-2.26 21.269-4.53 28.123-20.717 31.169-41.267 1.089-7.354 3.353-19.809.839-27.013" fill="#C64144"/><path d="M164.246 2.305c-36.057 25.372-97.368 53.908-131.632 65.761l-.053.019c3.41 9.769 15.365 44.018 22.711 65.064.067.188.217.364.45.525 23.373-8.137 92.95-40.635 132.313-67.614 7.59-5.201 14.804-10.457 19.709-15.07 4.501-4.235 7.056-7.93 6.143-10.541-7.502-21.493-19.82-56.779-22.925-65.671 2.159 6.185-12.121 17.257-26.716 27.527" fill="#E15F5E"/><path d="M193.72 86.739c-21.578 15.183-52.179 31.492-80.626 44.684-19.103 8.858-37.233 16.313-51.006 21.077l-.053.019c3.41 9.769 15.365 44.018 22.711 65.064.067.188.219.364.45.525 23.373-8.137 92.95-40.635 132.313-67.614 7.59-5.201 14.806-10.457 19.709-15.07 4.501-4.235 7.056-7.93 6.143-10.541-1.697-4.864-3.641-10.436-5.67-16.244l-17.253-49.427c2.157 6.185-12.123 17.257-26.718 27.527" fill="#E15F5E"/><path d="M223.195 171.172c-21.578 15.183-52.179 31.492-80.626 44.684-19.128 8.871-37.281 16.334-51.059 21.096 3.892 11.152 17.587 50.381 22.923 65.671 23.144-8.001 93.058-40.629 132.55-67.696 14.555-9.976 27.757-20.156 25.852-25.611-1.697-4.864-3.641-10.436-5.67-16.244l-17.253-49.427c2.157 6.185-12.123 17.257-26.718 27.527" fill="#E15F5E"/></g></g></svg>